%TF.GenerationSoftware,KiCad,Pcbnew,(5.1.6-0)*%
%TF.CreationDate,2024-01-23T19:11:50-08:00*%
%TF.ProjectId,psu_4caps,7073755f-3463-4617-9073-2e6b69636164,rev?*%
%TF.SameCoordinates,Original*%
%TF.FileFunction,Legend,Bot*%
%TF.FilePolarity,Positive*%
%FSLAX46Y46*%
G04 Gerber Fmt 4.6, Leading zero omitted, Abs format (unit mm)*
G04 Created by KiCad (PCBNEW (5.1.6-0)) date 2024-01-23 19:11:50*
%MOMM*%
%LPD*%
G01*
G04 APERTURE LIST*
%ADD10C,0.150000*%
G04 APERTURE END LIST*
D10*
X92892857Y-124702380D02*
X92892857Y-125416666D01*
X92940476Y-125559523D01*
X93035714Y-125654761D01*
X93178571Y-125702380D01*
X93273809Y-125702380D01*
X91988095Y-125702380D02*
X91988095Y-125178571D01*
X92035714Y-125083333D01*
X92130952Y-125035714D01*
X92321428Y-125035714D01*
X92416666Y-125083333D01*
X91988095Y-125654761D02*
X92083333Y-125702380D01*
X92321428Y-125702380D01*
X92416666Y-125654761D01*
X92464285Y-125559523D01*
X92464285Y-125464285D01*
X92416666Y-125369047D01*
X92321428Y-125321428D01*
X92083333Y-125321428D01*
X91988095Y-125273809D01*
X91511904Y-125035714D02*
X91511904Y-125702380D01*
X91511904Y-125130952D02*
X91464285Y-125083333D01*
X91369047Y-125035714D01*
X91226190Y-125035714D01*
X91130952Y-125083333D01*
X91083333Y-125178571D01*
X91083333Y-125702380D01*
X90178571Y-125035714D02*
X90178571Y-125702380D01*
X90607142Y-125035714D02*
X90607142Y-125559523D01*
X90559523Y-125654761D01*
X90464285Y-125702380D01*
X90321428Y-125702380D01*
X90226190Y-125654761D01*
X90178571Y-125607142D01*
X89273809Y-125702380D02*
X89273809Y-125178571D01*
X89321428Y-125083333D01*
X89416666Y-125035714D01*
X89607142Y-125035714D01*
X89702380Y-125083333D01*
X89273809Y-125654761D02*
X89369047Y-125702380D01*
X89607142Y-125702380D01*
X89702380Y-125654761D01*
X89750000Y-125559523D01*
X89750000Y-125464285D01*
X89702380Y-125369047D01*
X89607142Y-125321428D01*
X89369047Y-125321428D01*
X89273809Y-125273809D01*
X88797619Y-125702380D02*
X88797619Y-125035714D01*
X88797619Y-125226190D02*
X88750000Y-125130952D01*
X88702380Y-125083333D01*
X88607142Y-125035714D01*
X88511904Y-125035714D01*
X88273809Y-125035714D02*
X88035714Y-125702380D01*
X87797619Y-125035714D02*
X88035714Y-125702380D01*
X88130952Y-125940476D01*
X88178571Y-125988095D01*
X88273809Y-126035714D01*
X86702380Y-124797619D02*
X86654761Y-124750000D01*
X86559523Y-124702380D01*
X86321428Y-124702380D01*
X86226190Y-124750000D01*
X86178571Y-124797619D01*
X86130952Y-124892857D01*
X86130952Y-124988095D01*
X86178571Y-125130952D01*
X86750000Y-125702380D01*
X86130952Y-125702380D01*
X85511904Y-124702380D02*
X85416666Y-124702380D01*
X85321428Y-124750000D01*
X85273809Y-124797619D01*
X85226190Y-124892857D01*
X85178571Y-125083333D01*
X85178571Y-125321428D01*
X85226190Y-125511904D01*
X85273809Y-125607142D01*
X85321428Y-125654761D01*
X85416666Y-125702380D01*
X85511904Y-125702380D01*
X85607142Y-125654761D01*
X85654761Y-125607142D01*
X85702380Y-125511904D01*
X85750000Y-125321428D01*
X85750000Y-125083333D01*
X85702380Y-124892857D01*
X85654761Y-124797619D01*
X85607142Y-124750000D01*
X85511904Y-124702380D01*
X84797619Y-124797619D02*
X84750000Y-124750000D01*
X84654761Y-124702380D01*
X84416666Y-124702380D01*
X84321428Y-124750000D01*
X84273809Y-124797619D01*
X84226190Y-124892857D01*
X84226190Y-124988095D01*
X84273809Y-125130952D01*
X84845238Y-125702380D01*
X84226190Y-125702380D01*
X83369047Y-125035714D02*
X83369047Y-125702380D01*
X83607142Y-124654761D02*
X83845238Y-125369047D01*
X83226190Y-125369047D01*
X92690476Y-127452380D02*
X93023809Y-126976190D01*
X93261904Y-127452380D02*
X93261904Y-126452380D01*
X92880952Y-126452380D01*
X92785714Y-126500000D01*
X92738095Y-126547619D01*
X92690476Y-126642857D01*
X92690476Y-126785714D01*
X92738095Y-126880952D01*
X92785714Y-126928571D01*
X92880952Y-126976190D01*
X93261904Y-126976190D01*
X91880952Y-127404761D02*
X91976190Y-127452380D01*
X92166666Y-127452380D01*
X92261904Y-127404761D01*
X92309523Y-127309523D01*
X92309523Y-126928571D01*
X92261904Y-126833333D01*
X92166666Y-126785714D01*
X91976190Y-126785714D01*
X91880952Y-126833333D01*
X91833333Y-126928571D01*
X91833333Y-127023809D01*
X92309523Y-127119047D01*
X91500000Y-126785714D02*
X91261904Y-127452380D01*
X91023809Y-126785714D01*
X90690476Y-126547619D02*
X90642857Y-126500000D01*
X90547619Y-126452380D01*
X90309523Y-126452380D01*
X90214285Y-126500000D01*
X90166666Y-126547619D01*
X90119047Y-126642857D01*
X90119047Y-126738095D01*
X90166666Y-126880952D01*
X90738095Y-127452380D01*
X90119047Y-127452380D01*
X89690476Y-127357142D02*
X89642857Y-127404761D01*
X89690476Y-127452380D01*
X89738095Y-127404761D01*
X89690476Y-127357142D01*
X89690476Y-127452380D01*
X89023809Y-126452380D02*
X88928571Y-126452380D01*
X88833333Y-126500000D01*
X88785714Y-126547619D01*
X88738095Y-126642857D01*
X88690476Y-126833333D01*
X88690476Y-127071428D01*
X88738095Y-127261904D01*
X88785714Y-127357142D01*
X88833333Y-127404761D01*
X88928571Y-127452380D01*
X89023809Y-127452380D01*
X89119047Y-127404761D01*
X89166666Y-127357142D01*
X89214285Y-127261904D01*
X89261904Y-127071428D01*
X89261904Y-126833333D01*
X89214285Y-126642857D01*
X89166666Y-126547619D01*
X89119047Y-126500000D01*
X89023809Y-126452380D01*
M02*
