%TF.GenerationSoftware,KiCad,Pcbnew,(5.1.6-0)*%
%TF.CreationDate,2024-01-23T19:11:50-08:00*%
%TF.ProjectId,psu_4caps,7073755f-3463-4617-9073-2e6b69636164,rev?*%
%TF.SameCoordinates,Original*%
%TF.FileFunction,Legend,Top*%
%TF.FilePolarity,Positive*%
%FSLAX46Y46*%
G04 Gerber Fmt 4.6, Leading zero omitted, Abs format (unit mm)*
G04 Created by KiCad (PCBNEW (5.1.6-0)) date 2024-01-23 19:11:50*
%MOMM*%
%LPD*%
G01*
G04 APERTURE LIST*
%ADD10C,0.150000*%
%ADD11C,0.120000*%
%ADD12C,0.200000*%
%ADD13C,0.100000*%
%ADD14C,0.254000*%
G04 APERTURE END LIST*
D10*
X49757157Y-61202380D02*
X49882157Y-60202380D01*
X50263110Y-60202380D01*
X50352395Y-60250000D01*
X50394062Y-60297619D01*
X50429776Y-60392857D01*
X50411919Y-60535714D01*
X50352395Y-60630952D01*
X50298824Y-60678571D01*
X50197633Y-60726190D01*
X49816681Y-60726190D01*
X51185729Y-61202380D02*
X51251205Y-60678571D01*
X51215491Y-60583333D01*
X51126205Y-60535714D01*
X50935729Y-60535714D01*
X50834538Y-60583333D01*
X51191681Y-61154761D02*
X51090491Y-61202380D01*
X50852395Y-61202380D01*
X50763110Y-61154761D01*
X50727395Y-61059523D01*
X50739300Y-60964285D01*
X50798824Y-60869047D01*
X50900014Y-60821428D01*
X51138110Y-60821428D01*
X51239300Y-60773809D01*
X51650014Y-60535714D02*
X51804776Y-61202380D01*
X52126205Y-60535714D01*
X52566681Y-61202380D02*
X52477395Y-61154761D01*
X52441681Y-61059523D01*
X52548824Y-60202380D01*
X53090491Y-61202380D02*
X53001205Y-61154761D01*
X52959538Y-61107142D01*
X52923824Y-61011904D01*
X52959538Y-60726190D01*
X53019062Y-60630952D01*
X53072633Y-60583333D01*
X53173824Y-60535714D01*
X53316681Y-60535714D01*
X53405967Y-60583333D01*
X53447633Y-60630952D01*
X53483348Y-60726190D01*
X53447633Y-61011904D01*
X53388110Y-61107142D01*
X53334538Y-61154761D01*
X53233348Y-61202380D01*
X53090491Y-61202380D01*
X54025014Y-60202380D02*
X54019062Y-60250000D01*
X53959538Y-60345238D01*
X53905967Y-60392857D01*
X54286919Y-61154761D02*
X54376205Y-61202380D01*
X54566681Y-61202380D01*
X54667872Y-61154761D01*
X54727395Y-61059523D01*
X54733348Y-61011904D01*
X54697633Y-60916666D01*
X54608348Y-60869047D01*
X54465491Y-60869047D01*
X54376205Y-60821428D01*
X54340491Y-60726190D01*
X54346443Y-60678571D01*
X54405967Y-60583333D01*
X54507157Y-60535714D01*
X54650014Y-60535714D01*
X54739300Y-60583333D01*
X56376205Y-61202380D02*
X55900014Y-61202380D01*
X56025014Y-60202380D01*
X57138110Y-61202380D02*
X57203586Y-60678571D01*
X57167872Y-60583333D01*
X57078586Y-60535714D01*
X56888110Y-60535714D01*
X56786919Y-60583333D01*
X57144062Y-61154761D02*
X57042872Y-61202380D01*
X56804776Y-61202380D01*
X56715491Y-61154761D01*
X56679776Y-61059523D01*
X56691681Y-60964285D01*
X56751205Y-60869047D01*
X56852395Y-60821428D01*
X57090491Y-60821428D01*
X57191681Y-60773809D01*
X57614300Y-61202380D02*
X57739300Y-60202380D01*
X57691681Y-60583333D02*
X57792872Y-60535714D01*
X57983348Y-60535714D01*
X58072633Y-60583333D01*
X58114300Y-60630952D01*
X58150014Y-60726190D01*
X58114300Y-61011904D01*
X58054776Y-61107142D01*
X58001205Y-61154761D01*
X57900014Y-61202380D01*
X57709538Y-61202380D01*
X57620252Y-61154761D01*
X134952380Y-73452380D02*
X135952380Y-73119047D01*
X134952380Y-72785714D01*
X135571428Y-72452380D02*
X135571428Y-71690476D01*
X134702380Y-83452380D02*
X135702380Y-83119047D01*
X134702380Y-82785714D01*
X135321428Y-82452380D02*
X135321428Y-81690476D01*
X134952380Y-117452380D02*
X135952380Y-117119047D01*
X134952380Y-116785714D01*
X135571428Y-116452380D02*
X135571428Y-115690476D01*
X135952380Y-116071428D02*
X135190476Y-116071428D01*
X134952380Y-110452380D02*
X135952380Y-110119047D01*
X134952380Y-109785714D01*
X135571428Y-109452380D02*
X135571428Y-108690476D01*
X135952380Y-109071428D02*
X135190476Y-109071428D01*
X131500000Y-92011904D02*
X131452380Y-92107142D01*
X131452380Y-92250000D01*
X131500000Y-92392857D01*
X131595238Y-92488095D01*
X131690476Y-92535714D01*
X131880952Y-92583333D01*
X132023809Y-92583333D01*
X132214285Y-92535714D01*
X132309523Y-92488095D01*
X132404761Y-92392857D01*
X132452380Y-92250000D01*
X132452380Y-92154761D01*
X132404761Y-92011904D01*
X132357142Y-91964285D01*
X132023809Y-91964285D01*
X132023809Y-92154761D01*
X132452380Y-91535714D02*
X131452380Y-91535714D01*
X132452380Y-90964285D01*
X131452380Y-90964285D01*
X132452380Y-90488095D02*
X131452380Y-90488095D01*
X131452380Y-90250000D01*
X131500000Y-90107142D01*
X131595238Y-90011904D01*
X131690476Y-89964285D01*
X131880952Y-89916666D01*
X132023809Y-89916666D01*
X132214285Y-89964285D01*
X132309523Y-90011904D01*
X132404761Y-90107142D01*
X132452380Y-90250000D01*
X132452380Y-90488095D01*
X131500000Y-99511904D02*
X131452380Y-99607142D01*
X131452380Y-99750000D01*
X131500000Y-99892857D01*
X131595238Y-99988095D01*
X131690476Y-100035714D01*
X131880952Y-100083333D01*
X132023809Y-100083333D01*
X132214285Y-100035714D01*
X132309523Y-99988095D01*
X132404761Y-99892857D01*
X132452380Y-99750000D01*
X132452380Y-99654761D01*
X132404761Y-99511904D01*
X132357142Y-99464285D01*
X132023809Y-99464285D01*
X132023809Y-99654761D01*
X132452380Y-99035714D02*
X131452380Y-99035714D01*
X132452380Y-98464285D01*
X131452380Y-98464285D01*
X132452380Y-97988095D02*
X131452380Y-97988095D01*
X131452380Y-97750000D01*
X131500000Y-97607142D01*
X131595238Y-97511904D01*
X131690476Y-97464285D01*
X131880952Y-97416666D01*
X132023809Y-97416666D01*
X132214285Y-97464285D01*
X132309523Y-97511904D01*
X132404761Y-97607142D01*
X132452380Y-97750000D01*
X132452380Y-97988095D01*
X47750000Y-97988095D02*
X47797619Y-97892857D01*
X47797619Y-97750000D01*
X47750000Y-97607142D01*
X47654761Y-97511904D01*
X47559523Y-97464285D01*
X47369047Y-97416666D01*
X47226190Y-97416666D01*
X47035714Y-97464285D01*
X46940476Y-97511904D01*
X46845238Y-97607142D01*
X46797619Y-97750000D01*
X46797619Y-97845238D01*
X46845238Y-97988095D01*
X46892857Y-98035714D01*
X47226190Y-98035714D01*
X47226190Y-97845238D01*
X46797619Y-98464285D02*
X47797619Y-98464285D01*
X46797619Y-99035714D01*
X47797619Y-99035714D01*
X46797619Y-99511904D02*
X47797619Y-99511904D01*
X47797619Y-99750000D01*
X47750000Y-99892857D01*
X47654761Y-99988095D01*
X47559523Y-100035714D01*
X47369047Y-100083333D01*
X47226190Y-100083333D01*
X47035714Y-100035714D01*
X46940476Y-99988095D01*
X46845238Y-99892857D01*
X46797619Y-99750000D01*
X46797619Y-99511904D01*
X47750000Y-90488095D02*
X47797619Y-90392857D01*
X47797619Y-90250000D01*
X47750000Y-90107142D01*
X47654761Y-90011904D01*
X47559523Y-89964285D01*
X47369047Y-89916666D01*
X47226190Y-89916666D01*
X47035714Y-89964285D01*
X46940476Y-90011904D01*
X46845238Y-90107142D01*
X46797619Y-90250000D01*
X46797619Y-90345238D01*
X46845238Y-90488095D01*
X46892857Y-90535714D01*
X47226190Y-90535714D01*
X47226190Y-90345238D01*
X46797619Y-90964285D02*
X47797619Y-90964285D01*
X46797619Y-91535714D01*
X47797619Y-91535714D01*
X46797619Y-92011904D02*
X47797619Y-92011904D01*
X47797619Y-92250000D01*
X47750000Y-92392857D01*
X47654761Y-92488095D01*
X47559523Y-92535714D01*
X47369047Y-92583333D01*
X47226190Y-92583333D01*
X47035714Y-92535714D01*
X46940476Y-92488095D01*
X46845238Y-92392857D01*
X46797619Y-92250000D01*
X46797619Y-92011904D01*
X47083333Y-104261904D02*
X47083333Y-104738095D01*
X46797619Y-104166666D02*
X47797619Y-104500000D01*
X46797619Y-104833333D01*
X46892857Y-105738095D02*
X46845238Y-105690476D01*
X46797619Y-105547619D01*
X46797619Y-105452380D01*
X46845238Y-105309523D01*
X46940476Y-105214285D01*
X47035714Y-105166666D01*
X47226190Y-105119047D01*
X47369047Y-105119047D01*
X47559523Y-105166666D01*
X47654761Y-105214285D01*
X47750000Y-105309523D01*
X47797619Y-105452380D01*
X47797619Y-105547619D01*
X47750000Y-105690476D01*
X47702380Y-105738095D01*
X47083333Y-84261904D02*
X47083333Y-84738095D01*
X46797619Y-84166666D02*
X47797619Y-84500000D01*
X46797619Y-84833333D01*
X46892857Y-85738095D02*
X46845238Y-85690476D01*
X46797619Y-85547619D01*
X46797619Y-85452380D01*
X46845238Y-85309523D01*
X46940476Y-85214285D01*
X47035714Y-85166666D01*
X47226190Y-85119047D01*
X47369047Y-85119047D01*
X47559523Y-85166666D01*
X47654761Y-85214285D01*
X47750000Y-85309523D01*
X47797619Y-85452380D01*
X47797619Y-85547619D01*
X47750000Y-85690476D01*
X47702380Y-85738095D01*
D11*
%TO.C,J13*%
X139500000Y-89000000D02*
X146500000Y-89000000D01*
X139500000Y-101000000D02*
X146500000Y-101000000D01*
X146500000Y-89000000D02*
X146500000Y-101000000D01*
X139500000Y-89000000D02*
X139500000Y-101000000D01*
X144250000Y-91500000D02*
G75*
G03*
X144250000Y-91500000I-1250000J0D01*
G01*
X144250000Y-95000000D02*
G75*
G03*
X144250000Y-95000000I-1250000J0D01*
G01*
X144250000Y-98500000D02*
G75*
G03*
X144250000Y-98500000I-1250000J0D01*
G01*
X144750000Y-99000000D02*
X144750000Y-98000000D01*
X144750000Y-98000000D02*
X146500000Y-98000000D01*
X144750000Y-99000000D02*
X146500000Y-99000000D01*
X146500000Y-95500000D02*
X144750000Y-95500000D01*
X144750000Y-95500000D02*
X144750000Y-94500000D01*
X144750000Y-94500000D02*
X146500000Y-94500000D01*
X146500000Y-92000000D02*
X144750000Y-92000000D01*
X144750000Y-92000000D02*
X144750000Y-91000000D01*
X144750000Y-91000000D02*
X146500000Y-91000000D01*
%TO.C,C6*%
X53130000Y-97780000D02*
X57870000Y-97780000D01*
X53130000Y-105220000D02*
X57870000Y-105220000D01*
X57870000Y-105220000D02*
X57870000Y-97780000D01*
X53130000Y-105220000D02*
X53130000Y-97780000D01*
%TO.C,C5*%
X51220000Y-112130000D02*
X51220000Y-116870000D01*
X43780000Y-112130000D02*
X43780000Y-116870000D01*
X43780000Y-116870000D02*
X51220000Y-116870000D01*
X43780000Y-112130000D02*
X51220000Y-112130000D01*
%TO.C,C4*%
X43780000Y-80370000D02*
X43780000Y-75630000D01*
X51220000Y-80370000D02*
X51220000Y-75630000D01*
X51220000Y-75630000D02*
X43780000Y-75630000D01*
X51220000Y-80370000D02*
X43780000Y-80370000D01*
%TO.C,C3*%
X53130000Y-85030000D02*
X57870000Y-85030000D01*
X53130000Y-92470000D02*
X57870000Y-92470000D01*
X57870000Y-92470000D02*
X57870000Y-85030000D01*
X53130000Y-92470000D02*
X53130000Y-85030000D01*
%TO.C,R4*%
X131397936Y-69910000D02*
X132602064Y-69910000D01*
X131397936Y-68090000D02*
X132602064Y-68090000D01*
%TO.C,R3*%
X132352064Y-119840000D02*
X131147936Y-119840000D01*
X132352064Y-121660000D02*
X131147936Y-121660000D01*
%TO.C,R6*%
X134160000Y-83102064D02*
X134160000Y-81897936D01*
X132340000Y-83102064D02*
X132340000Y-81897936D01*
%TO.C,R5*%
X134160000Y-115602064D02*
X134160000Y-114397936D01*
X132340000Y-115602064D02*
X132340000Y-114397936D01*
%TO.C,D3*%
X132290000Y-74890000D02*
X132290000Y-77750000D01*
X134210000Y-74890000D02*
X132290000Y-74890000D01*
X134210000Y-77750000D02*
X134210000Y-74890000D01*
%TO.C,D2*%
X132290000Y-106390000D02*
X132290000Y-109250000D01*
X134210000Y-106390000D02*
X132290000Y-106390000D01*
X134210000Y-109250000D02*
X134210000Y-106390000D01*
%TO.C,C10*%
X98125000Y-94104002D02*
X101625000Y-94104002D01*
X99875000Y-95854002D02*
X99875000Y-92354002D01*
X108950000Y-59400000D02*
X110550000Y-59400000D01*
X108337000Y-59440000D02*
X111163000Y-59440000D01*
X107915000Y-59480000D02*
X111585000Y-59480000D01*
X107573000Y-59520000D02*
X111927000Y-59520000D01*
X107277000Y-59560000D02*
X112223000Y-59560000D01*
X107014000Y-59600000D02*
X112486000Y-59600000D01*
X106774000Y-59640000D02*
X112726000Y-59640000D01*
X106552000Y-59680000D02*
X112948000Y-59680000D01*
X106345000Y-59720000D02*
X113155000Y-59720000D01*
X106150000Y-59760000D02*
X113350000Y-59760000D01*
X105965000Y-59800000D02*
X113535000Y-59800000D01*
X105790000Y-59840000D02*
X113710000Y-59840000D01*
X105622000Y-59880000D02*
X113878000Y-59880000D01*
X105461000Y-59920000D02*
X114039000Y-59920000D01*
X105306000Y-59960000D02*
X114194000Y-59960000D01*
X105157000Y-60000000D02*
X114343000Y-60000000D01*
X105012000Y-60040000D02*
X114488000Y-60040000D01*
X104872000Y-60080000D02*
X114628000Y-60080000D01*
X104737000Y-60120000D02*
X114763000Y-60120000D01*
X104605000Y-60160000D02*
X114895000Y-60160000D01*
X104477000Y-60200000D02*
X115023000Y-60200000D01*
X104352000Y-60240000D02*
X115148000Y-60240000D01*
X104230000Y-60280000D02*
X115270000Y-60280000D01*
X104111000Y-60320000D02*
X115389000Y-60320000D01*
X103995000Y-60360000D02*
X115505000Y-60360000D01*
X103882000Y-60400000D02*
X115618000Y-60400000D01*
X103770000Y-60440000D02*
X115730000Y-60440000D01*
X103661000Y-60480000D02*
X115839000Y-60480000D01*
X103555000Y-60520000D02*
X115945000Y-60520000D01*
X103450000Y-60560000D02*
X116050000Y-60560000D01*
X103347000Y-60600000D02*
X116153000Y-60600000D01*
X103246000Y-60640000D02*
X116254000Y-60640000D01*
X103147000Y-60680000D02*
X116353000Y-60680000D01*
X103050000Y-60720000D02*
X116450000Y-60720000D01*
X102954000Y-60760000D02*
X116546000Y-60760000D01*
X102860000Y-60800000D02*
X116640000Y-60800000D01*
X102767000Y-60840000D02*
X116733000Y-60840000D01*
X102675000Y-60880000D02*
X116825000Y-60880000D01*
X102585000Y-60920000D02*
X116915000Y-60920000D01*
X102497000Y-60960000D02*
X117003000Y-60960000D01*
X102409000Y-61000000D02*
X117091000Y-61000000D01*
X102323000Y-61040000D02*
X117177000Y-61040000D01*
X102238000Y-61080000D02*
X117262000Y-61080000D01*
X102155000Y-61120000D02*
X117345000Y-61120000D01*
X102072000Y-61160000D02*
X117428000Y-61160000D01*
X101991000Y-61200000D02*
X117509000Y-61200000D01*
X101910000Y-61240000D02*
X117590000Y-61240000D01*
X101830000Y-61280000D02*
X117670000Y-61280000D01*
X101752000Y-61320000D02*
X117748000Y-61320000D01*
X101674000Y-61360000D02*
X117826000Y-61360000D01*
X101598000Y-61400000D02*
X117902000Y-61400000D01*
X101522000Y-61440000D02*
X117978000Y-61440000D01*
X101447000Y-61480000D02*
X118053000Y-61480000D01*
X101373000Y-61520000D02*
X118127000Y-61520000D01*
X101300000Y-61560000D02*
X118200000Y-61560000D01*
X101228000Y-61600000D02*
X118272000Y-61600000D01*
X101156000Y-61640000D02*
X118344000Y-61640000D01*
X101085000Y-61680000D02*
X118415000Y-61680000D01*
X101015000Y-61720000D02*
X118485000Y-61720000D01*
X100946000Y-61760000D02*
X118554000Y-61760000D01*
X100877000Y-61800000D02*
X118623000Y-61800000D01*
X100810000Y-61840000D02*
X118690000Y-61840000D01*
X100742000Y-61880000D02*
X118758000Y-61880000D01*
X100676000Y-61920000D02*
X118824000Y-61920000D01*
X100610000Y-61960000D02*
X118890000Y-61960000D01*
X100545000Y-62000000D02*
X118955000Y-62000000D01*
X100480000Y-62040000D02*
X119020000Y-62040000D01*
X100416000Y-62080000D02*
X119084000Y-62080000D01*
X100353000Y-62120000D02*
X119147000Y-62120000D01*
X100290000Y-62160000D02*
X119210000Y-62160000D01*
X100228000Y-62200000D02*
X119272000Y-62200000D01*
X100166000Y-62240000D02*
X119334000Y-62240000D01*
X100105000Y-62280000D02*
X119395000Y-62280000D01*
X100045000Y-62320000D02*
X119455000Y-62320000D01*
X99985000Y-62360000D02*
X119515000Y-62360000D01*
X99925000Y-62400000D02*
X119575000Y-62400000D01*
X99866000Y-62440000D02*
X119634000Y-62440000D01*
X99808000Y-62480000D02*
X119692000Y-62480000D01*
X99750000Y-62520000D02*
X119750000Y-62520000D01*
X99692000Y-62560000D02*
X119808000Y-62560000D01*
X99635000Y-62600000D02*
X119865000Y-62600000D01*
X99579000Y-62640000D02*
X119921000Y-62640000D01*
X99523000Y-62680000D02*
X119977000Y-62680000D01*
X99467000Y-62720000D02*
X120033000Y-62720000D01*
X99412000Y-62760000D02*
X120088000Y-62760000D01*
X99358000Y-62800000D02*
X120142000Y-62800000D01*
X99303000Y-62840000D02*
X120197000Y-62840000D01*
X99250000Y-62880000D02*
X120250000Y-62880000D01*
X99196000Y-62920000D02*
X120304000Y-62920000D01*
X99143000Y-62960000D02*
X120357000Y-62960000D01*
X99091000Y-63000000D02*
X120409000Y-63000000D01*
X99039000Y-63040000D02*
X120461000Y-63040000D01*
X98987000Y-63080000D02*
X120513000Y-63080000D01*
X98935000Y-63120000D02*
X120565000Y-63120000D01*
X98885000Y-63160000D02*
X120615000Y-63160000D01*
X98834000Y-63200000D02*
X120666000Y-63200000D01*
X98784000Y-63240000D02*
X120716000Y-63240000D01*
X98734000Y-63280000D02*
X120766000Y-63280000D01*
X98684000Y-63320000D02*
X120816000Y-63320000D01*
X98635000Y-63360000D02*
X120865000Y-63360000D01*
X98587000Y-63400000D02*
X120913000Y-63400000D01*
X98538000Y-63440000D02*
X120962000Y-63440000D01*
X98490000Y-63480000D02*
X121010000Y-63480000D01*
X98443000Y-63520000D02*
X121057000Y-63520000D01*
X98395000Y-63560000D02*
X121105000Y-63560000D01*
X98348000Y-63600000D02*
X121152000Y-63600000D01*
X98301000Y-63640000D02*
X121199000Y-63640000D01*
X98255000Y-63680000D02*
X121245000Y-63680000D01*
X98209000Y-63720000D02*
X121291000Y-63720000D01*
X98163000Y-63760000D02*
X121337000Y-63760000D01*
X98118000Y-63800000D02*
X121382000Y-63800000D01*
X98073000Y-63840000D02*
X121427000Y-63840000D01*
X98028000Y-63880000D02*
X121472000Y-63880000D01*
X97984000Y-63920000D02*
X121516000Y-63920000D01*
X97939000Y-63960000D02*
X121561000Y-63960000D01*
X97896000Y-64000000D02*
X121604000Y-64000000D01*
X97852000Y-64040000D02*
X121648000Y-64040000D01*
X97809000Y-64080000D02*
X121691000Y-64080000D01*
X97766000Y-64120000D02*
X121734000Y-64120000D01*
X97723000Y-64160000D02*
X121777000Y-64160000D01*
X97681000Y-64200000D02*
X121819000Y-64200000D01*
X97639000Y-64240000D02*
X121861000Y-64240000D01*
X97597000Y-64280000D02*
X121903000Y-64280000D01*
X97555000Y-64320000D02*
X121945000Y-64320000D01*
X97514000Y-64360000D02*
X121986000Y-64360000D01*
X97473000Y-64400000D02*
X122027000Y-64400000D01*
X97432000Y-64440000D02*
X122068000Y-64440000D01*
X97391000Y-64480000D02*
X122109000Y-64480000D01*
X97351000Y-64520000D02*
X122149000Y-64520000D01*
X97311000Y-64560000D02*
X122189000Y-64560000D01*
X97271000Y-64600000D02*
X122229000Y-64600000D01*
X97232000Y-64640000D02*
X122268000Y-64640000D01*
X97193000Y-64680000D02*
X122307000Y-64680000D01*
X97154000Y-64720000D02*
X122346000Y-64720000D01*
X97115000Y-64760000D02*
X122385000Y-64760000D01*
X97076000Y-64800000D02*
X122424000Y-64800000D01*
X97038000Y-64840000D02*
X122462000Y-64840000D01*
X97000000Y-64880000D02*
X122500000Y-64880000D01*
X96962000Y-64920000D02*
X122538000Y-64920000D01*
X96925000Y-64960000D02*
X122575000Y-64960000D01*
X96887000Y-65000000D02*
X122613000Y-65000000D01*
X96850000Y-65040000D02*
X122650000Y-65040000D01*
X96813000Y-65080000D02*
X122687000Y-65080000D01*
X96777000Y-65120000D02*
X122723000Y-65120000D01*
X96740000Y-65160000D02*
X122760000Y-65160000D01*
X96704000Y-65200000D02*
X122796000Y-65200000D01*
X96668000Y-65240000D02*
X122832000Y-65240000D01*
X96633000Y-65280000D02*
X122867000Y-65280000D01*
X96597000Y-65320000D02*
X122903000Y-65320000D01*
X96562000Y-65360000D02*
X122938000Y-65360000D01*
X96527000Y-65400000D02*
X122973000Y-65400000D01*
X96492000Y-65440000D02*
X123008000Y-65440000D01*
X96457000Y-65480000D02*
X123043000Y-65480000D01*
X96423000Y-65520000D02*
X123077000Y-65520000D01*
X96388000Y-65560000D02*
X123112000Y-65560000D01*
X96354000Y-65600000D02*
X123146000Y-65600000D01*
X96320000Y-65640000D02*
X123180000Y-65640000D01*
X96287000Y-65680000D02*
X123213000Y-65680000D01*
X96253000Y-65720000D02*
X123247000Y-65720000D01*
X96220000Y-65760000D02*
X123280000Y-65760000D01*
X96187000Y-65800000D02*
X123313000Y-65800000D01*
X96154000Y-65840000D02*
X123346000Y-65840000D01*
X96122000Y-65880000D02*
X123378000Y-65880000D01*
X96089000Y-65920000D02*
X123411000Y-65920000D01*
X96057000Y-65960000D02*
X123443000Y-65960000D01*
X96025000Y-66000000D02*
X123475000Y-66000000D01*
X95993000Y-66040000D02*
X123507000Y-66040000D01*
X95961000Y-66080000D02*
X123539000Y-66080000D01*
X95930000Y-66120000D02*
X123570000Y-66120000D01*
X95899000Y-66160000D02*
X123601000Y-66160000D01*
X95867000Y-66200000D02*
X123633000Y-66200000D01*
X95836000Y-66240000D02*
X123664000Y-66240000D01*
X95806000Y-66280000D02*
X123694000Y-66280000D01*
X95775000Y-66320000D02*
X123725000Y-66320000D01*
X95745000Y-66360000D02*
X123755000Y-66360000D01*
X95715000Y-66400000D02*
X123785000Y-66400000D01*
X95685000Y-66440000D02*
X123815000Y-66440000D01*
X95655000Y-66480000D02*
X123845000Y-66480000D01*
X95625000Y-66520000D02*
X123875000Y-66520000D01*
X95595000Y-66560000D02*
X123905000Y-66560000D01*
X95566000Y-66600000D02*
X123934000Y-66600000D01*
X95537000Y-66640000D02*
X123963000Y-66640000D01*
X95508000Y-66680000D02*
X123992000Y-66680000D01*
X95479000Y-66720000D02*
X124021000Y-66720000D01*
X95451000Y-66760000D02*
X124049000Y-66760000D01*
X95422000Y-66800000D02*
X124078000Y-66800000D01*
X95394000Y-66840000D02*
X124106000Y-66840000D01*
X95366000Y-66880000D02*
X124134000Y-66880000D01*
X95338000Y-66920000D02*
X124162000Y-66920000D01*
X95310000Y-66960000D02*
X124190000Y-66960000D01*
X95282000Y-67000000D02*
X124218000Y-67000000D01*
X95255000Y-67040000D02*
X124245000Y-67040000D01*
X95227000Y-67080000D02*
X124273000Y-67080000D01*
X95200000Y-67120000D02*
X124300000Y-67120000D01*
X95173000Y-67160000D02*
X124327000Y-67160000D01*
X95146000Y-67200000D02*
X124354000Y-67200000D01*
X95120000Y-67240000D02*
X124380000Y-67240000D01*
X95093000Y-67280000D02*
X124407000Y-67280000D01*
X95067000Y-67320000D02*
X124433000Y-67320000D01*
X95040000Y-67360000D02*
X124460000Y-67360000D01*
X95014000Y-67400000D02*
X124486000Y-67400000D01*
X94988000Y-67440000D02*
X124512000Y-67440000D01*
X94963000Y-67480000D02*
X124537000Y-67480000D01*
X94937000Y-67520000D02*
X124563000Y-67520000D01*
X94912000Y-67560000D02*
X124588000Y-67560000D01*
X94886000Y-67600000D02*
X124614000Y-67600000D01*
X94861000Y-67640000D02*
X124639000Y-67640000D01*
X94836000Y-67680000D02*
X124664000Y-67680000D01*
X94811000Y-67720000D02*
X124689000Y-67720000D01*
X94787000Y-67760000D02*
X124713000Y-67760000D01*
X94762000Y-67800000D02*
X124738000Y-67800000D01*
X94738000Y-67840000D02*
X124762000Y-67840000D01*
X94713000Y-67880000D02*
X124787000Y-67880000D01*
X94689000Y-67920000D02*
X124811000Y-67920000D01*
X94665000Y-67960000D02*
X124835000Y-67960000D01*
X94641000Y-68000000D02*
X124859000Y-68000000D01*
X94618000Y-68040000D02*
X124882000Y-68040000D01*
X94594000Y-68080000D02*
X124906000Y-68080000D01*
X94571000Y-68120000D02*
X124929000Y-68120000D01*
X94547000Y-68160000D02*
X124953000Y-68160000D01*
X94524000Y-68200000D02*
X124976000Y-68200000D01*
X94501000Y-68240000D02*
X124999000Y-68240000D01*
X94479000Y-68280000D02*
X125021000Y-68280000D01*
X94456000Y-68320000D02*
X125044000Y-68320000D01*
X94433000Y-68360000D02*
X125067000Y-68360000D01*
X94411000Y-68400000D02*
X125089000Y-68400000D01*
X94389000Y-68440000D02*
X125111000Y-68440000D01*
X94366000Y-68480000D02*
X125134000Y-68480000D01*
X94344000Y-68520000D02*
X125156000Y-68520000D01*
X94322000Y-68560000D02*
X125178000Y-68560000D01*
X94301000Y-68600000D02*
X125199000Y-68600000D01*
X94279000Y-68640000D02*
X125221000Y-68640000D01*
X94258000Y-68680000D02*
X125242000Y-68680000D01*
X94236000Y-68720000D02*
X125264000Y-68720000D01*
X94215000Y-68760000D02*
X125285000Y-68760000D01*
X94194000Y-68800000D02*
X125306000Y-68800000D01*
X94173000Y-68839000D02*
X125327000Y-68839000D01*
X94152000Y-68879000D02*
X125348000Y-68879000D01*
X94131000Y-68919000D02*
X125369000Y-68919000D01*
X94111000Y-68959000D02*
X125389000Y-68959000D01*
X94090000Y-68999000D02*
X125410000Y-68999000D01*
X94070000Y-69039000D02*
X125430000Y-69039000D01*
X94050000Y-69079000D02*
X125450000Y-69079000D01*
X94030000Y-69119000D02*
X125470000Y-69119000D01*
X94010000Y-69159000D02*
X125490000Y-69159000D01*
X93990000Y-69199000D02*
X125510000Y-69199000D01*
X93970000Y-69239000D02*
X125530000Y-69239000D01*
X93951000Y-69279000D02*
X125549000Y-69279000D01*
X93931000Y-69319000D02*
X125569000Y-69319000D01*
X93912000Y-69359000D02*
X125588000Y-69359000D01*
X93893000Y-69399000D02*
X125607000Y-69399000D01*
X93874000Y-69439000D02*
X125626000Y-69439000D01*
X93855000Y-69479000D02*
X125645000Y-69479000D01*
X93836000Y-69519000D02*
X125664000Y-69519000D01*
X93817000Y-69559000D02*
X125683000Y-69559000D01*
X93799000Y-69599000D02*
X125701000Y-69599000D01*
X93780000Y-69639000D02*
X125720000Y-69639000D01*
X93762000Y-69679000D02*
X125738000Y-69679000D01*
X93744000Y-69719000D02*
X125756000Y-69719000D01*
X93726000Y-69759000D02*
X125774000Y-69759000D01*
X111990000Y-69799000D02*
X125792000Y-69799000D01*
X93708000Y-69799000D02*
X107510000Y-69799000D01*
X111990000Y-69839000D02*
X125810000Y-69839000D01*
X93690000Y-69839000D02*
X107510000Y-69839000D01*
X111990000Y-69879000D02*
X125828000Y-69879000D01*
X93672000Y-69879000D02*
X107510000Y-69879000D01*
X111990000Y-69919000D02*
X125845000Y-69919000D01*
X93655000Y-69919000D02*
X107510000Y-69919000D01*
X111990000Y-69959000D02*
X125863000Y-69959000D01*
X93637000Y-69959000D02*
X107510000Y-69959000D01*
X111990000Y-69999000D02*
X125880000Y-69999000D01*
X93620000Y-69999000D02*
X107510000Y-69999000D01*
X111990000Y-70039000D02*
X125898000Y-70039000D01*
X93602000Y-70039000D02*
X107510000Y-70039000D01*
X111990000Y-70079000D02*
X125915000Y-70079000D01*
X93585000Y-70079000D02*
X107510000Y-70079000D01*
X111990000Y-70119000D02*
X125932000Y-70119000D01*
X93568000Y-70119000D02*
X107510000Y-70119000D01*
X111990000Y-70159000D02*
X125949000Y-70159000D01*
X93551000Y-70159000D02*
X107510000Y-70159000D01*
X111990000Y-70199000D02*
X125965000Y-70199000D01*
X93535000Y-70199000D02*
X107510000Y-70199000D01*
X111990000Y-70239000D02*
X125982000Y-70239000D01*
X93518000Y-70239000D02*
X107510000Y-70239000D01*
X111990000Y-70279000D02*
X125999000Y-70279000D01*
X93501000Y-70279000D02*
X107510000Y-70279000D01*
X111990000Y-70319000D02*
X126015000Y-70319000D01*
X93485000Y-70319000D02*
X107510000Y-70319000D01*
X111990000Y-70359000D02*
X126031000Y-70359000D01*
X93469000Y-70359000D02*
X107510000Y-70359000D01*
X111990000Y-70399000D02*
X126048000Y-70399000D01*
X93452000Y-70399000D02*
X107510000Y-70399000D01*
X111990000Y-70439000D02*
X126064000Y-70439000D01*
X93436000Y-70439000D02*
X107510000Y-70439000D01*
X111990000Y-70479000D02*
X126080000Y-70479000D01*
X93420000Y-70479000D02*
X107510000Y-70479000D01*
X111990000Y-70519000D02*
X126096000Y-70519000D01*
X93404000Y-70519000D02*
X107510000Y-70519000D01*
X111990000Y-70559000D02*
X126111000Y-70559000D01*
X93389000Y-70559000D02*
X107510000Y-70559000D01*
X111990000Y-70599000D02*
X126127000Y-70599000D01*
X93373000Y-70599000D02*
X107510000Y-70599000D01*
X111990000Y-70639000D02*
X126143000Y-70639000D01*
X93357000Y-70639000D02*
X107510000Y-70639000D01*
X111990000Y-70679000D02*
X126158000Y-70679000D01*
X93342000Y-70679000D02*
X107510000Y-70679000D01*
X111990000Y-70719000D02*
X126173000Y-70719000D01*
X93327000Y-70719000D02*
X107510000Y-70719000D01*
X111990000Y-70759000D02*
X126189000Y-70759000D01*
X93311000Y-70759000D02*
X107510000Y-70759000D01*
X111990000Y-70799000D02*
X126204000Y-70799000D01*
X93296000Y-70799000D02*
X107510000Y-70799000D01*
X111990000Y-70839000D02*
X126219000Y-70839000D01*
X93281000Y-70839000D02*
X107510000Y-70839000D01*
X111990000Y-70879000D02*
X126234000Y-70879000D01*
X93266000Y-70879000D02*
X107510000Y-70879000D01*
X111990000Y-70919000D02*
X126248000Y-70919000D01*
X93252000Y-70919000D02*
X107510000Y-70919000D01*
X111990000Y-70959000D02*
X126263000Y-70959000D01*
X93237000Y-70959000D02*
X107510000Y-70959000D01*
X111990000Y-70999000D02*
X126277000Y-70999000D01*
X93223000Y-70999000D02*
X107510000Y-70999000D01*
X111990000Y-71039000D02*
X126292000Y-71039000D01*
X93208000Y-71039000D02*
X107510000Y-71039000D01*
X111990000Y-71079000D02*
X126306000Y-71079000D01*
X93194000Y-71079000D02*
X107510000Y-71079000D01*
X111990000Y-71119000D02*
X126320000Y-71119000D01*
X93180000Y-71119000D02*
X107510000Y-71119000D01*
X111990000Y-71159000D02*
X126335000Y-71159000D01*
X93165000Y-71159000D02*
X107510000Y-71159000D01*
X111990000Y-71199000D02*
X126349000Y-71199000D01*
X93151000Y-71199000D02*
X107510000Y-71199000D01*
X111990000Y-71239000D02*
X126362000Y-71239000D01*
X93138000Y-71239000D02*
X107510000Y-71239000D01*
X111990000Y-71279000D02*
X126376000Y-71279000D01*
X93124000Y-71279000D02*
X107510000Y-71279000D01*
X111990000Y-71319000D02*
X126390000Y-71319000D01*
X93110000Y-71319000D02*
X107510000Y-71319000D01*
X111990000Y-71359000D02*
X126403000Y-71359000D01*
X93097000Y-71359000D02*
X107510000Y-71359000D01*
X111990000Y-71399000D02*
X126417000Y-71399000D01*
X93083000Y-71399000D02*
X107510000Y-71399000D01*
X111990000Y-71439000D02*
X126430000Y-71439000D01*
X93070000Y-71439000D02*
X107510000Y-71439000D01*
X111990000Y-71479000D02*
X126444000Y-71479000D01*
X93056000Y-71479000D02*
X107510000Y-71479000D01*
X111990000Y-71519000D02*
X126457000Y-71519000D01*
X93043000Y-71519000D02*
X107510000Y-71519000D01*
X111990000Y-71559000D02*
X126470000Y-71559000D01*
X93030000Y-71559000D02*
X107510000Y-71559000D01*
X111990000Y-71599000D02*
X126483000Y-71599000D01*
X93017000Y-71599000D02*
X107510000Y-71599000D01*
X111990000Y-71639000D02*
X126495000Y-71639000D01*
X93005000Y-71639000D02*
X107510000Y-71639000D01*
X111990000Y-71679000D02*
X126508000Y-71679000D01*
X92992000Y-71679000D02*
X107510000Y-71679000D01*
X111990000Y-71719000D02*
X126521000Y-71719000D01*
X92979000Y-71719000D02*
X107510000Y-71719000D01*
X111990000Y-71759000D02*
X126533000Y-71759000D01*
X92967000Y-71759000D02*
X107510000Y-71759000D01*
X111990000Y-71799000D02*
X126546000Y-71799000D01*
X92954000Y-71799000D02*
X107510000Y-71799000D01*
X111990000Y-71839000D02*
X126558000Y-71839000D01*
X92942000Y-71839000D02*
X107510000Y-71839000D01*
X111990000Y-71879000D02*
X126570000Y-71879000D01*
X92930000Y-71879000D02*
X107510000Y-71879000D01*
X111990000Y-71919000D02*
X126582000Y-71919000D01*
X92918000Y-71919000D02*
X107510000Y-71919000D01*
X111990000Y-71959000D02*
X126594000Y-71959000D01*
X92906000Y-71959000D02*
X107510000Y-71959000D01*
X111990000Y-71999000D02*
X126606000Y-71999000D01*
X92894000Y-71999000D02*
X107510000Y-71999000D01*
X111990000Y-72039000D02*
X126618000Y-72039000D01*
X92882000Y-72039000D02*
X107510000Y-72039000D01*
X111990000Y-72079000D02*
X126630000Y-72079000D01*
X92870000Y-72079000D02*
X107510000Y-72079000D01*
X111990000Y-72119000D02*
X126641000Y-72119000D01*
X92859000Y-72119000D02*
X107510000Y-72119000D01*
X111990000Y-72159000D02*
X126653000Y-72159000D01*
X92847000Y-72159000D02*
X107510000Y-72159000D01*
X111990000Y-72199000D02*
X126664000Y-72199000D01*
X92836000Y-72199000D02*
X107510000Y-72199000D01*
X111990000Y-72239000D02*
X126675000Y-72239000D01*
X92825000Y-72239000D02*
X107510000Y-72239000D01*
X111990000Y-72279000D02*
X126687000Y-72279000D01*
X92813000Y-72279000D02*
X107510000Y-72279000D01*
X111990000Y-72319000D02*
X126698000Y-72319000D01*
X92802000Y-72319000D02*
X107510000Y-72319000D01*
X111990000Y-72359000D02*
X126709000Y-72359000D01*
X92791000Y-72359000D02*
X107510000Y-72359000D01*
X111990000Y-72399000D02*
X126719000Y-72399000D01*
X92781000Y-72399000D02*
X107510000Y-72399000D01*
X111990000Y-72439000D02*
X126730000Y-72439000D01*
X92770000Y-72439000D02*
X107510000Y-72439000D01*
X111990000Y-72479000D02*
X126741000Y-72479000D01*
X92759000Y-72479000D02*
X107510000Y-72479000D01*
X111990000Y-72519000D02*
X126751000Y-72519000D01*
X92749000Y-72519000D02*
X107510000Y-72519000D01*
X111990000Y-72559000D02*
X126762000Y-72559000D01*
X92738000Y-72559000D02*
X107510000Y-72559000D01*
X111990000Y-72599000D02*
X126772000Y-72599000D01*
X92728000Y-72599000D02*
X107510000Y-72599000D01*
X111990000Y-72639000D02*
X126783000Y-72639000D01*
X92717000Y-72639000D02*
X107510000Y-72639000D01*
X111990000Y-72679000D02*
X126793000Y-72679000D01*
X92707000Y-72679000D02*
X107510000Y-72679000D01*
X111990000Y-72719000D02*
X126803000Y-72719000D01*
X92697000Y-72719000D02*
X107510000Y-72719000D01*
X111990000Y-72759000D02*
X126813000Y-72759000D01*
X92687000Y-72759000D02*
X107510000Y-72759000D01*
X111990000Y-72799000D02*
X126823000Y-72799000D01*
X92677000Y-72799000D02*
X107510000Y-72799000D01*
X111990000Y-72839000D02*
X126832000Y-72839000D01*
X92668000Y-72839000D02*
X107510000Y-72839000D01*
X111990000Y-72879000D02*
X126842000Y-72879000D01*
X92658000Y-72879000D02*
X107510000Y-72879000D01*
X111990000Y-72919000D02*
X126852000Y-72919000D01*
X92648000Y-72919000D02*
X107510000Y-72919000D01*
X111990000Y-72959000D02*
X126861000Y-72959000D01*
X92639000Y-72959000D02*
X107510000Y-72959000D01*
X111990000Y-72999000D02*
X126870000Y-72999000D01*
X92630000Y-72999000D02*
X107510000Y-72999000D01*
X111990000Y-73039000D02*
X126880000Y-73039000D01*
X92620000Y-73039000D02*
X107510000Y-73039000D01*
X111990000Y-73079000D02*
X126889000Y-73079000D01*
X92611000Y-73079000D02*
X107510000Y-73079000D01*
X111990000Y-73119000D02*
X126898000Y-73119000D01*
X92602000Y-73119000D02*
X107510000Y-73119000D01*
X111990000Y-73159000D02*
X126907000Y-73159000D01*
X92593000Y-73159000D02*
X107510000Y-73159000D01*
X111990000Y-73199000D02*
X126916000Y-73199000D01*
X92584000Y-73199000D02*
X107510000Y-73199000D01*
X111990000Y-73239000D02*
X126925000Y-73239000D01*
X92575000Y-73239000D02*
X107510000Y-73239000D01*
X111990000Y-73279000D02*
X126933000Y-73279000D01*
X92567000Y-73279000D02*
X107510000Y-73279000D01*
X111990000Y-73319000D02*
X126942000Y-73319000D01*
X92558000Y-73319000D02*
X107510000Y-73319000D01*
X111990000Y-73359000D02*
X126950000Y-73359000D01*
X92550000Y-73359000D02*
X107510000Y-73359000D01*
X111990000Y-73399000D02*
X126959000Y-73399000D01*
X92541000Y-73399000D02*
X107510000Y-73399000D01*
X111990000Y-73439000D02*
X126967000Y-73439000D01*
X92533000Y-73439000D02*
X107510000Y-73439000D01*
X111990000Y-73479000D02*
X126975000Y-73479000D01*
X92525000Y-73479000D02*
X107510000Y-73479000D01*
X111990000Y-73519000D02*
X126983000Y-73519000D01*
X92517000Y-73519000D02*
X107510000Y-73519000D01*
X111990000Y-73559000D02*
X126991000Y-73559000D01*
X92509000Y-73559000D02*
X107510000Y-73559000D01*
X111990000Y-73599000D02*
X126999000Y-73599000D01*
X92501000Y-73599000D02*
X107510000Y-73599000D01*
X111990000Y-73639000D02*
X127007000Y-73639000D01*
X92493000Y-73639000D02*
X107510000Y-73639000D01*
X111990000Y-73679000D02*
X127015000Y-73679000D01*
X92485000Y-73679000D02*
X107510000Y-73679000D01*
X111990000Y-73719000D02*
X127023000Y-73719000D01*
X92477000Y-73719000D02*
X107510000Y-73719000D01*
X111990000Y-73759000D02*
X127030000Y-73759000D01*
X92470000Y-73759000D02*
X107510000Y-73759000D01*
X111990000Y-73799000D02*
X127037000Y-73799000D01*
X92463000Y-73799000D02*
X107510000Y-73799000D01*
X111990000Y-73839000D02*
X127045000Y-73839000D01*
X92455000Y-73839000D02*
X107510000Y-73839000D01*
X111990000Y-73879000D02*
X127052000Y-73879000D01*
X92448000Y-73879000D02*
X107510000Y-73879000D01*
X111990000Y-73919000D02*
X127059000Y-73919000D01*
X92441000Y-73919000D02*
X107510000Y-73919000D01*
X111990000Y-73959000D02*
X127066000Y-73959000D01*
X92434000Y-73959000D02*
X107510000Y-73959000D01*
X111990000Y-73999000D02*
X127073000Y-73999000D01*
X92427000Y-73999000D02*
X107510000Y-73999000D01*
X111990000Y-74039000D02*
X127080000Y-74039000D01*
X92420000Y-74039000D02*
X107510000Y-74039000D01*
X111990000Y-74079000D02*
X127087000Y-74079000D01*
X92413000Y-74079000D02*
X107510000Y-74079000D01*
X111990000Y-74119000D02*
X127094000Y-74119000D01*
X92406000Y-74119000D02*
X107510000Y-74119000D01*
X111990000Y-74159000D02*
X127100000Y-74159000D01*
X92400000Y-74159000D02*
X107510000Y-74159000D01*
X111990000Y-74199000D02*
X127107000Y-74199000D01*
X92393000Y-74199000D02*
X107510000Y-74199000D01*
X111990000Y-74239000D02*
X127113000Y-74239000D01*
X92387000Y-74239000D02*
X107510000Y-74239000D01*
X92381000Y-74279000D02*
X127119000Y-74279000D01*
X92375000Y-74319000D02*
X127125000Y-74319000D01*
X92368000Y-74359000D02*
X127132000Y-74359000D01*
X92362000Y-74399000D02*
X127138000Y-74399000D01*
X92356000Y-74439000D02*
X127144000Y-74439000D01*
X92351000Y-74479000D02*
X127149000Y-74479000D01*
X92345000Y-74519000D02*
X127155000Y-74519000D01*
X92339000Y-74559000D02*
X127161000Y-74559000D01*
X92334000Y-74599000D02*
X127166000Y-74599000D01*
X92328000Y-74639000D02*
X127172000Y-74639000D01*
X92323000Y-74679000D02*
X127177000Y-74679000D01*
X92318000Y-74719000D02*
X127182000Y-74719000D01*
X92312000Y-74759000D02*
X127188000Y-74759000D01*
X92307000Y-74799000D02*
X127193000Y-74799000D01*
X92302000Y-74839000D02*
X127198000Y-74839000D01*
X92298000Y-74879000D02*
X127202000Y-74879000D01*
X92293000Y-74919000D02*
X127207000Y-74919000D01*
X92288000Y-74959000D02*
X127212000Y-74959000D01*
X92283000Y-74999000D02*
X127217000Y-74999000D01*
X92279000Y-75039000D02*
X127221000Y-75039000D01*
X92274000Y-75079000D02*
X127226000Y-75079000D01*
X92270000Y-75119000D02*
X127230000Y-75119000D01*
X92266000Y-75159000D02*
X127234000Y-75159000D01*
X92262000Y-75199000D02*
X127238000Y-75199000D01*
X92258000Y-75239000D02*
X127242000Y-75239000D01*
X92254000Y-75279000D02*
X127246000Y-75279000D01*
X92250000Y-75319000D02*
X127250000Y-75319000D01*
X92246000Y-75359000D02*
X127254000Y-75359000D01*
X92242000Y-75399000D02*
X127258000Y-75399000D01*
X92239000Y-75439000D02*
X127261000Y-75439000D01*
X92235000Y-75479000D02*
X127265000Y-75479000D01*
X92232000Y-75519000D02*
X127268000Y-75519000D01*
X92228000Y-75559000D02*
X127272000Y-75559000D01*
X92225000Y-75599000D02*
X127275000Y-75599000D01*
X92222000Y-75639000D02*
X127278000Y-75639000D01*
X92219000Y-75679000D02*
X127281000Y-75679000D01*
X92216000Y-75719000D02*
X127284000Y-75719000D01*
X92213000Y-75759000D02*
X127287000Y-75759000D01*
X92210000Y-75799000D02*
X127290000Y-75799000D01*
X92208000Y-75839000D02*
X127292000Y-75839000D01*
X92205000Y-75879000D02*
X127295000Y-75879000D01*
X92203000Y-75919000D02*
X127297000Y-75919000D01*
X92200000Y-75959000D02*
X127300000Y-75959000D01*
X92198000Y-75999000D02*
X127302000Y-75999000D01*
X92196000Y-76039000D02*
X127304000Y-76039000D01*
X92194000Y-76079000D02*
X127306000Y-76079000D01*
X92191000Y-76119000D02*
X127309000Y-76119000D01*
X92190000Y-76159000D02*
X127310000Y-76159000D01*
X92188000Y-76199000D02*
X127312000Y-76199000D01*
X92186000Y-76239000D02*
X127314000Y-76239000D01*
X92184000Y-76279000D02*
X127316000Y-76279000D01*
X92183000Y-76320000D02*
X127317000Y-76320000D01*
X92181000Y-76360000D02*
X127319000Y-76360000D01*
X92180000Y-76400000D02*
X127320000Y-76400000D01*
X92178000Y-76440000D02*
X127322000Y-76440000D01*
X92177000Y-76480000D02*
X127323000Y-76480000D01*
X92176000Y-76520000D02*
X127324000Y-76520000D01*
X92175000Y-76560000D02*
X127325000Y-76560000D01*
X92174000Y-76600000D02*
X127326000Y-76600000D01*
X92173000Y-76640000D02*
X127327000Y-76640000D01*
X92172000Y-76680000D02*
X127328000Y-76680000D01*
X92172000Y-76720000D02*
X127328000Y-76720000D01*
X92171000Y-76760000D02*
X127329000Y-76760000D01*
X92171000Y-76800000D02*
X127329000Y-76800000D01*
X92170000Y-76840000D02*
X127330000Y-76840000D01*
X92170000Y-76880000D02*
X127330000Y-76880000D01*
X92170000Y-76920000D02*
X127330000Y-76920000D01*
X92170000Y-76960000D02*
X127330000Y-76960000D01*
X92170000Y-77000000D02*
X127330000Y-77000000D01*
X127370000Y-77000000D02*
G75*
G03*
X127370000Y-77000000I-17620000J0D01*
G01*
%TO.C,C9*%
X98125000Y-130104002D02*
X101625000Y-130104002D01*
X99875000Y-131854002D02*
X99875000Y-128354002D01*
X108950000Y-95400000D02*
X110550000Y-95400000D01*
X108337000Y-95440000D02*
X111163000Y-95440000D01*
X107915000Y-95480000D02*
X111585000Y-95480000D01*
X107573000Y-95520000D02*
X111927000Y-95520000D01*
X107277000Y-95560000D02*
X112223000Y-95560000D01*
X107014000Y-95600000D02*
X112486000Y-95600000D01*
X106774000Y-95640000D02*
X112726000Y-95640000D01*
X106552000Y-95680000D02*
X112948000Y-95680000D01*
X106345000Y-95720000D02*
X113155000Y-95720000D01*
X106150000Y-95760000D02*
X113350000Y-95760000D01*
X105965000Y-95800000D02*
X113535000Y-95800000D01*
X105790000Y-95840000D02*
X113710000Y-95840000D01*
X105622000Y-95880000D02*
X113878000Y-95880000D01*
X105461000Y-95920000D02*
X114039000Y-95920000D01*
X105306000Y-95960000D02*
X114194000Y-95960000D01*
X105157000Y-96000000D02*
X114343000Y-96000000D01*
X105012000Y-96040000D02*
X114488000Y-96040000D01*
X104872000Y-96080000D02*
X114628000Y-96080000D01*
X104737000Y-96120000D02*
X114763000Y-96120000D01*
X104605000Y-96160000D02*
X114895000Y-96160000D01*
X104477000Y-96200000D02*
X115023000Y-96200000D01*
X104352000Y-96240000D02*
X115148000Y-96240000D01*
X104230000Y-96280000D02*
X115270000Y-96280000D01*
X104111000Y-96320000D02*
X115389000Y-96320000D01*
X103995000Y-96360000D02*
X115505000Y-96360000D01*
X103882000Y-96400000D02*
X115618000Y-96400000D01*
X103770000Y-96440000D02*
X115730000Y-96440000D01*
X103661000Y-96480000D02*
X115839000Y-96480000D01*
X103555000Y-96520000D02*
X115945000Y-96520000D01*
X103450000Y-96560000D02*
X116050000Y-96560000D01*
X103347000Y-96600000D02*
X116153000Y-96600000D01*
X103246000Y-96640000D02*
X116254000Y-96640000D01*
X103147000Y-96680000D02*
X116353000Y-96680000D01*
X103050000Y-96720000D02*
X116450000Y-96720000D01*
X102954000Y-96760000D02*
X116546000Y-96760000D01*
X102860000Y-96800000D02*
X116640000Y-96800000D01*
X102767000Y-96840000D02*
X116733000Y-96840000D01*
X102675000Y-96880000D02*
X116825000Y-96880000D01*
X102585000Y-96920000D02*
X116915000Y-96920000D01*
X102497000Y-96960000D02*
X117003000Y-96960000D01*
X102409000Y-97000000D02*
X117091000Y-97000000D01*
X102323000Y-97040000D02*
X117177000Y-97040000D01*
X102238000Y-97080000D02*
X117262000Y-97080000D01*
X102155000Y-97120000D02*
X117345000Y-97120000D01*
X102072000Y-97160000D02*
X117428000Y-97160000D01*
X101991000Y-97200000D02*
X117509000Y-97200000D01*
X101910000Y-97240000D02*
X117590000Y-97240000D01*
X101830000Y-97280000D02*
X117670000Y-97280000D01*
X101752000Y-97320000D02*
X117748000Y-97320000D01*
X101674000Y-97360000D02*
X117826000Y-97360000D01*
X101598000Y-97400000D02*
X117902000Y-97400000D01*
X101522000Y-97440000D02*
X117978000Y-97440000D01*
X101447000Y-97480000D02*
X118053000Y-97480000D01*
X101373000Y-97520000D02*
X118127000Y-97520000D01*
X101300000Y-97560000D02*
X118200000Y-97560000D01*
X101228000Y-97600000D02*
X118272000Y-97600000D01*
X101156000Y-97640000D02*
X118344000Y-97640000D01*
X101085000Y-97680000D02*
X118415000Y-97680000D01*
X101015000Y-97720000D02*
X118485000Y-97720000D01*
X100946000Y-97760000D02*
X118554000Y-97760000D01*
X100877000Y-97800000D02*
X118623000Y-97800000D01*
X100810000Y-97840000D02*
X118690000Y-97840000D01*
X100742000Y-97880000D02*
X118758000Y-97880000D01*
X100676000Y-97920000D02*
X118824000Y-97920000D01*
X100610000Y-97960000D02*
X118890000Y-97960000D01*
X100545000Y-98000000D02*
X118955000Y-98000000D01*
X100480000Y-98040000D02*
X119020000Y-98040000D01*
X100416000Y-98080000D02*
X119084000Y-98080000D01*
X100353000Y-98120000D02*
X119147000Y-98120000D01*
X100290000Y-98160000D02*
X119210000Y-98160000D01*
X100228000Y-98200000D02*
X119272000Y-98200000D01*
X100166000Y-98240000D02*
X119334000Y-98240000D01*
X100105000Y-98280000D02*
X119395000Y-98280000D01*
X100045000Y-98320000D02*
X119455000Y-98320000D01*
X99985000Y-98360000D02*
X119515000Y-98360000D01*
X99925000Y-98400000D02*
X119575000Y-98400000D01*
X99866000Y-98440000D02*
X119634000Y-98440000D01*
X99808000Y-98480000D02*
X119692000Y-98480000D01*
X99750000Y-98520000D02*
X119750000Y-98520000D01*
X99692000Y-98560000D02*
X119808000Y-98560000D01*
X99635000Y-98600000D02*
X119865000Y-98600000D01*
X99579000Y-98640000D02*
X119921000Y-98640000D01*
X99523000Y-98680000D02*
X119977000Y-98680000D01*
X99467000Y-98720000D02*
X120033000Y-98720000D01*
X99412000Y-98760000D02*
X120088000Y-98760000D01*
X99358000Y-98800000D02*
X120142000Y-98800000D01*
X99303000Y-98840000D02*
X120197000Y-98840000D01*
X99250000Y-98880000D02*
X120250000Y-98880000D01*
X99196000Y-98920000D02*
X120304000Y-98920000D01*
X99143000Y-98960000D02*
X120357000Y-98960000D01*
X99091000Y-99000000D02*
X120409000Y-99000000D01*
X99039000Y-99040000D02*
X120461000Y-99040000D01*
X98987000Y-99080000D02*
X120513000Y-99080000D01*
X98935000Y-99120000D02*
X120565000Y-99120000D01*
X98885000Y-99160000D02*
X120615000Y-99160000D01*
X98834000Y-99200000D02*
X120666000Y-99200000D01*
X98784000Y-99240000D02*
X120716000Y-99240000D01*
X98734000Y-99280000D02*
X120766000Y-99280000D01*
X98684000Y-99320000D02*
X120816000Y-99320000D01*
X98635000Y-99360000D02*
X120865000Y-99360000D01*
X98587000Y-99400000D02*
X120913000Y-99400000D01*
X98538000Y-99440000D02*
X120962000Y-99440000D01*
X98490000Y-99480000D02*
X121010000Y-99480000D01*
X98443000Y-99520000D02*
X121057000Y-99520000D01*
X98395000Y-99560000D02*
X121105000Y-99560000D01*
X98348000Y-99600000D02*
X121152000Y-99600000D01*
X98301000Y-99640000D02*
X121199000Y-99640000D01*
X98255000Y-99680000D02*
X121245000Y-99680000D01*
X98209000Y-99720000D02*
X121291000Y-99720000D01*
X98163000Y-99760000D02*
X121337000Y-99760000D01*
X98118000Y-99800000D02*
X121382000Y-99800000D01*
X98073000Y-99840000D02*
X121427000Y-99840000D01*
X98028000Y-99880000D02*
X121472000Y-99880000D01*
X97984000Y-99920000D02*
X121516000Y-99920000D01*
X97939000Y-99960000D02*
X121561000Y-99960000D01*
X97896000Y-100000000D02*
X121604000Y-100000000D01*
X97852000Y-100040000D02*
X121648000Y-100040000D01*
X97809000Y-100080000D02*
X121691000Y-100080000D01*
X97766000Y-100120000D02*
X121734000Y-100120000D01*
X97723000Y-100160000D02*
X121777000Y-100160000D01*
X97681000Y-100200000D02*
X121819000Y-100200000D01*
X97639000Y-100240000D02*
X121861000Y-100240000D01*
X97597000Y-100280000D02*
X121903000Y-100280000D01*
X97555000Y-100320000D02*
X121945000Y-100320000D01*
X97514000Y-100360000D02*
X121986000Y-100360000D01*
X97473000Y-100400000D02*
X122027000Y-100400000D01*
X97432000Y-100440000D02*
X122068000Y-100440000D01*
X97391000Y-100480000D02*
X122109000Y-100480000D01*
X97351000Y-100520000D02*
X122149000Y-100520000D01*
X97311000Y-100560000D02*
X122189000Y-100560000D01*
X97271000Y-100600000D02*
X122229000Y-100600000D01*
X97232000Y-100640000D02*
X122268000Y-100640000D01*
X97193000Y-100680000D02*
X122307000Y-100680000D01*
X97154000Y-100720000D02*
X122346000Y-100720000D01*
X97115000Y-100760000D02*
X122385000Y-100760000D01*
X97076000Y-100800000D02*
X122424000Y-100800000D01*
X97038000Y-100840000D02*
X122462000Y-100840000D01*
X97000000Y-100880000D02*
X122500000Y-100880000D01*
X96962000Y-100920000D02*
X122538000Y-100920000D01*
X96925000Y-100960000D02*
X122575000Y-100960000D01*
X96887000Y-101000000D02*
X122613000Y-101000000D01*
X96850000Y-101040000D02*
X122650000Y-101040000D01*
X96813000Y-101080000D02*
X122687000Y-101080000D01*
X96777000Y-101120000D02*
X122723000Y-101120000D01*
X96740000Y-101160000D02*
X122760000Y-101160000D01*
X96704000Y-101200000D02*
X122796000Y-101200000D01*
X96668000Y-101240000D02*
X122832000Y-101240000D01*
X96633000Y-101280000D02*
X122867000Y-101280000D01*
X96597000Y-101320000D02*
X122903000Y-101320000D01*
X96562000Y-101360000D02*
X122938000Y-101360000D01*
X96527000Y-101400000D02*
X122973000Y-101400000D01*
X96492000Y-101440000D02*
X123008000Y-101440000D01*
X96457000Y-101480000D02*
X123043000Y-101480000D01*
X96423000Y-101520000D02*
X123077000Y-101520000D01*
X96388000Y-101560000D02*
X123112000Y-101560000D01*
X96354000Y-101600000D02*
X123146000Y-101600000D01*
X96320000Y-101640000D02*
X123180000Y-101640000D01*
X96287000Y-101680000D02*
X123213000Y-101680000D01*
X96253000Y-101720000D02*
X123247000Y-101720000D01*
X96220000Y-101760000D02*
X123280000Y-101760000D01*
X96187000Y-101800000D02*
X123313000Y-101800000D01*
X96154000Y-101840000D02*
X123346000Y-101840000D01*
X96122000Y-101880000D02*
X123378000Y-101880000D01*
X96089000Y-101920000D02*
X123411000Y-101920000D01*
X96057000Y-101960000D02*
X123443000Y-101960000D01*
X96025000Y-102000000D02*
X123475000Y-102000000D01*
X95993000Y-102040000D02*
X123507000Y-102040000D01*
X95961000Y-102080000D02*
X123539000Y-102080000D01*
X95930000Y-102120000D02*
X123570000Y-102120000D01*
X95899000Y-102160000D02*
X123601000Y-102160000D01*
X95867000Y-102200000D02*
X123633000Y-102200000D01*
X95836000Y-102240000D02*
X123664000Y-102240000D01*
X95806000Y-102280000D02*
X123694000Y-102280000D01*
X95775000Y-102320000D02*
X123725000Y-102320000D01*
X95745000Y-102360000D02*
X123755000Y-102360000D01*
X95715000Y-102400000D02*
X123785000Y-102400000D01*
X95685000Y-102440000D02*
X123815000Y-102440000D01*
X95655000Y-102480000D02*
X123845000Y-102480000D01*
X95625000Y-102520000D02*
X123875000Y-102520000D01*
X95595000Y-102560000D02*
X123905000Y-102560000D01*
X95566000Y-102600000D02*
X123934000Y-102600000D01*
X95537000Y-102640000D02*
X123963000Y-102640000D01*
X95508000Y-102680000D02*
X123992000Y-102680000D01*
X95479000Y-102720000D02*
X124021000Y-102720000D01*
X95451000Y-102760000D02*
X124049000Y-102760000D01*
X95422000Y-102800000D02*
X124078000Y-102800000D01*
X95394000Y-102840000D02*
X124106000Y-102840000D01*
X95366000Y-102880000D02*
X124134000Y-102880000D01*
X95338000Y-102920000D02*
X124162000Y-102920000D01*
X95310000Y-102960000D02*
X124190000Y-102960000D01*
X95282000Y-103000000D02*
X124218000Y-103000000D01*
X95255000Y-103040000D02*
X124245000Y-103040000D01*
X95227000Y-103080000D02*
X124273000Y-103080000D01*
X95200000Y-103120000D02*
X124300000Y-103120000D01*
X95173000Y-103160000D02*
X124327000Y-103160000D01*
X95146000Y-103200000D02*
X124354000Y-103200000D01*
X95120000Y-103240000D02*
X124380000Y-103240000D01*
X95093000Y-103280000D02*
X124407000Y-103280000D01*
X95067000Y-103320000D02*
X124433000Y-103320000D01*
X95040000Y-103360000D02*
X124460000Y-103360000D01*
X95014000Y-103400000D02*
X124486000Y-103400000D01*
X94988000Y-103440000D02*
X124512000Y-103440000D01*
X94963000Y-103480000D02*
X124537000Y-103480000D01*
X94937000Y-103520000D02*
X124563000Y-103520000D01*
X94912000Y-103560000D02*
X124588000Y-103560000D01*
X94886000Y-103600000D02*
X124614000Y-103600000D01*
X94861000Y-103640000D02*
X124639000Y-103640000D01*
X94836000Y-103680000D02*
X124664000Y-103680000D01*
X94811000Y-103720000D02*
X124689000Y-103720000D01*
X94787000Y-103760000D02*
X124713000Y-103760000D01*
X94762000Y-103800000D02*
X124738000Y-103800000D01*
X94738000Y-103840000D02*
X124762000Y-103840000D01*
X94713000Y-103880000D02*
X124787000Y-103880000D01*
X94689000Y-103920000D02*
X124811000Y-103920000D01*
X94665000Y-103960000D02*
X124835000Y-103960000D01*
X94641000Y-104000000D02*
X124859000Y-104000000D01*
X94618000Y-104040000D02*
X124882000Y-104040000D01*
X94594000Y-104080000D02*
X124906000Y-104080000D01*
X94571000Y-104120000D02*
X124929000Y-104120000D01*
X94547000Y-104160000D02*
X124953000Y-104160000D01*
X94524000Y-104200000D02*
X124976000Y-104200000D01*
X94501000Y-104240000D02*
X124999000Y-104240000D01*
X94479000Y-104280000D02*
X125021000Y-104280000D01*
X94456000Y-104320000D02*
X125044000Y-104320000D01*
X94433000Y-104360000D02*
X125067000Y-104360000D01*
X94411000Y-104400000D02*
X125089000Y-104400000D01*
X94389000Y-104440000D02*
X125111000Y-104440000D01*
X94366000Y-104480000D02*
X125134000Y-104480000D01*
X94344000Y-104520000D02*
X125156000Y-104520000D01*
X94322000Y-104560000D02*
X125178000Y-104560000D01*
X94301000Y-104600000D02*
X125199000Y-104600000D01*
X94279000Y-104640000D02*
X125221000Y-104640000D01*
X94258000Y-104680000D02*
X125242000Y-104680000D01*
X94236000Y-104720000D02*
X125264000Y-104720000D01*
X94215000Y-104760000D02*
X125285000Y-104760000D01*
X94194000Y-104800000D02*
X125306000Y-104800000D01*
X94173000Y-104839000D02*
X125327000Y-104839000D01*
X94152000Y-104879000D02*
X125348000Y-104879000D01*
X94131000Y-104919000D02*
X125369000Y-104919000D01*
X94111000Y-104959000D02*
X125389000Y-104959000D01*
X94090000Y-104999000D02*
X125410000Y-104999000D01*
X94070000Y-105039000D02*
X125430000Y-105039000D01*
X94050000Y-105079000D02*
X125450000Y-105079000D01*
X94030000Y-105119000D02*
X125470000Y-105119000D01*
X94010000Y-105159000D02*
X125490000Y-105159000D01*
X93990000Y-105199000D02*
X125510000Y-105199000D01*
X93970000Y-105239000D02*
X125530000Y-105239000D01*
X93951000Y-105279000D02*
X125549000Y-105279000D01*
X93931000Y-105319000D02*
X125569000Y-105319000D01*
X93912000Y-105359000D02*
X125588000Y-105359000D01*
X93893000Y-105399000D02*
X125607000Y-105399000D01*
X93874000Y-105439000D02*
X125626000Y-105439000D01*
X93855000Y-105479000D02*
X125645000Y-105479000D01*
X93836000Y-105519000D02*
X125664000Y-105519000D01*
X93817000Y-105559000D02*
X125683000Y-105559000D01*
X93799000Y-105599000D02*
X125701000Y-105599000D01*
X93780000Y-105639000D02*
X125720000Y-105639000D01*
X93762000Y-105679000D02*
X125738000Y-105679000D01*
X93744000Y-105719000D02*
X125756000Y-105719000D01*
X93726000Y-105759000D02*
X125774000Y-105759000D01*
X111990000Y-105799000D02*
X125792000Y-105799000D01*
X93708000Y-105799000D02*
X107510000Y-105799000D01*
X111990000Y-105839000D02*
X125810000Y-105839000D01*
X93690000Y-105839000D02*
X107510000Y-105839000D01*
X111990000Y-105879000D02*
X125828000Y-105879000D01*
X93672000Y-105879000D02*
X107510000Y-105879000D01*
X111990000Y-105919000D02*
X125845000Y-105919000D01*
X93655000Y-105919000D02*
X107510000Y-105919000D01*
X111990000Y-105959000D02*
X125863000Y-105959000D01*
X93637000Y-105959000D02*
X107510000Y-105959000D01*
X111990000Y-105999000D02*
X125880000Y-105999000D01*
X93620000Y-105999000D02*
X107510000Y-105999000D01*
X111990000Y-106039000D02*
X125898000Y-106039000D01*
X93602000Y-106039000D02*
X107510000Y-106039000D01*
X111990000Y-106079000D02*
X125915000Y-106079000D01*
X93585000Y-106079000D02*
X107510000Y-106079000D01*
X111990000Y-106119000D02*
X125932000Y-106119000D01*
X93568000Y-106119000D02*
X107510000Y-106119000D01*
X111990000Y-106159000D02*
X125949000Y-106159000D01*
X93551000Y-106159000D02*
X107510000Y-106159000D01*
X111990000Y-106199000D02*
X125965000Y-106199000D01*
X93535000Y-106199000D02*
X107510000Y-106199000D01*
X111990000Y-106239000D02*
X125982000Y-106239000D01*
X93518000Y-106239000D02*
X107510000Y-106239000D01*
X111990000Y-106279000D02*
X125999000Y-106279000D01*
X93501000Y-106279000D02*
X107510000Y-106279000D01*
X111990000Y-106319000D02*
X126015000Y-106319000D01*
X93485000Y-106319000D02*
X107510000Y-106319000D01*
X111990000Y-106359000D02*
X126031000Y-106359000D01*
X93469000Y-106359000D02*
X107510000Y-106359000D01*
X111990000Y-106399000D02*
X126048000Y-106399000D01*
X93452000Y-106399000D02*
X107510000Y-106399000D01*
X111990000Y-106439000D02*
X126064000Y-106439000D01*
X93436000Y-106439000D02*
X107510000Y-106439000D01*
X111990000Y-106479000D02*
X126080000Y-106479000D01*
X93420000Y-106479000D02*
X107510000Y-106479000D01*
X111990000Y-106519000D02*
X126096000Y-106519000D01*
X93404000Y-106519000D02*
X107510000Y-106519000D01*
X111990000Y-106559000D02*
X126111000Y-106559000D01*
X93389000Y-106559000D02*
X107510000Y-106559000D01*
X111990000Y-106599000D02*
X126127000Y-106599000D01*
X93373000Y-106599000D02*
X107510000Y-106599000D01*
X111990000Y-106639000D02*
X126143000Y-106639000D01*
X93357000Y-106639000D02*
X107510000Y-106639000D01*
X111990000Y-106679000D02*
X126158000Y-106679000D01*
X93342000Y-106679000D02*
X107510000Y-106679000D01*
X111990000Y-106719000D02*
X126173000Y-106719000D01*
X93327000Y-106719000D02*
X107510000Y-106719000D01*
X111990000Y-106759000D02*
X126189000Y-106759000D01*
X93311000Y-106759000D02*
X107510000Y-106759000D01*
X111990000Y-106799000D02*
X126204000Y-106799000D01*
X93296000Y-106799000D02*
X107510000Y-106799000D01*
X111990000Y-106839000D02*
X126219000Y-106839000D01*
X93281000Y-106839000D02*
X107510000Y-106839000D01*
X111990000Y-106879000D02*
X126234000Y-106879000D01*
X93266000Y-106879000D02*
X107510000Y-106879000D01*
X111990000Y-106919000D02*
X126248000Y-106919000D01*
X93252000Y-106919000D02*
X107510000Y-106919000D01*
X111990000Y-106959000D02*
X126263000Y-106959000D01*
X93237000Y-106959000D02*
X107510000Y-106959000D01*
X111990000Y-106999000D02*
X126277000Y-106999000D01*
X93223000Y-106999000D02*
X107510000Y-106999000D01*
X111990000Y-107039000D02*
X126292000Y-107039000D01*
X93208000Y-107039000D02*
X107510000Y-107039000D01*
X111990000Y-107079000D02*
X126306000Y-107079000D01*
X93194000Y-107079000D02*
X107510000Y-107079000D01*
X111990000Y-107119000D02*
X126320000Y-107119000D01*
X93180000Y-107119000D02*
X107510000Y-107119000D01*
X111990000Y-107159000D02*
X126335000Y-107159000D01*
X93165000Y-107159000D02*
X107510000Y-107159000D01*
X111990000Y-107199000D02*
X126349000Y-107199000D01*
X93151000Y-107199000D02*
X107510000Y-107199000D01*
X111990000Y-107239000D02*
X126362000Y-107239000D01*
X93138000Y-107239000D02*
X107510000Y-107239000D01*
X111990000Y-107279000D02*
X126376000Y-107279000D01*
X93124000Y-107279000D02*
X107510000Y-107279000D01*
X111990000Y-107319000D02*
X126390000Y-107319000D01*
X93110000Y-107319000D02*
X107510000Y-107319000D01*
X111990000Y-107359000D02*
X126403000Y-107359000D01*
X93097000Y-107359000D02*
X107510000Y-107359000D01*
X111990000Y-107399000D02*
X126417000Y-107399000D01*
X93083000Y-107399000D02*
X107510000Y-107399000D01*
X111990000Y-107439000D02*
X126430000Y-107439000D01*
X93070000Y-107439000D02*
X107510000Y-107439000D01*
X111990000Y-107479000D02*
X126444000Y-107479000D01*
X93056000Y-107479000D02*
X107510000Y-107479000D01*
X111990000Y-107519000D02*
X126457000Y-107519000D01*
X93043000Y-107519000D02*
X107510000Y-107519000D01*
X111990000Y-107559000D02*
X126470000Y-107559000D01*
X93030000Y-107559000D02*
X107510000Y-107559000D01*
X111990000Y-107599000D02*
X126483000Y-107599000D01*
X93017000Y-107599000D02*
X107510000Y-107599000D01*
X111990000Y-107639000D02*
X126495000Y-107639000D01*
X93005000Y-107639000D02*
X107510000Y-107639000D01*
X111990000Y-107679000D02*
X126508000Y-107679000D01*
X92992000Y-107679000D02*
X107510000Y-107679000D01*
X111990000Y-107719000D02*
X126521000Y-107719000D01*
X92979000Y-107719000D02*
X107510000Y-107719000D01*
X111990000Y-107759000D02*
X126533000Y-107759000D01*
X92967000Y-107759000D02*
X107510000Y-107759000D01*
X111990000Y-107799000D02*
X126546000Y-107799000D01*
X92954000Y-107799000D02*
X107510000Y-107799000D01*
X111990000Y-107839000D02*
X126558000Y-107839000D01*
X92942000Y-107839000D02*
X107510000Y-107839000D01*
X111990000Y-107879000D02*
X126570000Y-107879000D01*
X92930000Y-107879000D02*
X107510000Y-107879000D01*
X111990000Y-107919000D02*
X126582000Y-107919000D01*
X92918000Y-107919000D02*
X107510000Y-107919000D01*
X111990000Y-107959000D02*
X126594000Y-107959000D01*
X92906000Y-107959000D02*
X107510000Y-107959000D01*
X111990000Y-107999000D02*
X126606000Y-107999000D01*
X92894000Y-107999000D02*
X107510000Y-107999000D01*
X111990000Y-108039000D02*
X126618000Y-108039000D01*
X92882000Y-108039000D02*
X107510000Y-108039000D01*
X111990000Y-108079000D02*
X126630000Y-108079000D01*
X92870000Y-108079000D02*
X107510000Y-108079000D01*
X111990000Y-108119000D02*
X126641000Y-108119000D01*
X92859000Y-108119000D02*
X107510000Y-108119000D01*
X111990000Y-108159000D02*
X126653000Y-108159000D01*
X92847000Y-108159000D02*
X107510000Y-108159000D01*
X111990000Y-108199000D02*
X126664000Y-108199000D01*
X92836000Y-108199000D02*
X107510000Y-108199000D01*
X111990000Y-108239000D02*
X126675000Y-108239000D01*
X92825000Y-108239000D02*
X107510000Y-108239000D01*
X111990000Y-108279000D02*
X126687000Y-108279000D01*
X92813000Y-108279000D02*
X107510000Y-108279000D01*
X111990000Y-108319000D02*
X126698000Y-108319000D01*
X92802000Y-108319000D02*
X107510000Y-108319000D01*
X111990000Y-108359000D02*
X126709000Y-108359000D01*
X92791000Y-108359000D02*
X107510000Y-108359000D01*
X111990000Y-108399000D02*
X126719000Y-108399000D01*
X92781000Y-108399000D02*
X107510000Y-108399000D01*
X111990000Y-108439000D02*
X126730000Y-108439000D01*
X92770000Y-108439000D02*
X107510000Y-108439000D01*
X111990000Y-108479000D02*
X126741000Y-108479000D01*
X92759000Y-108479000D02*
X107510000Y-108479000D01*
X111990000Y-108519000D02*
X126751000Y-108519000D01*
X92749000Y-108519000D02*
X107510000Y-108519000D01*
X111990000Y-108559000D02*
X126762000Y-108559000D01*
X92738000Y-108559000D02*
X107510000Y-108559000D01*
X111990000Y-108599000D02*
X126772000Y-108599000D01*
X92728000Y-108599000D02*
X107510000Y-108599000D01*
X111990000Y-108639000D02*
X126783000Y-108639000D01*
X92717000Y-108639000D02*
X107510000Y-108639000D01*
X111990000Y-108679000D02*
X126793000Y-108679000D01*
X92707000Y-108679000D02*
X107510000Y-108679000D01*
X111990000Y-108719000D02*
X126803000Y-108719000D01*
X92697000Y-108719000D02*
X107510000Y-108719000D01*
X111990000Y-108759000D02*
X126813000Y-108759000D01*
X92687000Y-108759000D02*
X107510000Y-108759000D01*
X111990000Y-108799000D02*
X126823000Y-108799000D01*
X92677000Y-108799000D02*
X107510000Y-108799000D01*
X111990000Y-108839000D02*
X126832000Y-108839000D01*
X92668000Y-108839000D02*
X107510000Y-108839000D01*
X111990000Y-108879000D02*
X126842000Y-108879000D01*
X92658000Y-108879000D02*
X107510000Y-108879000D01*
X111990000Y-108919000D02*
X126852000Y-108919000D01*
X92648000Y-108919000D02*
X107510000Y-108919000D01*
X111990000Y-108959000D02*
X126861000Y-108959000D01*
X92639000Y-108959000D02*
X107510000Y-108959000D01*
X111990000Y-108999000D02*
X126870000Y-108999000D01*
X92630000Y-108999000D02*
X107510000Y-108999000D01*
X111990000Y-109039000D02*
X126880000Y-109039000D01*
X92620000Y-109039000D02*
X107510000Y-109039000D01*
X111990000Y-109079000D02*
X126889000Y-109079000D01*
X92611000Y-109079000D02*
X107510000Y-109079000D01*
X111990000Y-109119000D02*
X126898000Y-109119000D01*
X92602000Y-109119000D02*
X107510000Y-109119000D01*
X111990000Y-109159000D02*
X126907000Y-109159000D01*
X92593000Y-109159000D02*
X107510000Y-109159000D01*
X111990000Y-109199000D02*
X126916000Y-109199000D01*
X92584000Y-109199000D02*
X107510000Y-109199000D01*
X111990000Y-109239000D02*
X126925000Y-109239000D01*
X92575000Y-109239000D02*
X107510000Y-109239000D01*
X111990000Y-109279000D02*
X126933000Y-109279000D01*
X92567000Y-109279000D02*
X107510000Y-109279000D01*
X111990000Y-109319000D02*
X126942000Y-109319000D01*
X92558000Y-109319000D02*
X107510000Y-109319000D01*
X111990000Y-109359000D02*
X126950000Y-109359000D01*
X92550000Y-109359000D02*
X107510000Y-109359000D01*
X111990000Y-109399000D02*
X126959000Y-109399000D01*
X92541000Y-109399000D02*
X107510000Y-109399000D01*
X111990000Y-109439000D02*
X126967000Y-109439000D01*
X92533000Y-109439000D02*
X107510000Y-109439000D01*
X111990000Y-109479000D02*
X126975000Y-109479000D01*
X92525000Y-109479000D02*
X107510000Y-109479000D01*
X111990000Y-109519000D02*
X126983000Y-109519000D01*
X92517000Y-109519000D02*
X107510000Y-109519000D01*
X111990000Y-109559000D02*
X126991000Y-109559000D01*
X92509000Y-109559000D02*
X107510000Y-109559000D01*
X111990000Y-109599000D02*
X126999000Y-109599000D01*
X92501000Y-109599000D02*
X107510000Y-109599000D01*
X111990000Y-109639000D02*
X127007000Y-109639000D01*
X92493000Y-109639000D02*
X107510000Y-109639000D01*
X111990000Y-109679000D02*
X127015000Y-109679000D01*
X92485000Y-109679000D02*
X107510000Y-109679000D01*
X111990000Y-109719000D02*
X127023000Y-109719000D01*
X92477000Y-109719000D02*
X107510000Y-109719000D01*
X111990000Y-109759000D02*
X127030000Y-109759000D01*
X92470000Y-109759000D02*
X107510000Y-109759000D01*
X111990000Y-109799000D02*
X127037000Y-109799000D01*
X92463000Y-109799000D02*
X107510000Y-109799000D01*
X111990000Y-109839000D02*
X127045000Y-109839000D01*
X92455000Y-109839000D02*
X107510000Y-109839000D01*
X111990000Y-109879000D02*
X127052000Y-109879000D01*
X92448000Y-109879000D02*
X107510000Y-109879000D01*
X111990000Y-109919000D02*
X127059000Y-109919000D01*
X92441000Y-109919000D02*
X107510000Y-109919000D01*
X111990000Y-109959000D02*
X127066000Y-109959000D01*
X92434000Y-109959000D02*
X107510000Y-109959000D01*
X111990000Y-109999000D02*
X127073000Y-109999000D01*
X92427000Y-109999000D02*
X107510000Y-109999000D01*
X111990000Y-110039000D02*
X127080000Y-110039000D01*
X92420000Y-110039000D02*
X107510000Y-110039000D01*
X111990000Y-110079000D02*
X127087000Y-110079000D01*
X92413000Y-110079000D02*
X107510000Y-110079000D01*
X111990000Y-110119000D02*
X127094000Y-110119000D01*
X92406000Y-110119000D02*
X107510000Y-110119000D01*
X111990000Y-110159000D02*
X127100000Y-110159000D01*
X92400000Y-110159000D02*
X107510000Y-110159000D01*
X111990000Y-110199000D02*
X127107000Y-110199000D01*
X92393000Y-110199000D02*
X107510000Y-110199000D01*
X111990000Y-110239000D02*
X127113000Y-110239000D01*
X92387000Y-110239000D02*
X107510000Y-110239000D01*
X92381000Y-110279000D02*
X127119000Y-110279000D01*
X92375000Y-110319000D02*
X127125000Y-110319000D01*
X92368000Y-110359000D02*
X127132000Y-110359000D01*
X92362000Y-110399000D02*
X127138000Y-110399000D01*
X92356000Y-110439000D02*
X127144000Y-110439000D01*
X92351000Y-110479000D02*
X127149000Y-110479000D01*
X92345000Y-110519000D02*
X127155000Y-110519000D01*
X92339000Y-110559000D02*
X127161000Y-110559000D01*
X92334000Y-110599000D02*
X127166000Y-110599000D01*
X92328000Y-110639000D02*
X127172000Y-110639000D01*
X92323000Y-110679000D02*
X127177000Y-110679000D01*
X92318000Y-110719000D02*
X127182000Y-110719000D01*
X92312000Y-110759000D02*
X127188000Y-110759000D01*
X92307000Y-110799000D02*
X127193000Y-110799000D01*
X92302000Y-110839000D02*
X127198000Y-110839000D01*
X92298000Y-110879000D02*
X127202000Y-110879000D01*
X92293000Y-110919000D02*
X127207000Y-110919000D01*
X92288000Y-110959000D02*
X127212000Y-110959000D01*
X92283000Y-110999000D02*
X127217000Y-110999000D01*
X92279000Y-111039000D02*
X127221000Y-111039000D01*
X92274000Y-111079000D02*
X127226000Y-111079000D01*
X92270000Y-111119000D02*
X127230000Y-111119000D01*
X92266000Y-111159000D02*
X127234000Y-111159000D01*
X92262000Y-111199000D02*
X127238000Y-111199000D01*
X92258000Y-111239000D02*
X127242000Y-111239000D01*
X92254000Y-111279000D02*
X127246000Y-111279000D01*
X92250000Y-111319000D02*
X127250000Y-111319000D01*
X92246000Y-111359000D02*
X127254000Y-111359000D01*
X92242000Y-111399000D02*
X127258000Y-111399000D01*
X92239000Y-111439000D02*
X127261000Y-111439000D01*
X92235000Y-111479000D02*
X127265000Y-111479000D01*
X92232000Y-111519000D02*
X127268000Y-111519000D01*
X92228000Y-111559000D02*
X127272000Y-111559000D01*
X92225000Y-111599000D02*
X127275000Y-111599000D01*
X92222000Y-111639000D02*
X127278000Y-111639000D01*
X92219000Y-111679000D02*
X127281000Y-111679000D01*
X92216000Y-111719000D02*
X127284000Y-111719000D01*
X92213000Y-111759000D02*
X127287000Y-111759000D01*
X92210000Y-111799000D02*
X127290000Y-111799000D01*
X92208000Y-111839000D02*
X127292000Y-111839000D01*
X92205000Y-111879000D02*
X127295000Y-111879000D01*
X92203000Y-111919000D02*
X127297000Y-111919000D01*
X92200000Y-111959000D02*
X127300000Y-111959000D01*
X92198000Y-111999000D02*
X127302000Y-111999000D01*
X92196000Y-112039000D02*
X127304000Y-112039000D01*
X92194000Y-112079000D02*
X127306000Y-112079000D01*
X92191000Y-112119000D02*
X127309000Y-112119000D01*
X92190000Y-112159000D02*
X127310000Y-112159000D01*
X92188000Y-112199000D02*
X127312000Y-112199000D01*
X92186000Y-112239000D02*
X127314000Y-112239000D01*
X92184000Y-112279000D02*
X127316000Y-112279000D01*
X92183000Y-112320000D02*
X127317000Y-112320000D01*
X92181000Y-112360000D02*
X127319000Y-112360000D01*
X92180000Y-112400000D02*
X127320000Y-112400000D01*
X92178000Y-112440000D02*
X127322000Y-112440000D01*
X92177000Y-112480000D02*
X127323000Y-112480000D01*
X92176000Y-112520000D02*
X127324000Y-112520000D01*
X92175000Y-112560000D02*
X127325000Y-112560000D01*
X92174000Y-112600000D02*
X127326000Y-112600000D01*
X92173000Y-112640000D02*
X127327000Y-112640000D01*
X92172000Y-112680000D02*
X127328000Y-112680000D01*
X92172000Y-112720000D02*
X127328000Y-112720000D01*
X92171000Y-112760000D02*
X127329000Y-112760000D01*
X92171000Y-112800000D02*
X127329000Y-112800000D01*
X92170000Y-112840000D02*
X127330000Y-112840000D01*
X92170000Y-112880000D02*
X127330000Y-112880000D01*
X92170000Y-112920000D02*
X127330000Y-112920000D01*
X92170000Y-112960000D02*
X127330000Y-112960000D01*
X92170000Y-113000000D02*
X127330000Y-113000000D01*
X127370000Y-113000000D02*
G75*
G03*
X127370000Y-113000000I-17620000J0D01*
G01*
%TO.C,C8*%
X62375000Y-94104002D02*
X65875000Y-94104002D01*
X64125000Y-95854002D02*
X64125000Y-92354002D01*
X73200000Y-59400000D02*
X74800000Y-59400000D01*
X72587000Y-59440000D02*
X75413000Y-59440000D01*
X72165000Y-59480000D02*
X75835000Y-59480000D01*
X71823000Y-59520000D02*
X76177000Y-59520000D01*
X71527000Y-59560000D02*
X76473000Y-59560000D01*
X71264000Y-59600000D02*
X76736000Y-59600000D01*
X71024000Y-59640000D02*
X76976000Y-59640000D01*
X70802000Y-59680000D02*
X77198000Y-59680000D01*
X70595000Y-59720000D02*
X77405000Y-59720000D01*
X70400000Y-59760000D02*
X77600000Y-59760000D01*
X70215000Y-59800000D02*
X77785000Y-59800000D01*
X70040000Y-59840000D02*
X77960000Y-59840000D01*
X69872000Y-59880000D02*
X78128000Y-59880000D01*
X69711000Y-59920000D02*
X78289000Y-59920000D01*
X69556000Y-59960000D02*
X78444000Y-59960000D01*
X69407000Y-60000000D02*
X78593000Y-60000000D01*
X69262000Y-60040000D02*
X78738000Y-60040000D01*
X69122000Y-60080000D02*
X78878000Y-60080000D01*
X68987000Y-60120000D02*
X79013000Y-60120000D01*
X68855000Y-60160000D02*
X79145000Y-60160000D01*
X68727000Y-60200000D02*
X79273000Y-60200000D01*
X68602000Y-60240000D02*
X79398000Y-60240000D01*
X68480000Y-60280000D02*
X79520000Y-60280000D01*
X68361000Y-60320000D02*
X79639000Y-60320000D01*
X68245000Y-60360000D02*
X79755000Y-60360000D01*
X68132000Y-60400000D02*
X79868000Y-60400000D01*
X68020000Y-60440000D02*
X79980000Y-60440000D01*
X67911000Y-60480000D02*
X80089000Y-60480000D01*
X67805000Y-60520000D02*
X80195000Y-60520000D01*
X67700000Y-60560000D02*
X80300000Y-60560000D01*
X67597000Y-60600000D02*
X80403000Y-60600000D01*
X67496000Y-60640000D02*
X80504000Y-60640000D01*
X67397000Y-60680000D02*
X80603000Y-60680000D01*
X67300000Y-60720000D02*
X80700000Y-60720000D01*
X67204000Y-60760000D02*
X80796000Y-60760000D01*
X67110000Y-60800000D02*
X80890000Y-60800000D01*
X67017000Y-60840000D02*
X80983000Y-60840000D01*
X66925000Y-60880000D02*
X81075000Y-60880000D01*
X66835000Y-60920000D02*
X81165000Y-60920000D01*
X66747000Y-60960000D02*
X81253000Y-60960000D01*
X66659000Y-61000000D02*
X81341000Y-61000000D01*
X66573000Y-61040000D02*
X81427000Y-61040000D01*
X66488000Y-61080000D02*
X81512000Y-61080000D01*
X66405000Y-61120000D02*
X81595000Y-61120000D01*
X66322000Y-61160000D02*
X81678000Y-61160000D01*
X66241000Y-61200000D02*
X81759000Y-61200000D01*
X66160000Y-61240000D02*
X81840000Y-61240000D01*
X66080000Y-61280000D02*
X81920000Y-61280000D01*
X66002000Y-61320000D02*
X81998000Y-61320000D01*
X65924000Y-61360000D02*
X82076000Y-61360000D01*
X65848000Y-61400000D02*
X82152000Y-61400000D01*
X65772000Y-61440000D02*
X82228000Y-61440000D01*
X65697000Y-61480000D02*
X82303000Y-61480000D01*
X65623000Y-61520000D02*
X82377000Y-61520000D01*
X65550000Y-61560000D02*
X82450000Y-61560000D01*
X65478000Y-61600000D02*
X82522000Y-61600000D01*
X65406000Y-61640000D02*
X82594000Y-61640000D01*
X65335000Y-61680000D02*
X82665000Y-61680000D01*
X65265000Y-61720000D02*
X82735000Y-61720000D01*
X65196000Y-61760000D02*
X82804000Y-61760000D01*
X65127000Y-61800000D02*
X82873000Y-61800000D01*
X65060000Y-61840000D02*
X82940000Y-61840000D01*
X64992000Y-61880000D02*
X83008000Y-61880000D01*
X64926000Y-61920000D02*
X83074000Y-61920000D01*
X64860000Y-61960000D02*
X83140000Y-61960000D01*
X64795000Y-62000000D02*
X83205000Y-62000000D01*
X64730000Y-62040000D02*
X83270000Y-62040000D01*
X64666000Y-62080000D02*
X83334000Y-62080000D01*
X64603000Y-62120000D02*
X83397000Y-62120000D01*
X64540000Y-62160000D02*
X83460000Y-62160000D01*
X64478000Y-62200000D02*
X83522000Y-62200000D01*
X64416000Y-62240000D02*
X83584000Y-62240000D01*
X64355000Y-62280000D02*
X83645000Y-62280000D01*
X64295000Y-62320000D02*
X83705000Y-62320000D01*
X64235000Y-62360000D02*
X83765000Y-62360000D01*
X64175000Y-62400000D02*
X83825000Y-62400000D01*
X64116000Y-62440000D02*
X83884000Y-62440000D01*
X64058000Y-62480000D02*
X83942000Y-62480000D01*
X64000000Y-62520000D02*
X84000000Y-62520000D01*
X63942000Y-62560000D02*
X84058000Y-62560000D01*
X63885000Y-62600000D02*
X84115000Y-62600000D01*
X63829000Y-62640000D02*
X84171000Y-62640000D01*
X63773000Y-62680000D02*
X84227000Y-62680000D01*
X63717000Y-62720000D02*
X84283000Y-62720000D01*
X63662000Y-62760000D02*
X84338000Y-62760000D01*
X63608000Y-62800000D02*
X84392000Y-62800000D01*
X63553000Y-62840000D02*
X84447000Y-62840000D01*
X63500000Y-62880000D02*
X84500000Y-62880000D01*
X63446000Y-62920000D02*
X84554000Y-62920000D01*
X63393000Y-62960000D02*
X84607000Y-62960000D01*
X63341000Y-63000000D02*
X84659000Y-63000000D01*
X63289000Y-63040000D02*
X84711000Y-63040000D01*
X63237000Y-63080000D02*
X84763000Y-63080000D01*
X63185000Y-63120000D02*
X84815000Y-63120000D01*
X63135000Y-63160000D02*
X84865000Y-63160000D01*
X63084000Y-63200000D02*
X84916000Y-63200000D01*
X63034000Y-63240000D02*
X84966000Y-63240000D01*
X62984000Y-63280000D02*
X85016000Y-63280000D01*
X62934000Y-63320000D02*
X85066000Y-63320000D01*
X62885000Y-63360000D02*
X85115000Y-63360000D01*
X62837000Y-63400000D02*
X85163000Y-63400000D01*
X62788000Y-63440000D02*
X85212000Y-63440000D01*
X62740000Y-63480000D02*
X85260000Y-63480000D01*
X62693000Y-63520000D02*
X85307000Y-63520000D01*
X62645000Y-63560000D02*
X85355000Y-63560000D01*
X62598000Y-63600000D02*
X85402000Y-63600000D01*
X62551000Y-63640000D02*
X85449000Y-63640000D01*
X62505000Y-63680000D02*
X85495000Y-63680000D01*
X62459000Y-63720000D02*
X85541000Y-63720000D01*
X62413000Y-63760000D02*
X85587000Y-63760000D01*
X62368000Y-63800000D02*
X85632000Y-63800000D01*
X62323000Y-63840000D02*
X85677000Y-63840000D01*
X62278000Y-63880000D02*
X85722000Y-63880000D01*
X62234000Y-63920000D02*
X85766000Y-63920000D01*
X62189000Y-63960000D02*
X85811000Y-63960000D01*
X62146000Y-64000000D02*
X85854000Y-64000000D01*
X62102000Y-64040000D02*
X85898000Y-64040000D01*
X62059000Y-64080000D02*
X85941000Y-64080000D01*
X62016000Y-64120000D02*
X85984000Y-64120000D01*
X61973000Y-64160000D02*
X86027000Y-64160000D01*
X61931000Y-64200000D02*
X86069000Y-64200000D01*
X61889000Y-64240000D02*
X86111000Y-64240000D01*
X61847000Y-64280000D02*
X86153000Y-64280000D01*
X61805000Y-64320000D02*
X86195000Y-64320000D01*
X61764000Y-64360000D02*
X86236000Y-64360000D01*
X61723000Y-64400000D02*
X86277000Y-64400000D01*
X61682000Y-64440000D02*
X86318000Y-64440000D01*
X61641000Y-64480000D02*
X86359000Y-64480000D01*
X61601000Y-64520000D02*
X86399000Y-64520000D01*
X61561000Y-64560000D02*
X86439000Y-64560000D01*
X61521000Y-64600000D02*
X86479000Y-64600000D01*
X61482000Y-64640000D02*
X86518000Y-64640000D01*
X61443000Y-64680000D02*
X86557000Y-64680000D01*
X61404000Y-64720000D02*
X86596000Y-64720000D01*
X61365000Y-64760000D02*
X86635000Y-64760000D01*
X61326000Y-64800000D02*
X86674000Y-64800000D01*
X61288000Y-64840000D02*
X86712000Y-64840000D01*
X61250000Y-64880000D02*
X86750000Y-64880000D01*
X61212000Y-64920000D02*
X86788000Y-64920000D01*
X61175000Y-64960000D02*
X86825000Y-64960000D01*
X61137000Y-65000000D02*
X86863000Y-65000000D01*
X61100000Y-65040000D02*
X86900000Y-65040000D01*
X61063000Y-65080000D02*
X86937000Y-65080000D01*
X61027000Y-65120000D02*
X86973000Y-65120000D01*
X60990000Y-65160000D02*
X87010000Y-65160000D01*
X60954000Y-65200000D02*
X87046000Y-65200000D01*
X60918000Y-65240000D02*
X87082000Y-65240000D01*
X60883000Y-65280000D02*
X87117000Y-65280000D01*
X60847000Y-65320000D02*
X87153000Y-65320000D01*
X60812000Y-65360000D02*
X87188000Y-65360000D01*
X60777000Y-65400000D02*
X87223000Y-65400000D01*
X60742000Y-65440000D02*
X87258000Y-65440000D01*
X60707000Y-65480000D02*
X87293000Y-65480000D01*
X60673000Y-65520000D02*
X87327000Y-65520000D01*
X60638000Y-65560000D02*
X87362000Y-65560000D01*
X60604000Y-65600000D02*
X87396000Y-65600000D01*
X60570000Y-65640000D02*
X87430000Y-65640000D01*
X60537000Y-65680000D02*
X87463000Y-65680000D01*
X60503000Y-65720000D02*
X87497000Y-65720000D01*
X60470000Y-65760000D02*
X87530000Y-65760000D01*
X60437000Y-65800000D02*
X87563000Y-65800000D01*
X60404000Y-65840000D02*
X87596000Y-65840000D01*
X60372000Y-65880000D02*
X87628000Y-65880000D01*
X60339000Y-65920000D02*
X87661000Y-65920000D01*
X60307000Y-65960000D02*
X87693000Y-65960000D01*
X60275000Y-66000000D02*
X87725000Y-66000000D01*
X60243000Y-66040000D02*
X87757000Y-66040000D01*
X60211000Y-66080000D02*
X87789000Y-66080000D01*
X60180000Y-66120000D02*
X87820000Y-66120000D01*
X60149000Y-66160000D02*
X87851000Y-66160000D01*
X60117000Y-66200000D02*
X87883000Y-66200000D01*
X60086000Y-66240000D02*
X87914000Y-66240000D01*
X60056000Y-66280000D02*
X87944000Y-66280000D01*
X60025000Y-66320000D02*
X87975000Y-66320000D01*
X59995000Y-66360000D02*
X88005000Y-66360000D01*
X59965000Y-66400000D02*
X88035000Y-66400000D01*
X59935000Y-66440000D02*
X88065000Y-66440000D01*
X59905000Y-66480000D02*
X88095000Y-66480000D01*
X59875000Y-66520000D02*
X88125000Y-66520000D01*
X59845000Y-66560000D02*
X88155000Y-66560000D01*
X59816000Y-66600000D02*
X88184000Y-66600000D01*
X59787000Y-66640000D02*
X88213000Y-66640000D01*
X59758000Y-66680000D02*
X88242000Y-66680000D01*
X59729000Y-66720000D02*
X88271000Y-66720000D01*
X59701000Y-66760000D02*
X88299000Y-66760000D01*
X59672000Y-66800000D02*
X88328000Y-66800000D01*
X59644000Y-66840000D02*
X88356000Y-66840000D01*
X59616000Y-66880000D02*
X88384000Y-66880000D01*
X59588000Y-66920000D02*
X88412000Y-66920000D01*
X59560000Y-66960000D02*
X88440000Y-66960000D01*
X59532000Y-67000000D02*
X88468000Y-67000000D01*
X59505000Y-67040000D02*
X88495000Y-67040000D01*
X59477000Y-67080000D02*
X88523000Y-67080000D01*
X59450000Y-67120000D02*
X88550000Y-67120000D01*
X59423000Y-67160000D02*
X88577000Y-67160000D01*
X59396000Y-67200000D02*
X88604000Y-67200000D01*
X59370000Y-67240000D02*
X88630000Y-67240000D01*
X59343000Y-67280000D02*
X88657000Y-67280000D01*
X59317000Y-67320000D02*
X88683000Y-67320000D01*
X59290000Y-67360000D02*
X88710000Y-67360000D01*
X59264000Y-67400000D02*
X88736000Y-67400000D01*
X59238000Y-67440000D02*
X88762000Y-67440000D01*
X59213000Y-67480000D02*
X88787000Y-67480000D01*
X59187000Y-67520000D02*
X88813000Y-67520000D01*
X59162000Y-67560000D02*
X88838000Y-67560000D01*
X59136000Y-67600000D02*
X88864000Y-67600000D01*
X59111000Y-67640000D02*
X88889000Y-67640000D01*
X59086000Y-67680000D02*
X88914000Y-67680000D01*
X59061000Y-67720000D02*
X88939000Y-67720000D01*
X59037000Y-67760000D02*
X88963000Y-67760000D01*
X59012000Y-67800000D02*
X88988000Y-67800000D01*
X58988000Y-67840000D02*
X89012000Y-67840000D01*
X58963000Y-67880000D02*
X89037000Y-67880000D01*
X58939000Y-67920000D02*
X89061000Y-67920000D01*
X58915000Y-67960000D02*
X89085000Y-67960000D01*
X58891000Y-68000000D02*
X89109000Y-68000000D01*
X58868000Y-68040000D02*
X89132000Y-68040000D01*
X58844000Y-68080000D02*
X89156000Y-68080000D01*
X58821000Y-68120000D02*
X89179000Y-68120000D01*
X58797000Y-68160000D02*
X89203000Y-68160000D01*
X58774000Y-68200000D02*
X89226000Y-68200000D01*
X58751000Y-68240000D02*
X89249000Y-68240000D01*
X58729000Y-68280000D02*
X89271000Y-68280000D01*
X58706000Y-68320000D02*
X89294000Y-68320000D01*
X58683000Y-68360000D02*
X89317000Y-68360000D01*
X58661000Y-68400000D02*
X89339000Y-68400000D01*
X58639000Y-68440000D02*
X89361000Y-68440000D01*
X58616000Y-68480000D02*
X89384000Y-68480000D01*
X58594000Y-68520000D02*
X89406000Y-68520000D01*
X58572000Y-68560000D02*
X89428000Y-68560000D01*
X58551000Y-68600000D02*
X89449000Y-68600000D01*
X58529000Y-68640000D02*
X89471000Y-68640000D01*
X58508000Y-68680000D02*
X89492000Y-68680000D01*
X58486000Y-68720000D02*
X89514000Y-68720000D01*
X58465000Y-68760000D02*
X89535000Y-68760000D01*
X58444000Y-68800000D02*
X89556000Y-68800000D01*
X58423000Y-68839000D02*
X89577000Y-68839000D01*
X58402000Y-68879000D02*
X89598000Y-68879000D01*
X58381000Y-68919000D02*
X89619000Y-68919000D01*
X58361000Y-68959000D02*
X89639000Y-68959000D01*
X58340000Y-68999000D02*
X89660000Y-68999000D01*
X58320000Y-69039000D02*
X89680000Y-69039000D01*
X58300000Y-69079000D02*
X89700000Y-69079000D01*
X58280000Y-69119000D02*
X89720000Y-69119000D01*
X58260000Y-69159000D02*
X89740000Y-69159000D01*
X58240000Y-69199000D02*
X89760000Y-69199000D01*
X58220000Y-69239000D02*
X89780000Y-69239000D01*
X58201000Y-69279000D02*
X89799000Y-69279000D01*
X58181000Y-69319000D02*
X89819000Y-69319000D01*
X58162000Y-69359000D02*
X89838000Y-69359000D01*
X58143000Y-69399000D02*
X89857000Y-69399000D01*
X58124000Y-69439000D02*
X89876000Y-69439000D01*
X58105000Y-69479000D02*
X89895000Y-69479000D01*
X58086000Y-69519000D02*
X89914000Y-69519000D01*
X58067000Y-69559000D02*
X89933000Y-69559000D01*
X58049000Y-69599000D02*
X89951000Y-69599000D01*
X58030000Y-69639000D02*
X89970000Y-69639000D01*
X58012000Y-69679000D02*
X89988000Y-69679000D01*
X57994000Y-69719000D02*
X90006000Y-69719000D01*
X57976000Y-69759000D02*
X90024000Y-69759000D01*
X76240000Y-69799000D02*
X90042000Y-69799000D01*
X57958000Y-69799000D02*
X71760000Y-69799000D01*
X76240000Y-69839000D02*
X90060000Y-69839000D01*
X57940000Y-69839000D02*
X71760000Y-69839000D01*
X76240000Y-69879000D02*
X90078000Y-69879000D01*
X57922000Y-69879000D02*
X71760000Y-69879000D01*
X76240000Y-69919000D02*
X90095000Y-69919000D01*
X57905000Y-69919000D02*
X71760000Y-69919000D01*
X76240000Y-69959000D02*
X90113000Y-69959000D01*
X57887000Y-69959000D02*
X71760000Y-69959000D01*
X76240000Y-69999000D02*
X90130000Y-69999000D01*
X57870000Y-69999000D02*
X71760000Y-69999000D01*
X76240000Y-70039000D02*
X90148000Y-70039000D01*
X57852000Y-70039000D02*
X71760000Y-70039000D01*
X76240000Y-70079000D02*
X90165000Y-70079000D01*
X57835000Y-70079000D02*
X71760000Y-70079000D01*
X76240000Y-70119000D02*
X90182000Y-70119000D01*
X57818000Y-70119000D02*
X71760000Y-70119000D01*
X76240000Y-70159000D02*
X90199000Y-70159000D01*
X57801000Y-70159000D02*
X71760000Y-70159000D01*
X76240000Y-70199000D02*
X90215000Y-70199000D01*
X57785000Y-70199000D02*
X71760000Y-70199000D01*
X76240000Y-70239000D02*
X90232000Y-70239000D01*
X57768000Y-70239000D02*
X71760000Y-70239000D01*
X76240000Y-70279000D02*
X90249000Y-70279000D01*
X57751000Y-70279000D02*
X71760000Y-70279000D01*
X76240000Y-70319000D02*
X90265000Y-70319000D01*
X57735000Y-70319000D02*
X71760000Y-70319000D01*
X76240000Y-70359000D02*
X90281000Y-70359000D01*
X57719000Y-70359000D02*
X71760000Y-70359000D01*
X76240000Y-70399000D02*
X90298000Y-70399000D01*
X57702000Y-70399000D02*
X71760000Y-70399000D01*
X76240000Y-70439000D02*
X90314000Y-70439000D01*
X57686000Y-70439000D02*
X71760000Y-70439000D01*
X76240000Y-70479000D02*
X90330000Y-70479000D01*
X57670000Y-70479000D02*
X71760000Y-70479000D01*
X76240000Y-70519000D02*
X90346000Y-70519000D01*
X57654000Y-70519000D02*
X71760000Y-70519000D01*
X76240000Y-70559000D02*
X90361000Y-70559000D01*
X57639000Y-70559000D02*
X71760000Y-70559000D01*
X76240000Y-70599000D02*
X90377000Y-70599000D01*
X57623000Y-70599000D02*
X71760000Y-70599000D01*
X76240000Y-70639000D02*
X90393000Y-70639000D01*
X57607000Y-70639000D02*
X71760000Y-70639000D01*
X76240000Y-70679000D02*
X90408000Y-70679000D01*
X57592000Y-70679000D02*
X71760000Y-70679000D01*
X76240000Y-70719000D02*
X90423000Y-70719000D01*
X57577000Y-70719000D02*
X71760000Y-70719000D01*
X76240000Y-70759000D02*
X90439000Y-70759000D01*
X57561000Y-70759000D02*
X71760000Y-70759000D01*
X76240000Y-70799000D02*
X90454000Y-70799000D01*
X57546000Y-70799000D02*
X71760000Y-70799000D01*
X76240000Y-70839000D02*
X90469000Y-70839000D01*
X57531000Y-70839000D02*
X71760000Y-70839000D01*
X76240000Y-70879000D02*
X90484000Y-70879000D01*
X57516000Y-70879000D02*
X71760000Y-70879000D01*
X76240000Y-70919000D02*
X90498000Y-70919000D01*
X57502000Y-70919000D02*
X71760000Y-70919000D01*
X76240000Y-70959000D02*
X90513000Y-70959000D01*
X57487000Y-70959000D02*
X71760000Y-70959000D01*
X76240000Y-70999000D02*
X90527000Y-70999000D01*
X57473000Y-70999000D02*
X71760000Y-70999000D01*
X76240000Y-71039000D02*
X90542000Y-71039000D01*
X57458000Y-71039000D02*
X71760000Y-71039000D01*
X76240000Y-71079000D02*
X90556000Y-71079000D01*
X57444000Y-71079000D02*
X71760000Y-71079000D01*
X76240000Y-71119000D02*
X90570000Y-71119000D01*
X57430000Y-71119000D02*
X71760000Y-71119000D01*
X76240000Y-71159000D02*
X90585000Y-71159000D01*
X57415000Y-71159000D02*
X71760000Y-71159000D01*
X76240000Y-71199000D02*
X90599000Y-71199000D01*
X57401000Y-71199000D02*
X71760000Y-71199000D01*
X76240000Y-71239000D02*
X90612000Y-71239000D01*
X57388000Y-71239000D02*
X71760000Y-71239000D01*
X76240000Y-71279000D02*
X90626000Y-71279000D01*
X57374000Y-71279000D02*
X71760000Y-71279000D01*
X76240000Y-71319000D02*
X90640000Y-71319000D01*
X57360000Y-71319000D02*
X71760000Y-71319000D01*
X76240000Y-71359000D02*
X90653000Y-71359000D01*
X57347000Y-71359000D02*
X71760000Y-71359000D01*
X76240000Y-71399000D02*
X90667000Y-71399000D01*
X57333000Y-71399000D02*
X71760000Y-71399000D01*
X76240000Y-71439000D02*
X90680000Y-71439000D01*
X57320000Y-71439000D02*
X71760000Y-71439000D01*
X76240000Y-71479000D02*
X90694000Y-71479000D01*
X57306000Y-71479000D02*
X71760000Y-71479000D01*
X76240000Y-71519000D02*
X90707000Y-71519000D01*
X57293000Y-71519000D02*
X71760000Y-71519000D01*
X76240000Y-71559000D02*
X90720000Y-71559000D01*
X57280000Y-71559000D02*
X71760000Y-71559000D01*
X76240000Y-71599000D02*
X90733000Y-71599000D01*
X57267000Y-71599000D02*
X71760000Y-71599000D01*
X76240000Y-71639000D02*
X90745000Y-71639000D01*
X57255000Y-71639000D02*
X71760000Y-71639000D01*
X76240000Y-71679000D02*
X90758000Y-71679000D01*
X57242000Y-71679000D02*
X71760000Y-71679000D01*
X76240000Y-71719000D02*
X90771000Y-71719000D01*
X57229000Y-71719000D02*
X71760000Y-71719000D01*
X76240000Y-71759000D02*
X90783000Y-71759000D01*
X57217000Y-71759000D02*
X71760000Y-71759000D01*
X76240000Y-71799000D02*
X90796000Y-71799000D01*
X57204000Y-71799000D02*
X71760000Y-71799000D01*
X76240000Y-71839000D02*
X90808000Y-71839000D01*
X57192000Y-71839000D02*
X71760000Y-71839000D01*
X76240000Y-71879000D02*
X90820000Y-71879000D01*
X57180000Y-71879000D02*
X71760000Y-71879000D01*
X76240000Y-71919000D02*
X90832000Y-71919000D01*
X57168000Y-71919000D02*
X71760000Y-71919000D01*
X76240000Y-71959000D02*
X90844000Y-71959000D01*
X57156000Y-71959000D02*
X71760000Y-71959000D01*
X76240000Y-71999000D02*
X90856000Y-71999000D01*
X57144000Y-71999000D02*
X71760000Y-71999000D01*
X76240000Y-72039000D02*
X90868000Y-72039000D01*
X57132000Y-72039000D02*
X71760000Y-72039000D01*
X76240000Y-72079000D02*
X90880000Y-72079000D01*
X57120000Y-72079000D02*
X71760000Y-72079000D01*
X76240000Y-72119000D02*
X90891000Y-72119000D01*
X57109000Y-72119000D02*
X71760000Y-72119000D01*
X76240000Y-72159000D02*
X90903000Y-72159000D01*
X57097000Y-72159000D02*
X71760000Y-72159000D01*
X76240000Y-72199000D02*
X90914000Y-72199000D01*
X57086000Y-72199000D02*
X71760000Y-72199000D01*
X76240000Y-72239000D02*
X90925000Y-72239000D01*
X57075000Y-72239000D02*
X71760000Y-72239000D01*
X76240000Y-72279000D02*
X90937000Y-72279000D01*
X57063000Y-72279000D02*
X71760000Y-72279000D01*
X76240000Y-72319000D02*
X90948000Y-72319000D01*
X57052000Y-72319000D02*
X71760000Y-72319000D01*
X76240000Y-72359000D02*
X90959000Y-72359000D01*
X57041000Y-72359000D02*
X71760000Y-72359000D01*
X76240000Y-72399000D02*
X90969000Y-72399000D01*
X57031000Y-72399000D02*
X71760000Y-72399000D01*
X76240000Y-72439000D02*
X90980000Y-72439000D01*
X57020000Y-72439000D02*
X71760000Y-72439000D01*
X76240000Y-72479000D02*
X90991000Y-72479000D01*
X57009000Y-72479000D02*
X71760000Y-72479000D01*
X76240000Y-72519000D02*
X91001000Y-72519000D01*
X56999000Y-72519000D02*
X71760000Y-72519000D01*
X76240000Y-72559000D02*
X91012000Y-72559000D01*
X56988000Y-72559000D02*
X71760000Y-72559000D01*
X76240000Y-72599000D02*
X91022000Y-72599000D01*
X56978000Y-72599000D02*
X71760000Y-72599000D01*
X76240000Y-72639000D02*
X91033000Y-72639000D01*
X56967000Y-72639000D02*
X71760000Y-72639000D01*
X76240000Y-72679000D02*
X91043000Y-72679000D01*
X56957000Y-72679000D02*
X71760000Y-72679000D01*
X76240000Y-72719000D02*
X91053000Y-72719000D01*
X56947000Y-72719000D02*
X71760000Y-72719000D01*
X76240000Y-72759000D02*
X91063000Y-72759000D01*
X56937000Y-72759000D02*
X71760000Y-72759000D01*
X76240000Y-72799000D02*
X91073000Y-72799000D01*
X56927000Y-72799000D02*
X71760000Y-72799000D01*
X76240000Y-72839000D02*
X91082000Y-72839000D01*
X56918000Y-72839000D02*
X71760000Y-72839000D01*
X76240000Y-72879000D02*
X91092000Y-72879000D01*
X56908000Y-72879000D02*
X71760000Y-72879000D01*
X76240000Y-72919000D02*
X91102000Y-72919000D01*
X56898000Y-72919000D02*
X71760000Y-72919000D01*
X76240000Y-72959000D02*
X91111000Y-72959000D01*
X56889000Y-72959000D02*
X71760000Y-72959000D01*
X76240000Y-72999000D02*
X91120000Y-72999000D01*
X56880000Y-72999000D02*
X71760000Y-72999000D01*
X76240000Y-73039000D02*
X91130000Y-73039000D01*
X56870000Y-73039000D02*
X71760000Y-73039000D01*
X76240000Y-73079000D02*
X91139000Y-73079000D01*
X56861000Y-73079000D02*
X71760000Y-73079000D01*
X76240000Y-73119000D02*
X91148000Y-73119000D01*
X56852000Y-73119000D02*
X71760000Y-73119000D01*
X76240000Y-73159000D02*
X91157000Y-73159000D01*
X56843000Y-73159000D02*
X71760000Y-73159000D01*
X76240000Y-73199000D02*
X91166000Y-73199000D01*
X56834000Y-73199000D02*
X71760000Y-73199000D01*
X76240000Y-73239000D02*
X91175000Y-73239000D01*
X56825000Y-73239000D02*
X71760000Y-73239000D01*
X76240000Y-73279000D02*
X91183000Y-73279000D01*
X56817000Y-73279000D02*
X71760000Y-73279000D01*
X76240000Y-73319000D02*
X91192000Y-73319000D01*
X56808000Y-73319000D02*
X71760000Y-73319000D01*
X76240000Y-73359000D02*
X91200000Y-73359000D01*
X56800000Y-73359000D02*
X71760000Y-73359000D01*
X76240000Y-73399000D02*
X91209000Y-73399000D01*
X56791000Y-73399000D02*
X71760000Y-73399000D01*
X76240000Y-73439000D02*
X91217000Y-73439000D01*
X56783000Y-73439000D02*
X71760000Y-73439000D01*
X76240000Y-73479000D02*
X91225000Y-73479000D01*
X56775000Y-73479000D02*
X71760000Y-73479000D01*
X76240000Y-73519000D02*
X91233000Y-73519000D01*
X56767000Y-73519000D02*
X71760000Y-73519000D01*
X76240000Y-73559000D02*
X91241000Y-73559000D01*
X56759000Y-73559000D02*
X71760000Y-73559000D01*
X76240000Y-73599000D02*
X91249000Y-73599000D01*
X56751000Y-73599000D02*
X71760000Y-73599000D01*
X76240000Y-73639000D02*
X91257000Y-73639000D01*
X56743000Y-73639000D02*
X71760000Y-73639000D01*
X76240000Y-73679000D02*
X91265000Y-73679000D01*
X56735000Y-73679000D02*
X71760000Y-73679000D01*
X76240000Y-73719000D02*
X91273000Y-73719000D01*
X56727000Y-73719000D02*
X71760000Y-73719000D01*
X76240000Y-73759000D02*
X91280000Y-73759000D01*
X56720000Y-73759000D02*
X71760000Y-73759000D01*
X76240000Y-73799000D02*
X91287000Y-73799000D01*
X56713000Y-73799000D02*
X71760000Y-73799000D01*
X76240000Y-73839000D02*
X91295000Y-73839000D01*
X56705000Y-73839000D02*
X71760000Y-73839000D01*
X76240000Y-73879000D02*
X91302000Y-73879000D01*
X56698000Y-73879000D02*
X71760000Y-73879000D01*
X76240000Y-73919000D02*
X91309000Y-73919000D01*
X56691000Y-73919000D02*
X71760000Y-73919000D01*
X76240000Y-73959000D02*
X91316000Y-73959000D01*
X56684000Y-73959000D02*
X71760000Y-73959000D01*
X76240000Y-73999000D02*
X91323000Y-73999000D01*
X56677000Y-73999000D02*
X71760000Y-73999000D01*
X76240000Y-74039000D02*
X91330000Y-74039000D01*
X56670000Y-74039000D02*
X71760000Y-74039000D01*
X76240000Y-74079000D02*
X91337000Y-74079000D01*
X56663000Y-74079000D02*
X71760000Y-74079000D01*
X76240000Y-74119000D02*
X91344000Y-74119000D01*
X56656000Y-74119000D02*
X71760000Y-74119000D01*
X76240000Y-74159000D02*
X91350000Y-74159000D01*
X56650000Y-74159000D02*
X71760000Y-74159000D01*
X76240000Y-74199000D02*
X91357000Y-74199000D01*
X56643000Y-74199000D02*
X71760000Y-74199000D01*
X76240000Y-74239000D02*
X91363000Y-74239000D01*
X56637000Y-74239000D02*
X71760000Y-74239000D01*
X56631000Y-74279000D02*
X91369000Y-74279000D01*
X56625000Y-74319000D02*
X91375000Y-74319000D01*
X56618000Y-74359000D02*
X91382000Y-74359000D01*
X56612000Y-74399000D02*
X91388000Y-74399000D01*
X56606000Y-74439000D02*
X91394000Y-74439000D01*
X56601000Y-74479000D02*
X91399000Y-74479000D01*
X56595000Y-74519000D02*
X91405000Y-74519000D01*
X56589000Y-74559000D02*
X91411000Y-74559000D01*
X56584000Y-74599000D02*
X91416000Y-74599000D01*
X56578000Y-74639000D02*
X91422000Y-74639000D01*
X56573000Y-74679000D02*
X91427000Y-74679000D01*
X56568000Y-74719000D02*
X91432000Y-74719000D01*
X56562000Y-74759000D02*
X91438000Y-74759000D01*
X56557000Y-74799000D02*
X91443000Y-74799000D01*
X56552000Y-74839000D02*
X91448000Y-74839000D01*
X56548000Y-74879000D02*
X91452000Y-74879000D01*
X56543000Y-74919000D02*
X91457000Y-74919000D01*
X56538000Y-74959000D02*
X91462000Y-74959000D01*
X56533000Y-74999000D02*
X91467000Y-74999000D01*
X56529000Y-75039000D02*
X91471000Y-75039000D01*
X56524000Y-75079000D02*
X91476000Y-75079000D01*
X56520000Y-75119000D02*
X91480000Y-75119000D01*
X56516000Y-75159000D02*
X91484000Y-75159000D01*
X56512000Y-75199000D02*
X91488000Y-75199000D01*
X56508000Y-75239000D02*
X91492000Y-75239000D01*
X56504000Y-75279000D02*
X91496000Y-75279000D01*
X56500000Y-75319000D02*
X91500000Y-75319000D01*
X56496000Y-75359000D02*
X91504000Y-75359000D01*
X56492000Y-75399000D02*
X91508000Y-75399000D01*
X56489000Y-75439000D02*
X91511000Y-75439000D01*
X56485000Y-75479000D02*
X91515000Y-75479000D01*
X56482000Y-75519000D02*
X91518000Y-75519000D01*
X56478000Y-75559000D02*
X91522000Y-75559000D01*
X56475000Y-75599000D02*
X91525000Y-75599000D01*
X56472000Y-75639000D02*
X91528000Y-75639000D01*
X56469000Y-75679000D02*
X91531000Y-75679000D01*
X56466000Y-75719000D02*
X91534000Y-75719000D01*
X56463000Y-75759000D02*
X91537000Y-75759000D01*
X56460000Y-75799000D02*
X91540000Y-75799000D01*
X56458000Y-75839000D02*
X91542000Y-75839000D01*
X56455000Y-75879000D02*
X91545000Y-75879000D01*
X56453000Y-75919000D02*
X91547000Y-75919000D01*
X56450000Y-75959000D02*
X91550000Y-75959000D01*
X56448000Y-75999000D02*
X91552000Y-75999000D01*
X56446000Y-76039000D02*
X91554000Y-76039000D01*
X56444000Y-76079000D02*
X91556000Y-76079000D01*
X56441000Y-76119000D02*
X91559000Y-76119000D01*
X56440000Y-76159000D02*
X91560000Y-76159000D01*
X56438000Y-76199000D02*
X91562000Y-76199000D01*
X56436000Y-76239000D02*
X91564000Y-76239000D01*
X56434000Y-76279000D02*
X91566000Y-76279000D01*
X56433000Y-76320000D02*
X91567000Y-76320000D01*
X56431000Y-76360000D02*
X91569000Y-76360000D01*
X56430000Y-76400000D02*
X91570000Y-76400000D01*
X56428000Y-76440000D02*
X91572000Y-76440000D01*
X56427000Y-76480000D02*
X91573000Y-76480000D01*
X56426000Y-76520000D02*
X91574000Y-76520000D01*
X56425000Y-76560000D02*
X91575000Y-76560000D01*
X56424000Y-76600000D02*
X91576000Y-76600000D01*
X56423000Y-76640000D02*
X91577000Y-76640000D01*
X56422000Y-76680000D02*
X91578000Y-76680000D01*
X56422000Y-76720000D02*
X91578000Y-76720000D01*
X56421000Y-76760000D02*
X91579000Y-76760000D01*
X56421000Y-76800000D02*
X91579000Y-76800000D01*
X56420000Y-76840000D02*
X91580000Y-76840000D01*
X56420000Y-76880000D02*
X91580000Y-76880000D01*
X56420000Y-76920000D02*
X91580000Y-76920000D01*
X56420000Y-76960000D02*
X91580000Y-76960000D01*
X56420000Y-77000000D02*
X91580000Y-77000000D01*
X91620000Y-77000000D02*
G75*
G03*
X91620000Y-77000000I-17620000J0D01*
G01*
%TO.C,C7*%
X62375000Y-130104002D02*
X65875000Y-130104002D01*
X64125000Y-131854002D02*
X64125000Y-128354002D01*
X73200000Y-95400000D02*
X74800000Y-95400000D01*
X72587000Y-95440000D02*
X75413000Y-95440000D01*
X72165000Y-95480000D02*
X75835000Y-95480000D01*
X71823000Y-95520000D02*
X76177000Y-95520000D01*
X71527000Y-95560000D02*
X76473000Y-95560000D01*
X71264000Y-95600000D02*
X76736000Y-95600000D01*
X71024000Y-95640000D02*
X76976000Y-95640000D01*
X70802000Y-95680000D02*
X77198000Y-95680000D01*
X70595000Y-95720000D02*
X77405000Y-95720000D01*
X70400000Y-95760000D02*
X77600000Y-95760000D01*
X70215000Y-95800000D02*
X77785000Y-95800000D01*
X70040000Y-95840000D02*
X77960000Y-95840000D01*
X69872000Y-95880000D02*
X78128000Y-95880000D01*
X69711000Y-95920000D02*
X78289000Y-95920000D01*
X69556000Y-95960000D02*
X78444000Y-95960000D01*
X69407000Y-96000000D02*
X78593000Y-96000000D01*
X69262000Y-96040000D02*
X78738000Y-96040000D01*
X69122000Y-96080000D02*
X78878000Y-96080000D01*
X68987000Y-96120000D02*
X79013000Y-96120000D01*
X68855000Y-96160000D02*
X79145000Y-96160000D01*
X68727000Y-96200000D02*
X79273000Y-96200000D01*
X68602000Y-96240000D02*
X79398000Y-96240000D01*
X68480000Y-96280000D02*
X79520000Y-96280000D01*
X68361000Y-96320000D02*
X79639000Y-96320000D01*
X68245000Y-96360000D02*
X79755000Y-96360000D01*
X68132000Y-96400000D02*
X79868000Y-96400000D01*
X68020000Y-96440000D02*
X79980000Y-96440000D01*
X67911000Y-96480000D02*
X80089000Y-96480000D01*
X67805000Y-96520000D02*
X80195000Y-96520000D01*
X67700000Y-96560000D02*
X80300000Y-96560000D01*
X67597000Y-96600000D02*
X80403000Y-96600000D01*
X67496000Y-96640000D02*
X80504000Y-96640000D01*
X67397000Y-96680000D02*
X80603000Y-96680000D01*
X67300000Y-96720000D02*
X80700000Y-96720000D01*
X67204000Y-96760000D02*
X80796000Y-96760000D01*
X67110000Y-96800000D02*
X80890000Y-96800000D01*
X67017000Y-96840000D02*
X80983000Y-96840000D01*
X66925000Y-96880000D02*
X81075000Y-96880000D01*
X66835000Y-96920000D02*
X81165000Y-96920000D01*
X66747000Y-96960000D02*
X81253000Y-96960000D01*
X66659000Y-97000000D02*
X81341000Y-97000000D01*
X66573000Y-97040000D02*
X81427000Y-97040000D01*
X66488000Y-97080000D02*
X81512000Y-97080000D01*
X66405000Y-97120000D02*
X81595000Y-97120000D01*
X66322000Y-97160000D02*
X81678000Y-97160000D01*
X66241000Y-97200000D02*
X81759000Y-97200000D01*
X66160000Y-97240000D02*
X81840000Y-97240000D01*
X66080000Y-97280000D02*
X81920000Y-97280000D01*
X66002000Y-97320000D02*
X81998000Y-97320000D01*
X65924000Y-97360000D02*
X82076000Y-97360000D01*
X65848000Y-97400000D02*
X82152000Y-97400000D01*
X65772000Y-97440000D02*
X82228000Y-97440000D01*
X65697000Y-97480000D02*
X82303000Y-97480000D01*
X65623000Y-97520000D02*
X82377000Y-97520000D01*
X65550000Y-97560000D02*
X82450000Y-97560000D01*
X65478000Y-97600000D02*
X82522000Y-97600000D01*
X65406000Y-97640000D02*
X82594000Y-97640000D01*
X65335000Y-97680000D02*
X82665000Y-97680000D01*
X65265000Y-97720000D02*
X82735000Y-97720000D01*
X65196000Y-97760000D02*
X82804000Y-97760000D01*
X65127000Y-97800000D02*
X82873000Y-97800000D01*
X65060000Y-97840000D02*
X82940000Y-97840000D01*
X64992000Y-97880000D02*
X83008000Y-97880000D01*
X64926000Y-97920000D02*
X83074000Y-97920000D01*
X64860000Y-97960000D02*
X83140000Y-97960000D01*
X64795000Y-98000000D02*
X83205000Y-98000000D01*
X64730000Y-98040000D02*
X83270000Y-98040000D01*
X64666000Y-98080000D02*
X83334000Y-98080000D01*
X64603000Y-98120000D02*
X83397000Y-98120000D01*
X64540000Y-98160000D02*
X83460000Y-98160000D01*
X64478000Y-98200000D02*
X83522000Y-98200000D01*
X64416000Y-98240000D02*
X83584000Y-98240000D01*
X64355000Y-98280000D02*
X83645000Y-98280000D01*
X64295000Y-98320000D02*
X83705000Y-98320000D01*
X64235000Y-98360000D02*
X83765000Y-98360000D01*
X64175000Y-98400000D02*
X83825000Y-98400000D01*
X64116000Y-98440000D02*
X83884000Y-98440000D01*
X64058000Y-98480000D02*
X83942000Y-98480000D01*
X64000000Y-98520000D02*
X84000000Y-98520000D01*
X63942000Y-98560000D02*
X84058000Y-98560000D01*
X63885000Y-98600000D02*
X84115000Y-98600000D01*
X63829000Y-98640000D02*
X84171000Y-98640000D01*
X63773000Y-98680000D02*
X84227000Y-98680000D01*
X63717000Y-98720000D02*
X84283000Y-98720000D01*
X63662000Y-98760000D02*
X84338000Y-98760000D01*
X63608000Y-98800000D02*
X84392000Y-98800000D01*
X63553000Y-98840000D02*
X84447000Y-98840000D01*
X63500000Y-98880000D02*
X84500000Y-98880000D01*
X63446000Y-98920000D02*
X84554000Y-98920000D01*
X63393000Y-98960000D02*
X84607000Y-98960000D01*
X63341000Y-99000000D02*
X84659000Y-99000000D01*
X63289000Y-99040000D02*
X84711000Y-99040000D01*
X63237000Y-99080000D02*
X84763000Y-99080000D01*
X63185000Y-99120000D02*
X84815000Y-99120000D01*
X63135000Y-99160000D02*
X84865000Y-99160000D01*
X63084000Y-99200000D02*
X84916000Y-99200000D01*
X63034000Y-99240000D02*
X84966000Y-99240000D01*
X62984000Y-99280000D02*
X85016000Y-99280000D01*
X62934000Y-99320000D02*
X85066000Y-99320000D01*
X62885000Y-99360000D02*
X85115000Y-99360000D01*
X62837000Y-99400000D02*
X85163000Y-99400000D01*
X62788000Y-99440000D02*
X85212000Y-99440000D01*
X62740000Y-99480000D02*
X85260000Y-99480000D01*
X62693000Y-99520000D02*
X85307000Y-99520000D01*
X62645000Y-99560000D02*
X85355000Y-99560000D01*
X62598000Y-99600000D02*
X85402000Y-99600000D01*
X62551000Y-99640000D02*
X85449000Y-99640000D01*
X62505000Y-99680000D02*
X85495000Y-99680000D01*
X62459000Y-99720000D02*
X85541000Y-99720000D01*
X62413000Y-99760000D02*
X85587000Y-99760000D01*
X62368000Y-99800000D02*
X85632000Y-99800000D01*
X62323000Y-99840000D02*
X85677000Y-99840000D01*
X62278000Y-99880000D02*
X85722000Y-99880000D01*
X62234000Y-99920000D02*
X85766000Y-99920000D01*
X62189000Y-99960000D02*
X85811000Y-99960000D01*
X62146000Y-100000000D02*
X85854000Y-100000000D01*
X62102000Y-100040000D02*
X85898000Y-100040000D01*
X62059000Y-100080000D02*
X85941000Y-100080000D01*
X62016000Y-100120000D02*
X85984000Y-100120000D01*
X61973000Y-100160000D02*
X86027000Y-100160000D01*
X61931000Y-100200000D02*
X86069000Y-100200000D01*
X61889000Y-100240000D02*
X86111000Y-100240000D01*
X61847000Y-100280000D02*
X86153000Y-100280000D01*
X61805000Y-100320000D02*
X86195000Y-100320000D01*
X61764000Y-100360000D02*
X86236000Y-100360000D01*
X61723000Y-100400000D02*
X86277000Y-100400000D01*
X61682000Y-100440000D02*
X86318000Y-100440000D01*
X61641000Y-100480000D02*
X86359000Y-100480000D01*
X61601000Y-100520000D02*
X86399000Y-100520000D01*
X61561000Y-100560000D02*
X86439000Y-100560000D01*
X61521000Y-100600000D02*
X86479000Y-100600000D01*
X61482000Y-100640000D02*
X86518000Y-100640000D01*
X61443000Y-100680000D02*
X86557000Y-100680000D01*
X61404000Y-100720000D02*
X86596000Y-100720000D01*
X61365000Y-100760000D02*
X86635000Y-100760000D01*
X61326000Y-100800000D02*
X86674000Y-100800000D01*
X61288000Y-100840000D02*
X86712000Y-100840000D01*
X61250000Y-100880000D02*
X86750000Y-100880000D01*
X61212000Y-100920000D02*
X86788000Y-100920000D01*
X61175000Y-100960000D02*
X86825000Y-100960000D01*
X61137000Y-101000000D02*
X86863000Y-101000000D01*
X61100000Y-101040000D02*
X86900000Y-101040000D01*
X61063000Y-101080000D02*
X86937000Y-101080000D01*
X61027000Y-101120000D02*
X86973000Y-101120000D01*
X60990000Y-101160000D02*
X87010000Y-101160000D01*
X60954000Y-101200000D02*
X87046000Y-101200000D01*
X60918000Y-101240000D02*
X87082000Y-101240000D01*
X60883000Y-101280000D02*
X87117000Y-101280000D01*
X60847000Y-101320000D02*
X87153000Y-101320000D01*
X60812000Y-101360000D02*
X87188000Y-101360000D01*
X60777000Y-101400000D02*
X87223000Y-101400000D01*
X60742000Y-101440000D02*
X87258000Y-101440000D01*
X60707000Y-101480000D02*
X87293000Y-101480000D01*
X60673000Y-101520000D02*
X87327000Y-101520000D01*
X60638000Y-101560000D02*
X87362000Y-101560000D01*
X60604000Y-101600000D02*
X87396000Y-101600000D01*
X60570000Y-101640000D02*
X87430000Y-101640000D01*
X60537000Y-101680000D02*
X87463000Y-101680000D01*
X60503000Y-101720000D02*
X87497000Y-101720000D01*
X60470000Y-101760000D02*
X87530000Y-101760000D01*
X60437000Y-101800000D02*
X87563000Y-101800000D01*
X60404000Y-101840000D02*
X87596000Y-101840000D01*
X60372000Y-101880000D02*
X87628000Y-101880000D01*
X60339000Y-101920000D02*
X87661000Y-101920000D01*
X60307000Y-101960000D02*
X87693000Y-101960000D01*
X60275000Y-102000000D02*
X87725000Y-102000000D01*
X60243000Y-102040000D02*
X87757000Y-102040000D01*
X60211000Y-102080000D02*
X87789000Y-102080000D01*
X60180000Y-102120000D02*
X87820000Y-102120000D01*
X60149000Y-102160000D02*
X87851000Y-102160000D01*
X60117000Y-102200000D02*
X87883000Y-102200000D01*
X60086000Y-102240000D02*
X87914000Y-102240000D01*
X60056000Y-102280000D02*
X87944000Y-102280000D01*
X60025000Y-102320000D02*
X87975000Y-102320000D01*
X59995000Y-102360000D02*
X88005000Y-102360000D01*
X59965000Y-102400000D02*
X88035000Y-102400000D01*
X59935000Y-102440000D02*
X88065000Y-102440000D01*
X59905000Y-102480000D02*
X88095000Y-102480000D01*
X59875000Y-102520000D02*
X88125000Y-102520000D01*
X59845000Y-102560000D02*
X88155000Y-102560000D01*
X59816000Y-102600000D02*
X88184000Y-102600000D01*
X59787000Y-102640000D02*
X88213000Y-102640000D01*
X59758000Y-102680000D02*
X88242000Y-102680000D01*
X59729000Y-102720000D02*
X88271000Y-102720000D01*
X59701000Y-102760000D02*
X88299000Y-102760000D01*
X59672000Y-102800000D02*
X88328000Y-102800000D01*
X59644000Y-102840000D02*
X88356000Y-102840000D01*
X59616000Y-102880000D02*
X88384000Y-102880000D01*
X59588000Y-102920000D02*
X88412000Y-102920000D01*
X59560000Y-102960000D02*
X88440000Y-102960000D01*
X59532000Y-103000000D02*
X88468000Y-103000000D01*
X59505000Y-103040000D02*
X88495000Y-103040000D01*
X59477000Y-103080000D02*
X88523000Y-103080000D01*
X59450000Y-103120000D02*
X88550000Y-103120000D01*
X59423000Y-103160000D02*
X88577000Y-103160000D01*
X59396000Y-103200000D02*
X88604000Y-103200000D01*
X59370000Y-103240000D02*
X88630000Y-103240000D01*
X59343000Y-103280000D02*
X88657000Y-103280000D01*
X59317000Y-103320000D02*
X88683000Y-103320000D01*
X59290000Y-103360000D02*
X88710000Y-103360000D01*
X59264000Y-103400000D02*
X88736000Y-103400000D01*
X59238000Y-103440000D02*
X88762000Y-103440000D01*
X59213000Y-103480000D02*
X88787000Y-103480000D01*
X59187000Y-103520000D02*
X88813000Y-103520000D01*
X59162000Y-103560000D02*
X88838000Y-103560000D01*
X59136000Y-103600000D02*
X88864000Y-103600000D01*
X59111000Y-103640000D02*
X88889000Y-103640000D01*
X59086000Y-103680000D02*
X88914000Y-103680000D01*
X59061000Y-103720000D02*
X88939000Y-103720000D01*
X59037000Y-103760000D02*
X88963000Y-103760000D01*
X59012000Y-103800000D02*
X88988000Y-103800000D01*
X58988000Y-103840000D02*
X89012000Y-103840000D01*
X58963000Y-103880000D02*
X89037000Y-103880000D01*
X58939000Y-103920000D02*
X89061000Y-103920000D01*
X58915000Y-103960000D02*
X89085000Y-103960000D01*
X58891000Y-104000000D02*
X89109000Y-104000000D01*
X58868000Y-104040000D02*
X89132000Y-104040000D01*
X58844000Y-104080000D02*
X89156000Y-104080000D01*
X58821000Y-104120000D02*
X89179000Y-104120000D01*
X58797000Y-104160000D02*
X89203000Y-104160000D01*
X58774000Y-104200000D02*
X89226000Y-104200000D01*
X58751000Y-104240000D02*
X89249000Y-104240000D01*
X58729000Y-104280000D02*
X89271000Y-104280000D01*
X58706000Y-104320000D02*
X89294000Y-104320000D01*
X58683000Y-104360000D02*
X89317000Y-104360000D01*
X58661000Y-104400000D02*
X89339000Y-104400000D01*
X58639000Y-104440000D02*
X89361000Y-104440000D01*
X58616000Y-104480000D02*
X89384000Y-104480000D01*
X58594000Y-104520000D02*
X89406000Y-104520000D01*
X58572000Y-104560000D02*
X89428000Y-104560000D01*
X58551000Y-104600000D02*
X89449000Y-104600000D01*
X58529000Y-104640000D02*
X89471000Y-104640000D01*
X58508000Y-104680000D02*
X89492000Y-104680000D01*
X58486000Y-104720000D02*
X89514000Y-104720000D01*
X58465000Y-104760000D02*
X89535000Y-104760000D01*
X58444000Y-104800000D02*
X89556000Y-104800000D01*
X58423000Y-104839000D02*
X89577000Y-104839000D01*
X58402000Y-104879000D02*
X89598000Y-104879000D01*
X58381000Y-104919000D02*
X89619000Y-104919000D01*
X58361000Y-104959000D02*
X89639000Y-104959000D01*
X58340000Y-104999000D02*
X89660000Y-104999000D01*
X58320000Y-105039000D02*
X89680000Y-105039000D01*
X58300000Y-105079000D02*
X89700000Y-105079000D01*
X58280000Y-105119000D02*
X89720000Y-105119000D01*
X58260000Y-105159000D02*
X89740000Y-105159000D01*
X58240000Y-105199000D02*
X89760000Y-105199000D01*
X58220000Y-105239000D02*
X89780000Y-105239000D01*
X58201000Y-105279000D02*
X89799000Y-105279000D01*
X58181000Y-105319000D02*
X89819000Y-105319000D01*
X58162000Y-105359000D02*
X89838000Y-105359000D01*
X58143000Y-105399000D02*
X89857000Y-105399000D01*
X58124000Y-105439000D02*
X89876000Y-105439000D01*
X58105000Y-105479000D02*
X89895000Y-105479000D01*
X58086000Y-105519000D02*
X89914000Y-105519000D01*
X58067000Y-105559000D02*
X89933000Y-105559000D01*
X58049000Y-105599000D02*
X89951000Y-105599000D01*
X58030000Y-105639000D02*
X89970000Y-105639000D01*
X58012000Y-105679000D02*
X89988000Y-105679000D01*
X57994000Y-105719000D02*
X90006000Y-105719000D01*
X57976000Y-105759000D02*
X90024000Y-105759000D01*
X76240000Y-105799000D02*
X90042000Y-105799000D01*
X57958000Y-105799000D02*
X71760000Y-105799000D01*
X76240000Y-105839000D02*
X90060000Y-105839000D01*
X57940000Y-105839000D02*
X71760000Y-105839000D01*
X76240000Y-105879000D02*
X90078000Y-105879000D01*
X57922000Y-105879000D02*
X71760000Y-105879000D01*
X76240000Y-105919000D02*
X90095000Y-105919000D01*
X57905000Y-105919000D02*
X71760000Y-105919000D01*
X76240000Y-105959000D02*
X90113000Y-105959000D01*
X57887000Y-105959000D02*
X71760000Y-105959000D01*
X76240000Y-105999000D02*
X90130000Y-105999000D01*
X57870000Y-105999000D02*
X71760000Y-105999000D01*
X76240000Y-106039000D02*
X90148000Y-106039000D01*
X57852000Y-106039000D02*
X71760000Y-106039000D01*
X76240000Y-106079000D02*
X90165000Y-106079000D01*
X57835000Y-106079000D02*
X71760000Y-106079000D01*
X76240000Y-106119000D02*
X90182000Y-106119000D01*
X57818000Y-106119000D02*
X71760000Y-106119000D01*
X76240000Y-106159000D02*
X90199000Y-106159000D01*
X57801000Y-106159000D02*
X71760000Y-106159000D01*
X76240000Y-106199000D02*
X90215000Y-106199000D01*
X57785000Y-106199000D02*
X71760000Y-106199000D01*
X76240000Y-106239000D02*
X90232000Y-106239000D01*
X57768000Y-106239000D02*
X71760000Y-106239000D01*
X76240000Y-106279000D02*
X90249000Y-106279000D01*
X57751000Y-106279000D02*
X71760000Y-106279000D01*
X76240000Y-106319000D02*
X90265000Y-106319000D01*
X57735000Y-106319000D02*
X71760000Y-106319000D01*
X76240000Y-106359000D02*
X90281000Y-106359000D01*
X57719000Y-106359000D02*
X71760000Y-106359000D01*
X76240000Y-106399000D02*
X90298000Y-106399000D01*
X57702000Y-106399000D02*
X71760000Y-106399000D01*
X76240000Y-106439000D02*
X90314000Y-106439000D01*
X57686000Y-106439000D02*
X71760000Y-106439000D01*
X76240000Y-106479000D02*
X90330000Y-106479000D01*
X57670000Y-106479000D02*
X71760000Y-106479000D01*
X76240000Y-106519000D02*
X90346000Y-106519000D01*
X57654000Y-106519000D02*
X71760000Y-106519000D01*
X76240000Y-106559000D02*
X90361000Y-106559000D01*
X57639000Y-106559000D02*
X71760000Y-106559000D01*
X76240000Y-106599000D02*
X90377000Y-106599000D01*
X57623000Y-106599000D02*
X71760000Y-106599000D01*
X76240000Y-106639000D02*
X90393000Y-106639000D01*
X57607000Y-106639000D02*
X71760000Y-106639000D01*
X76240000Y-106679000D02*
X90408000Y-106679000D01*
X57592000Y-106679000D02*
X71760000Y-106679000D01*
X76240000Y-106719000D02*
X90423000Y-106719000D01*
X57577000Y-106719000D02*
X71760000Y-106719000D01*
X76240000Y-106759000D02*
X90439000Y-106759000D01*
X57561000Y-106759000D02*
X71760000Y-106759000D01*
X76240000Y-106799000D02*
X90454000Y-106799000D01*
X57546000Y-106799000D02*
X71760000Y-106799000D01*
X76240000Y-106839000D02*
X90469000Y-106839000D01*
X57531000Y-106839000D02*
X71760000Y-106839000D01*
X76240000Y-106879000D02*
X90484000Y-106879000D01*
X57516000Y-106879000D02*
X71760000Y-106879000D01*
X76240000Y-106919000D02*
X90498000Y-106919000D01*
X57502000Y-106919000D02*
X71760000Y-106919000D01*
X76240000Y-106959000D02*
X90513000Y-106959000D01*
X57487000Y-106959000D02*
X71760000Y-106959000D01*
X76240000Y-106999000D02*
X90527000Y-106999000D01*
X57473000Y-106999000D02*
X71760000Y-106999000D01*
X76240000Y-107039000D02*
X90542000Y-107039000D01*
X57458000Y-107039000D02*
X71760000Y-107039000D01*
X76240000Y-107079000D02*
X90556000Y-107079000D01*
X57444000Y-107079000D02*
X71760000Y-107079000D01*
X76240000Y-107119000D02*
X90570000Y-107119000D01*
X57430000Y-107119000D02*
X71760000Y-107119000D01*
X76240000Y-107159000D02*
X90585000Y-107159000D01*
X57415000Y-107159000D02*
X71760000Y-107159000D01*
X76240000Y-107199000D02*
X90599000Y-107199000D01*
X57401000Y-107199000D02*
X71760000Y-107199000D01*
X76240000Y-107239000D02*
X90612000Y-107239000D01*
X57388000Y-107239000D02*
X71760000Y-107239000D01*
X76240000Y-107279000D02*
X90626000Y-107279000D01*
X57374000Y-107279000D02*
X71760000Y-107279000D01*
X76240000Y-107319000D02*
X90640000Y-107319000D01*
X57360000Y-107319000D02*
X71760000Y-107319000D01*
X76240000Y-107359000D02*
X90653000Y-107359000D01*
X57347000Y-107359000D02*
X71760000Y-107359000D01*
X76240000Y-107399000D02*
X90667000Y-107399000D01*
X57333000Y-107399000D02*
X71760000Y-107399000D01*
X76240000Y-107439000D02*
X90680000Y-107439000D01*
X57320000Y-107439000D02*
X71760000Y-107439000D01*
X76240000Y-107479000D02*
X90694000Y-107479000D01*
X57306000Y-107479000D02*
X71760000Y-107479000D01*
X76240000Y-107519000D02*
X90707000Y-107519000D01*
X57293000Y-107519000D02*
X71760000Y-107519000D01*
X76240000Y-107559000D02*
X90720000Y-107559000D01*
X57280000Y-107559000D02*
X71760000Y-107559000D01*
X76240000Y-107599000D02*
X90733000Y-107599000D01*
X57267000Y-107599000D02*
X71760000Y-107599000D01*
X76240000Y-107639000D02*
X90745000Y-107639000D01*
X57255000Y-107639000D02*
X71760000Y-107639000D01*
X76240000Y-107679000D02*
X90758000Y-107679000D01*
X57242000Y-107679000D02*
X71760000Y-107679000D01*
X76240000Y-107719000D02*
X90771000Y-107719000D01*
X57229000Y-107719000D02*
X71760000Y-107719000D01*
X76240000Y-107759000D02*
X90783000Y-107759000D01*
X57217000Y-107759000D02*
X71760000Y-107759000D01*
X76240000Y-107799000D02*
X90796000Y-107799000D01*
X57204000Y-107799000D02*
X71760000Y-107799000D01*
X76240000Y-107839000D02*
X90808000Y-107839000D01*
X57192000Y-107839000D02*
X71760000Y-107839000D01*
X76240000Y-107879000D02*
X90820000Y-107879000D01*
X57180000Y-107879000D02*
X71760000Y-107879000D01*
X76240000Y-107919000D02*
X90832000Y-107919000D01*
X57168000Y-107919000D02*
X71760000Y-107919000D01*
X76240000Y-107959000D02*
X90844000Y-107959000D01*
X57156000Y-107959000D02*
X71760000Y-107959000D01*
X76240000Y-107999000D02*
X90856000Y-107999000D01*
X57144000Y-107999000D02*
X71760000Y-107999000D01*
X76240000Y-108039000D02*
X90868000Y-108039000D01*
X57132000Y-108039000D02*
X71760000Y-108039000D01*
X76240000Y-108079000D02*
X90880000Y-108079000D01*
X57120000Y-108079000D02*
X71760000Y-108079000D01*
X76240000Y-108119000D02*
X90891000Y-108119000D01*
X57109000Y-108119000D02*
X71760000Y-108119000D01*
X76240000Y-108159000D02*
X90903000Y-108159000D01*
X57097000Y-108159000D02*
X71760000Y-108159000D01*
X76240000Y-108199000D02*
X90914000Y-108199000D01*
X57086000Y-108199000D02*
X71760000Y-108199000D01*
X76240000Y-108239000D02*
X90925000Y-108239000D01*
X57075000Y-108239000D02*
X71760000Y-108239000D01*
X76240000Y-108279000D02*
X90937000Y-108279000D01*
X57063000Y-108279000D02*
X71760000Y-108279000D01*
X76240000Y-108319000D02*
X90948000Y-108319000D01*
X57052000Y-108319000D02*
X71760000Y-108319000D01*
X76240000Y-108359000D02*
X90959000Y-108359000D01*
X57041000Y-108359000D02*
X71760000Y-108359000D01*
X76240000Y-108399000D02*
X90969000Y-108399000D01*
X57031000Y-108399000D02*
X71760000Y-108399000D01*
X76240000Y-108439000D02*
X90980000Y-108439000D01*
X57020000Y-108439000D02*
X71760000Y-108439000D01*
X76240000Y-108479000D02*
X90991000Y-108479000D01*
X57009000Y-108479000D02*
X71760000Y-108479000D01*
X76240000Y-108519000D02*
X91001000Y-108519000D01*
X56999000Y-108519000D02*
X71760000Y-108519000D01*
X76240000Y-108559000D02*
X91012000Y-108559000D01*
X56988000Y-108559000D02*
X71760000Y-108559000D01*
X76240000Y-108599000D02*
X91022000Y-108599000D01*
X56978000Y-108599000D02*
X71760000Y-108599000D01*
X76240000Y-108639000D02*
X91033000Y-108639000D01*
X56967000Y-108639000D02*
X71760000Y-108639000D01*
X76240000Y-108679000D02*
X91043000Y-108679000D01*
X56957000Y-108679000D02*
X71760000Y-108679000D01*
X76240000Y-108719000D02*
X91053000Y-108719000D01*
X56947000Y-108719000D02*
X71760000Y-108719000D01*
X76240000Y-108759000D02*
X91063000Y-108759000D01*
X56937000Y-108759000D02*
X71760000Y-108759000D01*
X76240000Y-108799000D02*
X91073000Y-108799000D01*
X56927000Y-108799000D02*
X71760000Y-108799000D01*
X76240000Y-108839000D02*
X91082000Y-108839000D01*
X56918000Y-108839000D02*
X71760000Y-108839000D01*
X76240000Y-108879000D02*
X91092000Y-108879000D01*
X56908000Y-108879000D02*
X71760000Y-108879000D01*
X76240000Y-108919000D02*
X91102000Y-108919000D01*
X56898000Y-108919000D02*
X71760000Y-108919000D01*
X76240000Y-108959000D02*
X91111000Y-108959000D01*
X56889000Y-108959000D02*
X71760000Y-108959000D01*
X76240000Y-108999000D02*
X91120000Y-108999000D01*
X56880000Y-108999000D02*
X71760000Y-108999000D01*
X76240000Y-109039000D02*
X91130000Y-109039000D01*
X56870000Y-109039000D02*
X71760000Y-109039000D01*
X76240000Y-109079000D02*
X91139000Y-109079000D01*
X56861000Y-109079000D02*
X71760000Y-109079000D01*
X76240000Y-109119000D02*
X91148000Y-109119000D01*
X56852000Y-109119000D02*
X71760000Y-109119000D01*
X76240000Y-109159000D02*
X91157000Y-109159000D01*
X56843000Y-109159000D02*
X71760000Y-109159000D01*
X76240000Y-109199000D02*
X91166000Y-109199000D01*
X56834000Y-109199000D02*
X71760000Y-109199000D01*
X76240000Y-109239000D02*
X91175000Y-109239000D01*
X56825000Y-109239000D02*
X71760000Y-109239000D01*
X76240000Y-109279000D02*
X91183000Y-109279000D01*
X56817000Y-109279000D02*
X71760000Y-109279000D01*
X76240000Y-109319000D02*
X91192000Y-109319000D01*
X56808000Y-109319000D02*
X71760000Y-109319000D01*
X76240000Y-109359000D02*
X91200000Y-109359000D01*
X56800000Y-109359000D02*
X71760000Y-109359000D01*
X76240000Y-109399000D02*
X91209000Y-109399000D01*
X56791000Y-109399000D02*
X71760000Y-109399000D01*
X76240000Y-109439000D02*
X91217000Y-109439000D01*
X56783000Y-109439000D02*
X71760000Y-109439000D01*
X76240000Y-109479000D02*
X91225000Y-109479000D01*
X56775000Y-109479000D02*
X71760000Y-109479000D01*
X76240000Y-109519000D02*
X91233000Y-109519000D01*
X56767000Y-109519000D02*
X71760000Y-109519000D01*
X76240000Y-109559000D02*
X91241000Y-109559000D01*
X56759000Y-109559000D02*
X71760000Y-109559000D01*
X76240000Y-109599000D02*
X91249000Y-109599000D01*
X56751000Y-109599000D02*
X71760000Y-109599000D01*
X76240000Y-109639000D02*
X91257000Y-109639000D01*
X56743000Y-109639000D02*
X71760000Y-109639000D01*
X76240000Y-109679000D02*
X91265000Y-109679000D01*
X56735000Y-109679000D02*
X71760000Y-109679000D01*
X76240000Y-109719000D02*
X91273000Y-109719000D01*
X56727000Y-109719000D02*
X71760000Y-109719000D01*
X76240000Y-109759000D02*
X91280000Y-109759000D01*
X56720000Y-109759000D02*
X71760000Y-109759000D01*
X76240000Y-109799000D02*
X91287000Y-109799000D01*
X56713000Y-109799000D02*
X71760000Y-109799000D01*
X76240000Y-109839000D02*
X91295000Y-109839000D01*
X56705000Y-109839000D02*
X71760000Y-109839000D01*
X76240000Y-109879000D02*
X91302000Y-109879000D01*
X56698000Y-109879000D02*
X71760000Y-109879000D01*
X76240000Y-109919000D02*
X91309000Y-109919000D01*
X56691000Y-109919000D02*
X71760000Y-109919000D01*
X76240000Y-109959000D02*
X91316000Y-109959000D01*
X56684000Y-109959000D02*
X71760000Y-109959000D01*
X76240000Y-109999000D02*
X91323000Y-109999000D01*
X56677000Y-109999000D02*
X71760000Y-109999000D01*
X76240000Y-110039000D02*
X91330000Y-110039000D01*
X56670000Y-110039000D02*
X71760000Y-110039000D01*
X76240000Y-110079000D02*
X91337000Y-110079000D01*
X56663000Y-110079000D02*
X71760000Y-110079000D01*
X76240000Y-110119000D02*
X91344000Y-110119000D01*
X56656000Y-110119000D02*
X71760000Y-110119000D01*
X76240000Y-110159000D02*
X91350000Y-110159000D01*
X56650000Y-110159000D02*
X71760000Y-110159000D01*
X76240000Y-110199000D02*
X91357000Y-110199000D01*
X56643000Y-110199000D02*
X71760000Y-110199000D01*
X76240000Y-110239000D02*
X91363000Y-110239000D01*
X56637000Y-110239000D02*
X71760000Y-110239000D01*
X56631000Y-110279000D02*
X91369000Y-110279000D01*
X56625000Y-110319000D02*
X91375000Y-110319000D01*
X56618000Y-110359000D02*
X91382000Y-110359000D01*
X56612000Y-110399000D02*
X91388000Y-110399000D01*
X56606000Y-110439000D02*
X91394000Y-110439000D01*
X56601000Y-110479000D02*
X91399000Y-110479000D01*
X56595000Y-110519000D02*
X91405000Y-110519000D01*
X56589000Y-110559000D02*
X91411000Y-110559000D01*
X56584000Y-110599000D02*
X91416000Y-110599000D01*
X56578000Y-110639000D02*
X91422000Y-110639000D01*
X56573000Y-110679000D02*
X91427000Y-110679000D01*
X56568000Y-110719000D02*
X91432000Y-110719000D01*
X56562000Y-110759000D02*
X91438000Y-110759000D01*
X56557000Y-110799000D02*
X91443000Y-110799000D01*
X56552000Y-110839000D02*
X91448000Y-110839000D01*
X56548000Y-110879000D02*
X91452000Y-110879000D01*
X56543000Y-110919000D02*
X91457000Y-110919000D01*
X56538000Y-110959000D02*
X91462000Y-110959000D01*
X56533000Y-110999000D02*
X91467000Y-110999000D01*
X56529000Y-111039000D02*
X91471000Y-111039000D01*
X56524000Y-111079000D02*
X91476000Y-111079000D01*
X56520000Y-111119000D02*
X91480000Y-111119000D01*
X56516000Y-111159000D02*
X91484000Y-111159000D01*
X56512000Y-111199000D02*
X91488000Y-111199000D01*
X56508000Y-111239000D02*
X91492000Y-111239000D01*
X56504000Y-111279000D02*
X91496000Y-111279000D01*
X56500000Y-111319000D02*
X91500000Y-111319000D01*
X56496000Y-111359000D02*
X91504000Y-111359000D01*
X56492000Y-111399000D02*
X91508000Y-111399000D01*
X56489000Y-111439000D02*
X91511000Y-111439000D01*
X56485000Y-111479000D02*
X91515000Y-111479000D01*
X56482000Y-111519000D02*
X91518000Y-111519000D01*
X56478000Y-111559000D02*
X91522000Y-111559000D01*
X56475000Y-111599000D02*
X91525000Y-111599000D01*
X56472000Y-111639000D02*
X91528000Y-111639000D01*
X56469000Y-111679000D02*
X91531000Y-111679000D01*
X56466000Y-111719000D02*
X91534000Y-111719000D01*
X56463000Y-111759000D02*
X91537000Y-111759000D01*
X56460000Y-111799000D02*
X91540000Y-111799000D01*
X56458000Y-111839000D02*
X91542000Y-111839000D01*
X56455000Y-111879000D02*
X91545000Y-111879000D01*
X56453000Y-111919000D02*
X91547000Y-111919000D01*
X56450000Y-111959000D02*
X91550000Y-111959000D01*
X56448000Y-111999000D02*
X91552000Y-111999000D01*
X56446000Y-112039000D02*
X91554000Y-112039000D01*
X56444000Y-112079000D02*
X91556000Y-112079000D01*
X56441000Y-112119000D02*
X91559000Y-112119000D01*
X56440000Y-112159000D02*
X91560000Y-112159000D01*
X56438000Y-112199000D02*
X91562000Y-112199000D01*
X56436000Y-112239000D02*
X91564000Y-112239000D01*
X56434000Y-112279000D02*
X91566000Y-112279000D01*
X56433000Y-112320000D02*
X91567000Y-112320000D01*
X56431000Y-112360000D02*
X91569000Y-112360000D01*
X56430000Y-112400000D02*
X91570000Y-112400000D01*
X56428000Y-112440000D02*
X91572000Y-112440000D01*
X56427000Y-112480000D02*
X91573000Y-112480000D01*
X56426000Y-112520000D02*
X91574000Y-112520000D01*
X56425000Y-112560000D02*
X91575000Y-112560000D01*
X56424000Y-112600000D02*
X91576000Y-112600000D01*
X56423000Y-112640000D02*
X91577000Y-112640000D01*
X56422000Y-112680000D02*
X91578000Y-112680000D01*
X56422000Y-112720000D02*
X91578000Y-112720000D01*
X56421000Y-112760000D02*
X91579000Y-112760000D01*
X56421000Y-112800000D02*
X91579000Y-112800000D01*
X56420000Y-112840000D02*
X91580000Y-112840000D01*
X56420000Y-112880000D02*
X91580000Y-112880000D01*
X56420000Y-112920000D02*
X91580000Y-112920000D01*
X56420000Y-112960000D02*
X91580000Y-112960000D01*
X56420000Y-113000000D02*
X91580000Y-113000000D01*
X91620000Y-113000000D02*
G75*
G03*
X91620000Y-113000000I-17620000J0D01*
G01*
%TO.C,J12*%
X143950000Y-81250000D02*
G75*
G03*
X143950000Y-81250000I-1410000J0D01*
G01*
X138850000Y-81250000D02*
G75*
G03*
X138850000Y-81250000I-1390000J0D01*
G01*
%TO.C,J11*%
X143950000Y-75000000D02*
G75*
G03*
X143950000Y-75000000I-1410000J0D01*
G01*
X138850000Y-75000000D02*
G75*
G03*
X138850000Y-75000000I-1390000J0D01*
G01*
%TO.C,J10*%
X140700000Y-98750000D02*
G75*
G03*
X140700000Y-98750000I-1410000J0D01*
G01*
X135600000Y-98750000D02*
G75*
G03*
X135600000Y-98750000I-1390000J0D01*
G01*
%TO.C,J9*%
X140700000Y-91250000D02*
G75*
G03*
X140700000Y-91250000I-1410000J0D01*
G01*
X135600000Y-91250000D02*
G75*
G03*
X135600000Y-91250000I-1390000J0D01*
G01*
%TO.C,J8*%
X143950000Y-108500000D02*
G75*
G03*
X143950000Y-108500000I-1410000J0D01*
G01*
X138850000Y-108500000D02*
G75*
G03*
X138850000Y-108500000I-1390000J0D01*
G01*
%TO.C,J7*%
X143950000Y-115000000D02*
G75*
G03*
X143950000Y-115000000I-1410000J0D01*
G01*
X138850000Y-115000000D02*
G75*
G03*
X138850000Y-115000000I-1390000J0D01*
G01*
%TO.C,J4*%
X46450000Y-85000000D02*
G75*
G03*
X46450000Y-85000000I-1410000J0D01*
G01*
X41350000Y-85000000D02*
G75*
G03*
X41350000Y-85000000I-1390000J0D01*
G01*
%TO.C,J3*%
X46450000Y-98750000D02*
G75*
G03*
X46450000Y-98750000I-1410000J0D01*
G01*
X41350000Y-98750000D02*
G75*
G03*
X41350000Y-98750000I-1390000J0D01*
G01*
%TO.C,J2*%
X46450000Y-91250000D02*
G75*
G03*
X46450000Y-91250000I-1410000J0D01*
G01*
X41350000Y-91250000D02*
G75*
G03*
X41350000Y-91250000I-1390000J0D01*
G01*
%TO.C,J1*%
X46450000Y-105000000D02*
G75*
G03*
X46450000Y-105000000I-1410000J0D01*
G01*
X41350000Y-105000000D02*
G75*
G03*
X41350000Y-105000000I-1390000J0D01*
G01*
%TO.C,C2*%
X51220000Y-72630000D02*
X51220000Y-75370000D01*
X43780000Y-72630000D02*
X43780000Y-75370000D01*
X43780000Y-75370000D02*
X51220000Y-75370000D01*
X43780000Y-72630000D02*
X51220000Y-72630000D01*
%TO.C,C1*%
X51220000Y-117130000D02*
X51220000Y-119870000D01*
X43780000Y-117130000D02*
X43780000Y-119870000D01*
X43780000Y-119870000D02*
X51220000Y-119870000D01*
X43780000Y-117130000D02*
X51220000Y-117130000D01*
%TO.C,J6*%
X131555000Y-63750000D02*
G75*
G03*
X131555000Y-63750000I-1555000J0D01*
G01*
X135310000Y-61550000D02*
X128190000Y-61550000D01*
X135310000Y-66610000D02*
X128190000Y-66610000D01*
X135310000Y-59990000D02*
X128190000Y-59990000D01*
X135310000Y-66610000D02*
X135310000Y-59990000D01*
X128190000Y-66610000D02*
X128190000Y-59990000D01*
X128820000Y-64740000D02*
X128896000Y-64664000D01*
X130935000Y-62625000D02*
X130989000Y-62570000D01*
X129010000Y-64930000D02*
X129064000Y-64876000D01*
X131103000Y-62836000D02*
X131179000Y-62760000D01*
X135550000Y-61490000D02*
X135550000Y-59750000D01*
X135550000Y-59750000D02*
X134050000Y-59750000D01*
X133473556Y-62194319D02*
G75*
G02*
X134207000Y-62364000I26444J-1555681D01*
G01*
X134886645Y-63044267D02*
G75*
G02*
X134886000Y-64457000I-1386645J-705733D01*
G01*
X134205733Y-65136645D02*
G75*
G02*
X132793000Y-65136000I-705733J1386645D01*
G01*
X132113355Y-64455733D02*
G75*
G02*
X132114000Y-63043000I1386645J705733D01*
G01*
X132794045Y-62364485D02*
G75*
G02*
X133500000Y-62195000I705955J-1385515D01*
G01*
%TO.C,J5*%
X135055000Y-126000000D02*
G75*
G03*
X135055000Y-126000000I-1555000J0D01*
G01*
X128190000Y-128200000D02*
X135310000Y-128200000D01*
X128190000Y-123140000D02*
X135310000Y-123140000D01*
X128190000Y-129760000D02*
X135310000Y-129760000D01*
X128190000Y-123140000D02*
X128190000Y-129760000D01*
X135310000Y-123140000D02*
X135310000Y-129760000D01*
X134680000Y-125010000D02*
X134604000Y-125086000D01*
X132565000Y-127125000D02*
X132511000Y-127180000D01*
X134490000Y-124820000D02*
X134436000Y-124874000D01*
X132397000Y-126914000D02*
X132321000Y-126990000D01*
X127950000Y-128260000D02*
X127950000Y-130000000D01*
X127950000Y-130000000D02*
X129450000Y-130000000D01*
X130026444Y-127555681D02*
G75*
G02*
X129293000Y-127386000I-26444J1555681D01*
G01*
X128613355Y-126705733D02*
G75*
G02*
X128614000Y-125293000I1386645J705733D01*
G01*
X129294267Y-124613355D02*
G75*
G02*
X130707000Y-124614000I705733J-1386645D01*
G01*
X131386645Y-125294267D02*
G75*
G02*
X131386000Y-126707000I-1386645J-705733D01*
G01*
X130705955Y-127385515D02*
G75*
G02*
X130000000Y-127555000I-705955J1385515D01*
G01*
%TO.C,R2*%
X127880000Y-81440000D02*
X130620000Y-81440000D01*
X130620000Y-81440000D02*
X130620000Y-74900000D01*
X130620000Y-74900000D02*
X127880000Y-74900000D01*
X127880000Y-74900000D02*
X127880000Y-81440000D01*
X129250000Y-82210000D02*
X129250000Y-81440000D01*
X129250000Y-74130000D02*
X129250000Y-74900000D01*
%TO.C,R1*%
X127880000Y-106690000D02*
X130620000Y-106690000D01*
X130620000Y-106690000D02*
X130620000Y-100150000D01*
X130620000Y-100150000D02*
X127880000Y-100150000D01*
X127880000Y-100150000D02*
X127880000Y-106690000D01*
X129250000Y-107460000D02*
X129250000Y-106690000D01*
X129250000Y-99380000D02*
X129250000Y-100150000D01*
D12*
%TO.C,D1*%
X53350000Y-108850000D02*
X53350000Y-108850000D01*
X53350000Y-108750000D02*
X53350000Y-108750000D01*
X53350000Y-108850000D02*
X53350000Y-108850000D01*
D13*
X53000000Y-111500000D02*
X48000000Y-111500000D01*
X53000000Y-81000000D02*
X53000000Y-111500000D01*
X48000000Y-81000000D02*
X53000000Y-81000000D01*
X48000000Y-111500000D02*
X48000000Y-81000000D01*
D12*
X53350000Y-108750000D02*
G75*
G02*
X53350000Y-108850000I0J-50000D01*
G01*
X53350000Y-108850000D02*
G75*
G02*
X53350000Y-108750000I0J50000D01*
G01*
X53350000Y-108750000D02*
G75*
G02*
X53350000Y-108850000I0J-50000D01*
G01*
D11*
%TO.C,C12*%
X127880000Y-92470000D02*
X127880000Y-85030000D01*
X130620000Y-92470000D02*
X130620000Y-85030000D01*
X127880000Y-92470000D02*
X130620000Y-92470000D01*
X127880000Y-85030000D02*
X130620000Y-85030000D01*
%TO.C,C11*%
X127880000Y-117470000D02*
X127880000Y-110030000D01*
X130620000Y-117470000D02*
X130620000Y-110030000D01*
X127880000Y-117470000D02*
X130620000Y-117470000D01*
X127880000Y-110030000D02*
X130620000Y-110030000D01*
%TO.C,C6*%
D10*
X55857142Y-106666666D02*
X55904761Y-106714285D01*
X55952380Y-106857142D01*
X55952380Y-106952380D01*
X55904761Y-107095238D01*
X55809523Y-107190476D01*
X55714285Y-107238095D01*
X55523809Y-107285714D01*
X55380952Y-107285714D01*
X55190476Y-107238095D01*
X55095238Y-107190476D01*
X55000000Y-107095238D01*
X54952380Y-106952380D01*
X54952380Y-106857142D01*
X55000000Y-106714285D01*
X55047619Y-106666666D01*
X54952380Y-105809523D02*
X54952380Y-106000000D01*
X55000000Y-106095238D01*
X55047619Y-106142857D01*
X55190476Y-106238095D01*
X55380952Y-106285714D01*
X55761904Y-106285714D01*
X55857142Y-106238095D01*
X55904761Y-106190476D01*
X55952380Y-106095238D01*
X55952380Y-105904761D01*
X55904761Y-105809523D01*
X55857142Y-105761904D01*
X55761904Y-105714285D01*
X55523809Y-105714285D01*
X55428571Y-105761904D01*
X55380952Y-105809523D01*
X55333333Y-105904761D01*
X55333333Y-106095238D01*
X55380952Y-106190476D01*
X55428571Y-106238095D01*
X55523809Y-106285714D01*
%TO.C,C5*%
X42333333Y-114857142D02*
X42285714Y-114904761D01*
X42142857Y-114952380D01*
X42047619Y-114952380D01*
X41904761Y-114904761D01*
X41809523Y-114809523D01*
X41761904Y-114714285D01*
X41714285Y-114523809D01*
X41714285Y-114380952D01*
X41761904Y-114190476D01*
X41809523Y-114095238D01*
X41904761Y-114000000D01*
X42047619Y-113952380D01*
X42142857Y-113952380D01*
X42285714Y-114000000D01*
X42333333Y-114047619D01*
X43238095Y-113952380D02*
X42761904Y-113952380D01*
X42714285Y-114428571D01*
X42761904Y-114380952D01*
X42857142Y-114333333D01*
X43095238Y-114333333D01*
X43190476Y-114380952D01*
X43238095Y-114428571D01*
X43285714Y-114523809D01*
X43285714Y-114761904D01*
X43238095Y-114857142D01*
X43190476Y-114904761D01*
X43095238Y-114952380D01*
X42857142Y-114952380D01*
X42761904Y-114904761D01*
X42714285Y-114857142D01*
%TO.C,C4*%
X42333333Y-78357142D02*
X42285714Y-78404761D01*
X42142857Y-78452380D01*
X42047619Y-78452380D01*
X41904761Y-78404761D01*
X41809523Y-78309523D01*
X41761904Y-78214285D01*
X41714285Y-78023809D01*
X41714285Y-77880952D01*
X41761904Y-77690476D01*
X41809523Y-77595238D01*
X41904761Y-77500000D01*
X42047619Y-77452380D01*
X42142857Y-77452380D01*
X42285714Y-77500000D01*
X42333333Y-77547619D01*
X43190476Y-77785714D02*
X43190476Y-78452380D01*
X42952380Y-77404761D02*
X42714285Y-78119047D01*
X43333333Y-78119047D01*
%TO.C,C3*%
X55857142Y-83916666D02*
X55904761Y-83964285D01*
X55952380Y-84107142D01*
X55952380Y-84202380D01*
X55904761Y-84345238D01*
X55809523Y-84440476D01*
X55714285Y-84488095D01*
X55523809Y-84535714D01*
X55380952Y-84535714D01*
X55190476Y-84488095D01*
X55095238Y-84440476D01*
X55000000Y-84345238D01*
X54952380Y-84202380D01*
X54952380Y-84107142D01*
X55000000Y-83964285D01*
X55047619Y-83916666D01*
X54952380Y-83583333D02*
X54952380Y-82964285D01*
X55333333Y-83297619D01*
X55333333Y-83154761D01*
X55380952Y-83059523D01*
X55428571Y-83011904D01*
X55523809Y-82964285D01*
X55761904Y-82964285D01*
X55857142Y-83011904D01*
X55904761Y-83059523D01*
X55952380Y-83154761D01*
X55952380Y-83440476D01*
X55904761Y-83535714D01*
X55857142Y-83583333D01*
%TO.C,R4*%
X135333333Y-69452380D02*
X135000000Y-68976190D01*
X134761904Y-69452380D02*
X134761904Y-68452380D01*
X135142857Y-68452380D01*
X135238095Y-68500000D01*
X135285714Y-68547619D01*
X135333333Y-68642857D01*
X135333333Y-68785714D01*
X135285714Y-68880952D01*
X135238095Y-68928571D01*
X135142857Y-68976190D01*
X134761904Y-68976190D01*
X136190476Y-68785714D02*
X136190476Y-69452380D01*
X135952380Y-68404761D02*
X135714285Y-69119047D01*
X136333333Y-69119047D01*
%TO.C,R3*%
X128083333Y-121202380D02*
X127750000Y-120726190D01*
X127511904Y-121202380D02*
X127511904Y-120202380D01*
X127892857Y-120202380D01*
X127988095Y-120250000D01*
X128035714Y-120297619D01*
X128083333Y-120392857D01*
X128083333Y-120535714D01*
X128035714Y-120630952D01*
X127988095Y-120678571D01*
X127892857Y-120726190D01*
X127511904Y-120726190D01*
X128416666Y-120202380D02*
X129035714Y-120202380D01*
X128702380Y-120583333D01*
X128845238Y-120583333D01*
X128940476Y-120630952D01*
X128988095Y-120678571D01*
X129035714Y-120773809D01*
X129035714Y-121011904D01*
X128988095Y-121107142D01*
X128940476Y-121154761D01*
X128845238Y-121202380D01*
X128559523Y-121202380D01*
X128464285Y-121154761D01*
X128416666Y-121107142D01*
%TO.C,R6*%
X133702380Y-86416666D02*
X133226190Y-86750000D01*
X133702380Y-86988095D02*
X132702380Y-86988095D01*
X132702380Y-86607142D01*
X132750000Y-86511904D01*
X132797619Y-86464285D01*
X132892857Y-86416666D01*
X133035714Y-86416666D01*
X133130952Y-86464285D01*
X133178571Y-86511904D01*
X133226190Y-86607142D01*
X133226190Y-86988095D01*
X132702380Y-85559523D02*
X132702380Y-85750000D01*
X132750000Y-85845238D01*
X132797619Y-85892857D01*
X132940476Y-85988095D01*
X133130952Y-86035714D01*
X133511904Y-86035714D01*
X133607142Y-85988095D01*
X133654761Y-85940476D01*
X133702380Y-85845238D01*
X133702380Y-85654761D01*
X133654761Y-85559523D01*
X133607142Y-85511904D01*
X133511904Y-85464285D01*
X133273809Y-85464285D01*
X133178571Y-85511904D01*
X133130952Y-85559523D01*
X133083333Y-85654761D01*
X133083333Y-85845238D01*
X133130952Y-85940476D01*
X133178571Y-85988095D01*
X133273809Y-86035714D01*
%TO.C,R5*%
X133702380Y-111666666D02*
X133226190Y-112000000D01*
X133702380Y-112238095D02*
X132702380Y-112238095D01*
X132702380Y-111857142D01*
X132750000Y-111761904D01*
X132797619Y-111714285D01*
X132892857Y-111666666D01*
X133035714Y-111666666D01*
X133130952Y-111714285D01*
X133178571Y-111761904D01*
X133226190Y-111857142D01*
X133226190Y-112238095D01*
X132702380Y-110761904D02*
X132702380Y-111238095D01*
X133178571Y-111285714D01*
X133130952Y-111238095D01*
X133083333Y-111142857D01*
X133083333Y-110904761D01*
X133130952Y-110809523D01*
X133178571Y-110761904D01*
X133273809Y-110714285D01*
X133511904Y-110714285D01*
X133607142Y-110761904D01*
X133654761Y-110809523D01*
X133702380Y-110904761D01*
X133702380Y-111142857D01*
X133654761Y-111238095D01*
X133607142Y-111285714D01*
%TO.C,D3*%
X133702380Y-73488095D02*
X132702380Y-73488095D01*
X132702380Y-73250000D01*
X132750000Y-73107142D01*
X132845238Y-73011904D01*
X132940476Y-72964285D01*
X133130952Y-72916666D01*
X133273809Y-72916666D01*
X133464285Y-72964285D01*
X133559523Y-73011904D01*
X133654761Y-73107142D01*
X133702380Y-73250000D01*
X133702380Y-73488095D01*
X132702380Y-72583333D02*
X132702380Y-71964285D01*
X133083333Y-72297619D01*
X133083333Y-72154761D01*
X133130952Y-72059523D01*
X133178571Y-72011904D01*
X133273809Y-71964285D01*
X133511904Y-71964285D01*
X133607142Y-72011904D01*
X133654761Y-72059523D01*
X133702380Y-72154761D01*
X133702380Y-72440476D01*
X133654761Y-72535714D01*
X133607142Y-72583333D01*
%TO.C,D2*%
X133702380Y-105988095D02*
X132702380Y-105988095D01*
X132702380Y-105750000D01*
X132750000Y-105607142D01*
X132845238Y-105511904D01*
X132940476Y-105464285D01*
X133130952Y-105416666D01*
X133273809Y-105416666D01*
X133464285Y-105464285D01*
X133559523Y-105511904D01*
X133654761Y-105607142D01*
X133702380Y-105750000D01*
X133702380Y-105988095D01*
X132797619Y-105035714D02*
X132750000Y-104988095D01*
X132702380Y-104892857D01*
X132702380Y-104654761D01*
X132750000Y-104559523D01*
X132797619Y-104511904D01*
X132892857Y-104464285D01*
X132988095Y-104464285D01*
X133130952Y-104511904D01*
X133702380Y-105083333D01*
X133702380Y-104464285D01*
%TO.C,C10*%
X95107142Y-64892857D02*
X95154761Y-64940476D01*
X95202380Y-65083333D01*
X95202380Y-65178571D01*
X95154761Y-65321428D01*
X95059523Y-65416666D01*
X94964285Y-65464285D01*
X94773809Y-65511904D01*
X94630952Y-65511904D01*
X94440476Y-65464285D01*
X94345238Y-65416666D01*
X94250000Y-65321428D01*
X94202380Y-65178571D01*
X94202380Y-65083333D01*
X94250000Y-64940476D01*
X94297619Y-64892857D01*
X95202380Y-63940476D02*
X95202380Y-64511904D01*
X95202380Y-64226190D02*
X94202380Y-64226190D01*
X94345238Y-64321428D01*
X94440476Y-64416666D01*
X94488095Y-64511904D01*
X94202380Y-63321428D02*
X94202380Y-63226190D01*
X94250000Y-63130952D01*
X94297619Y-63083333D01*
X94392857Y-63035714D01*
X94583333Y-62988095D01*
X94821428Y-62988095D01*
X95011904Y-63035714D01*
X95107142Y-63083333D01*
X95154761Y-63130952D01*
X95202380Y-63226190D01*
X95202380Y-63321428D01*
X95154761Y-63416666D01*
X95107142Y-63464285D01*
X95011904Y-63511904D01*
X94821428Y-63559523D01*
X94583333Y-63559523D01*
X94392857Y-63511904D01*
X94297619Y-63464285D01*
X94250000Y-63416666D01*
X94202380Y-63321428D01*
%TO.C,C9*%
X94107142Y-123416666D02*
X94154761Y-123464285D01*
X94202380Y-123607142D01*
X94202380Y-123702380D01*
X94154761Y-123845238D01*
X94059523Y-123940476D01*
X93964285Y-123988095D01*
X93773809Y-124035714D01*
X93630952Y-124035714D01*
X93440476Y-123988095D01*
X93345238Y-123940476D01*
X93250000Y-123845238D01*
X93202380Y-123702380D01*
X93202380Y-123607142D01*
X93250000Y-123464285D01*
X93297619Y-123416666D01*
X94202380Y-122940476D02*
X94202380Y-122750000D01*
X94154761Y-122654761D01*
X94107142Y-122607142D01*
X93964285Y-122511904D01*
X93773809Y-122464285D01*
X93392857Y-122464285D01*
X93297619Y-122511904D01*
X93250000Y-122559523D01*
X93202380Y-122654761D01*
X93202380Y-122845238D01*
X93250000Y-122940476D01*
X93297619Y-122988095D01*
X93392857Y-123035714D01*
X93630952Y-123035714D01*
X93726190Y-122988095D01*
X93773809Y-122940476D01*
X93821428Y-122845238D01*
X93821428Y-122654761D01*
X93773809Y-122559523D01*
X93726190Y-122511904D01*
X93630952Y-122464285D01*
%TO.C,C8*%
X59357142Y-65916666D02*
X59404761Y-65964285D01*
X59452380Y-66107142D01*
X59452380Y-66202380D01*
X59404761Y-66345238D01*
X59309523Y-66440476D01*
X59214285Y-66488095D01*
X59023809Y-66535714D01*
X58880952Y-66535714D01*
X58690476Y-66488095D01*
X58595238Y-66440476D01*
X58500000Y-66345238D01*
X58452380Y-66202380D01*
X58452380Y-66107142D01*
X58500000Y-65964285D01*
X58547619Y-65916666D01*
X58880952Y-65345238D02*
X58833333Y-65440476D01*
X58785714Y-65488095D01*
X58690476Y-65535714D01*
X58642857Y-65535714D01*
X58547619Y-65488095D01*
X58500000Y-65440476D01*
X58452380Y-65345238D01*
X58452380Y-65154761D01*
X58500000Y-65059523D01*
X58547619Y-65011904D01*
X58642857Y-64964285D01*
X58690476Y-64964285D01*
X58785714Y-65011904D01*
X58833333Y-65059523D01*
X58880952Y-65154761D01*
X58880952Y-65345238D01*
X58928571Y-65440476D01*
X58976190Y-65488095D01*
X59071428Y-65535714D01*
X59261904Y-65535714D01*
X59357142Y-65488095D01*
X59404761Y-65440476D01*
X59452380Y-65345238D01*
X59452380Y-65154761D01*
X59404761Y-65059523D01*
X59357142Y-65011904D01*
X59261904Y-64964285D01*
X59071428Y-64964285D01*
X58976190Y-65011904D01*
X58928571Y-65059523D01*
X58880952Y-65154761D01*
%TO.C,C7*%
X60107142Y-125416666D02*
X60154761Y-125464285D01*
X60202380Y-125607142D01*
X60202380Y-125702380D01*
X60154761Y-125845238D01*
X60059523Y-125940476D01*
X59964285Y-125988095D01*
X59773809Y-126035714D01*
X59630952Y-126035714D01*
X59440476Y-125988095D01*
X59345238Y-125940476D01*
X59250000Y-125845238D01*
X59202380Y-125702380D01*
X59202380Y-125607142D01*
X59250000Y-125464285D01*
X59297619Y-125416666D01*
X59202380Y-125083333D02*
X59202380Y-124416666D01*
X60202380Y-124845238D01*
%TO.C,C2*%
X42333333Y-74357142D02*
X42285714Y-74404761D01*
X42142857Y-74452380D01*
X42047619Y-74452380D01*
X41904761Y-74404761D01*
X41809523Y-74309523D01*
X41761904Y-74214285D01*
X41714285Y-74023809D01*
X41714285Y-73880952D01*
X41761904Y-73690476D01*
X41809523Y-73595238D01*
X41904761Y-73500000D01*
X42047619Y-73452380D01*
X42142857Y-73452380D01*
X42285714Y-73500000D01*
X42333333Y-73547619D01*
X42714285Y-73547619D02*
X42761904Y-73500000D01*
X42857142Y-73452380D01*
X43095238Y-73452380D01*
X43190476Y-73500000D01*
X43238095Y-73547619D01*
X43285714Y-73642857D01*
X43285714Y-73738095D01*
X43238095Y-73880952D01*
X42666666Y-74452380D01*
X43285714Y-74452380D01*
%TO.C,C1*%
X42333333Y-118857142D02*
X42285714Y-118904761D01*
X42142857Y-118952380D01*
X42047619Y-118952380D01*
X41904761Y-118904761D01*
X41809523Y-118809523D01*
X41761904Y-118714285D01*
X41714285Y-118523809D01*
X41714285Y-118380952D01*
X41761904Y-118190476D01*
X41809523Y-118095238D01*
X41904761Y-118000000D01*
X42047619Y-117952380D01*
X42142857Y-117952380D01*
X42285714Y-118000000D01*
X42333333Y-118047619D01*
X43285714Y-118952380D02*
X42714285Y-118952380D01*
X43000000Y-118952380D02*
X43000000Y-117952380D01*
X42904761Y-118095238D01*
X42809523Y-118190476D01*
X42714285Y-118238095D01*
%TO.C,R2*%
X129083333Y-71952380D02*
X128750000Y-71476190D01*
X128511904Y-71952380D02*
X128511904Y-70952380D01*
X128892857Y-70952380D01*
X128988095Y-71000000D01*
X129035714Y-71047619D01*
X129083333Y-71142857D01*
X129083333Y-71285714D01*
X129035714Y-71380952D01*
X128988095Y-71428571D01*
X128892857Y-71476190D01*
X128511904Y-71476190D01*
X129464285Y-71047619D02*
X129511904Y-71000000D01*
X129607142Y-70952380D01*
X129845238Y-70952380D01*
X129940476Y-71000000D01*
X129988095Y-71047619D01*
X130035714Y-71142857D01*
X130035714Y-71238095D01*
X129988095Y-71380952D01*
X129416666Y-71952380D01*
X130035714Y-71952380D01*
%TO.C,R1*%
X127452380Y-103916666D02*
X126976190Y-104250000D01*
X127452380Y-104488095D02*
X126452380Y-104488095D01*
X126452380Y-104107142D01*
X126500000Y-104011904D01*
X126547619Y-103964285D01*
X126642857Y-103916666D01*
X126785714Y-103916666D01*
X126880952Y-103964285D01*
X126928571Y-104011904D01*
X126976190Y-104107142D01*
X126976190Y-104488095D01*
X127452380Y-102964285D02*
X127452380Y-103535714D01*
X127452380Y-103250000D02*
X126452380Y-103250000D01*
X126595238Y-103345238D01*
X126690476Y-103440476D01*
X126738095Y-103535714D01*
%TO.C,D1*%
D14*
X52062619Y-113574523D02*
X52062619Y-112304523D01*
X52365000Y-112304523D01*
X52546428Y-112365000D01*
X52667380Y-112485952D01*
X52727857Y-112606904D01*
X52788333Y-112848809D01*
X52788333Y-113030238D01*
X52727857Y-113272142D01*
X52667380Y-113393095D01*
X52546428Y-113514047D01*
X52365000Y-113574523D01*
X52062619Y-113574523D01*
X53997857Y-113574523D02*
X53272142Y-113574523D01*
X53635000Y-113574523D02*
X53635000Y-112304523D01*
X53514047Y-112485952D01*
X53393095Y-112606904D01*
X53272142Y-112667380D01*
D10*
X52071428Y-84130952D02*
X52071428Y-83369047D01*
X52071428Y-109130952D02*
X52071428Y-108369047D01*
X52452380Y-108750000D02*
X51690476Y-108750000D01*
%TO.C,C12*%
X127357142Y-89392857D02*
X127404761Y-89440476D01*
X127452380Y-89583333D01*
X127452380Y-89678571D01*
X127404761Y-89821428D01*
X127309523Y-89916666D01*
X127214285Y-89964285D01*
X127023809Y-90011904D01*
X126880952Y-90011904D01*
X126690476Y-89964285D01*
X126595238Y-89916666D01*
X126500000Y-89821428D01*
X126452380Y-89678571D01*
X126452380Y-89583333D01*
X126500000Y-89440476D01*
X126547619Y-89392857D01*
X127452380Y-88440476D02*
X127452380Y-89011904D01*
X127452380Y-88726190D02*
X126452380Y-88726190D01*
X126595238Y-88821428D01*
X126690476Y-88916666D01*
X126738095Y-89011904D01*
X126547619Y-88059523D02*
X126500000Y-88011904D01*
X126452380Y-87916666D01*
X126452380Y-87678571D01*
X126500000Y-87583333D01*
X126547619Y-87535714D01*
X126642857Y-87488095D01*
X126738095Y-87488095D01*
X126880952Y-87535714D01*
X127452380Y-88107142D01*
X127452380Y-87488095D01*
%TO.C,C11*%
X128607142Y-118607142D02*
X128559523Y-118654761D01*
X128416666Y-118702380D01*
X128321428Y-118702380D01*
X128178571Y-118654761D01*
X128083333Y-118559523D01*
X128035714Y-118464285D01*
X127988095Y-118273809D01*
X127988095Y-118130952D01*
X128035714Y-117940476D01*
X128083333Y-117845238D01*
X128178571Y-117750000D01*
X128321428Y-117702380D01*
X128416666Y-117702380D01*
X128559523Y-117750000D01*
X128607142Y-117797619D01*
X129559523Y-118702380D02*
X128988095Y-118702380D01*
X129273809Y-118702380D02*
X129273809Y-117702380D01*
X129178571Y-117845238D01*
X129083333Y-117940476D01*
X128988095Y-117988095D01*
X130511904Y-118702380D02*
X129940476Y-118702380D01*
X130226190Y-118702380D02*
X130226190Y-117702380D01*
X130130952Y-117845238D01*
X130035714Y-117940476D01*
X129940476Y-117988095D01*
%TD*%
M02*
