M48
; DRILL file {KiCad (5.1.6-0)} date Saturday, January 06, 2024 at 09:56:18 AM
; FORMAT={-:-/ absolute / inch / decimal}
; #@! TF.CreationDate,2024-01-06T09:56:18-08:00
; #@! TF.GenerationSoftware,Kicad,Pcbnew,(5.1.6-0)
; #@! TF.FileFunction,Plated,1,2,PTH
FMAT,2
INCH
T1C0.0157
T2C0.0197
T3C0.0315
T4C0.0433
T5C0.0472
T6C0.0551
T7C0.0787
T8C0.1260
%
G90
G05
T1
X1.053Y-2.687
X1.053Y-2.8718
X1.053Y-3.108
X1.053Y-3.4623
X1.053Y-3.6985
X1.053Y-4.0135
X1.053Y-4.2497
X1.053Y-4.4859
X1.053Y-4.7221
X1.1614Y-4.813
X1.1711Y-2.7536
X1.1711Y-3.2261
X1.1711Y-3.8166
X1.1711Y-4.3678
X1.1811Y-4.5669
X1.2892Y-2.8718
X1.2892Y-3.6985
X1.2892Y-4.0135
X1.2892Y-4.7221
X1.3386Y-2.3622
X1.3386Y-2.5886
X1.3386Y-4.2497
X1.3386Y-4.9311
X1.3386Y-5.1158
X1.4073Y-3.8166
X1.6042Y-3.5017
X1.6436Y-3.6985
X1.7617Y-3.5804
X1.8404Y-3.7379
X1.8404Y-3.9741
X1.9192Y-3.5017
X1.9585Y-3.856
X1.9979Y-3.6592
X2.0373Y-4.0135
X2.116Y-3.4229
X2.116Y-3.7773
X2.1554Y-4.1316
X2.1947Y-3.5804
X2.1947Y-3.9347
X2.3129Y-3.3836
X2.3129Y-3.6985
X2.3129Y-4.0529
X2.3916Y-3.541
X2.3916Y-3.856
X2.4703Y-4.1316
X2.5097Y-3.2655
X2.5097Y-3.6592
X2.5491Y-3.4623
X2.5491Y-3.9347
X2.5491Y-4.2891
X2.6278Y-3.7773
X2.6672Y-3.3442
X2.6672Y-3.5804
X2.6672Y-4.0529
X2.7459Y-3.8954
X2.7459Y-4.2103
X2.7853Y-3.4623
X2.7853Y-3.6985
X2.8247Y-3.2655
X2.864Y-4.0135
X2.9034Y-3.5804
X2.9034Y-4.2891
X2.9428Y-3.3836
X2.9821Y-4.1316
X3.0215Y-3.9347
X3.0609Y-3.2655
X3.0609Y-3.5017
X3.1003Y-4.2497
X3.1396Y-4.0529
X3.179Y-3.3836
X3.2184Y-3.5804
X3.2184Y-3.8166
X3.2577Y-4.171
X3.2971Y-3.2655
X3.2971Y-3.9741
X3.3365Y-3.4623
X3.3365Y-3.6985
X3.3758Y-4.2891
X3.4152Y-3.856
X3.4152Y-4.0922
X3.4546Y-3.3442
X3.4546Y-3.5804
X3.5333Y-3.7379
X3.5333Y-3.9741
X3.5333Y-4.2103
X3.5727Y-3.4623
X3.6121Y-3.2655
X3.6514Y-3.6198
X3.6514Y-3.856
X3.6514Y-4.0922
X3.7302Y-3.3836
X3.7695Y-3.7379
X3.7695Y-3.9741
X3.8089Y-3.541
X3.8483Y-4.1316
X3.8877Y-3.856
X3.927Y-3.2655
X3.927Y-3.6592
X3.927Y-4.2891
X3.9664Y-3.4623
X3.9664Y-4.0135
X4.0451Y-3.7773
X4.0451Y-4.171
X4.0845Y-3.3442
X4.0845Y-3.5804
X4.1239Y-3.9347
X4.2026Y-3.4623
X4.2026Y-3.6985
X4.2026Y-4.0922
X4.2814Y-3.856
X4.3207Y-3.5804
X4.3601Y-4.0135
X4.3995Y-3.7379
X4.4782Y-3.5017
X4.4782Y-3.8954
X4.5569Y-3.6592
X4.6357Y-3.9741
X4.6751Y-3.7773
X4.7144Y-3.5017
X4.7539Y-2.9232
X4.7932Y-3.8954
X4.8325Y-3.6985
X4.9506Y-3.5017
X4.9506Y-3.8166
X5.0294Y-3.9741
X5.0688Y-3.6985
X5.1869Y-3.5017
X5.1869Y-3.8166
X5.305Y-3.6985
T2
X2.9567Y-3.7402
X2.9844Y-3.6733
X2.9844Y-3.807
X3.0512Y-3.6457
X3.0512Y-3.8346
X3.118Y-3.6733
X3.118Y-3.807
X3.1457Y-3.7402
X5.1713Y-5.0197
X5.1989Y-4.9529
X5.1989Y-5.0865
X5.2657Y-4.9252
X5.2657Y-5.1142
X5.3326Y-4.9529
X5.3326Y-5.0865
X5.3602Y-5.0197
X1.0374Y-2.4606
X1.0651Y-2.3938
X1.0651Y-2.5274
X1.1319Y-2.3661
X1.1319Y-2.5551
X1.1987Y-2.3938
X1.1987Y-2.5274
X1.2264Y-2.4606
X5.1713Y-2.4606
X5.1989Y-2.3938
X5.1989Y-2.5274
X5.2657Y-2.3661
X5.2657Y-2.5551
X5.3326Y-2.3938
X5.3326Y-2.5274
X5.3602Y-2.4606
X1.0374Y-5.0197
X1.0651Y-4.9529
X1.0651Y-5.0865
X1.1319Y-4.9252
X1.1319Y-5.1142
X1.1987Y-4.9529
X1.1987Y-5.0865
X1.2264Y-5.0197
T3
X1.2795Y-4.498
X1.4764Y-4.498
X4.7539Y-4.2752
X4.7539Y-4.6752
X1.6634Y-3.8976
X1.6634Y-4.0945
X4.7539Y-3.2024
X4.7539Y-3.6024
X4.626Y-3.8717
X4.626Y-4.2717
X4.626Y-4.3799
X4.626Y-4.5768
X4.626Y-2.7988
X4.626Y-3.1988
X1.6634Y-3.3957
X1.6634Y-3.5925
X4.626Y-3.3366
X4.626Y-3.5335
X1.2795Y-4.626
X1.4764Y-4.626
X1.2795Y-3.0906
X1.4764Y-3.0906
X4.8819Y-4.2717
X4.8819Y-4.6717
X1.2795Y-2.9626
X1.4764Y-2.9626
X4.8819Y-3.2024
X4.8819Y-3.6024
T5
X4.7244Y-2.5591
X4.8622Y-2.5591
X4.7244Y-4.9213
X4.8622Y-4.9213
T6
X1.0811Y-3.5925
X1.2811Y-3.5925
X1.0811Y-3.8878
X1.2811Y-3.8878
X1.0811Y-3.3465
X1.2811Y-3.3465
X5.1165Y-4.4783
X5.3165Y-4.4783
X5.1165Y-3.5925
X5.3165Y-3.5925
X5.1165Y-4.1831
X5.3165Y-4.1831
X5.1165Y-3.8878
X5.3165Y-3.8878
X5.1165Y-3.002
X5.3165Y-3.002
X5.1165Y-3.2972
X5.3165Y-3.2972
X1.0811Y-4.1339
X1.2811Y-4.1339
T7
X3.7697Y-2.8346
X3.7697Y-3.2283
X3.7697Y-4.252
X3.7697Y-4.6457
X2.3622Y-2.8346
X2.3622Y-3.2283
X2.3622Y-4.252
X2.3622Y-4.6457
T8
X5.2657Y-5.0197
X1.1319Y-2.4606
X5.2657Y-2.4606
X1.1319Y-5.0197
X3.0512Y-3.7402
T4
G00X1.4961Y-3.311
M15
G01X1.4961Y-3.2835
M16
G05
G00X1.4961Y-3.6063
M15
G01X1.4961Y-3.5787
M16
G05
G00X1.4961Y-3.9016
M15
G01X1.4961Y-3.874
M16
G05
G00X1.4961Y-4.2953
M15
G01X1.4961Y-4.2677
M16
G05
T0
M30
