%TF.GenerationSoftware,KiCad,Pcbnew,(5.1.6-0)*%
%TF.CreationDate,2024-01-23T18:55:53-08:00*%
%TF.ProjectId,psu_4caps,7073755f-3463-4617-9073-2e6b69636164,rev?*%
%TF.SameCoordinates,Original*%
%TF.FileFunction,Paste,Top*%
%TF.FilePolarity,Positive*%
%FSLAX46Y46*%
G04 Gerber Fmt 4.6, Leading zero omitted, Abs format (unit mm)*
G04 Created by KiCad (PCBNEW (5.1.6-0)) date 2024-01-23 18:55:53*
%MOMM*%
%LPD*%
G01*
G04 APERTURE LIST*
G04 APERTURE END LIST*
%TO.C,R4*%
G36*
G01*
X132775000Y-69625000D02*
X132775000Y-68375000D01*
G75*
G02*
X133025000Y-68125000I250000J0D01*
G01*
X133950000Y-68125000D01*
G75*
G02*
X134200000Y-68375000I0J-250000D01*
G01*
X134200000Y-69625000D01*
G75*
G02*
X133950000Y-69875000I-250000J0D01*
G01*
X133025000Y-69875000D01*
G75*
G02*
X132775000Y-69625000I0J250000D01*
G01*
G37*
G36*
G01*
X129800000Y-69625000D02*
X129800000Y-68375000D01*
G75*
G02*
X130050000Y-68125000I250000J0D01*
G01*
X130975000Y-68125000D01*
G75*
G02*
X131225000Y-68375000I0J-250000D01*
G01*
X131225000Y-69625000D01*
G75*
G02*
X130975000Y-69875000I-250000J0D01*
G01*
X130050000Y-69875000D01*
G75*
G02*
X129800000Y-69625000I0J250000D01*
G01*
G37*
%TD*%
%TO.C,R3*%
G36*
G01*
X130975000Y-120125000D02*
X130975000Y-121375000D01*
G75*
G02*
X130725000Y-121625000I-250000J0D01*
G01*
X129800000Y-121625000D01*
G75*
G02*
X129550000Y-121375000I0J250000D01*
G01*
X129550000Y-120125000D01*
G75*
G02*
X129800000Y-119875000I250000J0D01*
G01*
X130725000Y-119875000D01*
G75*
G02*
X130975000Y-120125000I0J-250000D01*
G01*
G37*
G36*
G01*
X133950000Y-120125000D02*
X133950000Y-121375000D01*
G75*
G02*
X133700000Y-121625000I-250000J0D01*
G01*
X132775000Y-121625000D01*
G75*
G02*
X132525000Y-121375000I0J250000D01*
G01*
X132525000Y-120125000D01*
G75*
G02*
X132775000Y-119875000I250000J0D01*
G01*
X133700000Y-119875000D01*
G75*
G02*
X133950000Y-120125000I0J-250000D01*
G01*
G37*
%TD*%
%TO.C,R6*%
G36*
G01*
X133875000Y-81725000D02*
X132625000Y-81725000D01*
G75*
G02*
X132375000Y-81475000I0J250000D01*
G01*
X132375000Y-80550000D01*
G75*
G02*
X132625000Y-80300000I250000J0D01*
G01*
X133875000Y-80300000D01*
G75*
G02*
X134125000Y-80550000I0J-250000D01*
G01*
X134125000Y-81475000D01*
G75*
G02*
X133875000Y-81725000I-250000J0D01*
G01*
G37*
G36*
G01*
X133875000Y-84700000D02*
X132625000Y-84700000D01*
G75*
G02*
X132375000Y-84450000I0J250000D01*
G01*
X132375000Y-83525000D01*
G75*
G02*
X132625000Y-83275000I250000J0D01*
G01*
X133875000Y-83275000D01*
G75*
G02*
X134125000Y-83525000I0J-250000D01*
G01*
X134125000Y-84450000D01*
G75*
G02*
X133875000Y-84700000I-250000J0D01*
G01*
G37*
%TD*%
%TO.C,R5*%
G36*
G01*
X133875000Y-114225000D02*
X132625000Y-114225000D01*
G75*
G02*
X132375000Y-113975000I0J250000D01*
G01*
X132375000Y-113050000D01*
G75*
G02*
X132625000Y-112800000I250000J0D01*
G01*
X133875000Y-112800000D01*
G75*
G02*
X134125000Y-113050000I0J-250000D01*
G01*
X134125000Y-113975000D01*
G75*
G02*
X133875000Y-114225000I-250000J0D01*
G01*
G37*
G36*
G01*
X133875000Y-117200000D02*
X132625000Y-117200000D01*
G75*
G02*
X132375000Y-116950000I0J250000D01*
G01*
X132375000Y-116025000D01*
G75*
G02*
X132625000Y-115775000I250000J0D01*
G01*
X133875000Y-115775000D01*
G75*
G02*
X134125000Y-116025000I0J-250000D01*
G01*
X134125000Y-116950000D01*
G75*
G02*
X133875000Y-117200000I-250000J0D01*
G01*
G37*
%TD*%
%TO.C,D3*%
G36*
G01*
X132799999Y-77200000D02*
X133700001Y-77200000D01*
G75*
G02*
X133950000Y-77449999I0J-249999D01*
G01*
X133950000Y-78100001D01*
G75*
G02*
X133700001Y-78350000I-249999J0D01*
G01*
X132799999Y-78350000D01*
G75*
G02*
X132550000Y-78100001I0J249999D01*
G01*
X132550000Y-77449999D01*
G75*
G02*
X132799999Y-77200000I249999J0D01*
G01*
G37*
G36*
G01*
X132799999Y-75150000D02*
X133700001Y-75150000D01*
G75*
G02*
X133950000Y-75399999I0J-249999D01*
G01*
X133950000Y-76050001D01*
G75*
G02*
X133700001Y-76300000I-249999J0D01*
G01*
X132799999Y-76300000D01*
G75*
G02*
X132550000Y-76050001I0J249999D01*
G01*
X132550000Y-75399999D01*
G75*
G02*
X132799999Y-75150000I249999J0D01*
G01*
G37*
%TD*%
%TO.C,D2*%
G36*
G01*
X132799999Y-108700000D02*
X133700001Y-108700000D01*
G75*
G02*
X133950000Y-108949999I0J-249999D01*
G01*
X133950000Y-109600001D01*
G75*
G02*
X133700001Y-109850000I-249999J0D01*
G01*
X132799999Y-109850000D01*
G75*
G02*
X132550000Y-109600001I0J249999D01*
G01*
X132550000Y-108949999D01*
G75*
G02*
X132799999Y-108700000I249999J0D01*
G01*
G37*
G36*
G01*
X132799999Y-106650000D02*
X133700001Y-106650000D01*
G75*
G02*
X133950000Y-106899999I0J-249999D01*
G01*
X133950000Y-107550001D01*
G75*
G02*
X133700001Y-107800000I-249999J0D01*
G01*
X132799999Y-107800000D01*
G75*
G02*
X132550000Y-107550001I0J249999D01*
G01*
X132550000Y-106899999D01*
G75*
G02*
X132799999Y-106650000I249999J0D01*
G01*
G37*
%TD*%
M02*
