M48
; DRILL file {KiCad (5.1.6-0)} date Tuesday, January 23, 2024 at 06:55:54 PM
; FORMAT={-:-/ absolute / inch / decimal}
; #@! TF.CreationDate,2024-01-23T18:55:54-08:00
; #@! TF.GenerationSoftware,Kicad,Pcbnew,(5.1.6-0)
; #@! TF.FileFunction,Plated,1,2,PTH
FMAT,2
INCH
T1C0.0157
T2C0.0197
T3C0.0315
T4C0.0394
T5C0.0433
T6C0.0472
T7C0.0551
T8C0.0787
T9C0.1260
%
G90
G05
T1
X1.5451Y-2.687
X1.5451Y-2.8718
X1.5451Y-3.108
X1.5451Y-3.4623
X1.5451Y-3.6985
X1.5451Y-4.0135
X1.5451Y-4.2497
X1.5451Y-4.4859
X1.5451Y-4.7221
X1.6535Y-4.813
X1.6632Y-2.7536
X1.6632Y-3.2261
X1.6632Y-3.8166
X1.6632Y-4.3678
X1.6732Y-4.5669
X1.7814Y-3.6985
X1.7814Y-4.0135
X1.8307Y-2.3622
X1.8307Y-2.5886
X1.8307Y-4.2497
X1.8307Y-4.9311
X1.8307Y-5.1158
X1.8995Y-3.8166
X1.9094Y-3.6909
X2.0963Y-3.5017
X2.0965Y-3.9173
X2.1357Y-3.6985
X2.1949Y-3.7894
X2.2933Y-3.5804
X2.3325Y-3.7379
X2.4113Y-3.5017
X2.4506Y-3.856
X2.49Y-3.6592
X2.5294Y-4.0135
X2.6081Y-3.4229
X2.6081Y-3.7773
X2.6475Y-4.1316
X2.6869Y-3.5804
X2.6869Y-3.9347
X2.805Y-3.3836
X2.805Y-3.6985
X2.805Y-4.0529
X2.8837Y-3.541
X2.8837Y-3.856
X2.9625Y-4.1316
X3.0018Y-3.6592
X3.0412Y-3.4623
X3.0412Y-3.9347
X3.1199Y-3.7773
X3.1593Y-3.3442
X3.1593Y-3.5804
X3.1593Y-4.0529
X3.238Y-3.8954
X3.238Y-4.2103
X3.2774Y-3.4623
X3.2774Y-3.6985
X3.3168Y-3.2655
X3.3562Y-4.0135
X3.3858Y-3.7992
X3.3955Y-3.5804
X3.3955Y-4.2891
X3.4349Y-3.3836
X3.4743Y-4.1316
X3.5136Y-3.9347
X3.553Y-3.2655
X3.553Y-3.5017
X3.5924Y-4.2497
X3.6317Y-4.0529
X3.6711Y-3.3836
X3.7205Y-3.5433
X3.7499Y-4.171
X3.7892Y-3.2655
X3.7892Y-3.9741
X3.8286Y-3.4623
X3.8286Y-3.6985
X3.868Y-4.2891
X3.9073Y-3.856
X3.9073Y-4.0922
X3.9467Y-3.3442
X3.9467Y-3.5804
X4.0254Y-3.7379
X4.0254Y-3.9741
X4.0254Y-4.2103
X4.0648Y-3.4623
X4.1042Y-3.2655
X4.1436Y-3.6198
X4.1436Y-3.856
X4.1436Y-4.0922
X4.2223Y-3.3836
X4.2617Y-3.7379
X4.2617Y-3.9741
X4.301Y-3.541
X4.3404Y-4.1316
X4.3798Y-3.856
X4.4192Y-3.6592
X4.4585Y-3.4623
X4.4585Y-4.0135
X4.5373Y-3.7773
X4.5373Y-4.171
X4.5766Y-3.3442
X4.5766Y-3.5804
X4.616Y-3.9347
X4.6947Y-3.4623
X4.6947Y-3.6985
X4.6947Y-4.0922
X4.7735Y-3.856
X4.8129Y-3.5804
X4.8522Y-4.0135
X4.8916Y-3.7379
X4.9703Y-3.5017
X4.9703Y-3.8954
X5.0491Y-3.6811
X5.1181Y-3.9961
X5.1672Y-3.7773
X5.2066Y-3.5017
X5.2461Y-2.9232
X5.2461Y-4.6457
X5.3051Y-4.7539
X5.315Y-3.7402
X5.5118Y-3.7402
T2
X5.4665Y-2.4606
X5.4942Y-2.3938
X5.4942Y-2.5274
X5.561Y-2.3661
X5.561Y-2.5551
X5.6278Y-2.3938
X5.6278Y-2.5274
X5.6555Y-2.4606
X1.5295Y-2.4606
X1.5572Y-2.3938
X1.5572Y-2.5274
X1.624Y-2.3661
X1.624Y-2.5551
X1.6908Y-2.3938
X1.6908Y-2.5274
X1.7185Y-2.4606
X3.5177Y-3.7402
X3.5454Y-3.6733
X3.5454Y-3.807
X3.6122Y-3.6457
X3.6122Y-3.8346
X3.679Y-3.6733
X3.679Y-3.807
X3.7067Y-3.7402
X5.4665Y-5.0197
X5.4942Y-4.9529
X5.4942Y-5.0865
X5.561Y-4.9252
X5.561Y-5.1142
X5.6278Y-4.9529
X5.6278Y-5.0865
X5.6555Y-5.0197
X1.5295Y-5.0197
X1.5572Y-4.9529
X1.5572Y-5.0865
X1.624Y-4.9252
X1.624Y-5.1142
X1.6908Y-4.9529
X1.6908Y-5.0865
X1.7185Y-5.0197
T3
X2.185Y-3.3957
X2.185Y-3.5925
X5.0886Y-3.3957
X5.0886Y-3.5925
X1.7717Y-4.5079
X1.9685Y-4.5079
X5.0886Y-4.3799
X5.0886Y-4.5768
X5.0886Y-2.8776
X5.0886Y-3.2776
X5.0886Y-3.8717
X5.0886Y-4.2717
X1.7717Y-4.6752
X1.9685Y-4.6752
X2.185Y-3.8976
X2.185Y-4.0945
X1.7717Y-3.0709
X1.9685Y-3.0709
X1.7717Y-2.9134
X1.9685Y-2.9134
T4
X5.6299Y-3.6024
X5.6299Y-3.7402
X5.6299Y-3.878
T6
X5.1181Y-4.9606
X5.2559Y-4.9606
X5.1181Y-2.5098
X5.2559Y-2.5098
T7
X5.4118Y-3.1988
X5.6118Y-3.1988
X5.4118Y-4.5276
X5.6118Y-4.5276
X1.5732Y-4.1339
X1.7732Y-4.1339
X5.2839Y-3.5925
X5.4839Y-3.5925
X5.4118Y-4.2717
X5.6118Y-4.2717
X1.5732Y-3.5925
X1.7732Y-3.5925
X5.2839Y-3.8878
X5.4839Y-3.8878
X1.5732Y-3.8878
X1.7732Y-3.8878
X5.4118Y-2.9528
X5.6118Y-2.9528
X1.5732Y-3.3465
X1.7732Y-3.3465
T8
X4.3209Y-4.252
X4.3209Y-4.6457
X2.9134Y-2.8346
X2.9134Y-3.2283
X2.9134Y-4.252
X2.9134Y-4.6457
X4.3209Y-2.8346
X4.3209Y-3.2283
T9
X1.624Y-2.4606
X3.6122Y-3.7402
X5.561Y-5.0197
X1.624Y-5.0197
X5.561Y-2.4606
T5
G00X1.9882Y-3.311
M15
G01X1.9882Y-3.2835
M16
G05
G00X1.9882Y-3.6063
M15
G01X1.9882Y-3.5787
M16
G05
G00X1.9882Y-3.9016
M15
G01X1.9882Y-3.874
M16
G05
G00X1.9882Y-4.2953
M15
G01X1.9882Y-4.2677
M16
G05
T0
M30
