%TF.GenerationSoftware,KiCad,Pcbnew,(5.1.6-0)*%
%TF.CreationDate,2024-01-06T09:56:17-08:00*%
%TF.ProjectId,psu_4caps,7073755f-3463-4617-9073-2e6b69636164,rev?*%
%TF.SameCoordinates,Original*%
%TF.FileFunction,Legend,Top*%
%TF.FilePolarity,Positive*%
%FSLAX46Y46*%
G04 Gerber Fmt 4.6, Leading zero omitted, Abs format (unit mm)*
G04 Created by KiCad (PCBNEW (5.1.6-0)) date 2024-01-06 09:56:17*
%MOMM*%
%LPD*%
G01*
G04 APERTURE LIST*
%ADD10C,0.150000*%
%ADD11C,0.120000*%
%ADD12C,0.200000*%
%ADD13C,0.100000*%
%ADD14C,0.254000*%
G04 APERTURE END LIST*
D10*
X37257157Y-61202380D02*
X37382157Y-60202380D01*
X37763110Y-60202380D01*
X37852395Y-60250000D01*
X37894062Y-60297619D01*
X37929776Y-60392857D01*
X37911919Y-60535714D01*
X37852395Y-60630952D01*
X37798824Y-60678571D01*
X37697633Y-60726190D01*
X37316681Y-60726190D01*
X38685729Y-61202380D02*
X38751205Y-60678571D01*
X38715491Y-60583333D01*
X38626205Y-60535714D01*
X38435729Y-60535714D01*
X38334538Y-60583333D01*
X38691681Y-61154761D02*
X38590491Y-61202380D01*
X38352395Y-61202380D01*
X38263110Y-61154761D01*
X38227395Y-61059523D01*
X38239300Y-60964285D01*
X38298824Y-60869047D01*
X38400014Y-60821428D01*
X38638110Y-60821428D01*
X38739300Y-60773809D01*
X39150014Y-60535714D02*
X39304776Y-61202380D01*
X39626205Y-60535714D01*
X40066681Y-61202380D02*
X39977395Y-61154761D01*
X39941681Y-61059523D01*
X40048824Y-60202380D01*
X40590491Y-61202380D02*
X40501205Y-61154761D01*
X40459538Y-61107142D01*
X40423824Y-61011904D01*
X40459538Y-60726190D01*
X40519062Y-60630952D01*
X40572633Y-60583333D01*
X40673824Y-60535714D01*
X40816681Y-60535714D01*
X40905967Y-60583333D01*
X40947633Y-60630952D01*
X40983348Y-60726190D01*
X40947633Y-61011904D01*
X40888110Y-61107142D01*
X40834538Y-61154761D01*
X40733348Y-61202380D01*
X40590491Y-61202380D01*
X41525014Y-60202380D02*
X41519062Y-60250000D01*
X41459538Y-60345238D01*
X41405967Y-60392857D01*
X41786919Y-61154761D02*
X41876205Y-61202380D01*
X42066681Y-61202380D01*
X42167872Y-61154761D01*
X42227395Y-61059523D01*
X42233348Y-61011904D01*
X42197633Y-60916666D01*
X42108348Y-60869047D01*
X41965491Y-60869047D01*
X41876205Y-60821428D01*
X41840491Y-60726190D01*
X41846443Y-60678571D01*
X41905967Y-60583333D01*
X42007157Y-60535714D01*
X42150014Y-60535714D01*
X42239300Y-60583333D01*
X43876205Y-61202380D02*
X43400014Y-61202380D01*
X43525014Y-60202380D01*
X44638110Y-61202380D02*
X44703586Y-60678571D01*
X44667872Y-60583333D01*
X44578586Y-60535714D01*
X44388110Y-60535714D01*
X44286919Y-60583333D01*
X44644062Y-61154761D02*
X44542872Y-61202380D01*
X44304776Y-61202380D01*
X44215491Y-61154761D01*
X44179776Y-61059523D01*
X44191681Y-60964285D01*
X44251205Y-60869047D01*
X44352395Y-60821428D01*
X44590491Y-60821428D01*
X44691681Y-60773809D01*
X45114300Y-61202380D02*
X45239300Y-60202380D01*
X45191681Y-60583333D02*
X45292872Y-60535714D01*
X45483348Y-60535714D01*
X45572633Y-60583333D01*
X45614300Y-60630952D01*
X45650014Y-60726190D01*
X45614300Y-61011904D01*
X45554776Y-61107142D01*
X45501205Y-61154761D01*
X45400014Y-61202380D01*
X45209538Y-61202380D01*
X45120252Y-61154761D01*
X127202380Y-79702380D02*
X128202380Y-79369047D01*
X127202380Y-79035714D01*
X127821428Y-78702380D02*
X127821428Y-77940476D01*
X127202380Y-85702380D02*
X128202380Y-85369047D01*
X127202380Y-85035714D01*
X127821428Y-84702380D02*
X127821428Y-83940476D01*
X127202380Y-111702380D02*
X128202380Y-111369047D01*
X127202380Y-111035714D01*
X127821428Y-110702380D02*
X127821428Y-109940476D01*
X128202380Y-110321428D02*
X127440476Y-110321428D01*
X127202380Y-105702380D02*
X128202380Y-105369047D01*
X127202380Y-105035714D01*
X127821428Y-104702380D02*
X127821428Y-103940476D01*
X128202380Y-104321428D02*
X127440476Y-104321428D01*
X127250000Y-92261904D02*
X127202380Y-92357142D01*
X127202380Y-92500000D01*
X127250000Y-92642857D01*
X127345238Y-92738095D01*
X127440476Y-92785714D01*
X127630952Y-92833333D01*
X127773809Y-92833333D01*
X127964285Y-92785714D01*
X128059523Y-92738095D01*
X128154761Y-92642857D01*
X128202380Y-92500000D01*
X128202380Y-92404761D01*
X128154761Y-92261904D01*
X128107142Y-92214285D01*
X127773809Y-92214285D01*
X127773809Y-92404761D01*
X128202380Y-91785714D02*
X127202380Y-91785714D01*
X128202380Y-91214285D01*
X127202380Y-91214285D01*
X128202380Y-90738095D02*
X127202380Y-90738095D01*
X127202380Y-90500000D01*
X127250000Y-90357142D01*
X127345238Y-90261904D01*
X127440476Y-90214285D01*
X127630952Y-90166666D01*
X127773809Y-90166666D01*
X127964285Y-90214285D01*
X128059523Y-90261904D01*
X128154761Y-90357142D01*
X128202380Y-90500000D01*
X128202380Y-90738095D01*
X127250000Y-99011904D02*
X127202380Y-99107142D01*
X127202380Y-99250000D01*
X127250000Y-99392857D01*
X127345238Y-99488095D01*
X127440476Y-99535714D01*
X127630952Y-99583333D01*
X127773809Y-99583333D01*
X127964285Y-99535714D01*
X128059523Y-99488095D01*
X128154761Y-99392857D01*
X128202380Y-99250000D01*
X128202380Y-99154761D01*
X128154761Y-99011904D01*
X128107142Y-98964285D01*
X127773809Y-98964285D01*
X127773809Y-99154761D01*
X128202380Y-98535714D02*
X127202380Y-98535714D01*
X128202380Y-97964285D01*
X127202380Y-97964285D01*
X128202380Y-97488095D02*
X127202380Y-97488095D01*
X127202380Y-97250000D01*
X127250000Y-97107142D01*
X127345238Y-97011904D01*
X127440476Y-96964285D01*
X127630952Y-96916666D01*
X127773809Y-96916666D01*
X127964285Y-96964285D01*
X128059523Y-97011904D01*
X128154761Y-97107142D01*
X128202380Y-97250000D01*
X128202380Y-97488095D01*
X35250000Y-97988095D02*
X35297619Y-97892857D01*
X35297619Y-97750000D01*
X35250000Y-97607142D01*
X35154761Y-97511904D01*
X35059523Y-97464285D01*
X34869047Y-97416666D01*
X34726190Y-97416666D01*
X34535714Y-97464285D01*
X34440476Y-97511904D01*
X34345238Y-97607142D01*
X34297619Y-97750000D01*
X34297619Y-97845238D01*
X34345238Y-97988095D01*
X34392857Y-98035714D01*
X34726190Y-98035714D01*
X34726190Y-97845238D01*
X34297619Y-98464285D02*
X35297619Y-98464285D01*
X34297619Y-99035714D01*
X35297619Y-99035714D01*
X34297619Y-99511904D02*
X35297619Y-99511904D01*
X35297619Y-99750000D01*
X35250000Y-99892857D01*
X35154761Y-99988095D01*
X35059523Y-100035714D01*
X34869047Y-100083333D01*
X34726190Y-100083333D01*
X34535714Y-100035714D01*
X34440476Y-99988095D01*
X34345238Y-99892857D01*
X34297619Y-99750000D01*
X34297619Y-99511904D01*
X35250000Y-90488095D02*
X35297619Y-90392857D01*
X35297619Y-90250000D01*
X35250000Y-90107142D01*
X35154761Y-90011904D01*
X35059523Y-89964285D01*
X34869047Y-89916666D01*
X34726190Y-89916666D01*
X34535714Y-89964285D01*
X34440476Y-90011904D01*
X34345238Y-90107142D01*
X34297619Y-90250000D01*
X34297619Y-90345238D01*
X34345238Y-90488095D01*
X34392857Y-90535714D01*
X34726190Y-90535714D01*
X34726190Y-90345238D01*
X34297619Y-90964285D02*
X35297619Y-90964285D01*
X34297619Y-91535714D01*
X35297619Y-91535714D01*
X34297619Y-92011904D02*
X35297619Y-92011904D01*
X35297619Y-92250000D01*
X35250000Y-92392857D01*
X35154761Y-92488095D01*
X35059523Y-92535714D01*
X34869047Y-92583333D01*
X34726190Y-92583333D01*
X34535714Y-92535714D01*
X34440476Y-92488095D01*
X34345238Y-92392857D01*
X34297619Y-92250000D01*
X34297619Y-92011904D01*
X34583333Y-104261904D02*
X34583333Y-104738095D01*
X34297619Y-104166666D02*
X35297619Y-104500000D01*
X34297619Y-104833333D01*
X34392857Y-105738095D02*
X34345238Y-105690476D01*
X34297619Y-105547619D01*
X34297619Y-105452380D01*
X34345238Y-105309523D01*
X34440476Y-105214285D01*
X34535714Y-105166666D01*
X34726190Y-105119047D01*
X34869047Y-105119047D01*
X35059523Y-105166666D01*
X35154761Y-105214285D01*
X35250000Y-105309523D01*
X35297619Y-105452380D01*
X35297619Y-105547619D01*
X35250000Y-105690476D01*
X35202380Y-105738095D01*
X34583333Y-84261904D02*
X34583333Y-84738095D01*
X34297619Y-84166666D02*
X35297619Y-84500000D01*
X34297619Y-84833333D01*
X34392857Y-85738095D02*
X34345238Y-85690476D01*
X34297619Y-85547619D01*
X34297619Y-85452380D01*
X34345238Y-85309523D01*
X34440476Y-85214285D01*
X34535714Y-85166666D01*
X34726190Y-85119047D01*
X34869047Y-85119047D01*
X35059523Y-85166666D01*
X35154761Y-85214285D01*
X35250000Y-85309523D01*
X35297619Y-85452380D01*
X35297619Y-85547619D01*
X35250000Y-85690476D01*
X35202380Y-85738095D01*
D11*
%TO.C,C10*%
X84125000Y-94104002D02*
X87625000Y-94104002D01*
X85875000Y-95854002D02*
X85875000Y-92354002D01*
X94950000Y-59400000D02*
X96550000Y-59400000D01*
X94337000Y-59440000D02*
X97163000Y-59440000D01*
X93915000Y-59480000D02*
X97585000Y-59480000D01*
X93573000Y-59520000D02*
X97927000Y-59520000D01*
X93277000Y-59560000D02*
X98223000Y-59560000D01*
X93014000Y-59600000D02*
X98486000Y-59600000D01*
X92774000Y-59640000D02*
X98726000Y-59640000D01*
X92552000Y-59680000D02*
X98948000Y-59680000D01*
X92345000Y-59720000D02*
X99155000Y-59720000D01*
X92150000Y-59760000D02*
X99350000Y-59760000D01*
X91965000Y-59800000D02*
X99535000Y-59800000D01*
X91790000Y-59840000D02*
X99710000Y-59840000D01*
X91622000Y-59880000D02*
X99878000Y-59880000D01*
X91461000Y-59920000D02*
X100039000Y-59920000D01*
X91306000Y-59960000D02*
X100194000Y-59960000D01*
X91157000Y-60000000D02*
X100343000Y-60000000D01*
X91012000Y-60040000D02*
X100488000Y-60040000D01*
X90872000Y-60080000D02*
X100628000Y-60080000D01*
X90737000Y-60120000D02*
X100763000Y-60120000D01*
X90605000Y-60160000D02*
X100895000Y-60160000D01*
X90477000Y-60200000D02*
X101023000Y-60200000D01*
X90352000Y-60240000D02*
X101148000Y-60240000D01*
X90230000Y-60280000D02*
X101270000Y-60280000D01*
X90111000Y-60320000D02*
X101389000Y-60320000D01*
X89995000Y-60360000D02*
X101505000Y-60360000D01*
X89882000Y-60400000D02*
X101618000Y-60400000D01*
X89770000Y-60440000D02*
X101730000Y-60440000D01*
X89661000Y-60480000D02*
X101839000Y-60480000D01*
X89555000Y-60520000D02*
X101945000Y-60520000D01*
X89450000Y-60560000D02*
X102050000Y-60560000D01*
X89347000Y-60600000D02*
X102153000Y-60600000D01*
X89246000Y-60640000D02*
X102254000Y-60640000D01*
X89147000Y-60680000D02*
X102353000Y-60680000D01*
X89050000Y-60720000D02*
X102450000Y-60720000D01*
X88954000Y-60760000D02*
X102546000Y-60760000D01*
X88860000Y-60800000D02*
X102640000Y-60800000D01*
X88767000Y-60840000D02*
X102733000Y-60840000D01*
X88675000Y-60880000D02*
X102825000Y-60880000D01*
X88585000Y-60920000D02*
X102915000Y-60920000D01*
X88497000Y-60960000D02*
X103003000Y-60960000D01*
X88409000Y-61000000D02*
X103091000Y-61000000D01*
X88323000Y-61040000D02*
X103177000Y-61040000D01*
X88238000Y-61080000D02*
X103262000Y-61080000D01*
X88155000Y-61120000D02*
X103345000Y-61120000D01*
X88072000Y-61160000D02*
X103428000Y-61160000D01*
X87991000Y-61200000D02*
X103509000Y-61200000D01*
X87910000Y-61240000D02*
X103590000Y-61240000D01*
X87830000Y-61280000D02*
X103670000Y-61280000D01*
X87752000Y-61320000D02*
X103748000Y-61320000D01*
X87674000Y-61360000D02*
X103826000Y-61360000D01*
X87598000Y-61400000D02*
X103902000Y-61400000D01*
X87522000Y-61440000D02*
X103978000Y-61440000D01*
X87447000Y-61480000D02*
X104053000Y-61480000D01*
X87373000Y-61520000D02*
X104127000Y-61520000D01*
X87300000Y-61560000D02*
X104200000Y-61560000D01*
X87228000Y-61600000D02*
X104272000Y-61600000D01*
X87156000Y-61640000D02*
X104344000Y-61640000D01*
X87085000Y-61680000D02*
X104415000Y-61680000D01*
X87015000Y-61720000D02*
X104485000Y-61720000D01*
X86946000Y-61760000D02*
X104554000Y-61760000D01*
X86877000Y-61800000D02*
X104623000Y-61800000D01*
X86810000Y-61840000D02*
X104690000Y-61840000D01*
X86742000Y-61880000D02*
X104758000Y-61880000D01*
X86676000Y-61920000D02*
X104824000Y-61920000D01*
X86610000Y-61960000D02*
X104890000Y-61960000D01*
X86545000Y-62000000D02*
X104955000Y-62000000D01*
X86480000Y-62040000D02*
X105020000Y-62040000D01*
X86416000Y-62080000D02*
X105084000Y-62080000D01*
X86353000Y-62120000D02*
X105147000Y-62120000D01*
X86290000Y-62160000D02*
X105210000Y-62160000D01*
X86228000Y-62200000D02*
X105272000Y-62200000D01*
X86166000Y-62240000D02*
X105334000Y-62240000D01*
X86105000Y-62280000D02*
X105395000Y-62280000D01*
X86045000Y-62320000D02*
X105455000Y-62320000D01*
X85985000Y-62360000D02*
X105515000Y-62360000D01*
X85925000Y-62400000D02*
X105575000Y-62400000D01*
X85866000Y-62440000D02*
X105634000Y-62440000D01*
X85808000Y-62480000D02*
X105692000Y-62480000D01*
X85750000Y-62520000D02*
X105750000Y-62520000D01*
X85692000Y-62560000D02*
X105808000Y-62560000D01*
X85635000Y-62600000D02*
X105865000Y-62600000D01*
X85579000Y-62640000D02*
X105921000Y-62640000D01*
X85523000Y-62680000D02*
X105977000Y-62680000D01*
X85467000Y-62720000D02*
X106033000Y-62720000D01*
X85412000Y-62760000D02*
X106088000Y-62760000D01*
X85358000Y-62800000D02*
X106142000Y-62800000D01*
X85303000Y-62840000D02*
X106197000Y-62840000D01*
X85250000Y-62880000D02*
X106250000Y-62880000D01*
X85196000Y-62920000D02*
X106304000Y-62920000D01*
X85143000Y-62960000D02*
X106357000Y-62960000D01*
X85091000Y-63000000D02*
X106409000Y-63000000D01*
X85039000Y-63040000D02*
X106461000Y-63040000D01*
X84987000Y-63080000D02*
X106513000Y-63080000D01*
X84935000Y-63120000D02*
X106565000Y-63120000D01*
X84885000Y-63160000D02*
X106615000Y-63160000D01*
X84834000Y-63200000D02*
X106666000Y-63200000D01*
X84784000Y-63240000D02*
X106716000Y-63240000D01*
X84734000Y-63280000D02*
X106766000Y-63280000D01*
X84684000Y-63320000D02*
X106816000Y-63320000D01*
X84635000Y-63360000D02*
X106865000Y-63360000D01*
X84587000Y-63400000D02*
X106913000Y-63400000D01*
X84538000Y-63440000D02*
X106962000Y-63440000D01*
X84490000Y-63480000D02*
X107010000Y-63480000D01*
X84443000Y-63520000D02*
X107057000Y-63520000D01*
X84395000Y-63560000D02*
X107105000Y-63560000D01*
X84348000Y-63600000D02*
X107152000Y-63600000D01*
X84301000Y-63640000D02*
X107199000Y-63640000D01*
X84255000Y-63680000D02*
X107245000Y-63680000D01*
X84209000Y-63720000D02*
X107291000Y-63720000D01*
X84163000Y-63760000D02*
X107337000Y-63760000D01*
X84118000Y-63800000D02*
X107382000Y-63800000D01*
X84073000Y-63840000D02*
X107427000Y-63840000D01*
X84028000Y-63880000D02*
X107472000Y-63880000D01*
X83984000Y-63920000D02*
X107516000Y-63920000D01*
X83939000Y-63960000D02*
X107561000Y-63960000D01*
X83896000Y-64000000D02*
X107604000Y-64000000D01*
X83852000Y-64040000D02*
X107648000Y-64040000D01*
X83809000Y-64080000D02*
X107691000Y-64080000D01*
X83766000Y-64120000D02*
X107734000Y-64120000D01*
X83723000Y-64160000D02*
X107777000Y-64160000D01*
X83681000Y-64200000D02*
X107819000Y-64200000D01*
X83639000Y-64240000D02*
X107861000Y-64240000D01*
X83597000Y-64280000D02*
X107903000Y-64280000D01*
X83555000Y-64320000D02*
X107945000Y-64320000D01*
X83514000Y-64360000D02*
X107986000Y-64360000D01*
X83473000Y-64400000D02*
X108027000Y-64400000D01*
X83432000Y-64440000D02*
X108068000Y-64440000D01*
X83391000Y-64480000D02*
X108109000Y-64480000D01*
X83351000Y-64520000D02*
X108149000Y-64520000D01*
X83311000Y-64560000D02*
X108189000Y-64560000D01*
X83271000Y-64600000D02*
X108229000Y-64600000D01*
X83232000Y-64640000D02*
X108268000Y-64640000D01*
X83193000Y-64680000D02*
X108307000Y-64680000D01*
X83154000Y-64720000D02*
X108346000Y-64720000D01*
X83115000Y-64760000D02*
X108385000Y-64760000D01*
X83076000Y-64800000D02*
X108424000Y-64800000D01*
X83038000Y-64840000D02*
X108462000Y-64840000D01*
X83000000Y-64880000D02*
X108500000Y-64880000D01*
X82962000Y-64920000D02*
X108538000Y-64920000D01*
X82925000Y-64960000D02*
X108575000Y-64960000D01*
X82887000Y-65000000D02*
X108613000Y-65000000D01*
X82850000Y-65040000D02*
X108650000Y-65040000D01*
X82813000Y-65080000D02*
X108687000Y-65080000D01*
X82777000Y-65120000D02*
X108723000Y-65120000D01*
X82740000Y-65160000D02*
X108760000Y-65160000D01*
X82704000Y-65200000D02*
X108796000Y-65200000D01*
X82668000Y-65240000D02*
X108832000Y-65240000D01*
X82633000Y-65280000D02*
X108867000Y-65280000D01*
X82597000Y-65320000D02*
X108903000Y-65320000D01*
X82562000Y-65360000D02*
X108938000Y-65360000D01*
X82527000Y-65400000D02*
X108973000Y-65400000D01*
X82492000Y-65440000D02*
X109008000Y-65440000D01*
X82457000Y-65480000D02*
X109043000Y-65480000D01*
X82423000Y-65520000D02*
X109077000Y-65520000D01*
X82388000Y-65560000D02*
X109112000Y-65560000D01*
X82354000Y-65600000D02*
X109146000Y-65600000D01*
X82320000Y-65640000D02*
X109180000Y-65640000D01*
X82287000Y-65680000D02*
X109213000Y-65680000D01*
X82253000Y-65720000D02*
X109247000Y-65720000D01*
X82220000Y-65760000D02*
X109280000Y-65760000D01*
X82187000Y-65800000D02*
X109313000Y-65800000D01*
X82154000Y-65840000D02*
X109346000Y-65840000D01*
X82122000Y-65880000D02*
X109378000Y-65880000D01*
X82089000Y-65920000D02*
X109411000Y-65920000D01*
X82057000Y-65960000D02*
X109443000Y-65960000D01*
X82025000Y-66000000D02*
X109475000Y-66000000D01*
X81993000Y-66040000D02*
X109507000Y-66040000D01*
X81961000Y-66080000D02*
X109539000Y-66080000D01*
X81930000Y-66120000D02*
X109570000Y-66120000D01*
X81899000Y-66160000D02*
X109601000Y-66160000D01*
X81867000Y-66200000D02*
X109633000Y-66200000D01*
X81836000Y-66240000D02*
X109664000Y-66240000D01*
X81806000Y-66280000D02*
X109694000Y-66280000D01*
X81775000Y-66320000D02*
X109725000Y-66320000D01*
X81745000Y-66360000D02*
X109755000Y-66360000D01*
X81715000Y-66400000D02*
X109785000Y-66400000D01*
X81685000Y-66440000D02*
X109815000Y-66440000D01*
X81655000Y-66480000D02*
X109845000Y-66480000D01*
X81625000Y-66520000D02*
X109875000Y-66520000D01*
X81595000Y-66560000D02*
X109905000Y-66560000D01*
X81566000Y-66600000D02*
X109934000Y-66600000D01*
X81537000Y-66640000D02*
X109963000Y-66640000D01*
X81508000Y-66680000D02*
X109992000Y-66680000D01*
X81479000Y-66720000D02*
X110021000Y-66720000D01*
X81451000Y-66760000D02*
X110049000Y-66760000D01*
X81422000Y-66800000D02*
X110078000Y-66800000D01*
X81394000Y-66840000D02*
X110106000Y-66840000D01*
X81366000Y-66880000D02*
X110134000Y-66880000D01*
X81338000Y-66920000D02*
X110162000Y-66920000D01*
X81310000Y-66960000D02*
X110190000Y-66960000D01*
X81282000Y-67000000D02*
X110218000Y-67000000D01*
X81255000Y-67040000D02*
X110245000Y-67040000D01*
X81227000Y-67080000D02*
X110273000Y-67080000D01*
X81200000Y-67120000D02*
X110300000Y-67120000D01*
X81173000Y-67160000D02*
X110327000Y-67160000D01*
X81146000Y-67200000D02*
X110354000Y-67200000D01*
X81120000Y-67240000D02*
X110380000Y-67240000D01*
X81093000Y-67280000D02*
X110407000Y-67280000D01*
X81067000Y-67320000D02*
X110433000Y-67320000D01*
X81040000Y-67360000D02*
X110460000Y-67360000D01*
X81014000Y-67400000D02*
X110486000Y-67400000D01*
X80988000Y-67440000D02*
X110512000Y-67440000D01*
X80963000Y-67480000D02*
X110537000Y-67480000D01*
X80937000Y-67520000D02*
X110563000Y-67520000D01*
X80912000Y-67560000D02*
X110588000Y-67560000D01*
X80886000Y-67600000D02*
X110614000Y-67600000D01*
X80861000Y-67640000D02*
X110639000Y-67640000D01*
X80836000Y-67680000D02*
X110664000Y-67680000D01*
X80811000Y-67720000D02*
X110689000Y-67720000D01*
X80787000Y-67760000D02*
X110713000Y-67760000D01*
X80762000Y-67800000D02*
X110738000Y-67800000D01*
X80738000Y-67840000D02*
X110762000Y-67840000D01*
X80713000Y-67880000D02*
X110787000Y-67880000D01*
X80689000Y-67920000D02*
X110811000Y-67920000D01*
X80665000Y-67960000D02*
X110835000Y-67960000D01*
X80641000Y-68000000D02*
X110859000Y-68000000D01*
X80618000Y-68040000D02*
X110882000Y-68040000D01*
X80594000Y-68080000D02*
X110906000Y-68080000D01*
X80571000Y-68120000D02*
X110929000Y-68120000D01*
X80547000Y-68160000D02*
X110953000Y-68160000D01*
X80524000Y-68200000D02*
X110976000Y-68200000D01*
X80501000Y-68240000D02*
X110999000Y-68240000D01*
X80479000Y-68280000D02*
X111021000Y-68280000D01*
X80456000Y-68320000D02*
X111044000Y-68320000D01*
X80433000Y-68360000D02*
X111067000Y-68360000D01*
X80411000Y-68400000D02*
X111089000Y-68400000D01*
X80389000Y-68440000D02*
X111111000Y-68440000D01*
X80366000Y-68480000D02*
X111134000Y-68480000D01*
X80344000Y-68520000D02*
X111156000Y-68520000D01*
X80322000Y-68560000D02*
X111178000Y-68560000D01*
X80301000Y-68600000D02*
X111199000Y-68600000D01*
X80279000Y-68640000D02*
X111221000Y-68640000D01*
X80258000Y-68680000D02*
X111242000Y-68680000D01*
X80236000Y-68720000D02*
X111264000Y-68720000D01*
X80215000Y-68760000D02*
X111285000Y-68760000D01*
X80194000Y-68800000D02*
X111306000Y-68800000D01*
X80173000Y-68839000D02*
X111327000Y-68839000D01*
X80152000Y-68879000D02*
X111348000Y-68879000D01*
X80131000Y-68919000D02*
X111369000Y-68919000D01*
X80111000Y-68959000D02*
X111389000Y-68959000D01*
X80090000Y-68999000D02*
X111410000Y-68999000D01*
X80070000Y-69039000D02*
X111430000Y-69039000D01*
X80050000Y-69079000D02*
X111450000Y-69079000D01*
X80030000Y-69119000D02*
X111470000Y-69119000D01*
X80010000Y-69159000D02*
X111490000Y-69159000D01*
X79990000Y-69199000D02*
X111510000Y-69199000D01*
X79970000Y-69239000D02*
X111530000Y-69239000D01*
X79951000Y-69279000D02*
X111549000Y-69279000D01*
X79931000Y-69319000D02*
X111569000Y-69319000D01*
X79912000Y-69359000D02*
X111588000Y-69359000D01*
X79893000Y-69399000D02*
X111607000Y-69399000D01*
X79874000Y-69439000D02*
X111626000Y-69439000D01*
X79855000Y-69479000D02*
X111645000Y-69479000D01*
X79836000Y-69519000D02*
X111664000Y-69519000D01*
X79817000Y-69559000D02*
X111683000Y-69559000D01*
X79799000Y-69599000D02*
X111701000Y-69599000D01*
X79780000Y-69639000D02*
X111720000Y-69639000D01*
X79762000Y-69679000D02*
X111738000Y-69679000D01*
X79744000Y-69719000D02*
X111756000Y-69719000D01*
X79726000Y-69759000D02*
X111774000Y-69759000D01*
X97990000Y-69799000D02*
X111792000Y-69799000D01*
X79708000Y-69799000D02*
X93510000Y-69799000D01*
X97990000Y-69839000D02*
X111810000Y-69839000D01*
X79690000Y-69839000D02*
X93510000Y-69839000D01*
X97990000Y-69879000D02*
X111828000Y-69879000D01*
X79672000Y-69879000D02*
X93510000Y-69879000D01*
X97990000Y-69919000D02*
X111845000Y-69919000D01*
X79655000Y-69919000D02*
X93510000Y-69919000D01*
X97990000Y-69959000D02*
X111863000Y-69959000D01*
X79637000Y-69959000D02*
X93510000Y-69959000D01*
X97990000Y-69999000D02*
X111880000Y-69999000D01*
X79620000Y-69999000D02*
X93510000Y-69999000D01*
X97990000Y-70039000D02*
X111898000Y-70039000D01*
X79602000Y-70039000D02*
X93510000Y-70039000D01*
X97990000Y-70079000D02*
X111915000Y-70079000D01*
X79585000Y-70079000D02*
X93510000Y-70079000D01*
X97990000Y-70119000D02*
X111932000Y-70119000D01*
X79568000Y-70119000D02*
X93510000Y-70119000D01*
X97990000Y-70159000D02*
X111949000Y-70159000D01*
X79551000Y-70159000D02*
X93510000Y-70159000D01*
X97990000Y-70199000D02*
X111965000Y-70199000D01*
X79535000Y-70199000D02*
X93510000Y-70199000D01*
X97990000Y-70239000D02*
X111982000Y-70239000D01*
X79518000Y-70239000D02*
X93510000Y-70239000D01*
X97990000Y-70279000D02*
X111999000Y-70279000D01*
X79501000Y-70279000D02*
X93510000Y-70279000D01*
X97990000Y-70319000D02*
X112015000Y-70319000D01*
X79485000Y-70319000D02*
X93510000Y-70319000D01*
X97990000Y-70359000D02*
X112031000Y-70359000D01*
X79469000Y-70359000D02*
X93510000Y-70359000D01*
X97990000Y-70399000D02*
X112048000Y-70399000D01*
X79452000Y-70399000D02*
X93510000Y-70399000D01*
X97990000Y-70439000D02*
X112064000Y-70439000D01*
X79436000Y-70439000D02*
X93510000Y-70439000D01*
X97990000Y-70479000D02*
X112080000Y-70479000D01*
X79420000Y-70479000D02*
X93510000Y-70479000D01*
X97990000Y-70519000D02*
X112096000Y-70519000D01*
X79404000Y-70519000D02*
X93510000Y-70519000D01*
X97990000Y-70559000D02*
X112111000Y-70559000D01*
X79389000Y-70559000D02*
X93510000Y-70559000D01*
X97990000Y-70599000D02*
X112127000Y-70599000D01*
X79373000Y-70599000D02*
X93510000Y-70599000D01*
X97990000Y-70639000D02*
X112143000Y-70639000D01*
X79357000Y-70639000D02*
X93510000Y-70639000D01*
X97990000Y-70679000D02*
X112158000Y-70679000D01*
X79342000Y-70679000D02*
X93510000Y-70679000D01*
X97990000Y-70719000D02*
X112173000Y-70719000D01*
X79327000Y-70719000D02*
X93510000Y-70719000D01*
X97990000Y-70759000D02*
X112189000Y-70759000D01*
X79311000Y-70759000D02*
X93510000Y-70759000D01*
X97990000Y-70799000D02*
X112204000Y-70799000D01*
X79296000Y-70799000D02*
X93510000Y-70799000D01*
X97990000Y-70839000D02*
X112219000Y-70839000D01*
X79281000Y-70839000D02*
X93510000Y-70839000D01*
X97990000Y-70879000D02*
X112234000Y-70879000D01*
X79266000Y-70879000D02*
X93510000Y-70879000D01*
X97990000Y-70919000D02*
X112248000Y-70919000D01*
X79252000Y-70919000D02*
X93510000Y-70919000D01*
X97990000Y-70959000D02*
X112263000Y-70959000D01*
X79237000Y-70959000D02*
X93510000Y-70959000D01*
X97990000Y-70999000D02*
X112277000Y-70999000D01*
X79223000Y-70999000D02*
X93510000Y-70999000D01*
X97990000Y-71039000D02*
X112292000Y-71039000D01*
X79208000Y-71039000D02*
X93510000Y-71039000D01*
X97990000Y-71079000D02*
X112306000Y-71079000D01*
X79194000Y-71079000D02*
X93510000Y-71079000D01*
X97990000Y-71119000D02*
X112320000Y-71119000D01*
X79180000Y-71119000D02*
X93510000Y-71119000D01*
X97990000Y-71159000D02*
X112335000Y-71159000D01*
X79165000Y-71159000D02*
X93510000Y-71159000D01*
X97990000Y-71199000D02*
X112349000Y-71199000D01*
X79151000Y-71199000D02*
X93510000Y-71199000D01*
X97990000Y-71239000D02*
X112362000Y-71239000D01*
X79138000Y-71239000D02*
X93510000Y-71239000D01*
X97990000Y-71279000D02*
X112376000Y-71279000D01*
X79124000Y-71279000D02*
X93510000Y-71279000D01*
X97990000Y-71319000D02*
X112390000Y-71319000D01*
X79110000Y-71319000D02*
X93510000Y-71319000D01*
X97990000Y-71359000D02*
X112403000Y-71359000D01*
X79097000Y-71359000D02*
X93510000Y-71359000D01*
X97990000Y-71399000D02*
X112417000Y-71399000D01*
X79083000Y-71399000D02*
X93510000Y-71399000D01*
X97990000Y-71439000D02*
X112430000Y-71439000D01*
X79070000Y-71439000D02*
X93510000Y-71439000D01*
X97990000Y-71479000D02*
X112444000Y-71479000D01*
X79056000Y-71479000D02*
X93510000Y-71479000D01*
X97990000Y-71519000D02*
X112457000Y-71519000D01*
X79043000Y-71519000D02*
X93510000Y-71519000D01*
X97990000Y-71559000D02*
X112470000Y-71559000D01*
X79030000Y-71559000D02*
X93510000Y-71559000D01*
X97990000Y-71599000D02*
X112483000Y-71599000D01*
X79017000Y-71599000D02*
X93510000Y-71599000D01*
X97990000Y-71639000D02*
X112495000Y-71639000D01*
X79005000Y-71639000D02*
X93510000Y-71639000D01*
X97990000Y-71679000D02*
X112508000Y-71679000D01*
X78992000Y-71679000D02*
X93510000Y-71679000D01*
X97990000Y-71719000D02*
X112521000Y-71719000D01*
X78979000Y-71719000D02*
X93510000Y-71719000D01*
X97990000Y-71759000D02*
X112533000Y-71759000D01*
X78967000Y-71759000D02*
X93510000Y-71759000D01*
X97990000Y-71799000D02*
X112546000Y-71799000D01*
X78954000Y-71799000D02*
X93510000Y-71799000D01*
X97990000Y-71839000D02*
X112558000Y-71839000D01*
X78942000Y-71839000D02*
X93510000Y-71839000D01*
X97990000Y-71879000D02*
X112570000Y-71879000D01*
X78930000Y-71879000D02*
X93510000Y-71879000D01*
X97990000Y-71919000D02*
X112582000Y-71919000D01*
X78918000Y-71919000D02*
X93510000Y-71919000D01*
X97990000Y-71959000D02*
X112594000Y-71959000D01*
X78906000Y-71959000D02*
X93510000Y-71959000D01*
X97990000Y-71999000D02*
X112606000Y-71999000D01*
X78894000Y-71999000D02*
X93510000Y-71999000D01*
X97990000Y-72039000D02*
X112618000Y-72039000D01*
X78882000Y-72039000D02*
X93510000Y-72039000D01*
X97990000Y-72079000D02*
X112630000Y-72079000D01*
X78870000Y-72079000D02*
X93510000Y-72079000D01*
X97990000Y-72119000D02*
X112641000Y-72119000D01*
X78859000Y-72119000D02*
X93510000Y-72119000D01*
X97990000Y-72159000D02*
X112653000Y-72159000D01*
X78847000Y-72159000D02*
X93510000Y-72159000D01*
X97990000Y-72199000D02*
X112664000Y-72199000D01*
X78836000Y-72199000D02*
X93510000Y-72199000D01*
X97990000Y-72239000D02*
X112675000Y-72239000D01*
X78825000Y-72239000D02*
X93510000Y-72239000D01*
X97990000Y-72279000D02*
X112687000Y-72279000D01*
X78813000Y-72279000D02*
X93510000Y-72279000D01*
X97990000Y-72319000D02*
X112698000Y-72319000D01*
X78802000Y-72319000D02*
X93510000Y-72319000D01*
X97990000Y-72359000D02*
X112709000Y-72359000D01*
X78791000Y-72359000D02*
X93510000Y-72359000D01*
X97990000Y-72399000D02*
X112719000Y-72399000D01*
X78781000Y-72399000D02*
X93510000Y-72399000D01*
X97990000Y-72439000D02*
X112730000Y-72439000D01*
X78770000Y-72439000D02*
X93510000Y-72439000D01*
X97990000Y-72479000D02*
X112741000Y-72479000D01*
X78759000Y-72479000D02*
X93510000Y-72479000D01*
X97990000Y-72519000D02*
X112751000Y-72519000D01*
X78749000Y-72519000D02*
X93510000Y-72519000D01*
X97990000Y-72559000D02*
X112762000Y-72559000D01*
X78738000Y-72559000D02*
X93510000Y-72559000D01*
X97990000Y-72599000D02*
X112772000Y-72599000D01*
X78728000Y-72599000D02*
X93510000Y-72599000D01*
X97990000Y-72639000D02*
X112783000Y-72639000D01*
X78717000Y-72639000D02*
X93510000Y-72639000D01*
X97990000Y-72679000D02*
X112793000Y-72679000D01*
X78707000Y-72679000D02*
X93510000Y-72679000D01*
X97990000Y-72719000D02*
X112803000Y-72719000D01*
X78697000Y-72719000D02*
X93510000Y-72719000D01*
X97990000Y-72759000D02*
X112813000Y-72759000D01*
X78687000Y-72759000D02*
X93510000Y-72759000D01*
X97990000Y-72799000D02*
X112823000Y-72799000D01*
X78677000Y-72799000D02*
X93510000Y-72799000D01*
X97990000Y-72839000D02*
X112832000Y-72839000D01*
X78668000Y-72839000D02*
X93510000Y-72839000D01*
X97990000Y-72879000D02*
X112842000Y-72879000D01*
X78658000Y-72879000D02*
X93510000Y-72879000D01*
X97990000Y-72919000D02*
X112852000Y-72919000D01*
X78648000Y-72919000D02*
X93510000Y-72919000D01*
X97990000Y-72959000D02*
X112861000Y-72959000D01*
X78639000Y-72959000D02*
X93510000Y-72959000D01*
X97990000Y-72999000D02*
X112870000Y-72999000D01*
X78630000Y-72999000D02*
X93510000Y-72999000D01*
X97990000Y-73039000D02*
X112880000Y-73039000D01*
X78620000Y-73039000D02*
X93510000Y-73039000D01*
X97990000Y-73079000D02*
X112889000Y-73079000D01*
X78611000Y-73079000D02*
X93510000Y-73079000D01*
X97990000Y-73119000D02*
X112898000Y-73119000D01*
X78602000Y-73119000D02*
X93510000Y-73119000D01*
X97990000Y-73159000D02*
X112907000Y-73159000D01*
X78593000Y-73159000D02*
X93510000Y-73159000D01*
X97990000Y-73199000D02*
X112916000Y-73199000D01*
X78584000Y-73199000D02*
X93510000Y-73199000D01*
X97990000Y-73239000D02*
X112925000Y-73239000D01*
X78575000Y-73239000D02*
X93510000Y-73239000D01*
X97990000Y-73279000D02*
X112933000Y-73279000D01*
X78567000Y-73279000D02*
X93510000Y-73279000D01*
X97990000Y-73319000D02*
X112942000Y-73319000D01*
X78558000Y-73319000D02*
X93510000Y-73319000D01*
X97990000Y-73359000D02*
X112950000Y-73359000D01*
X78550000Y-73359000D02*
X93510000Y-73359000D01*
X97990000Y-73399000D02*
X112959000Y-73399000D01*
X78541000Y-73399000D02*
X93510000Y-73399000D01*
X97990000Y-73439000D02*
X112967000Y-73439000D01*
X78533000Y-73439000D02*
X93510000Y-73439000D01*
X97990000Y-73479000D02*
X112975000Y-73479000D01*
X78525000Y-73479000D02*
X93510000Y-73479000D01*
X97990000Y-73519000D02*
X112983000Y-73519000D01*
X78517000Y-73519000D02*
X93510000Y-73519000D01*
X97990000Y-73559000D02*
X112991000Y-73559000D01*
X78509000Y-73559000D02*
X93510000Y-73559000D01*
X97990000Y-73599000D02*
X112999000Y-73599000D01*
X78501000Y-73599000D02*
X93510000Y-73599000D01*
X97990000Y-73639000D02*
X113007000Y-73639000D01*
X78493000Y-73639000D02*
X93510000Y-73639000D01*
X97990000Y-73679000D02*
X113015000Y-73679000D01*
X78485000Y-73679000D02*
X93510000Y-73679000D01*
X97990000Y-73719000D02*
X113023000Y-73719000D01*
X78477000Y-73719000D02*
X93510000Y-73719000D01*
X97990000Y-73759000D02*
X113030000Y-73759000D01*
X78470000Y-73759000D02*
X93510000Y-73759000D01*
X97990000Y-73799000D02*
X113037000Y-73799000D01*
X78463000Y-73799000D02*
X93510000Y-73799000D01*
X97990000Y-73839000D02*
X113045000Y-73839000D01*
X78455000Y-73839000D02*
X93510000Y-73839000D01*
X97990000Y-73879000D02*
X113052000Y-73879000D01*
X78448000Y-73879000D02*
X93510000Y-73879000D01*
X97990000Y-73919000D02*
X113059000Y-73919000D01*
X78441000Y-73919000D02*
X93510000Y-73919000D01*
X97990000Y-73959000D02*
X113066000Y-73959000D01*
X78434000Y-73959000D02*
X93510000Y-73959000D01*
X97990000Y-73999000D02*
X113073000Y-73999000D01*
X78427000Y-73999000D02*
X93510000Y-73999000D01*
X97990000Y-74039000D02*
X113080000Y-74039000D01*
X78420000Y-74039000D02*
X93510000Y-74039000D01*
X97990000Y-74079000D02*
X113087000Y-74079000D01*
X78413000Y-74079000D02*
X93510000Y-74079000D01*
X97990000Y-74119000D02*
X113094000Y-74119000D01*
X78406000Y-74119000D02*
X93510000Y-74119000D01*
X97990000Y-74159000D02*
X113100000Y-74159000D01*
X78400000Y-74159000D02*
X93510000Y-74159000D01*
X97990000Y-74199000D02*
X113107000Y-74199000D01*
X78393000Y-74199000D02*
X93510000Y-74199000D01*
X97990000Y-74239000D02*
X113113000Y-74239000D01*
X78387000Y-74239000D02*
X93510000Y-74239000D01*
X78381000Y-74279000D02*
X113119000Y-74279000D01*
X78375000Y-74319000D02*
X113125000Y-74319000D01*
X78368000Y-74359000D02*
X113132000Y-74359000D01*
X78362000Y-74399000D02*
X113138000Y-74399000D01*
X78356000Y-74439000D02*
X113144000Y-74439000D01*
X78351000Y-74479000D02*
X113149000Y-74479000D01*
X78345000Y-74519000D02*
X113155000Y-74519000D01*
X78339000Y-74559000D02*
X113161000Y-74559000D01*
X78334000Y-74599000D02*
X113166000Y-74599000D01*
X78328000Y-74639000D02*
X113172000Y-74639000D01*
X78323000Y-74679000D02*
X113177000Y-74679000D01*
X78318000Y-74719000D02*
X113182000Y-74719000D01*
X78312000Y-74759000D02*
X113188000Y-74759000D01*
X78307000Y-74799000D02*
X113193000Y-74799000D01*
X78302000Y-74839000D02*
X113198000Y-74839000D01*
X78298000Y-74879000D02*
X113202000Y-74879000D01*
X78293000Y-74919000D02*
X113207000Y-74919000D01*
X78288000Y-74959000D02*
X113212000Y-74959000D01*
X78283000Y-74999000D02*
X113217000Y-74999000D01*
X78279000Y-75039000D02*
X113221000Y-75039000D01*
X78274000Y-75079000D02*
X113226000Y-75079000D01*
X78270000Y-75119000D02*
X113230000Y-75119000D01*
X78266000Y-75159000D02*
X113234000Y-75159000D01*
X78262000Y-75199000D02*
X113238000Y-75199000D01*
X78258000Y-75239000D02*
X113242000Y-75239000D01*
X78254000Y-75279000D02*
X113246000Y-75279000D01*
X78250000Y-75319000D02*
X113250000Y-75319000D01*
X78246000Y-75359000D02*
X113254000Y-75359000D01*
X78242000Y-75399000D02*
X113258000Y-75399000D01*
X78239000Y-75439000D02*
X113261000Y-75439000D01*
X78235000Y-75479000D02*
X113265000Y-75479000D01*
X78232000Y-75519000D02*
X113268000Y-75519000D01*
X78228000Y-75559000D02*
X113272000Y-75559000D01*
X78225000Y-75599000D02*
X113275000Y-75599000D01*
X78222000Y-75639000D02*
X113278000Y-75639000D01*
X78219000Y-75679000D02*
X113281000Y-75679000D01*
X78216000Y-75719000D02*
X113284000Y-75719000D01*
X78213000Y-75759000D02*
X113287000Y-75759000D01*
X78210000Y-75799000D02*
X113290000Y-75799000D01*
X78208000Y-75839000D02*
X113292000Y-75839000D01*
X78205000Y-75879000D02*
X113295000Y-75879000D01*
X78203000Y-75919000D02*
X113297000Y-75919000D01*
X78200000Y-75959000D02*
X113300000Y-75959000D01*
X78198000Y-75999000D02*
X113302000Y-75999000D01*
X78196000Y-76039000D02*
X113304000Y-76039000D01*
X78194000Y-76079000D02*
X113306000Y-76079000D01*
X78191000Y-76119000D02*
X113309000Y-76119000D01*
X78190000Y-76159000D02*
X113310000Y-76159000D01*
X78188000Y-76199000D02*
X113312000Y-76199000D01*
X78186000Y-76239000D02*
X113314000Y-76239000D01*
X78184000Y-76279000D02*
X113316000Y-76279000D01*
X78183000Y-76320000D02*
X113317000Y-76320000D01*
X78181000Y-76360000D02*
X113319000Y-76360000D01*
X78180000Y-76400000D02*
X113320000Y-76400000D01*
X78178000Y-76440000D02*
X113322000Y-76440000D01*
X78177000Y-76480000D02*
X113323000Y-76480000D01*
X78176000Y-76520000D02*
X113324000Y-76520000D01*
X78175000Y-76560000D02*
X113325000Y-76560000D01*
X78174000Y-76600000D02*
X113326000Y-76600000D01*
X78173000Y-76640000D02*
X113327000Y-76640000D01*
X78172000Y-76680000D02*
X113328000Y-76680000D01*
X78172000Y-76720000D02*
X113328000Y-76720000D01*
X78171000Y-76760000D02*
X113329000Y-76760000D01*
X78171000Y-76800000D02*
X113329000Y-76800000D01*
X78170000Y-76840000D02*
X113330000Y-76840000D01*
X78170000Y-76880000D02*
X113330000Y-76880000D01*
X78170000Y-76920000D02*
X113330000Y-76920000D01*
X78170000Y-76960000D02*
X113330000Y-76960000D01*
X78170000Y-77000000D02*
X113330000Y-77000000D01*
X113370000Y-77000000D02*
G75*
G03*
X113370000Y-77000000I-17620000J0D01*
G01*
%TO.C,C9*%
X84125000Y-130104002D02*
X87625000Y-130104002D01*
X85875000Y-131854002D02*
X85875000Y-128354002D01*
X94950000Y-95400000D02*
X96550000Y-95400000D01*
X94337000Y-95440000D02*
X97163000Y-95440000D01*
X93915000Y-95480000D02*
X97585000Y-95480000D01*
X93573000Y-95520000D02*
X97927000Y-95520000D01*
X93277000Y-95560000D02*
X98223000Y-95560000D01*
X93014000Y-95600000D02*
X98486000Y-95600000D01*
X92774000Y-95640000D02*
X98726000Y-95640000D01*
X92552000Y-95680000D02*
X98948000Y-95680000D01*
X92345000Y-95720000D02*
X99155000Y-95720000D01*
X92150000Y-95760000D02*
X99350000Y-95760000D01*
X91965000Y-95800000D02*
X99535000Y-95800000D01*
X91790000Y-95840000D02*
X99710000Y-95840000D01*
X91622000Y-95880000D02*
X99878000Y-95880000D01*
X91461000Y-95920000D02*
X100039000Y-95920000D01*
X91306000Y-95960000D02*
X100194000Y-95960000D01*
X91157000Y-96000000D02*
X100343000Y-96000000D01*
X91012000Y-96040000D02*
X100488000Y-96040000D01*
X90872000Y-96080000D02*
X100628000Y-96080000D01*
X90737000Y-96120000D02*
X100763000Y-96120000D01*
X90605000Y-96160000D02*
X100895000Y-96160000D01*
X90477000Y-96200000D02*
X101023000Y-96200000D01*
X90352000Y-96240000D02*
X101148000Y-96240000D01*
X90230000Y-96280000D02*
X101270000Y-96280000D01*
X90111000Y-96320000D02*
X101389000Y-96320000D01*
X89995000Y-96360000D02*
X101505000Y-96360000D01*
X89882000Y-96400000D02*
X101618000Y-96400000D01*
X89770000Y-96440000D02*
X101730000Y-96440000D01*
X89661000Y-96480000D02*
X101839000Y-96480000D01*
X89555000Y-96520000D02*
X101945000Y-96520000D01*
X89450000Y-96560000D02*
X102050000Y-96560000D01*
X89347000Y-96600000D02*
X102153000Y-96600000D01*
X89246000Y-96640000D02*
X102254000Y-96640000D01*
X89147000Y-96680000D02*
X102353000Y-96680000D01*
X89050000Y-96720000D02*
X102450000Y-96720000D01*
X88954000Y-96760000D02*
X102546000Y-96760000D01*
X88860000Y-96800000D02*
X102640000Y-96800000D01*
X88767000Y-96840000D02*
X102733000Y-96840000D01*
X88675000Y-96880000D02*
X102825000Y-96880000D01*
X88585000Y-96920000D02*
X102915000Y-96920000D01*
X88497000Y-96960000D02*
X103003000Y-96960000D01*
X88409000Y-97000000D02*
X103091000Y-97000000D01*
X88323000Y-97040000D02*
X103177000Y-97040000D01*
X88238000Y-97080000D02*
X103262000Y-97080000D01*
X88155000Y-97120000D02*
X103345000Y-97120000D01*
X88072000Y-97160000D02*
X103428000Y-97160000D01*
X87991000Y-97200000D02*
X103509000Y-97200000D01*
X87910000Y-97240000D02*
X103590000Y-97240000D01*
X87830000Y-97280000D02*
X103670000Y-97280000D01*
X87752000Y-97320000D02*
X103748000Y-97320000D01*
X87674000Y-97360000D02*
X103826000Y-97360000D01*
X87598000Y-97400000D02*
X103902000Y-97400000D01*
X87522000Y-97440000D02*
X103978000Y-97440000D01*
X87447000Y-97480000D02*
X104053000Y-97480000D01*
X87373000Y-97520000D02*
X104127000Y-97520000D01*
X87300000Y-97560000D02*
X104200000Y-97560000D01*
X87228000Y-97600000D02*
X104272000Y-97600000D01*
X87156000Y-97640000D02*
X104344000Y-97640000D01*
X87085000Y-97680000D02*
X104415000Y-97680000D01*
X87015000Y-97720000D02*
X104485000Y-97720000D01*
X86946000Y-97760000D02*
X104554000Y-97760000D01*
X86877000Y-97800000D02*
X104623000Y-97800000D01*
X86810000Y-97840000D02*
X104690000Y-97840000D01*
X86742000Y-97880000D02*
X104758000Y-97880000D01*
X86676000Y-97920000D02*
X104824000Y-97920000D01*
X86610000Y-97960000D02*
X104890000Y-97960000D01*
X86545000Y-98000000D02*
X104955000Y-98000000D01*
X86480000Y-98040000D02*
X105020000Y-98040000D01*
X86416000Y-98080000D02*
X105084000Y-98080000D01*
X86353000Y-98120000D02*
X105147000Y-98120000D01*
X86290000Y-98160000D02*
X105210000Y-98160000D01*
X86228000Y-98200000D02*
X105272000Y-98200000D01*
X86166000Y-98240000D02*
X105334000Y-98240000D01*
X86105000Y-98280000D02*
X105395000Y-98280000D01*
X86045000Y-98320000D02*
X105455000Y-98320000D01*
X85985000Y-98360000D02*
X105515000Y-98360000D01*
X85925000Y-98400000D02*
X105575000Y-98400000D01*
X85866000Y-98440000D02*
X105634000Y-98440000D01*
X85808000Y-98480000D02*
X105692000Y-98480000D01*
X85750000Y-98520000D02*
X105750000Y-98520000D01*
X85692000Y-98560000D02*
X105808000Y-98560000D01*
X85635000Y-98600000D02*
X105865000Y-98600000D01*
X85579000Y-98640000D02*
X105921000Y-98640000D01*
X85523000Y-98680000D02*
X105977000Y-98680000D01*
X85467000Y-98720000D02*
X106033000Y-98720000D01*
X85412000Y-98760000D02*
X106088000Y-98760000D01*
X85358000Y-98800000D02*
X106142000Y-98800000D01*
X85303000Y-98840000D02*
X106197000Y-98840000D01*
X85250000Y-98880000D02*
X106250000Y-98880000D01*
X85196000Y-98920000D02*
X106304000Y-98920000D01*
X85143000Y-98960000D02*
X106357000Y-98960000D01*
X85091000Y-99000000D02*
X106409000Y-99000000D01*
X85039000Y-99040000D02*
X106461000Y-99040000D01*
X84987000Y-99080000D02*
X106513000Y-99080000D01*
X84935000Y-99120000D02*
X106565000Y-99120000D01*
X84885000Y-99160000D02*
X106615000Y-99160000D01*
X84834000Y-99200000D02*
X106666000Y-99200000D01*
X84784000Y-99240000D02*
X106716000Y-99240000D01*
X84734000Y-99280000D02*
X106766000Y-99280000D01*
X84684000Y-99320000D02*
X106816000Y-99320000D01*
X84635000Y-99360000D02*
X106865000Y-99360000D01*
X84587000Y-99400000D02*
X106913000Y-99400000D01*
X84538000Y-99440000D02*
X106962000Y-99440000D01*
X84490000Y-99480000D02*
X107010000Y-99480000D01*
X84443000Y-99520000D02*
X107057000Y-99520000D01*
X84395000Y-99560000D02*
X107105000Y-99560000D01*
X84348000Y-99600000D02*
X107152000Y-99600000D01*
X84301000Y-99640000D02*
X107199000Y-99640000D01*
X84255000Y-99680000D02*
X107245000Y-99680000D01*
X84209000Y-99720000D02*
X107291000Y-99720000D01*
X84163000Y-99760000D02*
X107337000Y-99760000D01*
X84118000Y-99800000D02*
X107382000Y-99800000D01*
X84073000Y-99840000D02*
X107427000Y-99840000D01*
X84028000Y-99880000D02*
X107472000Y-99880000D01*
X83984000Y-99920000D02*
X107516000Y-99920000D01*
X83939000Y-99960000D02*
X107561000Y-99960000D01*
X83896000Y-100000000D02*
X107604000Y-100000000D01*
X83852000Y-100040000D02*
X107648000Y-100040000D01*
X83809000Y-100080000D02*
X107691000Y-100080000D01*
X83766000Y-100120000D02*
X107734000Y-100120000D01*
X83723000Y-100160000D02*
X107777000Y-100160000D01*
X83681000Y-100200000D02*
X107819000Y-100200000D01*
X83639000Y-100240000D02*
X107861000Y-100240000D01*
X83597000Y-100280000D02*
X107903000Y-100280000D01*
X83555000Y-100320000D02*
X107945000Y-100320000D01*
X83514000Y-100360000D02*
X107986000Y-100360000D01*
X83473000Y-100400000D02*
X108027000Y-100400000D01*
X83432000Y-100440000D02*
X108068000Y-100440000D01*
X83391000Y-100480000D02*
X108109000Y-100480000D01*
X83351000Y-100520000D02*
X108149000Y-100520000D01*
X83311000Y-100560000D02*
X108189000Y-100560000D01*
X83271000Y-100600000D02*
X108229000Y-100600000D01*
X83232000Y-100640000D02*
X108268000Y-100640000D01*
X83193000Y-100680000D02*
X108307000Y-100680000D01*
X83154000Y-100720000D02*
X108346000Y-100720000D01*
X83115000Y-100760000D02*
X108385000Y-100760000D01*
X83076000Y-100800000D02*
X108424000Y-100800000D01*
X83038000Y-100840000D02*
X108462000Y-100840000D01*
X83000000Y-100880000D02*
X108500000Y-100880000D01*
X82962000Y-100920000D02*
X108538000Y-100920000D01*
X82925000Y-100960000D02*
X108575000Y-100960000D01*
X82887000Y-101000000D02*
X108613000Y-101000000D01*
X82850000Y-101040000D02*
X108650000Y-101040000D01*
X82813000Y-101080000D02*
X108687000Y-101080000D01*
X82777000Y-101120000D02*
X108723000Y-101120000D01*
X82740000Y-101160000D02*
X108760000Y-101160000D01*
X82704000Y-101200000D02*
X108796000Y-101200000D01*
X82668000Y-101240000D02*
X108832000Y-101240000D01*
X82633000Y-101280000D02*
X108867000Y-101280000D01*
X82597000Y-101320000D02*
X108903000Y-101320000D01*
X82562000Y-101360000D02*
X108938000Y-101360000D01*
X82527000Y-101400000D02*
X108973000Y-101400000D01*
X82492000Y-101440000D02*
X109008000Y-101440000D01*
X82457000Y-101480000D02*
X109043000Y-101480000D01*
X82423000Y-101520000D02*
X109077000Y-101520000D01*
X82388000Y-101560000D02*
X109112000Y-101560000D01*
X82354000Y-101600000D02*
X109146000Y-101600000D01*
X82320000Y-101640000D02*
X109180000Y-101640000D01*
X82287000Y-101680000D02*
X109213000Y-101680000D01*
X82253000Y-101720000D02*
X109247000Y-101720000D01*
X82220000Y-101760000D02*
X109280000Y-101760000D01*
X82187000Y-101800000D02*
X109313000Y-101800000D01*
X82154000Y-101840000D02*
X109346000Y-101840000D01*
X82122000Y-101880000D02*
X109378000Y-101880000D01*
X82089000Y-101920000D02*
X109411000Y-101920000D01*
X82057000Y-101960000D02*
X109443000Y-101960000D01*
X82025000Y-102000000D02*
X109475000Y-102000000D01*
X81993000Y-102040000D02*
X109507000Y-102040000D01*
X81961000Y-102080000D02*
X109539000Y-102080000D01*
X81930000Y-102120000D02*
X109570000Y-102120000D01*
X81899000Y-102160000D02*
X109601000Y-102160000D01*
X81867000Y-102200000D02*
X109633000Y-102200000D01*
X81836000Y-102240000D02*
X109664000Y-102240000D01*
X81806000Y-102280000D02*
X109694000Y-102280000D01*
X81775000Y-102320000D02*
X109725000Y-102320000D01*
X81745000Y-102360000D02*
X109755000Y-102360000D01*
X81715000Y-102400000D02*
X109785000Y-102400000D01*
X81685000Y-102440000D02*
X109815000Y-102440000D01*
X81655000Y-102480000D02*
X109845000Y-102480000D01*
X81625000Y-102520000D02*
X109875000Y-102520000D01*
X81595000Y-102560000D02*
X109905000Y-102560000D01*
X81566000Y-102600000D02*
X109934000Y-102600000D01*
X81537000Y-102640000D02*
X109963000Y-102640000D01*
X81508000Y-102680000D02*
X109992000Y-102680000D01*
X81479000Y-102720000D02*
X110021000Y-102720000D01*
X81451000Y-102760000D02*
X110049000Y-102760000D01*
X81422000Y-102800000D02*
X110078000Y-102800000D01*
X81394000Y-102840000D02*
X110106000Y-102840000D01*
X81366000Y-102880000D02*
X110134000Y-102880000D01*
X81338000Y-102920000D02*
X110162000Y-102920000D01*
X81310000Y-102960000D02*
X110190000Y-102960000D01*
X81282000Y-103000000D02*
X110218000Y-103000000D01*
X81255000Y-103040000D02*
X110245000Y-103040000D01*
X81227000Y-103080000D02*
X110273000Y-103080000D01*
X81200000Y-103120000D02*
X110300000Y-103120000D01*
X81173000Y-103160000D02*
X110327000Y-103160000D01*
X81146000Y-103200000D02*
X110354000Y-103200000D01*
X81120000Y-103240000D02*
X110380000Y-103240000D01*
X81093000Y-103280000D02*
X110407000Y-103280000D01*
X81067000Y-103320000D02*
X110433000Y-103320000D01*
X81040000Y-103360000D02*
X110460000Y-103360000D01*
X81014000Y-103400000D02*
X110486000Y-103400000D01*
X80988000Y-103440000D02*
X110512000Y-103440000D01*
X80963000Y-103480000D02*
X110537000Y-103480000D01*
X80937000Y-103520000D02*
X110563000Y-103520000D01*
X80912000Y-103560000D02*
X110588000Y-103560000D01*
X80886000Y-103600000D02*
X110614000Y-103600000D01*
X80861000Y-103640000D02*
X110639000Y-103640000D01*
X80836000Y-103680000D02*
X110664000Y-103680000D01*
X80811000Y-103720000D02*
X110689000Y-103720000D01*
X80787000Y-103760000D02*
X110713000Y-103760000D01*
X80762000Y-103800000D02*
X110738000Y-103800000D01*
X80738000Y-103840000D02*
X110762000Y-103840000D01*
X80713000Y-103880000D02*
X110787000Y-103880000D01*
X80689000Y-103920000D02*
X110811000Y-103920000D01*
X80665000Y-103960000D02*
X110835000Y-103960000D01*
X80641000Y-104000000D02*
X110859000Y-104000000D01*
X80618000Y-104040000D02*
X110882000Y-104040000D01*
X80594000Y-104080000D02*
X110906000Y-104080000D01*
X80571000Y-104120000D02*
X110929000Y-104120000D01*
X80547000Y-104160000D02*
X110953000Y-104160000D01*
X80524000Y-104200000D02*
X110976000Y-104200000D01*
X80501000Y-104240000D02*
X110999000Y-104240000D01*
X80479000Y-104280000D02*
X111021000Y-104280000D01*
X80456000Y-104320000D02*
X111044000Y-104320000D01*
X80433000Y-104360000D02*
X111067000Y-104360000D01*
X80411000Y-104400000D02*
X111089000Y-104400000D01*
X80389000Y-104440000D02*
X111111000Y-104440000D01*
X80366000Y-104480000D02*
X111134000Y-104480000D01*
X80344000Y-104520000D02*
X111156000Y-104520000D01*
X80322000Y-104560000D02*
X111178000Y-104560000D01*
X80301000Y-104600000D02*
X111199000Y-104600000D01*
X80279000Y-104640000D02*
X111221000Y-104640000D01*
X80258000Y-104680000D02*
X111242000Y-104680000D01*
X80236000Y-104720000D02*
X111264000Y-104720000D01*
X80215000Y-104760000D02*
X111285000Y-104760000D01*
X80194000Y-104800000D02*
X111306000Y-104800000D01*
X80173000Y-104839000D02*
X111327000Y-104839000D01*
X80152000Y-104879000D02*
X111348000Y-104879000D01*
X80131000Y-104919000D02*
X111369000Y-104919000D01*
X80111000Y-104959000D02*
X111389000Y-104959000D01*
X80090000Y-104999000D02*
X111410000Y-104999000D01*
X80070000Y-105039000D02*
X111430000Y-105039000D01*
X80050000Y-105079000D02*
X111450000Y-105079000D01*
X80030000Y-105119000D02*
X111470000Y-105119000D01*
X80010000Y-105159000D02*
X111490000Y-105159000D01*
X79990000Y-105199000D02*
X111510000Y-105199000D01*
X79970000Y-105239000D02*
X111530000Y-105239000D01*
X79951000Y-105279000D02*
X111549000Y-105279000D01*
X79931000Y-105319000D02*
X111569000Y-105319000D01*
X79912000Y-105359000D02*
X111588000Y-105359000D01*
X79893000Y-105399000D02*
X111607000Y-105399000D01*
X79874000Y-105439000D02*
X111626000Y-105439000D01*
X79855000Y-105479000D02*
X111645000Y-105479000D01*
X79836000Y-105519000D02*
X111664000Y-105519000D01*
X79817000Y-105559000D02*
X111683000Y-105559000D01*
X79799000Y-105599000D02*
X111701000Y-105599000D01*
X79780000Y-105639000D02*
X111720000Y-105639000D01*
X79762000Y-105679000D02*
X111738000Y-105679000D01*
X79744000Y-105719000D02*
X111756000Y-105719000D01*
X79726000Y-105759000D02*
X111774000Y-105759000D01*
X97990000Y-105799000D02*
X111792000Y-105799000D01*
X79708000Y-105799000D02*
X93510000Y-105799000D01*
X97990000Y-105839000D02*
X111810000Y-105839000D01*
X79690000Y-105839000D02*
X93510000Y-105839000D01*
X97990000Y-105879000D02*
X111828000Y-105879000D01*
X79672000Y-105879000D02*
X93510000Y-105879000D01*
X97990000Y-105919000D02*
X111845000Y-105919000D01*
X79655000Y-105919000D02*
X93510000Y-105919000D01*
X97990000Y-105959000D02*
X111863000Y-105959000D01*
X79637000Y-105959000D02*
X93510000Y-105959000D01*
X97990000Y-105999000D02*
X111880000Y-105999000D01*
X79620000Y-105999000D02*
X93510000Y-105999000D01*
X97990000Y-106039000D02*
X111898000Y-106039000D01*
X79602000Y-106039000D02*
X93510000Y-106039000D01*
X97990000Y-106079000D02*
X111915000Y-106079000D01*
X79585000Y-106079000D02*
X93510000Y-106079000D01*
X97990000Y-106119000D02*
X111932000Y-106119000D01*
X79568000Y-106119000D02*
X93510000Y-106119000D01*
X97990000Y-106159000D02*
X111949000Y-106159000D01*
X79551000Y-106159000D02*
X93510000Y-106159000D01*
X97990000Y-106199000D02*
X111965000Y-106199000D01*
X79535000Y-106199000D02*
X93510000Y-106199000D01*
X97990000Y-106239000D02*
X111982000Y-106239000D01*
X79518000Y-106239000D02*
X93510000Y-106239000D01*
X97990000Y-106279000D02*
X111999000Y-106279000D01*
X79501000Y-106279000D02*
X93510000Y-106279000D01*
X97990000Y-106319000D02*
X112015000Y-106319000D01*
X79485000Y-106319000D02*
X93510000Y-106319000D01*
X97990000Y-106359000D02*
X112031000Y-106359000D01*
X79469000Y-106359000D02*
X93510000Y-106359000D01*
X97990000Y-106399000D02*
X112048000Y-106399000D01*
X79452000Y-106399000D02*
X93510000Y-106399000D01*
X97990000Y-106439000D02*
X112064000Y-106439000D01*
X79436000Y-106439000D02*
X93510000Y-106439000D01*
X97990000Y-106479000D02*
X112080000Y-106479000D01*
X79420000Y-106479000D02*
X93510000Y-106479000D01*
X97990000Y-106519000D02*
X112096000Y-106519000D01*
X79404000Y-106519000D02*
X93510000Y-106519000D01*
X97990000Y-106559000D02*
X112111000Y-106559000D01*
X79389000Y-106559000D02*
X93510000Y-106559000D01*
X97990000Y-106599000D02*
X112127000Y-106599000D01*
X79373000Y-106599000D02*
X93510000Y-106599000D01*
X97990000Y-106639000D02*
X112143000Y-106639000D01*
X79357000Y-106639000D02*
X93510000Y-106639000D01*
X97990000Y-106679000D02*
X112158000Y-106679000D01*
X79342000Y-106679000D02*
X93510000Y-106679000D01*
X97990000Y-106719000D02*
X112173000Y-106719000D01*
X79327000Y-106719000D02*
X93510000Y-106719000D01*
X97990000Y-106759000D02*
X112189000Y-106759000D01*
X79311000Y-106759000D02*
X93510000Y-106759000D01*
X97990000Y-106799000D02*
X112204000Y-106799000D01*
X79296000Y-106799000D02*
X93510000Y-106799000D01*
X97990000Y-106839000D02*
X112219000Y-106839000D01*
X79281000Y-106839000D02*
X93510000Y-106839000D01*
X97990000Y-106879000D02*
X112234000Y-106879000D01*
X79266000Y-106879000D02*
X93510000Y-106879000D01*
X97990000Y-106919000D02*
X112248000Y-106919000D01*
X79252000Y-106919000D02*
X93510000Y-106919000D01*
X97990000Y-106959000D02*
X112263000Y-106959000D01*
X79237000Y-106959000D02*
X93510000Y-106959000D01*
X97990000Y-106999000D02*
X112277000Y-106999000D01*
X79223000Y-106999000D02*
X93510000Y-106999000D01*
X97990000Y-107039000D02*
X112292000Y-107039000D01*
X79208000Y-107039000D02*
X93510000Y-107039000D01*
X97990000Y-107079000D02*
X112306000Y-107079000D01*
X79194000Y-107079000D02*
X93510000Y-107079000D01*
X97990000Y-107119000D02*
X112320000Y-107119000D01*
X79180000Y-107119000D02*
X93510000Y-107119000D01*
X97990000Y-107159000D02*
X112335000Y-107159000D01*
X79165000Y-107159000D02*
X93510000Y-107159000D01*
X97990000Y-107199000D02*
X112349000Y-107199000D01*
X79151000Y-107199000D02*
X93510000Y-107199000D01*
X97990000Y-107239000D02*
X112362000Y-107239000D01*
X79138000Y-107239000D02*
X93510000Y-107239000D01*
X97990000Y-107279000D02*
X112376000Y-107279000D01*
X79124000Y-107279000D02*
X93510000Y-107279000D01*
X97990000Y-107319000D02*
X112390000Y-107319000D01*
X79110000Y-107319000D02*
X93510000Y-107319000D01*
X97990000Y-107359000D02*
X112403000Y-107359000D01*
X79097000Y-107359000D02*
X93510000Y-107359000D01*
X97990000Y-107399000D02*
X112417000Y-107399000D01*
X79083000Y-107399000D02*
X93510000Y-107399000D01*
X97990000Y-107439000D02*
X112430000Y-107439000D01*
X79070000Y-107439000D02*
X93510000Y-107439000D01*
X97990000Y-107479000D02*
X112444000Y-107479000D01*
X79056000Y-107479000D02*
X93510000Y-107479000D01*
X97990000Y-107519000D02*
X112457000Y-107519000D01*
X79043000Y-107519000D02*
X93510000Y-107519000D01*
X97990000Y-107559000D02*
X112470000Y-107559000D01*
X79030000Y-107559000D02*
X93510000Y-107559000D01*
X97990000Y-107599000D02*
X112483000Y-107599000D01*
X79017000Y-107599000D02*
X93510000Y-107599000D01*
X97990000Y-107639000D02*
X112495000Y-107639000D01*
X79005000Y-107639000D02*
X93510000Y-107639000D01*
X97990000Y-107679000D02*
X112508000Y-107679000D01*
X78992000Y-107679000D02*
X93510000Y-107679000D01*
X97990000Y-107719000D02*
X112521000Y-107719000D01*
X78979000Y-107719000D02*
X93510000Y-107719000D01*
X97990000Y-107759000D02*
X112533000Y-107759000D01*
X78967000Y-107759000D02*
X93510000Y-107759000D01*
X97990000Y-107799000D02*
X112546000Y-107799000D01*
X78954000Y-107799000D02*
X93510000Y-107799000D01*
X97990000Y-107839000D02*
X112558000Y-107839000D01*
X78942000Y-107839000D02*
X93510000Y-107839000D01*
X97990000Y-107879000D02*
X112570000Y-107879000D01*
X78930000Y-107879000D02*
X93510000Y-107879000D01*
X97990000Y-107919000D02*
X112582000Y-107919000D01*
X78918000Y-107919000D02*
X93510000Y-107919000D01*
X97990000Y-107959000D02*
X112594000Y-107959000D01*
X78906000Y-107959000D02*
X93510000Y-107959000D01*
X97990000Y-107999000D02*
X112606000Y-107999000D01*
X78894000Y-107999000D02*
X93510000Y-107999000D01*
X97990000Y-108039000D02*
X112618000Y-108039000D01*
X78882000Y-108039000D02*
X93510000Y-108039000D01*
X97990000Y-108079000D02*
X112630000Y-108079000D01*
X78870000Y-108079000D02*
X93510000Y-108079000D01*
X97990000Y-108119000D02*
X112641000Y-108119000D01*
X78859000Y-108119000D02*
X93510000Y-108119000D01*
X97990000Y-108159000D02*
X112653000Y-108159000D01*
X78847000Y-108159000D02*
X93510000Y-108159000D01*
X97990000Y-108199000D02*
X112664000Y-108199000D01*
X78836000Y-108199000D02*
X93510000Y-108199000D01*
X97990000Y-108239000D02*
X112675000Y-108239000D01*
X78825000Y-108239000D02*
X93510000Y-108239000D01*
X97990000Y-108279000D02*
X112687000Y-108279000D01*
X78813000Y-108279000D02*
X93510000Y-108279000D01*
X97990000Y-108319000D02*
X112698000Y-108319000D01*
X78802000Y-108319000D02*
X93510000Y-108319000D01*
X97990000Y-108359000D02*
X112709000Y-108359000D01*
X78791000Y-108359000D02*
X93510000Y-108359000D01*
X97990000Y-108399000D02*
X112719000Y-108399000D01*
X78781000Y-108399000D02*
X93510000Y-108399000D01*
X97990000Y-108439000D02*
X112730000Y-108439000D01*
X78770000Y-108439000D02*
X93510000Y-108439000D01*
X97990000Y-108479000D02*
X112741000Y-108479000D01*
X78759000Y-108479000D02*
X93510000Y-108479000D01*
X97990000Y-108519000D02*
X112751000Y-108519000D01*
X78749000Y-108519000D02*
X93510000Y-108519000D01*
X97990000Y-108559000D02*
X112762000Y-108559000D01*
X78738000Y-108559000D02*
X93510000Y-108559000D01*
X97990000Y-108599000D02*
X112772000Y-108599000D01*
X78728000Y-108599000D02*
X93510000Y-108599000D01*
X97990000Y-108639000D02*
X112783000Y-108639000D01*
X78717000Y-108639000D02*
X93510000Y-108639000D01*
X97990000Y-108679000D02*
X112793000Y-108679000D01*
X78707000Y-108679000D02*
X93510000Y-108679000D01*
X97990000Y-108719000D02*
X112803000Y-108719000D01*
X78697000Y-108719000D02*
X93510000Y-108719000D01*
X97990000Y-108759000D02*
X112813000Y-108759000D01*
X78687000Y-108759000D02*
X93510000Y-108759000D01*
X97990000Y-108799000D02*
X112823000Y-108799000D01*
X78677000Y-108799000D02*
X93510000Y-108799000D01*
X97990000Y-108839000D02*
X112832000Y-108839000D01*
X78668000Y-108839000D02*
X93510000Y-108839000D01*
X97990000Y-108879000D02*
X112842000Y-108879000D01*
X78658000Y-108879000D02*
X93510000Y-108879000D01*
X97990000Y-108919000D02*
X112852000Y-108919000D01*
X78648000Y-108919000D02*
X93510000Y-108919000D01*
X97990000Y-108959000D02*
X112861000Y-108959000D01*
X78639000Y-108959000D02*
X93510000Y-108959000D01*
X97990000Y-108999000D02*
X112870000Y-108999000D01*
X78630000Y-108999000D02*
X93510000Y-108999000D01*
X97990000Y-109039000D02*
X112880000Y-109039000D01*
X78620000Y-109039000D02*
X93510000Y-109039000D01*
X97990000Y-109079000D02*
X112889000Y-109079000D01*
X78611000Y-109079000D02*
X93510000Y-109079000D01*
X97990000Y-109119000D02*
X112898000Y-109119000D01*
X78602000Y-109119000D02*
X93510000Y-109119000D01*
X97990000Y-109159000D02*
X112907000Y-109159000D01*
X78593000Y-109159000D02*
X93510000Y-109159000D01*
X97990000Y-109199000D02*
X112916000Y-109199000D01*
X78584000Y-109199000D02*
X93510000Y-109199000D01*
X97990000Y-109239000D02*
X112925000Y-109239000D01*
X78575000Y-109239000D02*
X93510000Y-109239000D01*
X97990000Y-109279000D02*
X112933000Y-109279000D01*
X78567000Y-109279000D02*
X93510000Y-109279000D01*
X97990000Y-109319000D02*
X112942000Y-109319000D01*
X78558000Y-109319000D02*
X93510000Y-109319000D01*
X97990000Y-109359000D02*
X112950000Y-109359000D01*
X78550000Y-109359000D02*
X93510000Y-109359000D01*
X97990000Y-109399000D02*
X112959000Y-109399000D01*
X78541000Y-109399000D02*
X93510000Y-109399000D01*
X97990000Y-109439000D02*
X112967000Y-109439000D01*
X78533000Y-109439000D02*
X93510000Y-109439000D01*
X97990000Y-109479000D02*
X112975000Y-109479000D01*
X78525000Y-109479000D02*
X93510000Y-109479000D01*
X97990000Y-109519000D02*
X112983000Y-109519000D01*
X78517000Y-109519000D02*
X93510000Y-109519000D01*
X97990000Y-109559000D02*
X112991000Y-109559000D01*
X78509000Y-109559000D02*
X93510000Y-109559000D01*
X97990000Y-109599000D02*
X112999000Y-109599000D01*
X78501000Y-109599000D02*
X93510000Y-109599000D01*
X97990000Y-109639000D02*
X113007000Y-109639000D01*
X78493000Y-109639000D02*
X93510000Y-109639000D01*
X97990000Y-109679000D02*
X113015000Y-109679000D01*
X78485000Y-109679000D02*
X93510000Y-109679000D01*
X97990000Y-109719000D02*
X113023000Y-109719000D01*
X78477000Y-109719000D02*
X93510000Y-109719000D01*
X97990000Y-109759000D02*
X113030000Y-109759000D01*
X78470000Y-109759000D02*
X93510000Y-109759000D01*
X97990000Y-109799000D02*
X113037000Y-109799000D01*
X78463000Y-109799000D02*
X93510000Y-109799000D01*
X97990000Y-109839000D02*
X113045000Y-109839000D01*
X78455000Y-109839000D02*
X93510000Y-109839000D01*
X97990000Y-109879000D02*
X113052000Y-109879000D01*
X78448000Y-109879000D02*
X93510000Y-109879000D01*
X97990000Y-109919000D02*
X113059000Y-109919000D01*
X78441000Y-109919000D02*
X93510000Y-109919000D01*
X97990000Y-109959000D02*
X113066000Y-109959000D01*
X78434000Y-109959000D02*
X93510000Y-109959000D01*
X97990000Y-109999000D02*
X113073000Y-109999000D01*
X78427000Y-109999000D02*
X93510000Y-109999000D01*
X97990000Y-110039000D02*
X113080000Y-110039000D01*
X78420000Y-110039000D02*
X93510000Y-110039000D01*
X97990000Y-110079000D02*
X113087000Y-110079000D01*
X78413000Y-110079000D02*
X93510000Y-110079000D01*
X97990000Y-110119000D02*
X113094000Y-110119000D01*
X78406000Y-110119000D02*
X93510000Y-110119000D01*
X97990000Y-110159000D02*
X113100000Y-110159000D01*
X78400000Y-110159000D02*
X93510000Y-110159000D01*
X97990000Y-110199000D02*
X113107000Y-110199000D01*
X78393000Y-110199000D02*
X93510000Y-110199000D01*
X97990000Y-110239000D02*
X113113000Y-110239000D01*
X78387000Y-110239000D02*
X93510000Y-110239000D01*
X78381000Y-110279000D02*
X113119000Y-110279000D01*
X78375000Y-110319000D02*
X113125000Y-110319000D01*
X78368000Y-110359000D02*
X113132000Y-110359000D01*
X78362000Y-110399000D02*
X113138000Y-110399000D01*
X78356000Y-110439000D02*
X113144000Y-110439000D01*
X78351000Y-110479000D02*
X113149000Y-110479000D01*
X78345000Y-110519000D02*
X113155000Y-110519000D01*
X78339000Y-110559000D02*
X113161000Y-110559000D01*
X78334000Y-110599000D02*
X113166000Y-110599000D01*
X78328000Y-110639000D02*
X113172000Y-110639000D01*
X78323000Y-110679000D02*
X113177000Y-110679000D01*
X78318000Y-110719000D02*
X113182000Y-110719000D01*
X78312000Y-110759000D02*
X113188000Y-110759000D01*
X78307000Y-110799000D02*
X113193000Y-110799000D01*
X78302000Y-110839000D02*
X113198000Y-110839000D01*
X78298000Y-110879000D02*
X113202000Y-110879000D01*
X78293000Y-110919000D02*
X113207000Y-110919000D01*
X78288000Y-110959000D02*
X113212000Y-110959000D01*
X78283000Y-110999000D02*
X113217000Y-110999000D01*
X78279000Y-111039000D02*
X113221000Y-111039000D01*
X78274000Y-111079000D02*
X113226000Y-111079000D01*
X78270000Y-111119000D02*
X113230000Y-111119000D01*
X78266000Y-111159000D02*
X113234000Y-111159000D01*
X78262000Y-111199000D02*
X113238000Y-111199000D01*
X78258000Y-111239000D02*
X113242000Y-111239000D01*
X78254000Y-111279000D02*
X113246000Y-111279000D01*
X78250000Y-111319000D02*
X113250000Y-111319000D01*
X78246000Y-111359000D02*
X113254000Y-111359000D01*
X78242000Y-111399000D02*
X113258000Y-111399000D01*
X78239000Y-111439000D02*
X113261000Y-111439000D01*
X78235000Y-111479000D02*
X113265000Y-111479000D01*
X78232000Y-111519000D02*
X113268000Y-111519000D01*
X78228000Y-111559000D02*
X113272000Y-111559000D01*
X78225000Y-111599000D02*
X113275000Y-111599000D01*
X78222000Y-111639000D02*
X113278000Y-111639000D01*
X78219000Y-111679000D02*
X113281000Y-111679000D01*
X78216000Y-111719000D02*
X113284000Y-111719000D01*
X78213000Y-111759000D02*
X113287000Y-111759000D01*
X78210000Y-111799000D02*
X113290000Y-111799000D01*
X78208000Y-111839000D02*
X113292000Y-111839000D01*
X78205000Y-111879000D02*
X113295000Y-111879000D01*
X78203000Y-111919000D02*
X113297000Y-111919000D01*
X78200000Y-111959000D02*
X113300000Y-111959000D01*
X78198000Y-111999000D02*
X113302000Y-111999000D01*
X78196000Y-112039000D02*
X113304000Y-112039000D01*
X78194000Y-112079000D02*
X113306000Y-112079000D01*
X78191000Y-112119000D02*
X113309000Y-112119000D01*
X78190000Y-112159000D02*
X113310000Y-112159000D01*
X78188000Y-112199000D02*
X113312000Y-112199000D01*
X78186000Y-112239000D02*
X113314000Y-112239000D01*
X78184000Y-112279000D02*
X113316000Y-112279000D01*
X78183000Y-112320000D02*
X113317000Y-112320000D01*
X78181000Y-112360000D02*
X113319000Y-112360000D01*
X78180000Y-112400000D02*
X113320000Y-112400000D01*
X78178000Y-112440000D02*
X113322000Y-112440000D01*
X78177000Y-112480000D02*
X113323000Y-112480000D01*
X78176000Y-112520000D02*
X113324000Y-112520000D01*
X78175000Y-112560000D02*
X113325000Y-112560000D01*
X78174000Y-112600000D02*
X113326000Y-112600000D01*
X78173000Y-112640000D02*
X113327000Y-112640000D01*
X78172000Y-112680000D02*
X113328000Y-112680000D01*
X78172000Y-112720000D02*
X113328000Y-112720000D01*
X78171000Y-112760000D02*
X113329000Y-112760000D01*
X78171000Y-112800000D02*
X113329000Y-112800000D01*
X78170000Y-112840000D02*
X113330000Y-112840000D01*
X78170000Y-112880000D02*
X113330000Y-112880000D01*
X78170000Y-112920000D02*
X113330000Y-112920000D01*
X78170000Y-112960000D02*
X113330000Y-112960000D01*
X78170000Y-113000000D02*
X113330000Y-113000000D01*
X113370000Y-113000000D02*
G75*
G03*
X113370000Y-113000000I-17620000J0D01*
G01*
%TO.C,C8*%
X48375000Y-94104002D02*
X51875000Y-94104002D01*
X50125000Y-95854002D02*
X50125000Y-92354002D01*
X59200000Y-59400000D02*
X60800000Y-59400000D01*
X58587000Y-59440000D02*
X61413000Y-59440000D01*
X58165000Y-59480000D02*
X61835000Y-59480000D01*
X57823000Y-59520000D02*
X62177000Y-59520000D01*
X57527000Y-59560000D02*
X62473000Y-59560000D01*
X57264000Y-59600000D02*
X62736000Y-59600000D01*
X57024000Y-59640000D02*
X62976000Y-59640000D01*
X56802000Y-59680000D02*
X63198000Y-59680000D01*
X56595000Y-59720000D02*
X63405000Y-59720000D01*
X56400000Y-59760000D02*
X63600000Y-59760000D01*
X56215000Y-59800000D02*
X63785000Y-59800000D01*
X56040000Y-59840000D02*
X63960000Y-59840000D01*
X55872000Y-59880000D02*
X64128000Y-59880000D01*
X55711000Y-59920000D02*
X64289000Y-59920000D01*
X55556000Y-59960000D02*
X64444000Y-59960000D01*
X55407000Y-60000000D02*
X64593000Y-60000000D01*
X55262000Y-60040000D02*
X64738000Y-60040000D01*
X55122000Y-60080000D02*
X64878000Y-60080000D01*
X54987000Y-60120000D02*
X65013000Y-60120000D01*
X54855000Y-60160000D02*
X65145000Y-60160000D01*
X54727000Y-60200000D02*
X65273000Y-60200000D01*
X54602000Y-60240000D02*
X65398000Y-60240000D01*
X54480000Y-60280000D02*
X65520000Y-60280000D01*
X54361000Y-60320000D02*
X65639000Y-60320000D01*
X54245000Y-60360000D02*
X65755000Y-60360000D01*
X54132000Y-60400000D02*
X65868000Y-60400000D01*
X54020000Y-60440000D02*
X65980000Y-60440000D01*
X53911000Y-60480000D02*
X66089000Y-60480000D01*
X53805000Y-60520000D02*
X66195000Y-60520000D01*
X53700000Y-60560000D02*
X66300000Y-60560000D01*
X53597000Y-60600000D02*
X66403000Y-60600000D01*
X53496000Y-60640000D02*
X66504000Y-60640000D01*
X53397000Y-60680000D02*
X66603000Y-60680000D01*
X53300000Y-60720000D02*
X66700000Y-60720000D01*
X53204000Y-60760000D02*
X66796000Y-60760000D01*
X53110000Y-60800000D02*
X66890000Y-60800000D01*
X53017000Y-60840000D02*
X66983000Y-60840000D01*
X52925000Y-60880000D02*
X67075000Y-60880000D01*
X52835000Y-60920000D02*
X67165000Y-60920000D01*
X52747000Y-60960000D02*
X67253000Y-60960000D01*
X52659000Y-61000000D02*
X67341000Y-61000000D01*
X52573000Y-61040000D02*
X67427000Y-61040000D01*
X52488000Y-61080000D02*
X67512000Y-61080000D01*
X52405000Y-61120000D02*
X67595000Y-61120000D01*
X52322000Y-61160000D02*
X67678000Y-61160000D01*
X52241000Y-61200000D02*
X67759000Y-61200000D01*
X52160000Y-61240000D02*
X67840000Y-61240000D01*
X52080000Y-61280000D02*
X67920000Y-61280000D01*
X52002000Y-61320000D02*
X67998000Y-61320000D01*
X51924000Y-61360000D02*
X68076000Y-61360000D01*
X51848000Y-61400000D02*
X68152000Y-61400000D01*
X51772000Y-61440000D02*
X68228000Y-61440000D01*
X51697000Y-61480000D02*
X68303000Y-61480000D01*
X51623000Y-61520000D02*
X68377000Y-61520000D01*
X51550000Y-61560000D02*
X68450000Y-61560000D01*
X51478000Y-61600000D02*
X68522000Y-61600000D01*
X51406000Y-61640000D02*
X68594000Y-61640000D01*
X51335000Y-61680000D02*
X68665000Y-61680000D01*
X51265000Y-61720000D02*
X68735000Y-61720000D01*
X51196000Y-61760000D02*
X68804000Y-61760000D01*
X51127000Y-61800000D02*
X68873000Y-61800000D01*
X51060000Y-61840000D02*
X68940000Y-61840000D01*
X50992000Y-61880000D02*
X69008000Y-61880000D01*
X50926000Y-61920000D02*
X69074000Y-61920000D01*
X50860000Y-61960000D02*
X69140000Y-61960000D01*
X50795000Y-62000000D02*
X69205000Y-62000000D01*
X50730000Y-62040000D02*
X69270000Y-62040000D01*
X50666000Y-62080000D02*
X69334000Y-62080000D01*
X50603000Y-62120000D02*
X69397000Y-62120000D01*
X50540000Y-62160000D02*
X69460000Y-62160000D01*
X50478000Y-62200000D02*
X69522000Y-62200000D01*
X50416000Y-62240000D02*
X69584000Y-62240000D01*
X50355000Y-62280000D02*
X69645000Y-62280000D01*
X50295000Y-62320000D02*
X69705000Y-62320000D01*
X50235000Y-62360000D02*
X69765000Y-62360000D01*
X50175000Y-62400000D02*
X69825000Y-62400000D01*
X50116000Y-62440000D02*
X69884000Y-62440000D01*
X50058000Y-62480000D02*
X69942000Y-62480000D01*
X50000000Y-62520000D02*
X70000000Y-62520000D01*
X49942000Y-62560000D02*
X70058000Y-62560000D01*
X49885000Y-62600000D02*
X70115000Y-62600000D01*
X49829000Y-62640000D02*
X70171000Y-62640000D01*
X49773000Y-62680000D02*
X70227000Y-62680000D01*
X49717000Y-62720000D02*
X70283000Y-62720000D01*
X49662000Y-62760000D02*
X70338000Y-62760000D01*
X49608000Y-62800000D02*
X70392000Y-62800000D01*
X49553000Y-62840000D02*
X70447000Y-62840000D01*
X49500000Y-62880000D02*
X70500000Y-62880000D01*
X49446000Y-62920000D02*
X70554000Y-62920000D01*
X49393000Y-62960000D02*
X70607000Y-62960000D01*
X49341000Y-63000000D02*
X70659000Y-63000000D01*
X49289000Y-63040000D02*
X70711000Y-63040000D01*
X49237000Y-63080000D02*
X70763000Y-63080000D01*
X49185000Y-63120000D02*
X70815000Y-63120000D01*
X49135000Y-63160000D02*
X70865000Y-63160000D01*
X49084000Y-63200000D02*
X70916000Y-63200000D01*
X49034000Y-63240000D02*
X70966000Y-63240000D01*
X48984000Y-63280000D02*
X71016000Y-63280000D01*
X48934000Y-63320000D02*
X71066000Y-63320000D01*
X48885000Y-63360000D02*
X71115000Y-63360000D01*
X48837000Y-63400000D02*
X71163000Y-63400000D01*
X48788000Y-63440000D02*
X71212000Y-63440000D01*
X48740000Y-63480000D02*
X71260000Y-63480000D01*
X48693000Y-63520000D02*
X71307000Y-63520000D01*
X48645000Y-63560000D02*
X71355000Y-63560000D01*
X48598000Y-63600000D02*
X71402000Y-63600000D01*
X48551000Y-63640000D02*
X71449000Y-63640000D01*
X48505000Y-63680000D02*
X71495000Y-63680000D01*
X48459000Y-63720000D02*
X71541000Y-63720000D01*
X48413000Y-63760000D02*
X71587000Y-63760000D01*
X48368000Y-63800000D02*
X71632000Y-63800000D01*
X48323000Y-63840000D02*
X71677000Y-63840000D01*
X48278000Y-63880000D02*
X71722000Y-63880000D01*
X48234000Y-63920000D02*
X71766000Y-63920000D01*
X48189000Y-63960000D02*
X71811000Y-63960000D01*
X48146000Y-64000000D02*
X71854000Y-64000000D01*
X48102000Y-64040000D02*
X71898000Y-64040000D01*
X48059000Y-64080000D02*
X71941000Y-64080000D01*
X48016000Y-64120000D02*
X71984000Y-64120000D01*
X47973000Y-64160000D02*
X72027000Y-64160000D01*
X47931000Y-64200000D02*
X72069000Y-64200000D01*
X47889000Y-64240000D02*
X72111000Y-64240000D01*
X47847000Y-64280000D02*
X72153000Y-64280000D01*
X47805000Y-64320000D02*
X72195000Y-64320000D01*
X47764000Y-64360000D02*
X72236000Y-64360000D01*
X47723000Y-64400000D02*
X72277000Y-64400000D01*
X47682000Y-64440000D02*
X72318000Y-64440000D01*
X47641000Y-64480000D02*
X72359000Y-64480000D01*
X47601000Y-64520000D02*
X72399000Y-64520000D01*
X47561000Y-64560000D02*
X72439000Y-64560000D01*
X47521000Y-64600000D02*
X72479000Y-64600000D01*
X47482000Y-64640000D02*
X72518000Y-64640000D01*
X47443000Y-64680000D02*
X72557000Y-64680000D01*
X47404000Y-64720000D02*
X72596000Y-64720000D01*
X47365000Y-64760000D02*
X72635000Y-64760000D01*
X47326000Y-64800000D02*
X72674000Y-64800000D01*
X47288000Y-64840000D02*
X72712000Y-64840000D01*
X47250000Y-64880000D02*
X72750000Y-64880000D01*
X47212000Y-64920000D02*
X72788000Y-64920000D01*
X47175000Y-64960000D02*
X72825000Y-64960000D01*
X47137000Y-65000000D02*
X72863000Y-65000000D01*
X47100000Y-65040000D02*
X72900000Y-65040000D01*
X47063000Y-65080000D02*
X72937000Y-65080000D01*
X47027000Y-65120000D02*
X72973000Y-65120000D01*
X46990000Y-65160000D02*
X73010000Y-65160000D01*
X46954000Y-65200000D02*
X73046000Y-65200000D01*
X46918000Y-65240000D02*
X73082000Y-65240000D01*
X46883000Y-65280000D02*
X73117000Y-65280000D01*
X46847000Y-65320000D02*
X73153000Y-65320000D01*
X46812000Y-65360000D02*
X73188000Y-65360000D01*
X46777000Y-65400000D02*
X73223000Y-65400000D01*
X46742000Y-65440000D02*
X73258000Y-65440000D01*
X46707000Y-65480000D02*
X73293000Y-65480000D01*
X46673000Y-65520000D02*
X73327000Y-65520000D01*
X46638000Y-65560000D02*
X73362000Y-65560000D01*
X46604000Y-65600000D02*
X73396000Y-65600000D01*
X46570000Y-65640000D02*
X73430000Y-65640000D01*
X46537000Y-65680000D02*
X73463000Y-65680000D01*
X46503000Y-65720000D02*
X73497000Y-65720000D01*
X46470000Y-65760000D02*
X73530000Y-65760000D01*
X46437000Y-65800000D02*
X73563000Y-65800000D01*
X46404000Y-65840000D02*
X73596000Y-65840000D01*
X46372000Y-65880000D02*
X73628000Y-65880000D01*
X46339000Y-65920000D02*
X73661000Y-65920000D01*
X46307000Y-65960000D02*
X73693000Y-65960000D01*
X46275000Y-66000000D02*
X73725000Y-66000000D01*
X46243000Y-66040000D02*
X73757000Y-66040000D01*
X46211000Y-66080000D02*
X73789000Y-66080000D01*
X46180000Y-66120000D02*
X73820000Y-66120000D01*
X46149000Y-66160000D02*
X73851000Y-66160000D01*
X46117000Y-66200000D02*
X73883000Y-66200000D01*
X46086000Y-66240000D02*
X73914000Y-66240000D01*
X46056000Y-66280000D02*
X73944000Y-66280000D01*
X46025000Y-66320000D02*
X73975000Y-66320000D01*
X45995000Y-66360000D02*
X74005000Y-66360000D01*
X45965000Y-66400000D02*
X74035000Y-66400000D01*
X45935000Y-66440000D02*
X74065000Y-66440000D01*
X45905000Y-66480000D02*
X74095000Y-66480000D01*
X45875000Y-66520000D02*
X74125000Y-66520000D01*
X45845000Y-66560000D02*
X74155000Y-66560000D01*
X45816000Y-66600000D02*
X74184000Y-66600000D01*
X45787000Y-66640000D02*
X74213000Y-66640000D01*
X45758000Y-66680000D02*
X74242000Y-66680000D01*
X45729000Y-66720000D02*
X74271000Y-66720000D01*
X45701000Y-66760000D02*
X74299000Y-66760000D01*
X45672000Y-66800000D02*
X74328000Y-66800000D01*
X45644000Y-66840000D02*
X74356000Y-66840000D01*
X45616000Y-66880000D02*
X74384000Y-66880000D01*
X45588000Y-66920000D02*
X74412000Y-66920000D01*
X45560000Y-66960000D02*
X74440000Y-66960000D01*
X45532000Y-67000000D02*
X74468000Y-67000000D01*
X45505000Y-67040000D02*
X74495000Y-67040000D01*
X45477000Y-67080000D02*
X74523000Y-67080000D01*
X45450000Y-67120000D02*
X74550000Y-67120000D01*
X45423000Y-67160000D02*
X74577000Y-67160000D01*
X45396000Y-67200000D02*
X74604000Y-67200000D01*
X45370000Y-67240000D02*
X74630000Y-67240000D01*
X45343000Y-67280000D02*
X74657000Y-67280000D01*
X45317000Y-67320000D02*
X74683000Y-67320000D01*
X45290000Y-67360000D02*
X74710000Y-67360000D01*
X45264000Y-67400000D02*
X74736000Y-67400000D01*
X45238000Y-67440000D02*
X74762000Y-67440000D01*
X45213000Y-67480000D02*
X74787000Y-67480000D01*
X45187000Y-67520000D02*
X74813000Y-67520000D01*
X45162000Y-67560000D02*
X74838000Y-67560000D01*
X45136000Y-67600000D02*
X74864000Y-67600000D01*
X45111000Y-67640000D02*
X74889000Y-67640000D01*
X45086000Y-67680000D02*
X74914000Y-67680000D01*
X45061000Y-67720000D02*
X74939000Y-67720000D01*
X45037000Y-67760000D02*
X74963000Y-67760000D01*
X45012000Y-67800000D02*
X74988000Y-67800000D01*
X44988000Y-67840000D02*
X75012000Y-67840000D01*
X44963000Y-67880000D02*
X75037000Y-67880000D01*
X44939000Y-67920000D02*
X75061000Y-67920000D01*
X44915000Y-67960000D02*
X75085000Y-67960000D01*
X44891000Y-68000000D02*
X75109000Y-68000000D01*
X44868000Y-68040000D02*
X75132000Y-68040000D01*
X44844000Y-68080000D02*
X75156000Y-68080000D01*
X44821000Y-68120000D02*
X75179000Y-68120000D01*
X44797000Y-68160000D02*
X75203000Y-68160000D01*
X44774000Y-68200000D02*
X75226000Y-68200000D01*
X44751000Y-68240000D02*
X75249000Y-68240000D01*
X44729000Y-68280000D02*
X75271000Y-68280000D01*
X44706000Y-68320000D02*
X75294000Y-68320000D01*
X44683000Y-68360000D02*
X75317000Y-68360000D01*
X44661000Y-68400000D02*
X75339000Y-68400000D01*
X44639000Y-68440000D02*
X75361000Y-68440000D01*
X44616000Y-68480000D02*
X75384000Y-68480000D01*
X44594000Y-68520000D02*
X75406000Y-68520000D01*
X44572000Y-68560000D02*
X75428000Y-68560000D01*
X44551000Y-68600000D02*
X75449000Y-68600000D01*
X44529000Y-68640000D02*
X75471000Y-68640000D01*
X44508000Y-68680000D02*
X75492000Y-68680000D01*
X44486000Y-68720000D02*
X75514000Y-68720000D01*
X44465000Y-68760000D02*
X75535000Y-68760000D01*
X44444000Y-68800000D02*
X75556000Y-68800000D01*
X44423000Y-68839000D02*
X75577000Y-68839000D01*
X44402000Y-68879000D02*
X75598000Y-68879000D01*
X44381000Y-68919000D02*
X75619000Y-68919000D01*
X44361000Y-68959000D02*
X75639000Y-68959000D01*
X44340000Y-68999000D02*
X75660000Y-68999000D01*
X44320000Y-69039000D02*
X75680000Y-69039000D01*
X44300000Y-69079000D02*
X75700000Y-69079000D01*
X44280000Y-69119000D02*
X75720000Y-69119000D01*
X44260000Y-69159000D02*
X75740000Y-69159000D01*
X44240000Y-69199000D02*
X75760000Y-69199000D01*
X44220000Y-69239000D02*
X75780000Y-69239000D01*
X44201000Y-69279000D02*
X75799000Y-69279000D01*
X44181000Y-69319000D02*
X75819000Y-69319000D01*
X44162000Y-69359000D02*
X75838000Y-69359000D01*
X44143000Y-69399000D02*
X75857000Y-69399000D01*
X44124000Y-69439000D02*
X75876000Y-69439000D01*
X44105000Y-69479000D02*
X75895000Y-69479000D01*
X44086000Y-69519000D02*
X75914000Y-69519000D01*
X44067000Y-69559000D02*
X75933000Y-69559000D01*
X44049000Y-69599000D02*
X75951000Y-69599000D01*
X44030000Y-69639000D02*
X75970000Y-69639000D01*
X44012000Y-69679000D02*
X75988000Y-69679000D01*
X43994000Y-69719000D02*
X76006000Y-69719000D01*
X43976000Y-69759000D02*
X76024000Y-69759000D01*
X62240000Y-69799000D02*
X76042000Y-69799000D01*
X43958000Y-69799000D02*
X57760000Y-69799000D01*
X62240000Y-69839000D02*
X76060000Y-69839000D01*
X43940000Y-69839000D02*
X57760000Y-69839000D01*
X62240000Y-69879000D02*
X76078000Y-69879000D01*
X43922000Y-69879000D02*
X57760000Y-69879000D01*
X62240000Y-69919000D02*
X76095000Y-69919000D01*
X43905000Y-69919000D02*
X57760000Y-69919000D01*
X62240000Y-69959000D02*
X76113000Y-69959000D01*
X43887000Y-69959000D02*
X57760000Y-69959000D01*
X62240000Y-69999000D02*
X76130000Y-69999000D01*
X43870000Y-69999000D02*
X57760000Y-69999000D01*
X62240000Y-70039000D02*
X76148000Y-70039000D01*
X43852000Y-70039000D02*
X57760000Y-70039000D01*
X62240000Y-70079000D02*
X76165000Y-70079000D01*
X43835000Y-70079000D02*
X57760000Y-70079000D01*
X62240000Y-70119000D02*
X76182000Y-70119000D01*
X43818000Y-70119000D02*
X57760000Y-70119000D01*
X62240000Y-70159000D02*
X76199000Y-70159000D01*
X43801000Y-70159000D02*
X57760000Y-70159000D01*
X62240000Y-70199000D02*
X76215000Y-70199000D01*
X43785000Y-70199000D02*
X57760000Y-70199000D01*
X62240000Y-70239000D02*
X76232000Y-70239000D01*
X43768000Y-70239000D02*
X57760000Y-70239000D01*
X62240000Y-70279000D02*
X76249000Y-70279000D01*
X43751000Y-70279000D02*
X57760000Y-70279000D01*
X62240000Y-70319000D02*
X76265000Y-70319000D01*
X43735000Y-70319000D02*
X57760000Y-70319000D01*
X62240000Y-70359000D02*
X76281000Y-70359000D01*
X43719000Y-70359000D02*
X57760000Y-70359000D01*
X62240000Y-70399000D02*
X76298000Y-70399000D01*
X43702000Y-70399000D02*
X57760000Y-70399000D01*
X62240000Y-70439000D02*
X76314000Y-70439000D01*
X43686000Y-70439000D02*
X57760000Y-70439000D01*
X62240000Y-70479000D02*
X76330000Y-70479000D01*
X43670000Y-70479000D02*
X57760000Y-70479000D01*
X62240000Y-70519000D02*
X76346000Y-70519000D01*
X43654000Y-70519000D02*
X57760000Y-70519000D01*
X62240000Y-70559000D02*
X76361000Y-70559000D01*
X43639000Y-70559000D02*
X57760000Y-70559000D01*
X62240000Y-70599000D02*
X76377000Y-70599000D01*
X43623000Y-70599000D02*
X57760000Y-70599000D01*
X62240000Y-70639000D02*
X76393000Y-70639000D01*
X43607000Y-70639000D02*
X57760000Y-70639000D01*
X62240000Y-70679000D02*
X76408000Y-70679000D01*
X43592000Y-70679000D02*
X57760000Y-70679000D01*
X62240000Y-70719000D02*
X76423000Y-70719000D01*
X43577000Y-70719000D02*
X57760000Y-70719000D01*
X62240000Y-70759000D02*
X76439000Y-70759000D01*
X43561000Y-70759000D02*
X57760000Y-70759000D01*
X62240000Y-70799000D02*
X76454000Y-70799000D01*
X43546000Y-70799000D02*
X57760000Y-70799000D01*
X62240000Y-70839000D02*
X76469000Y-70839000D01*
X43531000Y-70839000D02*
X57760000Y-70839000D01*
X62240000Y-70879000D02*
X76484000Y-70879000D01*
X43516000Y-70879000D02*
X57760000Y-70879000D01*
X62240000Y-70919000D02*
X76498000Y-70919000D01*
X43502000Y-70919000D02*
X57760000Y-70919000D01*
X62240000Y-70959000D02*
X76513000Y-70959000D01*
X43487000Y-70959000D02*
X57760000Y-70959000D01*
X62240000Y-70999000D02*
X76527000Y-70999000D01*
X43473000Y-70999000D02*
X57760000Y-70999000D01*
X62240000Y-71039000D02*
X76542000Y-71039000D01*
X43458000Y-71039000D02*
X57760000Y-71039000D01*
X62240000Y-71079000D02*
X76556000Y-71079000D01*
X43444000Y-71079000D02*
X57760000Y-71079000D01*
X62240000Y-71119000D02*
X76570000Y-71119000D01*
X43430000Y-71119000D02*
X57760000Y-71119000D01*
X62240000Y-71159000D02*
X76585000Y-71159000D01*
X43415000Y-71159000D02*
X57760000Y-71159000D01*
X62240000Y-71199000D02*
X76599000Y-71199000D01*
X43401000Y-71199000D02*
X57760000Y-71199000D01*
X62240000Y-71239000D02*
X76612000Y-71239000D01*
X43388000Y-71239000D02*
X57760000Y-71239000D01*
X62240000Y-71279000D02*
X76626000Y-71279000D01*
X43374000Y-71279000D02*
X57760000Y-71279000D01*
X62240000Y-71319000D02*
X76640000Y-71319000D01*
X43360000Y-71319000D02*
X57760000Y-71319000D01*
X62240000Y-71359000D02*
X76653000Y-71359000D01*
X43347000Y-71359000D02*
X57760000Y-71359000D01*
X62240000Y-71399000D02*
X76667000Y-71399000D01*
X43333000Y-71399000D02*
X57760000Y-71399000D01*
X62240000Y-71439000D02*
X76680000Y-71439000D01*
X43320000Y-71439000D02*
X57760000Y-71439000D01*
X62240000Y-71479000D02*
X76694000Y-71479000D01*
X43306000Y-71479000D02*
X57760000Y-71479000D01*
X62240000Y-71519000D02*
X76707000Y-71519000D01*
X43293000Y-71519000D02*
X57760000Y-71519000D01*
X62240000Y-71559000D02*
X76720000Y-71559000D01*
X43280000Y-71559000D02*
X57760000Y-71559000D01*
X62240000Y-71599000D02*
X76733000Y-71599000D01*
X43267000Y-71599000D02*
X57760000Y-71599000D01*
X62240000Y-71639000D02*
X76745000Y-71639000D01*
X43255000Y-71639000D02*
X57760000Y-71639000D01*
X62240000Y-71679000D02*
X76758000Y-71679000D01*
X43242000Y-71679000D02*
X57760000Y-71679000D01*
X62240000Y-71719000D02*
X76771000Y-71719000D01*
X43229000Y-71719000D02*
X57760000Y-71719000D01*
X62240000Y-71759000D02*
X76783000Y-71759000D01*
X43217000Y-71759000D02*
X57760000Y-71759000D01*
X62240000Y-71799000D02*
X76796000Y-71799000D01*
X43204000Y-71799000D02*
X57760000Y-71799000D01*
X62240000Y-71839000D02*
X76808000Y-71839000D01*
X43192000Y-71839000D02*
X57760000Y-71839000D01*
X62240000Y-71879000D02*
X76820000Y-71879000D01*
X43180000Y-71879000D02*
X57760000Y-71879000D01*
X62240000Y-71919000D02*
X76832000Y-71919000D01*
X43168000Y-71919000D02*
X57760000Y-71919000D01*
X62240000Y-71959000D02*
X76844000Y-71959000D01*
X43156000Y-71959000D02*
X57760000Y-71959000D01*
X62240000Y-71999000D02*
X76856000Y-71999000D01*
X43144000Y-71999000D02*
X57760000Y-71999000D01*
X62240000Y-72039000D02*
X76868000Y-72039000D01*
X43132000Y-72039000D02*
X57760000Y-72039000D01*
X62240000Y-72079000D02*
X76880000Y-72079000D01*
X43120000Y-72079000D02*
X57760000Y-72079000D01*
X62240000Y-72119000D02*
X76891000Y-72119000D01*
X43109000Y-72119000D02*
X57760000Y-72119000D01*
X62240000Y-72159000D02*
X76903000Y-72159000D01*
X43097000Y-72159000D02*
X57760000Y-72159000D01*
X62240000Y-72199000D02*
X76914000Y-72199000D01*
X43086000Y-72199000D02*
X57760000Y-72199000D01*
X62240000Y-72239000D02*
X76925000Y-72239000D01*
X43075000Y-72239000D02*
X57760000Y-72239000D01*
X62240000Y-72279000D02*
X76937000Y-72279000D01*
X43063000Y-72279000D02*
X57760000Y-72279000D01*
X62240000Y-72319000D02*
X76948000Y-72319000D01*
X43052000Y-72319000D02*
X57760000Y-72319000D01*
X62240000Y-72359000D02*
X76959000Y-72359000D01*
X43041000Y-72359000D02*
X57760000Y-72359000D01*
X62240000Y-72399000D02*
X76969000Y-72399000D01*
X43031000Y-72399000D02*
X57760000Y-72399000D01*
X62240000Y-72439000D02*
X76980000Y-72439000D01*
X43020000Y-72439000D02*
X57760000Y-72439000D01*
X62240000Y-72479000D02*
X76991000Y-72479000D01*
X43009000Y-72479000D02*
X57760000Y-72479000D01*
X62240000Y-72519000D02*
X77001000Y-72519000D01*
X42999000Y-72519000D02*
X57760000Y-72519000D01*
X62240000Y-72559000D02*
X77012000Y-72559000D01*
X42988000Y-72559000D02*
X57760000Y-72559000D01*
X62240000Y-72599000D02*
X77022000Y-72599000D01*
X42978000Y-72599000D02*
X57760000Y-72599000D01*
X62240000Y-72639000D02*
X77033000Y-72639000D01*
X42967000Y-72639000D02*
X57760000Y-72639000D01*
X62240000Y-72679000D02*
X77043000Y-72679000D01*
X42957000Y-72679000D02*
X57760000Y-72679000D01*
X62240000Y-72719000D02*
X77053000Y-72719000D01*
X42947000Y-72719000D02*
X57760000Y-72719000D01*
X62240000Y-72759000D02*
X77063000Y-72759000D01*
X42937000Y-72759000D02*
X57760000Y-72759000D01*
X62240000Y-72799000D02*
X77073000Y-72799000D01*
X42927000Y-72799000D02*
X57760000Y-72799000D01*
X62240000Y-72839000D02*
X77082000Y-72839000D01*
X42918000Y-72839000D02*
X57760000Y-72839000D01*
X62240000Y-72879000D02*
X77092000Y-72879000D01*
X42908000Y-72879000D02*
X57760000Y-72879000D01*
X62240000Y-72919000D02*
X77102000Y-72919000D01*
X42898000Y-72919000D02*
X57760000Y-72919000D01*
X62240000Y-72959000D02*
X77111000Y-72959000D01*
X42889000Y-72959000D02*
X57760000Y-72959000D01*
X62240000Y-72999000D02*
X77120000Y-72999000D01*
X42880000Y-72999000D02*
X57760000Y-72999000D01*
X62240000Y-73039000D02*
X77130000Y-73039000D01*
X42870000Y-73039000D02*
X57760000Y-73039000D01*
X62240000Y-73079000D02*
X77139000Y-73079000D01*
X42861000Y-73079000D02*
X57760000Y-73079000D01*
X62240000Y-73119000D02*
X77148000Y-73119000D01*
X42852000Y-73119000D02*
X57760000Y-73119000D01*
X62240000Y-73159000D02*
X77157000Y-73159000D01*
X42843000Y-73159000D02*
X57760000Y-73159000D01*
X62240000Y-73199000D02*
X77166000Y-73199000D01*
X42834000Y-73199000D02*
X57760000Y-73199000D01*
X62240000Y-73239000D02*
X77175000Y-73239000D01*
X42825000Y-73239000D02*
X57760000Y-73239000D01*
X62240000Y-73279000D02*
X77183000Y-73279000D01*
X42817000Y-73279000D02*
X57760000Y-73279000D01*
X62240000Y-73319000D02*
X77192000Y-73319000D01*
X42808000Y-73319000D02*
X57760000Y-73319000D01*
X62240000Y-73359000D02*
X77200000Y-73359000D01*
X42800000Y-73359000D02*
X57760000Y-73359000D01*
X62240000Y-73399000D02*
X77209000Y-73399000D01*
X42791000Y-73399000D02*
X57760000Y-73399000D01*
X62240000Y-73439000D02*
X77217000Y-73439000D01*
X42783000Y-73439000D02*
X57760000Y-73439000D01*
X62240000Y-73479000D02*
X77225000Y-73479000D01*
X42775000Y-73479000D02*
X57760000Y-73479000D01*
X62240000Y-73519000D02*
X77233000Y-73519000D01*
X42767000Y-73519000D02*
X57760000Y-73519000D01*
X62240000Y-73559000D02*
X77241000Y-73559000D01*
X42759000Y-73559000D02*
X57760000Y-73559000D01*
X62240000Y-73599000D02*
X77249000Y-73599000D01*
X42751000Y-73599000D02*
X57760000Y-73599000D01*
X62240000Y-73639000D02*
X77257000Y-73639000D01*
X42743000Y-73639000D02*
X57760000Y-73639000D01*
X62240000Y-73679000D02*
X77265000Y-73679000D01*
X42735000Y-73679000D02*
X57760000Y-73679000D01*
X62240000Y-73719000D02*
X77273000Y-73719000D01*
X42727000Y-73719000D02*
X57760000Y-73719000D01*
X62240000Y-73759000D02*
X77280000Y-73759000D01*
X42720000Y-73759000D02*
X57760000Y-73759000D01*
X62240000Y-73799000D02*
X77287000Y-73799000D01*
X42713000Y-73799000D02*
X57760000Y-73799000D01*
X62240000Y-73839000D02*
X77295000Y-73839000D01*
X42705000Y-73839000D02*
X57760000Y-73839000D01*
X62240000Y-73879000D02*
X77302000Y-73879000D01*
X42698000Y-73879000D02*
X57760000Y-73879000D01*
X62240000Y-73919000D02*
X77309000Y-73919000D01*
X42691000Y-73919000D02*
X57760000Y-73919000D01*
X62240000Y-73959000D02*
X77316000Y-73959000D01*
X42684000Y-73959000D02*
X57760000Y-73959000D01*
X62240000Y-73999000D02*
X77323000Y-73999000D01*
X42677000Y-73999000D02*
X57760000Y-73999000D01*
X62240000Y-74039000D02*
X77330000Y-74039000D01*
X42670000Y-74039000D02*
X57760000Y-74039000D01*
X62240000Y-74079000D02*
X77337000Y-74079000D01*
X42663000Y-74079000D02*
X57760000Y-74079000D01*
X62240000Y-74119000D02*
X77344000Y-74119000D01*
X42656000Y-74119000D02*
X57760000Y-74119000D01*
X62240000Y-74159000D02*
X77350000Y-74159000D01*
X42650000Y-74159000D02*
X57760000Y-74159000D01*
X62240000Y-74199000D02*
X77357000Y-74199000D01*
X42643000Y-74199000D02*
X57760000Y-74199000D01*
X62240000Y-74239000D02*
X77363000Y-74239000D01*
X42637000Y-74239000D02*
X57760000Y-74239000D01*
X42631000Y-74279000D02*
X77369000Y-74279000D01*
X42625000Y-74319000D02*
X77375000Y-74319000D01*
X42618000Y-74359000D02*
X77382000Y-74359000D01*
X42612000Y-74399000D02*
X77388000Y-74399000D01*
X42606000Y-74439000D02*
X77394000Y-74439000D01*
X42601000Y-74479000D02*
X77399000Y-74479000D01*
X42595000Y-74519000D02*
X77405000Y-74519000D01*
X42589000Y-74559000D02*
X77411000Y-74559000D01*
X42584000Y-74599000D02*
X77416000Y-74599000D01*
X42578000Y-74639000D02*
X77422000Y-74639000D01*
X42573000Y-74679000D02*
X77427000Y-74679000D01*
X42568000Y-74719000D02*
X77432000Y-74719000D01*
X42562000Y-74759000D02*
X77438000Y-74759000D01*
X42557000Y-74799000D02*
X77443000Y-74799000D01*
X42552000Y-74839000D02*
X77448000Y-74839000D01*
X42548000Y-74879000D02*
X77452000Y-74879000D01*
X42543000Y-74919000D02*
X77457000Y-74919000D01*
X42538000Y-74959000D02*
X77462000Y-74959000D01*
X42533000Y-74999000D02*
X77467000Y-74999000D01*
X42529000Y-75039000D02*
X77471000Y-75039000D01*
X42524000Y-75079000D02*
X77476000Y-75079000D01*
X42520000Y-75119000D02*
X77480000Y-75119000D01*
X42516000Y-75159000D02*
X77484000Y-75159000D01*
X42512000Y-75199000D02*
X77488000Y-75199000D01*
X42508000Y-75239000D02*
X77492000Y-75239000D01*
X42504000Y-75279000D02*
X77496000Y-75279000D01*
X42500000Y-75319000D02*
X77500000Y-75319000D01*
X42496000Y-75359000D02*
X77504000Y-75359000D01*
X42492000Y-75399000D02*
X77508000Y-75399000D01*
X42489000Y-75439000D02*
X77511000Y-75439000D01*
X42485000Y-75479000D02*
X77515000Y-75479000D01*
X42482000Y-75519000D02*
X77518000Y-75519000D01*
X42478000Y-75559000D02*
X77522000Y-75559000D01*
X42475000Y-75599000D02*
X77525000Y-75599000D01*
X42472000Y-75639000D02*
X77528000Y-75639000D01*
X42469000Y-75679000D02*
X77531000Y-75679000D01*
X42466000Y-75719000D02*
X77534000Y-75719000D01*
X42463000Y-75759000D02*
X77537000Y-75759000D01*
X42460000Y-75799000D02*
X77540000Y-75799000D01*
X42458000Y-75839000D02*
X77542000Y-75839000D01*
X42455000Y-75879000D02*
X77545000Y-75879000D01*
X42453000Y-75919000D02*
X77547000Y-75919000D01*
X42450000Y-75959000D02*
X77550000Y-75959000D01*
X42448000Y-75999000D02*
X77552000Y-75999000D01*
X42446000Y-76039000D02*
X77554000Y-76039000D01*
X42444000Y-76079000D02*
X77556000Y-76079000D01*
X42441000Y-76119000D02*
X77559000Y-76119000D01*
X42440000Y-76159000D02*
X77560000Y-76159000D01*
X42438000Y-76199000D02*
X77562000Y-76199000D01*
X42436000Y-76239000D02*
X77564000Y-76239000D01*
X42434000Y-76279000D02*
X77566000Y-76279000D01*
X42433000Y-76320000D02*
X77567000Y-76320000D01*
X42431000Y-76360000D02*
X77569000Y-76360000D01*
X42430000Y-76400000D02*
X77570000Y-76400000D01*
X42428000Y-76440000D02*
X77572000Y-76440000D01*
X42427000Y-76480000D02*
X77573000Y-76480000D01*
X42426000Y-76520000D02*
X77574000Y-76520000D01*
X42425000Y-76560000D02*
X77575000Y-76560000D01*
X42424000Y-76600000D02*
X77576000Y-76600000D01*
X42423000Y-76640000D02*
X77577000Y-76640000D01*
X42422000Y-76680000D02*
X77578000Y-76680000D01*
X42422000Y-76720000D02*
X77578000Y-76720000D01*
X42421000Y-76760000D02*
X77579000Y-76760000D01*
X42421000Y-76800000D02*
X77579000Y-76800000D01*
X42420000Y-76840000D02*
X77580000Y-76840000D01*
X42420000Y-76880000D02*
X77580000Y-76880000D01*
X42420000Y-76920000D02*
X77580000Y-76920000D01*
X42420000Y-76960000D02*
X77580000Y-76960000D01*
X42420000Y-77000000D02*
X77580000Y-77000000D01*
X77620000Y-77000000D02*
G75*
G03*
X77620000Y-77000000I-17620000J0D01*
G01*
%TO.C,C7*%
X48375000Y-130104002D02*
X51875000Y-130104002D01*
X50125000Y-131854002D02*
X50125000Y-128354002D01*
X59200000Y-95400000D02*
X60800000Y-95400000D01*
X58587000Y-95440000D02*
X61413000Y-95440000D01*
X58165000Y-95480000D02*
X61835000Y-95480000D01*
X57823000Y-95520000D02*
X62177000Y-95520000D01*
X57527000Y-95560000D02*
X62473000Y-95560000D01*
X57264000Y-95600000D02*
X62736000Y-95600000D01*
X57024000Y-95640000D02*
X62976000Y-95640000D01*
X56802000Y-95680000D02*
X63198000Y-95680000D01*
X56595000Y-95720000D02*
X63405000Y-95720000D01*
X56400000Y-95760000D02*
X63600000Y-95760000D01*
X56215000Y-95800000D02*
X63785000Y-95800000D01*
X56040000Y-95840000D02*
X63960000Y-95840000D01*
X55872000Y-95880000D02*
X64128000Y-95880000D01*
X55711000Y-95920000D02*
X64289000Y-95920000D01*
X55556000Y-95960000D02*
X64444000Y-95960000D01*
X55407000Y-96000000D02*
X64593000Y-96000000D01*
X55262000Y-96040000D02*
X64738000Y-96040000D01*
X55122000Y-96080000D02*
X64878000Y-96080000D01*
X54987000Y-96120000D02*
X65013000Y-96120000D01*
X54855000Y-96160000D02*
X65145000Y-96160000D01*
X54727000Y-96200000D02*
X65273000Y-96200000D01*
X54602000Y-96240000D02*
X65398000Y-96240000D01*
X54480000Y-96280000D02*
X65520000Y-96280000D01*
X54361000Y-96320000D02*
X65639000Y-96320000D01*
X54245000Y-96360000D02*
X65755000Y-96360000D01*
X54132000Y-96400000D02*
X65868000Y-96400000D01*
X54020000Y-96440000D02*
X65980000Y-96440000D01*
X53911000Y-96480000D02*
X66089000Y-96480000D01*
X53805000Y-96520000D02*
X66195000Y-96520000D01*
X53700000Y-96560000D02*
X66300000Y-96560000D01*
X53597000Y-96600000D02*
X66403000Y-96600000D01*
X53496000Y-96640000D02*
X66504000Y-96640000D01*
X53397000Y-96680000D02*
X66603000Y-96680000D01*
X53300000Y-96720000D02*
X66700000Y-96720000D01*
X53204000Y-96760000D02*
X66796000Y-96760000D01*
X53110000Y-96800000D02*
X66890000Y-96800000D01*
X53017000Y-96840000D02*
X66983000Y-96840000D01*
X52925000Y-96880000D02*
X67075000Y-96880000D01*
X52835000Y-96920000D02*
X67165000Y-96920000D01*
X52747000Y-96960000D02*
X67253000Y-96960000D01*
X52659000Y-97000000D02*
X67341000Y-97000000D01*
X52573000Y-97040000D02*
X67427000Y-97040000D01*
X52488000Y-97080000D02*
X67512000Y-97080000D01*
X52405000Y-97120000D02*
X67595000Y-97120000D01*
X52322000Y-97160000D02*
X67678000Y-97160000D01*
X52241000Y-97200000D02*
X67759000Y-97200000D01*
X52160000Y-97240000D02*
X67840000Y-97240000D01*
X52080000Y-97280000D02*
X67920000Y-97280000D01*
X52002000Y-97320000D02*
X67998000Y-97320000D01*
X51924000Y-97360000D02*
X68076000Y-97360000D01*
X51848000Y-97400000D02*
X68152000Y-97400000D01*
X51772000Y-97440000D02*
X68228000Y-97440000D01*
X51697000Y-97480000D02*
X68303000Y-97480000D01*
X51623000Y-97520000D02*
X68377000Y-97520000D01*
X51550000Y-97560000D02*
X68450000Y-97560000D01*
X51478000Y-97600000D02*
X68522000Y-97600000D01*
X51406000Y-97640000D02*
X68594000Y-97640000D01*
X51335000Y-97680000D02*
X68665000Y-97680000D01*
X51265000Y-97720000D02*
X68735000Y-97720000D01*
X51196000Y-97760000D02*
X68804000Y-97760000D01*
X51127000Y-97800000D02*
X68873000Y-97800000D01*
X51060000Y-97840000D02*
X68940000Y-97840000D01*
X50992000Y-97880000D02*
X69008000Y-97880000D01*
X50926000Y-97920000D02*
X69074000Y-97920000D01*
X50860000Y-97960000D02*
X69140000Y-97960000D01*
X50795000Y-98000000D02*
X69205000Y-98000000D01*
X50730000Y-98040000D02*
X69270000Y-98040000D01*
X50666000Y-98080000D02*
X69334000Y-98080000D01*
X50603000Y-98120000D02*
X69397000Y-98120000D01*
X50540000Y-98160000D02*
X69460000Y-98160000D01*
X50478000Y-98200000D02*
X69522000Y-98200000D01*
X50416000Y-98240000D02*
X69584000Y-98240000D01*
X50355000Y-98280000D02*
X69645000Y-98280000D01*
X50295000Y-98320000D02*
X69705000Y-98320000D01*
X50235000Y-98360000D02*
X69765000Y-98360000D01*
X50175000Y-98400000D02*
X69825000Y-98400000D01*
X50116000Y-98440000D02*
X69884000Y-98440000D01*
X50058000Y-98480000D02*
X69942000Y-98480000D01*
X50000000Y-98520000D02*
X70000000Y-98520000D01*
X49942000Y-98560000D02*
X70058000Y-98560000D01*
X49885000Y-98600000D02*
X70115000Y-98600000D01*
X49829000Y-98640000D02*
X70171000Y-98640000D01*
X49773000Y-98680000D02*
X70227000Y-98680000D01*
X49717000Y-98720000D02*
X70283000Y-98720000D01*
X49662000Y-98760000D02*
X70338000Y-98760000D01*
X49608000Y-98800000D02*
X70392000Y-98800000D01*
X49553000Y-98840000D02*
X70447000Y-98840000D01*
X49500000Y-98880000D02*
X70500000Y-98880000D01*
X49446000Y-98920000D02*
X70554000Y-98920000D01*
X49393000Y-98960000D02*
X70607000Y-98960000D01*
X49341000Y-99000000D02*
X70659000Y-99000000D01*
X49289000Y-99040000D02*
X70711000Y-99040000D01*
X49237000Y-99080000D02*
X70763000Y-99080000D01*
X49185000Y-99120000D02*
X70815000Y-99120000D01*
X49135000Y-99160000D02*
X70865000Y-99160000D01*
X49084000Y-99200000D02*
X70916000Y-99200000D01*
X49034000Y-99240000D02*
X70966000Y-99240000D01*
X48984000Y-99280000D02*
X71016000Y-99280000D01*
X48934000Y-99320000D02*
X71066000Y-99320000D01*
X48885000Y-99360000D02*
X71115000Y-99360000D01*
X48837000Y-99400000D02*
X71163000Y-99400000D01*
X48788000Y-99440000D02*
X71212000Y-99440000D01*
X48740000Y-99480000D02*
X71260000Y-99480000D01*
X48693000Y-99520000D02*
X71307000Y-99520000D01*
X48645000Y-99560000D02*
X71355000Y-99560000D01*
X48598000Y-99600000D02*
X71402000Y-99600000D01*
X48551000Y-99640000D02*
X71449000Y-99640000D01*
X48505000Y-99680000D02*
X71495000Y-99680000D01*
X48459000Y-99720000D02*
X71541000Y-99720000D01*
X48413000Y-99760000D02*
X71587000Y-99760000D01*
X48368000Y-99800000D02*
X71632000Y-99800000D01*
X48323000Y-99840000D02*
X71677000Y-99840000D01*
X48278000Y-99880000D02*
X71722000Y-99880000D01*
X48234000Y-99920000D02*
X71766000Y-99920000D01*
X48189000Y-99960000D02*
X71811000Y-99960000D01*
X48146000Y-100000000D02*
X71854000Y-100000000D01*
X48102000Y-100040000D02*
X71898000Y-100040000D01*
X48059000Y-100080000D02*
X71941000Y-100080000D01*
X48016000Y-100120000D02*
X71984000Y-100120000D01*
X47973000Y-100160000D02*
X72027000Y-100160000D01*
X47931000Y-100200000D02*
X72069000Y-100200000D01*
X47889000Y-100240000D02*
X72111000Y-100240000D01*
X47847000Y-100280000D02*
X72153000Y-100280000D01*
X47805000Y-100320000D02*
X72195000Y-100320000D01*
X47764000Y-100360000D02*
X72236000Y-100360000D01*
X47723000Y-100400000D02*
X72277000Y-100400000D01*
X47682000Y-100440000D02*
X72318000Y-100440000D01*
X47641000Y-100480000D02*
X72359000Y-100480000D01*
X47601000Y-100520000D02*
X72399000Y-100520000D01*
X47561000Y-100560000D02*
X72439000Y-100560000D01*
X47521000Y-100600000D02*
X72479000Y-100600000D01*
X47482000Y-100640000D02*
X72518000Y-100640000D01*
X47443000Y-100680000D02*
X72557000Y-100680000D01*
X47404000Y-100720000D02*
X72596000Y-100720000D01*
X47365000Y-100760000D02*
X72635000Y-100760000D01*
X47326000Y-100800000D02*
X72674000Y-100800000D01*
X47288000Y-100840000D02*
X72712000Y-100840000D01*
X47250000Y-100880000D02*
X72750000Y-100880000D01*
X47212000Y-100920000D02*
X72788000Y-100920000D01*
X47175000Y-100960000D02*
X72825000Y-100960000D01*
X47137000Y-101000000D02*
X72863000Y-101000000D01*
X47100000Y-101040000D02*
X72900000Y-101040000D01*
X47063000Y-101080000D02*
X72937000Y-101080000D01*
X47027000Y-101120000D02*
X72973000Y-101120000D01*
X46990000Y-101160000D02*
X73010000Y-101160000D01*
X46954000Y-101200000D02*
X73046000Y-101200000D01*
X46918000Y-101240000D02*
X73082000Y-101240000D01*
X46883000Y-101280000D02*
X73117000Y-101280000D01*
X46847000Y-101320000D02*
X73153000Y-101320000D01*
X46812000Y-101360000D02*
X73188000Y-101360000D01*
X46777000Y-101400000D02*
X73223000Y-101400000D01*
X46742000Y-101440000D02*
X73258000Y-101440000D01*
X46707000Y-101480000D02*
X73293000Y-101480000D01*
X46673000Y-101520000D02*
X73327000Y-101520000D01*
X46638000Y-101560000D02*
X73362000Y-101560000D01*
X46604000Y-101600000D02*
X73396000Y-101600000D01*
X46570000Y-101640000D02*
X73430000Y-101640000D01*
X46537000Y-101680000D02*
X73463000Y-101680000D01*
X46503000Y-101720000D02*
X73497000Y-101720000D01*
X46470000Y-101760000D02*
X73530000Y-101760000D01*
X46437000Y-101800000D02*
X73563000Y-101800000D01*
X46404000Y-101840000D02*
X73596000Y-101840000D01*
X46372000Y-101880000D02*
X73628000Y-101880000D01*
X46339000Y-101920000D02*
X73661000Y-101920000D01*
X46307000Y-101960000D02*
X73693000Y-101960000D01*
X46275000Y-102000000D02*
X73725000Y-102000000D01*
X46243000Y-102040000D02*
X73757000Y-102040000D01*
X46211000Y-102080000D02*
X73789000Y-102080000D01*
X46180000Y-102120000D02*
X73820000Y-102120000D01*
X46149000Y-102160000D02*
X73851000Y-102160000D01*
X46117000Y-102200000D02*
X73883000Y-102200000D01*
X46086000Y-102240000D02*
X73914000Y-102240000D01*
X46056000Y-102280000D02*
X73944000Y-102280000D01*
X46025000Y-102320000D02*
X73975000Y-102320000D01*
X45995000Y-102360000D02*
X74005000Y-102360000D01*
X45965000Y-102400000D02*
X74035000Y-102400000D01*
X45935000Y-102440000D02*
X74065000Y-102440000D01*
X45905000Y-102480000D02*
X74095000Y-102480000D01*
X45875000Y-102520000D02*
X74125000Y-102520000D01*
X45845000Y-102560000D02*
X74155000Y-102560000D01*
X45816000Y-102600000D02*
X74184000Y-102600000D01*
X45787000Y-102640000D02*
X74213000Y-102640000D01*
X45758000Y-102680000D02*
X74242000Y-102680000D01*
X45729000Y-102720000D02*
X74271000Y-102720000D01*
X45701000Y-102760000D02*
X74299000Y-102760000D01*
X45672000Y-102800000D02*
X74328000Y-102800000D01*
X45644000Y-102840000D02*
X74356000Y-102840000D01*
X45616000Y-102880000D02*
X74384000Y-102880000D01*
X45588000Y-102920000D02*
X74412000Y-102920000D01*
X45560000Y-102960000D02*
X74440000Y-102960000D01*
X45532000Y-103000000D02*
X74468000Y-103000000D01*
X45505000Y-103040000D02*
X74495000Y-103040000D01*
X45477000Y-103080000D02*
X74523000Y-103080000D01*
X45450000Y-103120000D02*
X74550000Y-103120000D01*
X45423000Y-103160000D02*
X74577000Y-103160000D01*
X45396000Y-103200000D02*
X74604000Y-103200000D01*
X45370000Y-103240000D02*
X74630000Y-103240000D01*
X45343000Y-103280000D02*
X74657000Y-103280000D01*
X45317000Y-103320000D02*
X74683000Y-103320000D01*
X45290000Y-103360000D02*
X74710000Y-103360000D01*
X45264000Y-103400000D02*
X74736000Y-103400000D01*
X45238000Y-103440000D02*
X74762000Y-103440000D01*
X45213000Y-103480000D02*
X74787000Y-103480000D01*
X45187000Y-103520000D02*
X74813000Y-103520000D01*
X45162000Y-103560000D02*
X74838000Y-103560000D01*
X45136000Y-103600000D02*
X74864000Y-103600000D01*
X45111000Y-103640000D02*
X74889000Y-103640000D01*
X45086000Y-103680000D02*
X74914000Y-103680000D01*
X45061000Y-103720000D02*
X74939000Y-103720000D01*
X45037000Y-103760000D02*
X74963000Y-103760000D01*
X45012000Y-103800000D02*
X74988000Y-103800000D01*
X44988000Y-103840000D02*
X75012000Y-103840000D01*
X44963000Y-103880000D02*
X75037000Y-103880000D01*
X44939000Y-103920000D02*
X75061000Y-103920000D01*
X44915000Y-103960000D02*
X75085000Y-103960000D01*
X44891000Y-104000000D02*
X75109000Y-104000000D01*
X44868000Y-104040000D02*
X75132000Y-104040000D01*
X44844000Y-104080000D02*
X75156000Y-104080000D01*
X44821000Y-104120000D02*
X75179000Y-104120000D01*
X44797000Y-104160000D02*
X75203000Y-104160000D01*
X44774000Y-104200000D02*
X75226000Y-104200000D01*
X44751000Y-104240000D02*
X75249000Y-104240000D01*
X44729000Y-104280000D02*
X75271000Y-104280000D01*
X44706000Y-104320000D02*
X75294000Y-104320000D01*
X44683000Y-104360000D02*
X75317000Y-104360000D01*
X44661000Y-104400000D02*
X75339000Y-104400000D01*
X44639000Y-104440000D02*
X75361000Y-104440000D01*
X44616000Y-104480000D02*
X75384000Y-104480000D01*
X44594000Y-104520000D02*
X75406000Y-104520000D01*
X44572000Y-104560000D02*
X75428000Y-104560000D01*
X44551000Y-104600000D02*
X75449000Y-104600000D01*
X44529000Y-104640000D02*
X75471000Y-104640000D01*
X44508000Y-104680000D02*
X75492000Y-104680000D01*
X44486000Y-104720000D02*
X75514000Y-104720000D01*
X44465000Y-104760000D02*
X75535000Y-104760000D01*
X44444000Y-104800000D02*
X75556000Y-104800000D01*
X44423000Y-104839000D02*
X75577000Y-104839000D01*
X44402000Y-104879000D02*
X75598000Y-104879000D01*
X44381000Y-104919000D02*
X75619000Y-104919000D01*
X44361000Y-104959000D02*
X75639000Y-104959000D01*
X44340000Y-104999000D02*
X75660000Y-104999000D01*
X44320000Y-105039000D02*
X75680000Y-105039000D01*
X44300000Y-105079000D02*
X75700000Y-105079000D01*
X44280000Y-105119000D02*
X75720000Y-105119000D01*
X44260000Y-105159000D02*
X75740000Y-105159000D01*
X44240000Y-105199000D02*
X75760000Y-105199000D01*
X44220000Y-105239000D02*
X75780000Y-105239000D01*
X44201000Y-105279000D02*
X75799000Y-105279000D01*
X44181000Y-105319000D02*
X75819000Y-105319000D01*
X44162000Y-105359000D02*
X75838000Y-105359000D01*
X44143000Y-105399000D02*
X75857000Y-105399000D01*
X44124000Y-105439000D02*
X75876000Y-105439000D01*
X44105000Y-105479000D02*
X75895000Y-105479000D01*
X44086000Y-105519000D02*
X75914000Y-105519000D01*
X44067000Y-105559000D02*
X75933000Y-105559000D01*
X44049000Y-105599000D02*
X75951000Y-105599000D01*
X44030000Y-105639000D02*
X75970000Y-105639000D01*
X44012000Y-105679000D02*
X75988000Y-105679000D01*
X43994000Y-105719000D02*
X76006000Y-105719000D01*
X43976000Y-105759000D02*
X76024000Y-105759000D01*
X62240000Y-105799000D02*
X76042000Y-105799000D01*
X43958000Y-105799000D02*
X57760000Y-105799000D01*
X62240000Y-105839000D02*
X76060000Y-105839000D01*
X43940000Y-105839000D02*
X57760000Y-105839000D01*
X62240000Y-105879000D02*
X76078000Y-105879000D01*
X43922000Y-105879000D02*
X57760000Y-105879000D01*
X62240000Y-105919000D02*
X76095000Y-105919000D01*
X43905000Y-105919000D02*
X57760000Y-105919000D01*
X62240000Y-105959000D02*
X76113000Y-105959000D01*
X43887000Y-105959000D02*
X57760000Y-105959000D01*
X62240000Y-105999000D02*
X76130000Y-105999000D01*
X43870000Y-105999000D02*
X57760000Y-105999000D01*
X62240000Y-106039000D02*
X76148000Y-106039000D01*
X43852000Y-106039000D02*
X57760000Y-106039000D01*
X62240000Y-106079000D02*
X76165000Y-106079000D01*
X43835000Y-106079000D02*
X57760000Y-106079000D01*
X62240000Y-106119000D02*
X76182000Y-106119000D01*
X43818000Y-106119000D02*
X57760000Y-106119000D01*
X62240000Y-106159000D02*
X76199000Y-106159000D01*
X43801000Y-106159000D02*
X57760000Y-106159000D01*
X62240000Y-106199000D02*
X76215000Y-106199000D01*
X43785000Y-106199000D02*
X57760000Y-106199000D01*
X62240000Y-106239000D02*
X76232000Y-106239000D01*
X43768000Y-106239000D02*
X57760000Y-106239000D01*
X62240000Y-106279000D02*
X76249000Y-106279000D01*
X43751000Y-106279000D02*
X57760000Y-106279000D01*
X62240000Y-106319000D02*
X76265000Y-106319000D01*
X43735000Y-106319000D02*
X57760000Y-106319000D01*
X62240000Y-106359000D02*
X76281000Y-106359000D01*
X43719000Y-106359000D02*
X57760000Y-106359000D01*
X62240000Y-106399000D02*
X76298000Y-106399000D01*
X43702000Y-106399000D02*
X57760000Y-106399000D01*
X62240000Y-106439000D02*
X76314000Y-106439000D01*
X43686000Y-106439000D02*
X57760000Y-106439000D01*
X62240000Y-106479000D02*
X76330000Y-106479000D01*
X43670000Y-106479000D02*
X57760000Y-106479000D01*
X62240000Y-106519000D02*
X76346000Y-106519000D01*
X43654000Y-106519000D02*
X57760000Y-106519000D01*
X62240000Y-106559000D02*
X76361000Y-106559000D01*
X43639000Y-106559000D02*
X57760000Y-106559000D01*
X62240000Y-106599000D02*
X76377000Y-106599000D01*
X43623000Y-106599000D02*
X57760000Y-106599000D01*
X62240000Y-106639000D02*
X76393000Y-106639000D01*
X43607000Y-106639000D02*
X57760000Y-106639000D01*
X62240000Y-106679000D02*
X76408000Y-106679000D01*
X43592000Y-106679000D02*
X57760000Y-106679000D01*
X62240000Y-106719000D02*
X76423000Y-106719000D01*
X43577000Y-106719000D02*
X57760000Y-106719000D01*
X62240000Y-106759000D02*
X76439000Y-106759000D01*
X43561000Y-106759000D02*
X57760000Y-106759000D01*
X62240000Y-106799000D02*
X76454000Y-106799000D01*
X43546000Y-106799000D02*
X57760000Y-106799000D01*
X62240000Y-106839000D02*
X76469000Y-106839000D01*
X43531000Y-106839000D02*
X57760000Y-106839000D01*
X62240000Y-106879000D02*
X76484000Y-106879000D01*
X43516000Y-106879000D02*
X57760000Y-106879000D01*
X62240000Y-106919000D02*
X76498000Y-106919000D01*
X43502000Y-106919000D02*
X57760000Y-106919000D01*
X62240000Y-106959000D02*
X76513000Y-106959000D01*
X43487000Y-106959000D02*
X57760000Y-106959000D01*
X62240000Y-106999000D02*
X76527000Y-106999000D01*
X43473000Y-106999000D02*
X57760000Y-106999000D01*
X62240000Y-107039000D02*
X76542000Y-107039000D01*
X43458000Y-107039000D02*
X57760000Y-107039000D01*
X62240000Y-107079000D02*
X76556000Y-107079000D01*
X43444000Y-107079000D02*
X57760000Y-107079000D01*
X62240000Y-107119000D02*
X76570000Y-107119000D01*
X43430000Y-107119000D02*
X57760000Y-107119000D01*
X62240000Y-107159000D02*
X76585000Y-107159000D01*
X43415000Y-107159000D02*
X57760000Y-107159000D01*
X62240000Y-107199000D02*
X76599000Y-107199000D01*
X43401000Y-107199000D02*
X57760000Y-107199000D01*
X62240000Y-107239000D02*
X76612000Y-107239000D01*
X43388000Y-107239000D02*
X57760000Y-107239000D01*
X62240000Y-107279000D02*
X76626000Y-107279000D01*
X43374000Y-107279000D02*
X57760000Y-107279000D01*
X62240000Y-107319000D02*
X76640000Y-107319000D01*
X43360000Y-107319000D02*
X57760000Y-107319000D01*
X62240000Y-107359000D02*
X76653000Y-107359000D01*
X43347000Y-107359000D02*
X57760000Y-107359000D01*
X62240000Y-107399000D02*
X76667000Y-107399000D01*
X43333000Y-107399000D02*
X57760000Y-107399000D01*
X62240000Y-107439000D02*
X76680000Y-107439000D01*
X43320000Y-107439000D02*
X57760000Y-107439000D01*
X62240000Y-107479000D02*
X76694000Y-107479000D01*
X43306000Y-107479000D02*
X57760000Y-107479000D01*
X62240000Y-107519000D02*
X76707000Y-107519000D01*
X43293000Y-107519000D02*
X57760000Y-107519000D01*
X62240000Y-107559000D02*
X76720000Y-107559000D01*
X43280000Y-107559000D02*
X57760000Y-107559000D01*
X62240000Y-107599000D02*
X76733000Y-107599000D01*
X43267000Y-107599000D02*
X57760000Y-107599000D01*
X62240000Y-107639000D02*
X76745000Y-107639000D01*
X43255000Y-107639000D02*
X57760000Y-107639000D01*
X62240000Y-107679000D02*
X76758000Y-107679000D01*
X43242000Y-107679000D02*
X57760000Y-107679000D01*
X62240000Y-107719000D02*
X76771000Y-107719000D01*
X43229000Y-107719000D02*
X57760000Y-107719000D01*
X62240000Y-107759000D02*
X76783000Y-107759000D01*
X43217000Y-107759000D02*
X57760000Y-107759000D01*
X62240000Y-107799000D02*
X76796000Y-107799000D01*
X43204000Y-107799000D02*
X57760000Y-107799000D01*
X62240000Y-107839000D02*
X76808000Y-107839000D01*
X43192000Y-107839000D02*
X57760000Y-107839000D01*
X62240000Y-107879000D02*
X76820000Y-107879000D01*
X43180000Y-107879000D02*
X57760000Y-107879000D01*
X62240000Y-107919000D02*
X76832000Y-107919000D01*
X43168000Y-107919000D02*
X57760000Y-107919000D01*
X62240000Y-107959000D02*
X76844000Y-107959000D01*
X43156000Y-107959000D02*
X57760000Y-107959000D01*
X62240000Y-107999000D02*
X76856000Y-107999000D01*
X43144000Y-107999000D02*
X57760000Y-107999000D01*
X62240000Y-108039000D02*
X76868000Y-108039000D01*
X43132000Y-108039000D02*
X57760000Y-108039000D01*
X62240000Y-108079000D02*
X76880000Y-108079000D01*
X43120000Y-108079000D02*
X57760000Y-108079000D01*
X62240000Y-108119000D02*
X76891000Y-108119000D01*
X43109000Y-108119000D02*
X57760000Y-108119000D01*
X62240000Y-108159000D02*
X76903000Y-108159000D01*
X43097000Y-108159000D02*
X57760000Y-108159000D01*
X62240000Y-108199000D02*
X76914000Y-108199000D01*
X43086000Y-108199000D02*
X57760000Y-108199000D01*
X62240000Y-108239000D02*
X76925000Y-108239000D01*
X43075000Y-108239000D02*
X57760000Y-108239000D01*
X62240000Y-108279000D02*
X76937000Y-108279000D01*
X43063000Y-108279000D02*
X57760000Y-108279000D01*
X62240000Y-108319000D02*
X76948000Y-108319000D01*
X43052000Y-108319000D02*
X57760000Y-108319000D01*
X62240000Y-108359000D02*
X76959000Y-108359000D01*
X43041000Y-108359000D02*
X57760000Y-108359000D01*
X62240000Y-108399000D02*
X76969000Y-108399000D01*
X43031000Y-108399000D02*
X57760000Y-108399000D01*
X62240000Y-108439000D02*
X76980000Y-108439000D01*
X43020000Y-108439000D02*
X57760000Y-108439000D01*
X62240000Y-108479000D02*
X76991000Y-108479000D01*
X43009000Y-108479000D02*
X57760000Y-108479000D01*
X62240000Y-108519000D02*
X77001000Y-108519000D01*
X42999000Y-108519000D02*
X57760000Y-108519000D01*
X62240000Y-108559000D02*
X77012000Y-108559000D01*
X42988000Y-108559000D02*
X57760000Y-108559000D01*
X62240000Y-108599000D02*
X77022000Y-108599000D01*
X42978000Y-108599000D02*
X57760000Y-108599000D01*
X62240000Y-108639000D02*
X77033000Y-108639000D01*
X42967000Y-108639000D02*
X57760000Y-108639000D01*
X62240000Y-108679000D02*
X77043000Y-108679000D01*
X42957000Y-108679000D02*
X57760000Y-108679000D01*
X62240000Y-108719000D02*
X77053000Y-108719000D01*
X42947000Y-108719000D02*
X57760000Y-108719000D01*
X62240000Y-108759000D02*
X77063000Y-108759000D01*
X42937000Y-108759000D02*
X57760000Y-108759000D01*
X62240000Y-108799000D02*
X77073000Y-108799000D01*
X42927000Y-108799000D02*
X57760000Y-108799000D01*
X62240000Y-108839000D02*
X77082000Y-108839000D01*
X42918000Y-108839000D02*
X57760000Y-108839000D01*
X62240000Y-108879000D02*
X77092000Y-108879000D01*
X42908000Y-108879000D02*
X57760000Y-108879000D01*
X62240000Y-108919000D02*
X77102000Y-108919000D01*
X42898000Y-108919000D02*
X57760000Y-108919000D01*
X62240000Y-108959000D02*
X77111000Y-108959000D01*
X42889000Y-108959000D02*
X57760000Y-108959000D01*
X62240000Y-108999000D02*
X77120000Y-108999000D01*
X42880000Y-108999000D02*
X57760000Y-108999000D01*
X62240000Y-109039000D02*
X77130000Y-109039000D01*
X42870000Y-109039000D02*
X57760000Y-109039000D01*
X62240000Y-109079000D02*
X77139000Y-109079000D01*
X42861000Y-109079000D02*
X57760000Y-109079000D01*
X62240000Y-109119000D02*
X77148000Y-109119000D01*
X42852000Y-109119000D02*
X57760000Y-109119000D01*
X62240000Y-109159000D02*
X77157000Y-109159000D01*
X42843000Y-109159000D02*
X57760000Y-109159000D01*
X62240000Y-109199000D02*
X77166000Y-109199000D01*
X42834000Y-109199000D02*
X57760000Y-109199000D01*
X62240000Y-109239000D02*
X77175000Y-109239000D01*
X42825000Y-109239000D02*
X57760000Y-109239000D01*
X62240000Y-109279000D02*
X77183000Y-109279000D01*
X42817000Y-109279000D02*
X57760000Y-109279000D01*
X62240000Y-109319000D02*
X77192000Y-109319000D01*
X42808000Y-109319000D02*
X57760000Y-109319000D01*
X62240000Y-109359000D02*
X77200000Y-109359000D01*
X42800000Y-109359000D02*
X57760000Y-109359000D01*
X62240000Y-109399000D02*
X77209000Y-109399000D01*
X42791000Y-109399000D02*
X57760000Y-109399000D01*
X62240000Y-109439000D02*
X77217000Y-109439000D01*
X42783000Y-109439000D02*
X57760000Y-109439000D01*
X62240000Y-109479000D02*
X77225000Y-109479000D01*
X42775000Y-109479000D02*
X57760000Y-109479000D01*
X62240000Y-109519000D02*
X77233000Y-109519000D01*
X42767000Y-109519000D02*
X57760000Y-109519000D01*
X62240000Y-109559000D02*
X77241000Y-109559000D01*
X42759000Y-109559000D02*
X57760000Y-109559000D01*
X62240000Y-109599000D02*
X77249000Y-109599000D01*
X42751000Y-109599000D02*
X57760000Y-109599000D01*
X62240000Y-109639000D02*
X77257000Y-109639000D01*
X42743000Y-109639000D02*
X57760000Y-109639000D01*
X62240000Y-109679000D02*
X77265000Y-109679000D01*
X42735000Y-109679000D02*
X57760000Y-109679000D01*
X62240000Y-109719000D02*
X77273000Y-109719000D01*
X42727000Y-109719000D02*
X57760000Y-109719000D01*
X62240000Y-109759000D02*
X77280000Y-109759000D01*
X42720000Y-109759000D02*
X57760000Y-109759000D01*
X62240000Y-109799000D02*
X77287000Y-109799000D01*
X42713000Y-109799000D02*
X57760000Y-109799000D01*
X62240000Y-109839000D02*
X77295000Y-109839000D01*
X42705000Y-109839000D02*
X57760000Y-109839000D01*
X62240000Y-109879000D02*
X77302000Y-109879000D01*
X42698000Y-109879000D02*
X57760000Y-109879000D01*
X62240000Y-109919000D02*
X77309000Y-109919000D01*
X42691000Y-109919000D02*
X57760000Y-109919000D01*
X62240000Y-109959000D02*
X77316000Y-109959000D01*
X42684000Y-109959000D02*
X57760000Y-109959000D01*
X62240000Y-109999000D02*
X77323000Y-109999000D01*
X42677000Y-109999000D02*
X57760000Y-109999000D01*
X62240000Y-110039000D02*
X77330000Y-110039000D01*
X42670000Y-110039000D02*
X57760000Y-110039000D01*
X62240000Y-110079000D02*
X77337000Y-110079000D01*
X42663000Y-110079000D02*
X57760000Y-110079000D01*
X62240000Y-110119000D02*
X77344000Y-110119000D01*
X42656000Y-110119000D02*
X57760000Y-110119000D01*
X62240000Y-110159000D02*
X77350000Y-110159000D01*
X42650000Y-110159000D02*
X57760000Y-110159000D01*
X62240000Y-110199000D02*
X77357000Y-110199000D01*
X42643000Y-110199000D02*
X57760000Y-110199000D01*
X62240000Y-110239000D02*
X77363000Y-110239000D01*
X42637000Y-110239000D02*
X57760000Y-110239000D01*
X42631000Y-110279000D02*
X77369000Y-110279000D01*
X42625000Y-110319000D02*
X77375000Y-110319000D01*
X42618000Y-110359000D02*
X77382000Y-110359000D01*
X42612000Y-110399000D02*
X77388000Y-110399000D01*
X42606000Y-110439000D02*
X77394000Y-110439000D01*
X42601000Y-110479000D02*
X77399000Y-110479000D01*
X42595000Y-110519000D02*
X77405000Y-110519000D01*
X42589000Y-110559000D02*
X77411000Y-110559000D01*
X42584000Y-110599000D02*
X77416000Y-110599000D01*
X42578000Y-110639000D02*
X77422000Y-110639000D01*
X42573000Y-110679000D02*
X77427000Y-110679000D01*
X42568000Y-110719000D02*
X77432000Y-110719000D01*
X42562000Y-110759000D02*
X77438000Y-110759000D01*
X42557000Y-110799000D02*
X77443000Y-110799000D01*
X42552000Y-110839000D02*
X77448000Y-110839000D01*
X42548000Y-110879000D02*
X77452000Y-110879000D01*
X42543000Y-110919000D02*
X77457000Y-110919000D01*
X42538000Y-110959000D02*
X77462000Y-110959000D01*
X42533000Y-110999000D02*
X77467000Y-110999000D01*
X42529000Y-111039000D02*
X77471000Y-111039000D01*
X42524000Y-111079000D02*
X77476000Y-111079000D01*
X42520000Y-111119000D02*
X77480000Y-111119000D01*
X42516000Y-111159000D02*
X77484000Y-111159000D01*
X42512000Y-111199000D02*
X77488000Y-111199000D01*
X42508000Y-111239000D02*
X77492000Y-111239000D01*
X42504000Y-111279000D02*
X77496000Y-111279000D01*
X42500000Y-111319000D02*
X77500000Y-111319000D01*
X42496000Y-111359000D02*
X77504000Y-111359000D01*
X42492000Y-111399000D02*
X77508000Y-111399000D01*
X42489000Y-111439000D02*
X77511000Y-111439000D01*
X42485000Y-111479000D02*
X77515000Y-111479000D01*
X42482000Y-111519000D02*
X77518000Y-111519000D01*
X42478000Y-111559000D02*
X77522000Y-111559000D01*
X42475000Y-111599000D02*
X77525000Y-111599000D01*
X42472000Y-111639000D02*
X77528000Y-111639000D01*
X42469000Y-111679000D02*
X77531000Y-111679000D01*
X42466000Y-111719000D02*
X77534000Y-111719000D01*
X42463000Y-111759000D02*
X77537000Y-111759000D01*
X42460000Y-111799000D02*
X77540000Y-111799000D01*
X42458000Y-111839000D02*
X77542000Y-111839000D01*
X42455000Y-111879000D02*
X77545000Y-111879000D01*
X42453000Y-111919000D02*
X77547000Y-111919000D01*
X42450000Y-111959000D02*
X77550000Y-111959000D01*
X42448000Y-111999000D02*
X77552000Y-111999000D01*
X42446000Y-112039000D02*
X77554000Y-112039000D01*
X42444000Y-112079000D02*
X77556000Y-112079000D01*
X42441000Y-112119000D02*
X77559000Y-112119000D01*
X42440000Y-112159000D02*
X77560000Y-112159000D01*
X42438000Y-112199000D02*
X77562000Y-112199000D01*
X42436000Y-112239000D02*
X77564000Y-112239000D01*
X42434000Y-112279000D02*
X77566000Y-112279000D01*
X42433000Y-112320000D02*
X77567000Y-112320000D01*
X42431000Y-112360000D02*
X77569000Y-112360000D01*
X42430000Y-112400000D02*
X77570000Y-112400000D01*
X42428000Y-112440000D02*
X77572000Y-112440000D01*
X42427000Y-112480000D02*
X77573000Y-112480000D01*
X42426000Y-112520000D02*
X77574000Y-112520000D01*
X42425000Y-112560000D02*
X77575000Y-112560000D01*
X42424000Y-112600000D02*
X77576000Y-112600000D01*
X42423000Y-112640000D02*
X77577000Y-112640000D01*
X42422000Y-112680000D02*
X77578000Y-112680000D01*
X42422000Y-112720000D02*
X77578000Y-112720000D01*
X42421000Y-112760000D02*
X77579000Y-112760000D01*
X42421000Y-112800000D02*
X77579000Y-112800000D01*
X42420000Y-112840000D02*
X77580000Y-112840000D01*
X42420000Y-112880000D02*
X77580000Y-112880000D01*
X42420000Y-112920000D02*
X77580000Y-112920000D01*
X42420000Y-112960000D02*
X77580000Y-112960000D01*
X42420000Y-113000000D02*
X77580000Y-113000000D01*
X77620000Y-113000000D02*
G75*
G03*
X77620000Y-113000000I-17620000J0D01*
G01*
%TO.C,C6*%
X40880000Y-97780000D02*
X43620000Y-97780000D01*
X40880000Y-105220000D02*
X43620000Y-105220000D01*
X43620000Y-105220000D02*
X43620000Y-97780000D01*
X40880000Y-105220000D02*
X40880000Y-97780000D01*
%TO.C,C5*%
X38720000Y-112880000D02*
X38720000Y-115620000D01*
X31280000Y-112880000D02*
X31280000Y-115620000D01*
X31280000Y-115620000D02*
X38720000Y-115620000D01*
X31280000Y-112880000D02*
X38720000Y-112880000D01*
%TO.C,C4*%
X31280000Y-79870000D02*
X31280000Y-77130000D01*
X38720000Y-79870000D02*
X38720000Y-77130000D01*
X38720000Y-77130000D02*
X31280000Y-77130000D01*
X38720000Y-79870000D02*
X31280000Y-79870000D01*
%TO.C,C3*%
X40880000Y-85030000D02*
X43620000Y-85030000D01*
X40880000Y-92470000D02*
X43620000Y-92470000D01*
X43620000Y-92470000D02*
X43620000Y-85030000D01*
X40880000Y-92470000D02*
X40880000Y-85030000D01*
%TO.C,J12*%
X136450000Y-83750000D02*
G75*
G03*
X136450000Y-83750000I-1410000J0D01*
G01*
X131350000Y-83750000D02*
G75*
G03*
X131350000Y-83750000I-1390000J0D01*
G01*
%TO.C,J11*%
X136450000Y-76250000D02*
G75*
G03*
X136450000Y-76250000I-1410000J0D01*
G01*
X131350000Y-76250000D02*
G75*
G03*
X131350000Y-76250000I-1390000J0D01*
G01*
%TO.C,J10*%
X136450000Y-98750000D02*
G75*
G03*
X136450000Y-98750000I-1410000J0D01*
G01*
X131350000Y-98750000D02*
G75*
G03*
X131350000Y-98750000I-1390000J0D01*
G01*
%TO.C,J9*%
X136450000Y-91250000D02*
G75*
G03*
X136450000Y-91250000I-1410000J0D01*
G01*
X131350000Y-91250000D02*
G75*
G03*
X131350000Y-91250000I-1390000J0D01*
G01*
%TO.C,J8*%
X136450000Y-106250000D02*
G75*
G03*
X136450000Y-106250000I-1410000J0D01*
G01*
X131350000Y-106250000D02*
G75*
G03*
X131350000Y-106250000I-1390000J0D01*
G01*
%TO.C,J7*%
X136450000Y-113750000D02*
G75*
G03*
X136450000Y-113750000I-1410000J0D01*
G01*
X131350000Y-113750000D02*
G75*
G03*
X131350000Y-113750000I-1390000J0D01*
G01*
%TO.C,J4*%
X33950000Y-85000000D02*
G75*
G03*
X33950000Y-85000000I-1410000J0D01*
G01*
X28850000Y-85000000D02*
G75*
G03*
X28850000Y-85000000I-1390000J0D01*
G01*
%TO.C,J3*%
X33950000Y-98750000D02*
G75*
G03*
X33950000Y-98750000I-1410000J0D01*
G01*
X28850000Y-98750000D02*
G75*
G03*
X28850000Y-98750000I-1390000J0D01*
G01*
%TO.C,J2*%
X33950000Y-91250000D02*
G75*
G03*
X33950000Y-91250000I-1410000J0D01*
G01*
X28850000Y-91250000D02*
G75*
G03*
X28850000Y-91250000I-1390000J0D01*
G01*
%TO.C,J1*%
X33950000Y-105000000D02*
G75*
G03*
X33950000Y-105000000I-1410000J0D01*
G01*
X28850000Y-105000000D02*
G75*
G03*
X28850000Y-105000000I-1390000J0D01*
G01*
%TO.C,C2*%
X38720000Y-73880000D02*
X38720000Y-76620000D01*
X31280000Y-73880000D02*
X31280000Y-76620000D01*
X31280000Y-76620000D02*
X38720000Y-76620000D01*
X31280000Y-73880000D02*
X38720000Y-73880000D01*
%TO.C,C1*%
X38720000Y-116130000D02*
X38720000Y-118870000D01*
X31280000Y-116130000D02*
X31280000Y-118870000D01*
X31280000Y-118870000D02*
X38720000Y-118870000D01*
X31280000Y-116130000D02*
X38720000Y-116130000D01*
%TO.C,J6*%
X121555000Y-65000000D02*
G75*
G03*
X121555000Y-65000000I-1555000J0D01*
G01*
X125310000Y-62800000D02*
X118190000Y-62800000D01*
X125310000Y-67860000D02*
X118190000Y-67860000D01*
X125310000Y-61240000D02*
X118190000Y-61240000D01*
X125310000Y-67860000D02*
X125310000Y-61240000D01*
X118190000Y-67860000D02*
X118190000Y-61240000D01*
X118820000Y-65990000D02*
X118896000Y-65914000D01*
X120935000Y-63875000D02*
X120989000Y-63820000D01*
X119010000Y-66180000D02*
X119064000Y-66126000D01*
X121103000Y-64086000D02*
X121179000Y-64010000D01*
X125550000Y-62740000D02*
X125550000Y-61000000D01*
X125550000Y-61000000D02*
X124050000Y-61000000D01*
X123473556Y-63444319D02*
G75*
G02*
X124207000Y-63614000I26444J-1555681D01*
G01*
X124886645Y-64294267D02*
G75*
G02*
X124886000Y-65707000I-1386645J-705733D01*
G01*
X124205733Y-66386645D02*
G75*
G02*
X122793000Y-66386000I-705733J1386645D01*
G01*
X122113355Y-65705733D02*
G75*
G02*
X122114000Y-64293000I1386645J705733D01*
G01*
X122794045Y-63614485D02*
G75*
G02*
X123500000Y-63445000I705955J-1385515D01*
G01*
%TO.C,J5*%
X125055000Y-125000000D02*
G75*
G03*
X125055000Y-125000000I-1555000J0D01*
G01*
X118190000Y-127200000D02*
X125310000Y-127200000D01*
X118190000Y-122140000D02*
X125310000Y-122140000D01*
X118190000Y-128760000D02*
X125310000Y-128760000D01*
X118190000Y-122140000D02*
X118190000Y-128760000D01*
X125310000Y-122140000D02*
X125310000Y-128760000D01*
X124680000Y-124010000D02*
X124604000Y-124086000D01*
X122565000Y-126125000D02*
X122511000Y-126180000D01*
X124490000Y-123820000D02*
X124436000Y-123874000D01*
X122397000Y-125914000D02*
X122321000Y-125990000D01*
X117950000Y-127260000D02*
X117950000Y-129000000D01*
X117950000Y-129000000D02*
X119450000Y-129000000D01*
X120026444Y-126555681D02*
G75*
G02*
X119293000Y-126386000I-26444J1555681D01*
G01*
X118613355Y-125705733D02*
G75*
G02*
X118614000Y-124293000I1386645J705733D01*
G01*
X119294267Y-123613355D02*
G75*
G02*
X120707000Y-123614000I705733J-1386645D01*
G01*
X121386645Y-124294267D02*
G75*
G02*
X121386000Y-125707000I-1386645J-705733D01*
G01*
X120705955Y-126385515D02*
G75*
G02*
X120000000Y-126555000I-705955J1385515D01*
G01*
%TO.C,R6*%
X119380000Y-89690000D02*
X122120000Y-89690000D01*
X122120000Y-89690000D02*
X122120000Y-83150000D01*
X122120000Y-83150000D02*
X119380000Y-83150000D01*
X119380000Y-83150000D02*
X119380000Y-89690000D01*
X120750000Y-90460000D02*
X120750000Y-89690000D01*
X120750000Y-82380000D02*
X120750000Y-83150000D01*
%TO.C,R5*%
X119380000Y-116940000D02*
X122120000Y-116940000D01*
X122120000Y-116940000D02*
X122120000Y-110400000D01*
X122120000Y-110400000D02*
X119380000Y-110400000D01*
X119380000Y-110400000D02*
X119380000Y-116940000D01*
X120750000Y-117710000D02*
X120750000Y-116940000D01*
X120750000Y-109630000D02*
X120750000Y-110400000D01*
%TO.C,R4*%
X122630000Y-89690000D02*
X125370000Y-89690000D01*
X125370000Y-89690000D02*
X125370000Y-83150000D01*
X125370000Y-83150000D02*
X122630000Y-83150000D01*
X122630000Y-83150000D02*
X122630000Y-89690000D01*
X124000000Y-90460000D02*
X124000000Y-89690000D01*
X124000000Y-82380000D02*
X124000000Y-83150000D01*
%TO.C,R3*%
X125370000Y-110310000D02*
X122630000Y-110310000D01*
X122630000Y-110310000D02*
X122630000Y-116850000D01*
X122630000Y-116850000D02*
X125370000Y-116850000D01*
X125370000Y-116850000D02*
X125370000Y-110310000D01*
X124000000Y-109540000D02*
X124000000Y-110310000D01*
X124000000Y-117620000D02*
X124000000Y-116850000D01*
%TO.C,R2*%
X116130000Y-79440000D02*
X118870000Y-79440000D01*
X118870000Y-79440000D02*
X118870000Y-72900000D01*
X118870000Y-72900000D02*
X116130000Y-72900000D01*
X116130000Y-72900000D02*
X116130000Y-79440000D01*
X117500000Y-80210000D02*
X117500000Y-79440000D01*
X117500000Y-72130000D02*
X117500000Y-72900000D01*
%TO.C,R1*%
X116130000Y-106690000D02*
X118870000Y-106690000D01*
X118870000Y-106690000D02*
X118870000Y-100150000D01*
X118870000Y-100150000D02*
X116130000Y-100150000D01*
X116130000Y-100150000D02*
X116130000Y-106690000D01*
X117500000Y-107460000D02*
X117500000Y-106690000D01*
X117500000Y-99380000D02*
X117500000Y-100150000D01*
%TO.C,D3*%
X119790000Y-75750000D02*
X119790000Y-78610000D01*
X119790000Y-78610000D02*
X121710000Y-78610000D01*
X121710000Y-78610000D02*
X121710000Y-75750000D01*
%TO.C,D2*%
X119790000Y-103500000D02*
X119790000Y-106360000D01*
X119790000Y-106360000D02*
X121710000Y-106360000D01*
X121710000Y-106360000D02*
X121710000Y-103500000D01*
D12*
%TO.C,D1*%
X40850000Y-108850000D02*
X40850000Y-108850000D01*
X40850000Y-108750000D02*
X40850000Y-108750000D01*
X40850000Y-108850000D02*
X40850000Y-108850000D01*
D13*
X40500000Y-111500000D02*
X35500000Y-111500000D01*
X40500000Y-81000000D02*
X40500000Y-111500000D01*
X35500000Y-81000000D02*
X40500000Y-81000000D01*
X35500000Y-111500000D02*
X35500000Y-81000000D01*
D12*
X40850000Y-108750000D02*
G75*
G02*
X40850000Y-108850000I0J-50000D01*
G01*
X40850000Y-108850000D02*
G75*
G02*
X40850000Y-108750000I0J50000D01*
G01*
X40850000Y-108750000D02*
G75*
G02*
X40850000Y-108850000I0J-50000D01*
G01*
D11*
%TO.C,C12*%
X116130000Y-90970000D02*
X116130000Y-83530000D01*
X118870000Y-90970000D02*
X118870000Y-83530000D01*
X116130000Y-90970000D02*
X118870000Y-90970000D01*
X116130000Y-83530000D02*
X118870000Y-83530000D01*
%TO.C,C11*%
X116130000Y-117470000D02*
X116130000Y-110030000D01*
X118870000Y-117470000D02*
X118870000Y-110030000D01*
X116130000Y-117470000D02*
X118870000Y-117470000D01*
X116130000Y-110030000D02*
X118870000Y-110030000D01*
%TO.C,C10*%
D10*
X81107142Y-64892857D02*
X81154761Y-64940476D01*
X81202380Y-65083333D01*
X81202380Y-65178571D01*
X81154761Y-65321428D01*
X81059523Y-65416666D01*
X80964285Y-65464285D01*
X80773809Y-65511904D01*
X80630952Y-65511904D01*
X80440476Y-65464285D01*
X80345238Y-65416666D01*
X80250000Y-65321428D01*
X80202380Y-65178571D01*
X80202380Y-65083333D01*
X80250000Y-64940476D01*
X80297619Y-64892857D01*
X81202380Y-63940476D02*
X81202380Y-64511904D01*
X81202380Y-64226190D02*
X80202380Y-64226190D01*
X80345238Y-64321428D01*
X80440476Y-64416666D01*
X80488095Y-64511904D01*
X80202380Y-63321428D02*
X80202380Y-63226190D01*
X80250000Y-63130952D01*
X80297619Y-63083333D01*
X80392857Y-63035714D01*
X80583333Y-62988095D01*
X80821428Y-62988095D01*
X81011904Y-63035714D01*
X81107142Y-63083333D01*
X81154761Y-63130952D01*
X81202380Y-63226190D01*
X81202380Y-63321428D01*
X81154761Y-63416666D01*
X81107142Y-63464285D01*
X81011904Y-63511904D01*
X80821428Y-63559523D01*
X80583333Y-63559523D01*
X80392857Y-63511904D01*
X80297619Y-63464285D01*
X80250000Y-63416666D01*
X80202380Y-63321428D01*
%TO.C,C9*%
X80107142Y-123416666D02*
X80154761Y-123464285D01*
X80202380Y-123607142D01*
X80202380Y-123702380D01*
X80154761Y-123845238D01*
X80059523Y-123940476D01*
X79964285Y-123988095D01*
X79773809Y-124035714D01*
X79630952Y-124035714D01*
X79440476Y-123988095D01*
X79345238Y-123940476D01*
X79250000Y-123845238D01*
X79202380Y-123702380D01*
X79202380Y-123607142D01*
X79250000Y-123464285D01*
X79297619Y-123416666D01*
X80202380Y-122940476D02*
X80202380Y-122750000D01*
X80154761Y-122654761D01*
X80107142Y-122607142D01*
X79964285Y-122511904D01*
X79773809Y-122464285D01*
X79392857Y-122464285D01*
X79297619Y-122511904D01*
X79250000Y-122559523D01*
X79202380Y-122654761D01*
X79202380Y-122845238D01*
X79250000Y-122940476D01*
X79297619Y-122988095D01*
X79392857Y-123035714D01*
X79630952Y-123035714D01*
X79726190Y-122988095D01*
X79773809Y-122940476D01*
X79821428Y-122845238D01*
X79821428Y-122654761D01*
X79773809Y-122559523D01*
X79726190Y-122511904D01*
X79630952Y-122464285D01*
%TO.C,C8*%
X45357142Y-65916666D02*
X45404761Y-65964285D01*
X45452380Y-66107142D01*
X45452380Y-66202380D01*
X45404761Y-66345238D01*
X45309523Y-66440476D01*
X45214285Y-66488095D01*
X45023809Y-66535714D01*
X44880952Y-66535714D01*
X44690476Y-66488095D01*
X44595238Y-66440476D01*
X44500000Y-66345238D01*
X44452380Y-66202380D01*
X44452380Y-66107142D01*
X44500000Y-65964285D01*
X44547619Y-65916666D01*
X44880952Y-65345238D02*
X44833333Y-65440476D01*
X44785714Y-65488095D01*
X44690476Y-65535714D01*
X44642857Y-65535714D01*
X44547619Y-65488095D01*
X44500000Y-65440476D01*
X44452380Y-65345238D01*
X44452380Y-65154761D01*
X44500000Y-65059523D01*
X44547619Y-65011904D01*
X44642857Y-64964285D01*
X44690476Y-64964285D01*
X44785714Y-65011904D01*
X44833333Y-65059523D01*
X44880952Y-65154761D01*
X44880952Y-65345238D01*
X44928571Y-65440476D01*
X44976190Y-65488095D01*
X45071428Y-65535714D01*
X45261904Y-65535714D01*
X45357142Y-65488095D01*
X45404761Y-65440476D01*
X45452380Y-65345238D01*
X45452380Y-65154761D01*
X45404761Y-65059523D01*
X45357142Y-65011904D01*
X45261904Y-64964285D01*
X45071428Y-64964285D01*
X44976190Y-65011904D01*
X44928571Y-65059523D01*
X44880952Y-65154761D01*
%TO.C,C7*%
X46107142Y-125416666D02*
X46154761Y-125464285D01*
X46202380Y-125607142D01*
X46202380Y-125702380D01*
X46154761Y-125845238D01*
X46059523Y-125940476D01*
X45964285Y-125988095D01*
X45773809Y-126035714D01*
X45630952Y-126035714D01*
X45440476Y-125988095D01*
X45345238Y-125940476D01*
X45250000Y-125845238D01*
X45202380Y-125702380D01*
X45202380Y-125607142D01*
X45250000Y-125464285D01*
X45297619Y-125416666D01*
X45202380Y-125083333D02*
X45202380Y-124416666D01*
X46202380Y-124845238D01*
%TO.C,C6*%
X42607142Y-106666666D02*
X42654761Y-106714285D01*
X42702380Y-106857142D01*
X42702380Y-106952380D01*
X42654761Y-107095238D01*
X42559523Y-107190476D01*
X42464285Y-107238095D01*
X42273809Y-107285714D01*
X42130952Y-107285714D01*
X41940476Y-107238095D01*
X41845238Y-107190476D01*
X41750000Y-107095238D01*
X41702380Y-106952380D01*
X41702380Y-106857142D01*
X41750000Y-106714285D01*
X41797619Y-106666666D01*
X41702380Y-105809523D02*
X41702380Y-106000000D01*
X41750000Y-106095238D01*
X41797619Y-106142857D01*
X41940476Y-106238095D01*
X42130952Y-106285714D01*
X42511904Y-106285714D01*
X42607142Y-106238095D01*
X42654761Y-106190476D01*
X42702380Y-106095238D01*
X42702380Y-105904761D01*
X42654761Y-105809523D01*
X42607142Y-105761904D01*
X42511904Y-105714285D01*
X42273809Y-105714285D01*
X42178571Y-105761904D01*
X42130952Y-105809523D01*
X42083333Y-105904761D01*
X42083333Y-106095238D01*
X42130952Y-106190476D01*
X42178571Y-106238095D01*
X42273809Y-106285714D01*
%TO.C,C5*%
X29833333Y-114607142D02*
X29785714Y-114654761D01*
X29642857Y-114702380D01*
X29547619Y-114702380D01*
X29404761Y-114654761D01*
X29309523Y-114559523D01*
X29261904Y-114464285D01*
X29214285Y-114273809D01*
X29214285Y-114130952D01*
X29261904Y-113940476D01*
X29309523Y-113845238D01*
X29404761Y-113750000D01*
X29547619Y-113702380D01*
X29642857Y-113702380D01*
X29785714Y-113750000D01*
X29833333Y-113797619D01*
X30738095Y-113702380D02*
X30261904Y-113702380D01*
X30214285Y-114178571D01*
X30261904Y-114130952D01*
X30357142Y-114083333D01*
X30595238Y-114083333D01*
X30690476Y-114130952D01*
X30738095Y-114178571D01*
X30785714Y-114273809D01*
X30785714Y-114511904D01*
X30738095Y-114607142D01*
X30690476Y-114654761D01*
X30595238Y-114702380D01*
X30357142Y-114702380D01*
X30261904Y-114654761D01*
X30214285Y-114607142D01*
%TO.C,C4*%
X29833333Y-78857142D02*
X29785714Y-78904761D01*
X29642857Y-78952380D01*
X29547619Y-78952380D01*
X29404761Y-78904761D01*
X29309523Y-78809523D01*
X29261904Y-78714285D01*
X29214285Y-78523809D01*
X29214285Y-78380952D01*
X29261904Y-78190476D01*
X29309523Y-78095238D01*
X29404761Y-78000000D01*
X29547619Y-77952380D01*
X29642857Y-77952380D01*
X29785714Y-78000000D01*
X29833333Y-78047619D01*
X30690476Y-78285714D02*
X30690476Y-78952380D01*
X30452380Y-77904761D02*
X30214285Y-78619047D01*
X30833333Y-78619047D01*
%TO.C,C3*%
X42607142Y-83916666D02*
X42654761Y-83964285D01*
X42702380Y-84107142D01*
X42702380Y-84202380D01*
X42654761Y-84345238D01*
X42559523Y-84440476D01*
X42464285Y-84488095D01*
X42273809Y-84535714D01*
X42130952Y-84535714D01*
X41940476Y-84488095D01*
X41845238Y-84440476D01*
X41750000Y-84345238D01*
X41702380Y-84202380D01*
X41702380Y-84107142D01*
X41750000Y-83964285D01*
X41797619Y-83916666D01*
X41702380Y-83583333D02*
X41702380Y-82964285D01*
X42083333Y-83297619D01*
X42083333Y-83154761D01*
X42130952Y-83059523D01*
X42178571Y-83011904D01*
X42273809Y-82964285D01*
X42511904Y-82964285D01*
X42607142Y-83011904D01*
X42654761Y-83059523D01*
X42702380Y-83154761D01*
X42702380Y-83440476D01*
X42654761Y-83535714D01*
X42607142Y-83583333D01*
%TO.C,C2*%
X29833333Y-75607142D02*
X29785714Y-75654761D01*
X29642857Y-75702380D01*
X29547619Y-75702380D01*
X29404761Y-75654761D01*
X29309523Y-75559523D01*
X29261904Y-75464285D01*
X29214285Y-75273809D01*
X29214285Y-75130952D01*
X29261904Y-74940476D01*
X29309523Y-74845238D01*
X29404761Y-74750000D01*
X29547619Y-74702380D01*
X29642857Y-74702380D01*
X29785714Y-74750000D01*
X29833333Y-74797619D01*
X30214285Y-74797619D02*
X30261904Y-74750000D01*
X30357142Y-74702380D01*
X30595238Y-74702380D01*
X30690476Y-74750000D01*
X30738095Y-74797619D01*
X30785714Y-74892857D01*
X30785714Y-74988095D01*
X30738095Y-75130952D01*
X30166666Y-75702380D01*
X30785714Y-75702380D01*
%TO.C,C1*%
X29833333Y-117857142D02*
X29785714Y-117904761D01*
X29642857Y-117952380D01*
X29547619Y-117952380D01*
X29404761Y-117904761D01*
X29309523Y-117809523D01*
X29261904Y-117714285D01*
X29214285Y-117523809D01*
X29214285Y-117380952D01*
X29261904Y-117190476D01*
X29309523Y-117095238D01*
X29404761Y-117000000D01*
X29547619Y-116952380D01*
X29642857Y-116952380D01*
X29785714Y-117000000D01*
X29833333Y-117047619D01*
X30785714Y-117952380D02*
X30214285Y-117952380D01*
X30500000Y-117952380D02*
X30500000Y-116952380D01*
X30404761Y-117095238D01*
X30309523Y-117190476D01*
X30214285Y-117238095D01*
%TO.C,R6*%
X121202380Y-93666666D02*
X120726190Y-94000000D01*
X121202380Y-94238095D02*
X120202380Y-94238095D01*
X120202380Y-93857142D01*
X120250000Y-93761904D01*
X120297619Y-93714285D01*
X120392857Y-93666666D01*
X120535714Y-93666666D01*
X120630952Y-93714285D01*
X120678571Y-93761904D01*
X120726190Y-93857142D01*
X120726190Y-94238095D01*
X120202380Y-92809523D02*
X120202380Y-93000000D01*
X120250000Y-93095238D01*
X120297619Y-93142857D01*
X120440476Y-93238095D01*
X120630952Y-93285714D01*
X121011904Y-93285714D01*
X121107142Y-93238095D01*
X121154761Y-93190476D01*
X121202380Y-93095238D01*
X121202380Y-92904761D01*
X121154761Y-92809523D01*
X121107142Y-92761904D01*
X121011904Y-92714285D01*
X120773809Y-92714285D01*
X120678571Y-92761904D01*
X120630952Y-92809523D01*
X120583333Y-92904761D01*
X120583333Y-93095238D01*
X120630952Y-93190476D01*
X120678571Y-93238095D01*
X120773809Y-93285714D01*
%TO.C,R5*%
X121202380Y-121166666D02*
X120726190Y-121500000D01*
X121202380Y-121738095D02*
X120202380Y-121738095D01*
X120202380Y-121357142D01*
X120250000Y-121261904D01*
X120297619Y-121214285D01*
X120392857Y-121166666D01*
X120535714Y-121166666D01*
X120630952Y-121214285D01*
X120678571Y-121261904D01*
X120726190Y-121357142D01*
X120726190Y-121738095D01*
X120202380Y-120261904D02*
X120202380Y-120738095D01*
X120678571Y-120785714D01*
X120630952Y-120738095D01*
X120583333Y-120642857D01*
X120583333Y-120404761D01*
X120630952Y-120309523D01*
X120678571Y-120261904D01*
X120773809Y-120214285D01*
X121011904Y-120214285D01*
X121107142Y-120261904D01*
X121154761Y-120309523D01*
X121202380Y-120404761D01*
X121202380Y-120642857D01*
X121154761Y-120738095D01*
X121107142Y-120785714D01*
%TO.C,R4*%
X124452380Y-93666666D02*
X123976190Y-94000000D01*
X124452380Y-94238095D02*
X123452380Y-94238095D01*
X123452380Y-93857142D01*
X123500000Y-93761904D01*
X123547619Y-93714285D01*
X123642857Y-93666666D01*
X123785714Y-93666666D01*
X123880952Y-93714285D01*
X123928571Y-93761904D01*
X123976190Y-93857142D01*
X123976190Y-94238095D01*
X123785714Y-92809523D02*
X124452380Y-92809523D01*
X123404761Y-93047619D02*
X124119047Y-93285714D01*
X124119047Y-92666666D01*
%TO.C,R3*%
X124452380Y-121166666D02*
X123976190Y-121500000D01*
X124452380Y-121738095D02*
X123452380Y-121738095D01*
X123452380Y-121357142D01*
X123500000Y-121261904D01*
X123547619Y-121214285D01*
X123642857Y-121166666D01*
X123785714Y-121166666D01*
X123880952Y-121214285D01*
X123928571Y-121261904D01*
X123976190Y-121357142D01*
X123976190Y-121738095D01*
X123452380Y-120833333D02*
X123452380Y-120214285D01*
X123833333Y-120547619D01*
X123833333Y-120404761D01*
X123880952Y-120309523D01*
X123928571Y-120261904D01*
X124023809Y-120214285D01*
X124261904Y-120214285D01*
X124357142Y-120261904D01*
X124404761Y-120309523D01*
X124452380Y-120404761D01*
X124452380Y-120690476D01*
X124404761Y-120785714D01*
X124357142Y-120833333D01*
%TO.C,R2*%
X115702380Y-72166666D02*
X115226190Y-72500000D01*
X115702380Y-72738095D02*
X114702380Y-72738095D01*
X114702380Y-72357142D01*
X114750000Y-72261904D01*
X114797619Y-72214285D01*
X114892857Y-72166666D01*
X115035714Y-72166666D01*
X115130952Y-72214285D01*
X115178571Y-72261904D01*
X115226190Y-72357142D01*
X115226190Y-72738095D01*
X114797619Y-71785714D02*
X114750000Y-71738095D01*
X114702380Y-71642857D01*
X114702380Y-71404761D01*
X114750000Y-71309523D01*
X114797619Y-71261904D01*
X114892857Y-71214285D01*
X114988095Y-71214285D01*
X115130952Y-71261904D01*
X115702380Y-71833333D01*
X115702380Y-71214285D01*
%TO.C,R1*%
X117952380Y-96166666D02*
X117476190Y-96500000D01*
X117952380Y-96738095D02*
X116952380Y-96738095D01*
X116952380Y-96357142D01*
X117000000Y-96261904D01*
X117047619Y-96214285D01*
X117142857Y-96166666D01*
X117285714Y-96166666D01*
X117380952Y-96214285D01*
X117428571Y-96261904D01*
X117476190Y-96357142D01*
X117476190Y-96738095D01*
X117952380Y-95214285D02*
X117952380Y-95785714D01*
X117952380Y-95500000D02*
X116952380Y-95500000D01*
X117095238Y-95595238D01*
X117190476Y-95690476D01*
X117238095Y-95785714D01*
%TO.C,D3*%
X122952380Y-77488095D02*
X121952380Y-77488095D01*
X121952380Y-77250000D01*
X122000000Y-77107142D01*
X122095238Y-77011904D01*
X122190476Y-76964285D01*
X122380952Y-76916666D01*
X122523809Y-76916666D01*
X122714285Y-76964285D01*
X122809523Y-77011904D01*
X122904761Y-77107142D01*
X122952380Y-77250000D01*
X122952380Y-77488095D01*
X121952380Y-76583333D02*
X121952380Y-75964285D01*
X122333333Y-76297619D01*
X122333333Y-76154761D01*
X122380952Y-76059523D01*
X122428571Y-76011904D01*
X122523809Y-75964285D01*
X122761904Y-75964285D01*
X122857142Y-76011904D01*
X122904761Y-76059523D01*
X122952380Y-76154761D01*
X122952380Y-76440476D01*
X122904761Y-76535714D01*
X122857142Y-76583333D01*
%TO.C,D2*%
X122952380Y-105238095D02*
X121952380Y-105238095D01*
X121952380Y-105000000D01*
X122000000Y-104857142D01*
X122095238Y-104761904D01*
X122190476Y-104714285D01*
X122380952Y-104666666D01*
X122523809Y-104666666D01*
X122714285Y-104714285D01*
X122809523Y-104761904D01*
X122904761Y-104857142D01*
X122952380Y-105000000D01*
X122952380Y-105238095D01*
X122047619Y-104285714D02*
X122000000Y-104238095D01*
X121952380Y-104142857D01*
X121952380Y-103904761D01*
X122000000Y-103809523D01*
X122047619Y-103761904D01*
X122142857Y-103714285D01*
X122238095Y-103714285D01*
X122380952Y-103761904D01*
X122952380Y-104333333D01*
X122952380Y-103714285D01*
%TO.C,D1*%
D14*
X39562619Y-113574523D02*
X39562619Y-112304523D01*
X39865000Y-112304523D01*
X40046428Y-112365000D01*
X40167380Y-112485952D01*
X40227857Y-112606904D01*
X40288333Y-112848809D01*
X40288333Y-113030238D01*
X40227857Y-113272142D01*
X40167380Y-113393095D01*
X40046428Y-113514047D01*
X39865000Y-113574523D01*
X39562619Y-113574523D01*
X41497857Y-113574523D02*
X40772142Y-113574523D01*
X41135000Y-113574523D02*
X41135000Y-112304523D01*
X41014047Y-112485952D01*
X40893095Y-112606904D01*
X40772142Y-112667380D01*
D10*
X39571428Y-84130952D02*
X39571428Y-83369047D01*
X39571428Y-109130952D02*
X39571428Y-108369047D01*
X39952380Y-108750000D02*
X39190476Y-108750000D01*
%TO.C,C12*%
X115607142Y-87892857D02*
X115654761Y-87940476D01*
X115702380Y-88083333D01*
X115702380Y-88178571D01*
X115654761Y-88321428D01*
X115559523Y-88416666D01*
X115464285Y-88464285D01*
X115273809Y-88511904D01*
X115130952Y-88511904D01*
X114940476Y-88464285D01*
X114845238Y-88416666D01*
X114750000Y-88321428D01*
X114702380Y-88178571D01*
X114702380Y-88083333D01*
X114750000Y-87940476D01*
X114797619Y-87892857D01*
X115702380Y-86940476D02*
X115702380Y-87511904D01*
X115702380Y-87226190D02*
X114702380Y-87226190D01*
X114845238Y-87321428D01*
X114940476Y-87416666D01*
X114988095Y-87511904D01*
X114797619Y-86559523D02*
X114750000Y-86511904D01*
X114702380Y-86416666D01*
X114702380Y-86178571D01*
X114750000Y-86083333D01*
X114797619Y-86035714D01*
X114892857Y-85988095D01*
X114988095Y-85988095D01*
X115130952Y-86035714D01*
X115702380Y-86607142D01*
X115702380Y-85988095D01*
%TO.C,C11*%
X115607142Y-114392857D02*
X115654761Y-114440476D01*
X115702380Y-114583333D01*
X115702380Y-114678571D01*
X115654761Y-114821428D01*
X115559523Y-114916666D01*
X115464285Y-114964285D01*
X115273809Y-115011904D01*
X115130952Y-115011904D01*
X114940476Y-114964285D01*
X114845238Y-114916666D01*
X114750000Y-114821428D01*
X114702380Y-114678571D01*
X114702380Y-114583333D01*
X114750000Y-114440476D01*
X114797619Y-114392857D01*
X115702380Y-113440476D02*
X115702380Y-114011904D01*
X115702380Y-113726190D02*
X114702380Y-113726190D01*
X114845238Y-113821428D01*
X114940476Y-113916666D01*
X114988095Y-114011904D01*
X115702380Y-112488095D02*
X115702380Y-113059523D01*
X115702380Y-112773809D02*
X114702380Y-112773809D01*
X114845238Y-112869047D01*
X114940476Y-112964285D01*
X114988095Y-113059523D01*
%TD*%
M02*
