%TF.GenerationSoftware,KiCad,Pcbnew,(5.1.6-0)*%
%TF.CreationDate,2024-01-06T09:56:17-08:00*%
%TF.ProjectId,psu_4caps,7073755f-3463-4617-9073-2e6b69636164,rev?*%
%TF.SameCoordinates,Original*%
%TF.FileFunction,Legend,Bot*%
%TF.FilePolarity,Positive*%
%FSLAX46Y46*%
G04 Gerber Fmt 4.6, Leading zero omitted, Abs format (unit mm)*
G04 Created by KiCad (PCBNEW (5.1.6-0)) date 2024-01-06 09:56:17*
%MOMM*%
%LPD*%
G01*
G04 APERTURE LIST*
%ADD10C,0.150000*%
G04 APERTURE END LIST*
D10*
X80392857Y-124702380D02*
X80392857Y-125416666D01*
X80440476Y-125559523D01*
X80535714Y-125654761D01*
X80678571Y-125702380D01*
X80773809Y-125702380D01*
X79488095Y-125702380D02*
X79488095Y-125178571D01*
X79535714Y-125083333D01*
X79630952Y-125035714D01*
X79821428Y-125035714D01*
X79916666Y-125083333D01*
X79488095Y-125654761D02*
X79583333Y-125702380D01*
X79821428Y-125702380D01*
X79916666Y-125654761D01*
X79964285Y-125559523D01*
X79964285Y-125464285D01*
X79916666Y-125369047D01*
X79821428Y-125321428D01*
X79583333Y-125321428D01*
X79488095Y-125273809D01*
X79011904Y-125035714D02*
X79011904Y-125702380D01*
X79011904Y-125130952D02*
X78964285Y-125083333D01*
X78869047Y-125035714D01*
X78726190Y-125035714D01*
X78630952Y-125083333D01*
X78583333Y-125178571D01*
X78583333Y-125702380D01*
X77678571Y-125035714D02*
X77678571Y-125702380D01*
X78107142Y-125035714D02*
X78107142Y-125559523D01*
X78059523Y-125654761D01*
X77964285Y-125702380D01*
X77821428Y-125702380D01*
X77726190Y-125654761D01*
X77678571Y-125607142D01*
X76773809Y-125702380D02*
X76773809Y-125178571D01*
X76821428Y-125083333D01*
X76916666Y-125035714D01*
X77107142Y-125035714D01*
X77202380Y-125083333D01*
X76773809Y-125654761D02*
X76869047Y-125702380D01*
X77107142Y-125702380D01*
X77202380Y-125654761D01*
X77250000Y-125559523D01*
X77250000Y-125464285D01*
X77202380Y-125369047D01*
X77107142Y-125321428D01*
X76869047Y-125321428D01*
X76773809Y-125273809D01*
X76297619Y-125702380D02*
X76297619Y-125035714D01*
X76297619Y-125226190D02*
X76250000Y-125130952D01*
X76202380Y-125083333D01*
X76107142Y-125035714D01*
X76011904Y-125035714D01*
X75773809Y-125035714D02*
X75535714Y-125702380D01*
X75297619Y-125035714D02*
X75535714Y-125702380D01*
X75630952Y-125940476D01*
X75678571Y-125988095D01*
X75773809Y-126035714D01*
X74202380Y-124797619D02*
X74154761Y-124750000D01*
X74059523Y-124702380D01*
X73821428Y-124702380D01*
X73726190Y-124750000D01*
X73678571Y-124797619D01*
X73630952Y-124892857D01*
X73630952Y-124988095D01*
X73678571Y-125130952D01*
X74250000Y-125702380D01*
X73630952Y-125702380D01*
X73011904Y-124702380D02*
X72916666Y-124702380D01*
X72821428Y-124750000D01*
X72773809Y-124797619D01*
X72726190Y-124892857D01*
X72678571Y-125083333D01*
X72678571Y-125321428D01*
X72726190Y-125511904D01*
X72773809Y-125607142D01*
X72821428Y-125654761D01*
X72916666Y-125702380D01*
X73011904Y-125702380D01*
X73107142Y-125654761D01*
X73154761Y-125607142D01*
X73202380Y-125511904D01*
X73250000Y-125321428D01*
X73250000Y-125083333D01*
X73202380Y-124892857D01*
X73154761Y-124797619D01*
X73107142Y-124750000D01*
X73011904Y-124702380D01*
X72297619Y-124797619D02*
X72250000Y-124750000D01*
X72154761Y-124702380D01*
X71916666Y-124702380D01*
X71821428Y-124750000D01*
X71773809Y-124797619D01*
X71726190Y-124892857D01*
X71726190Y-124988095D01*
X71773809Y-125130952D01*
X72345238Y-125702380D01*
X71726190Y-125702380D01*
X70869047Y-125035714D02*
X70869047Y-125702380D01*
X71107142Y-124654761D02*
X71345238Y-125369047D01*
X70726190Y-125369047D01*
X80190476Y-127452380D02*
X80523809Y-126976190D01*
X80761904Y-127452380D02*
X80761904Y-126452380D01*
X80380952Y-126452380D01*
X80285714Y-126500000D01*
X80238095Y-126547619D01*
X80190476Y-126642857D01*
X80190476Y-126785714D01*
X80238095Y-126880952D01*
X80285714Y-126928571D01*
X80380952Y-126976190D01*
X80761904Y-126976190D01*
X79380952Y-127404761D02*
X79476190Y-127452380D01*
X79666666Y-127452380D01*
X79761904Y-127404761D01*
X79809523Y-127309523D01*
X79809523Y-126928571D01*
X79761904Y-126833333D01*
X79666666Y-126785714D01*
X79476190Y-126785714D01*
X79380952Y-126833333D01*
X79333333Y-126928571D01*
X79333333Y-127023809D01*
X79809523Y-127119047D01*
X79000000Y-126785714D02*
X78761904Y-127452380D01*
X78523809Y-126785714D01*
X77619047Y-127452380D02*
X78190476Y-127452380D01*
X77904761Y-127452380D02*
X77904761Y-126452380D01*
X78000000Y-126595238D01*
X78095238Y-126690476D01*
X78190476Y-126738095D01*
X77190476Y-127357142D02*
X77142857Y-127404761D01*
X77190476Y-127452380D01*
X77238095Y-127404761D01*
X77190476Y-127357142D01*
X77190476Y-127452380D01*
X76523809Y-126452380D02*
X76428571Y-126452380D01*
X76333333Y-126500000D01*
X76285714Y-126547619D01*
X76238095Y-126642857D01*
X76190476Y-126833333D01*
X76190476Y-127071428D01*
X76238095Y-127261904D01*
X76285714Y-127357142D01*
X76333333Y-127404761D01*
X76428571Y-127452380D01*
X76523809Y-127452380D01*
X76619047Y-127404761D01*
X76666666Y-127357142D01*
X76714285Y-127261904D01*
X76761904Y-127071428D01*
X76761904Y-126833333D01*
X76714285Y-126642857D01*
X76666666Y-126547619D01*
X76619047Y-126500000D01*
X76523809Y-126452380D01*
M02*
