%TF.GenerationSoftware,KiCad,Pcbnew,(5.1.6-0)*%
%TF.CreationDate,2024-01-06T09:56:17-08:00*%
%TF.ProjectId,psu_4caps,7073755f-3463-4617-9073-2e6b69636164,rev?*%
%TF.SameCoordinates,Original*%
%TF.FileFunction,Soldermask,Bot*%
%TF.FilePolarity,Negative*%
%FSLAX46Y46*%
G04 Gerber Fmt 4.6, Leading zero omitted, Abs format (unit mm)*
G04 Created by KiCad (PCBNEW (5.1.6-0)) date 2024-01-06 09:56:17*
%MOMM*%
%LPD*%
G01*
G04 APERTURE LIST*
%ADD10C,0.900000*%
%ADD11C,6.500000*%
%ADD12C,4.100000*%
%ADD13R,4.100000X4.100000*%
%ADD14C,1.700000*%
%ADD15C,2.500000*%
%ADD16C,2.400000*%
%ADD17R,2.400000X2.400000*%
%ADD18O,1.700000X1.700000*%
%ADD19O,1.900000X2.700000*%
G04 APERTURE END LIST*
D10*
%TO.C,H5*%
X79197056Y-93302944D03*
X77500000Y-92600000D03*
X75802944Y-93302944D03*
X75100000Y-95000000D03*
X75802944Y-96697056D03*
X77500000Y-97400000D03*
X79197056Y-96697056D03*
X79900000Y-95000000D03*
D11*
X77500000Y-95000000D03*
%TD*%
D12*
%TO.C,C10*%
X95750000Y-72000000D03*
D13*
X95750000Y-82000000D03*
%TD*%
D12*
%TO.C,C9*%
X95750000Y-108000000D03*
D13*
X95750000Y-118000000D03*
%TD*%
D12*
%TO.C,C8*%
X60000000Y-72000000D03*
D13*
X60000000Y-82000000D03*
%TD*%
D12*
%TO.C,C7*%
X60000000Y-108000000D03*
D13*
X60000000Y-118000000D03*
%TD*%
D14*
%TO.C,C6*%
X42250000Y-99000000D03*
X42250000Y-104000000D03*
%TD*%
%TO.C,C5*%
X37500000Y-114250000D03*
X32500000Y-114250000D03*
%TD*%
%TO.C,C4*%
X32500000Y-78500000D03*
X37500000Y-78500000D03*
%TD*%
%TO.C,C3*%
X42250000Y-86250000D03*
X42250000Y-91250000D03*
%TD*%
D15*
%TO.C,J12*%
X135040000Y-83750000D03*
X129960000Y-83750000D03*
%TD*%
%TO.C,J11*%
X135040000Y-76250000D03*
X129960000Y-76250000D03*
%TD*%
%TO.C,J10*%
X135040000Y-98750000D03*
X129960000Y-98750000D03*
%TD*%
%TO.C,J9*%
X135040000Y-91250000D03*
X129960000Y-91250000D03*
%TD*%
%TO.C,J8*%
X135040000Y-106250000D03*
X129960000Y-106250000D03*
%TD*%
%TO.C,J7*%
X135040000Y-113750000D03*
X129960000Y-113750000D03*
%TD*%
%TO.C,J4*%
X32540000Y-85000000D03*
X27460000Y-85000000D03*
%TD*%
%TO.C,J3*%
X32540000Y-98750000D03*
X27460000Y-98750000D03*
%TD*%
%TO.C,J2*%
X32540000Y-91250000D03*
X27460000Y-91250000D03*
%TD*%
%TO.C,J1*%
X32540000Y-105000000D03*
X27460000Y-105000000D03*
%TD*%
D14*
%TO.C,C2*%
X37500000Y-75250000D03*
X32500000Y-75250000D03*
%TD*%
%TO.C,C1*%
X37500000Y-117500000D03*
X32500000Y-117500000D03*
%TD*%
D10*
%TO.C,H4*%
X135447056Y-125802944D03*
X133750000Y-125100000D03*
X132052944Y-125802944D03*
X131350000Y-127500000D03*
X132052944Y-129197056D03*
X133750000Y-129900000D03*
X135447056Y-129197056D03*
X136150000Y-127500000D03*
D11*
X133750000Y-127500000D03*
%TD*%
D10*
%TO.C,H3*%
X135447056Y-60802944D03*
X133750000Y-60100000D03*
X132052944Y-60802944D03*
X131350000Y-62500000D03*
X132052944Y-64197056D03*
X133750000Y-64900000D03*
X135447056Y-64197056D03*
X136150000Y-62500000D03*
D11*
X133750000Y-62500000D03*
%TD*%
D10*
%TO.C,H2*%
X30447056Y-60802944D03*
X28750000Y-60100000D03*
X27052944Y-60802944D03*
X26350000Y-62500000D03*
X27052944Y-64197056D03*
X28750000Y-64900000D03*
X30447056Y-64197056D03*
X31150000Y-62500000D03*
D11*
X28750000Y-62500000D03*
%TD*%
D10*
%TO.C,H1*%
X30447056Y-125802944D03*
X28750000Y-125100000D03*
X27052944Y-125802944D03*
X26350000Y-127500000D03*
X27052944Y-129197056D03*
X28750000Y-129900000D03*
X30447056Y-129197056D03*
X31150000Y-127500000D03*
D11*
X28750000Y-127500000D03*
%TD*%
D16*
%TO.C,J6*%
X120000000Y-65000000D03*
D17*
X123500000Y-65000000D03*
%TD*%
D16*
%TO.C,J5*%
X123500000Y-125000000D03*
D17*
X120000000Y-125000000D03*
%TD*%
D18*
%TO.C,R6*%
X120750000Y-81340000D03*
D14*
X120750000Y-91500000D03*
%TD*%
D18*
%TO.C,R5*%
X120750000Y-108590000D03*
D14*
X120750000Y-118750000D03*
%TD*%
D18*
%TO.C,R4*%
X124000000Y-81340000D03*
D14*
X124000000Y-91500000D03*
%TD*%
D18*
%TO.C,R3*%
X124000000Y-118660000D03*
D14*
X124000000Y-108500000D03*
%TD*%
D18*
%TO.C,R2*%
X117500000Y-71090000D03*
D14*
X117500000Y-81250000D03*
%TD*%
D18*
%TO.C,R1*%
X117500000Y-98340000D03*
D14*
X117500000Y-108500000D03*
%TD*%
D19*
%TO.C,D1*%
X38000000Y-83750000D03*
X38000000Y-91250000D03*
X38000000Y-98750000D03*
X38000000Y-108750000D03*
%TD*%
D14*
%TO.C,C12*%
X117500000Y-84750000D03*
X117500000Y-89750000D03*
%TD*%
%TO.C,C11*%
X117500000Y-111250000D03*
X117500000Y-116250000D03*
%TD*%
M02*
