%TF.GenerationSoftware,KiCad,Pcbnew,(5.1.6-0)*%
%TF.CreationDate,2024-01-06T09:56:17-08:00*%
%TF.ProjectId,psu_4caps,7073755f-3463-4617-9073-2e6b69636164,rev?*%
%TF.SameCoordinates,Original*%
%TF.FileFunction,Copper,L2,Bot*%
%TF.FilePolarity,Positive*%
%FSLAX46Y46*%
G04 Gerber Fmt 4.6, Leading zero omitted, Abs format (unit mm)*
G04 Created by KiCad (PCBNEW (5.1.6-0)) date 2024-01-06 09:56:17*
%MOMM*%
%LPD*%
G01*
G04 APERTURE LIST*
%TA.AperFunction,ComponentPad*%
%ADD10C,0.800000*%
%TD*%
%TA.AperFunction,ComponentPad*%
%ADD11C,6.400000*%
%TD*%
%TA.AperFunction,ComponentPad*%
%ADD12C,4.000000*%
%TD*%
%TA.AperFunction,ComponentPad*%
%ADD13R,4.000000X4.000000*%
%TD*%
%TA.AperFunction,ComponentPad*%
%ADD14C,1.600000*%
%TD*%
%TA.AperFunction,ComponentPad*%
%ADD15C,2.400000*%
%TD*%
%TA.AperFunction,ComponentPad*%
%ADD16C,2.300000*%
%TD*%
%TA.AperFunction,ComponentPad*%
%ADD17R,2.300000X2.300000*%
%TD*%
%TA.AperFunction,ComponentPad*%
%ADD18O,1.600000X1.600000*%
%TD*%
%TA.AperFunction,ComponentPad*%
%ADD19O,1.800000X2.600000*%
%TD*%
%TA.AperFunction,ViaPad*%
%ADD20C,0.800000*%
%TD*%
%TA.AperFunction,Conductor*%
%ADD21C,0.300000*%
%TD*%
G04 APERTURE END LIST*
D10*
%TO.P,H5,1*%
%TO.N,N/C*%
X79197056Y-93302944D03*
X77500000Y-92600000D03*
X75802944Y-93302944D03*
X75100000Y-95000000D03*
X75802944Y-96697056D03*
X77500000Y-97400000D03*
X79197056Y-96697056D03*
X79900000Y-95000000D03*
D11*
X77500000Y-95000000D03*
%TD*%
D12*
%TO.P,C10,2*%
%TO.N,/V-*%
X95750000Y-72000000D03*
D13*
%TO.P,C10,1*%
%TO.N,GND*%
X95750000Y-82000000D03*
%TD*%
D12*
%TO.P,C9,2*%
%TO.N,GND*%
X95750000Y-108000000D03*
D13*
%TO.P,C9,1*%
%TO.N,/V+*%
X95750000Y-118000000D03*
%TD*%
D12*
%TO.P,C8,2*%
%TO.N,/V-*%
X60000000Y-72000000D03*
D13*
%TO.P,C8,1*%
%TO.N,GND*%
X60000000Y-82000000D03*
%TD*%
D12*
%TO.P,C7,2*%
%TO.N,GND*%
X60000000Y-108000000D03*
D13*
%TO.P,C7,1*%
%TO.N,/V+*%
X60000000Y-118000000D03*
%TD*%
D14*
%TO.P,C6,2*%
%TO.N,/AC4*%
X42250000Y-99000000D03*
%TO.P,C6,1*%
%TO.N,/V+*%
X42250000Y-104000000D03*
%TD*%
%TO.P,C5,2*%
%TO.N,/V+*%
X37500000Y-114250000D03*
%TO.P,C5,1*%
%TO.N,/AC1*%
X32500000Y-114250000D03*
%TD*%
%TO.P,C4,2*%
%TO.N,/AC4*%
X32500000Y-78500000D03*
%TO.P,C4,1*%
%TO.N,/V-*%
X37500000Y-78500000D03*
%TD*%
%TO.P,C3,2*%
%TO.N,/V-*%
X42250000Y-86250000D03*
%TO.P,C3,1*%
%TO.N,/AC1*%
X42250000Y-91250000D03*
%TD*%
D15*
%TO.P,J12,1*%
%TO.N,/V-*%
X135040000Y-83750000D03*
X129960000Y-83750000D03*
%TD*%
%TO.P,J11,1*%
%TO.N,/V-*%
X135040000Y-76250000D03*
X129960000Y-76250000D03*
%TD*%
%TO.P,J10,1*%
%TO.N,GND*%
X135040000Y-98750000D03*
X129960000Y-98750000D03*
%TD*%
%TO.P,J9,1*%
%TO.N,GND*%
X135040000Y-91250000D03*
X129960000Y-91250000D03*
%TD*%
%TO.P,J8,1*%
%TO.N,/V+*%
X135040000Y-106250000D03*
X129960000Y-106250000D03*
%TD*%
%TO.P,J7,1*%
%TO.N,/V+*%
X135040000Y-113750000D03*
X129960000Y-113750000D03*
%TD*%
%TO.P,J4,1*%
%TO.N,/AC4*%
X32540000Y-85000000D03*
X27460000Y-85000000D03*
%TD*%
%TO.P,J3,1*%
%TO.N,GND*%
X32540000Y-98750000D03*
X27460000Y-98750000D03*
%TD*%
%TO.P,J2,1*%
%TO.N,GND*%
X32540000Y-91250000D03*
X27460000Y-91250000D03*
%TD*%
%TO.P,J1,1*%
%TO.N,/AC1*%
X32540000Y-105000000D03*
X27460000Y-105000000D03*
%TD*%
D14*
%TO.P,C2,2*%
%TO.N,GND*%
X37500000Y-75250000D03*
%TO.P,C2,1*%
%TO.N,/AC4*%
X32500000Y-75250000D03*
%TD*%
%TO.P,C1,2*%
%TO.N,GND*%
X37500000Y-117500000D03*
%TO.P,C1,1*%
%TO.N,/AC1*%
X32500000Y-117500000D03*
%TD*%
D10*
%TO.P,H4,1*%
%TO.N,N/C*%
X135447056Y-125802944D03*
X133750000Y-125100000D03*
X132052944Y-125802944D03*
X131350000Y-127500000D03*
X132052944Y-129197056D03*
X133750000Y-129900000D03*
X135447056Y-129197056D03*
X136150000Y-127500000D03*
D11*
X133750000Y-127500000D03*
%TD*%
D10*
%TO.P,H3,1*%
%TO.N,N/C*%
X135447056Y-60802944D03*
X133750000Y-60100000D03*
X132052944Y-60802944D03*
X131350000Y-62500000D03*
X132052944Y-64197056D03*
X133750000Y-64900000D03*
X135447056Y-64197056D03*
X136150000Y-62500000D03*
D11*
X133750000Y-62500000D03*
%TD*%
D10*
%TO.P,H2,1*%
%TO.N,N/C*%
X30447056Y-60802944D03*
X28750000Y-60100000D03*
X27052944Y-60802944D03*
X26350000Y-62500000D03*
X27052944Y-64197056D03*
X28750000Y-64900000D03*
X30447056Y-64197056D03*
X31150000Y-62500000D03*
D11*
X28750000Y-62500000D03*
%TD*%
D10*
%TO.P,H1,1*%
%TO.N,N/C*%
X30447056Y-125802944D03*
X28750000Y-125100000D03*
X27052944Y-125802944D03*
X26350000Y-127500000D03*
X27052944Y-129197056D03*
X28750000Y-129900000D03*
X30447056Y-129197056D03*
X31150000Y-127500000D03*
D11*
X28750000Y-127500000D03*
%TD*%
D16*
%TO.P,J6,2*%
%TO.N,/V-*%
X120000000Y-65000000D03*
D17*
%TO.P,J6,1*%
%TO.N,Net-(J6-Pad1)*%
X123500000Y-65000000D03*
%TD*%
D16*
%TO.P,J5,2*%
%TO.N,GND*%
X123500000Y-125000000D03*
D17*
%TO.P,J5,1*%
%TO.N,Net-(J5-Pad1)*%
X120000000Y-125000000D03*
%TD*%
D18*
%TO.P,R6,2*%
%TO.N,Net-(D3-Pad1)*%
X120750000Y-81340000D03*
D14*
%TO.P,R6,1*%
%TO.N,GND*%
X120750000Y-91500000D03*
%TD*%
D18*
%TO.P,R5,2*%
%TO.N,Net-(D2-Pad1)*%
X120750000Y-108590000D03*
D14*
%TO.P,R5,1*%
%TO.N,/V+*%
X120750000Y-118750000D03*
%TD*%
D18*
%TO.P,R4,2*%
%TO.N,Net-(J6-Pad1)*%
X124000000Y-81340000D03*
D14*
%TO.P,R4,1*%
%TO.N,GND*%
X124000000Y-91500000D03*
%TD*%
D18*
%TO.P,R3,2*%
%TO.N,Net-(J5-Pad1)*%
X124000000Y-118660000D03*
D14*
%TO.P,R3,1*%
%TO.N,/V+*%
X124000000Y-108500000D03*
%TD*%
D18*
%TO.P,R2,2*%
%TO.N,/V-*%
X117500000Y-71090000D03*
D14*
%TO.P,R2,1*%
%TO.N,Net-(C12-Pad2)*%
X117500000Y-81250000D03*
%TD*%
D18*
%TO.P,R1,2*%
%TO.N,GND*%
X117500000Y-98340000D03*
D14*
%TO.P,R1,1*%
%TO.N,Net-(C11-Pad2)*%
X117500000Y-108500000D03*
%TD*%
D19*
%TO.P,D1,4*%
%TO.N,/V-*%
X38000000Y-83750000D03*
%TO.P,D1,3*%
%TO.N,/AC4*%
X38000000Y-91250000D03*
%TO.P,D1,2*%
%TO.N,/AC1*%
X38000000Y-98750000D03*
%TO.P,D1,1*%
%TO.N,/V+*%
X38000000Y-108750000D03*
%TD*%
D14*
%TO.P,C12,2*%
%TO.N,Net-(C12-Pad2)*%
X117500000Y-84750000D03*
%TO.P,C12,1*%
%TO.N,GND*%
X117500000Y-89750000D03*
%TD*%
%TO.P,C11,2*%
%TO.N,Net-(C11-Pad2)*%
X117500000Y-111250000D03*
%TO.P,C11,1*%
%TO.N,/V+*%
X117500000Y-116250000D03*
%TD*%
D20*
%TO.N,GND*%
X26746429Y-68250000D03*
X26746429Y-72942500D03*
X26746429Y-78942500D03*
X26746429Y-87942500D03*
X26746429Y-93942500D03*
X26746429Y-101942500D03*
X26746429Y-107942500D03*
X26746429Y-113942500D03*
X26746429Y-119942500D03*
X29746429Y-69942500D03*
X29746429Y-81942500D03*
X29746429Y-96942500D03*
X29746429Y-110942500D03*
X30000000Y-116000000D03*
X29500000Y-122250000D03*
X34000000Y-60000000D03*
X34000000Y-65750000D03*
X32746429Y-72942500D03*
X32746429Y-93942500D03*
X32746429Y-101942500D03*
X32746429Y-119942500D03*
X34000000Y-129942500D03*
X34000000Y-107942500D03*
X34000000Y-125250000D03*
X35746429Y-96942500D03*
X40746429Y-88942500D03*
X41746429Y-93942500D03*
X44746429Y-90942500D03*
X46746429Y-94942500D03*
X46746429Y-100942500D03*
X48746429Y-88942500D03*
X49746429Y-97942500D03*
X50746429Y-92942500D03*
X51746429Y-101942500D03*
X53746429Y-86942500D03*
X53746429Y-95942500D03*
X54746429Y-104942500D03*
X55746429Y-90942500D03*
X55746429Y-99942500D03*
X58746429Y-85942500D03*
X58746429Y-93942500D03*
X58746429Y-102942500D03*
X60746429Y-89942500D03*
X60746429Y-97942500D03*
X62746429Y-104942500D03*
X63746429Y-82942500D03*
X63746429Y-92942500D03*
X64746429Y-87942500D03*
X64746429Y-99942500D03*
X64746429Y-108942500D03*
X66746429Y-95942500D03*
X67746429Y-84942500D03*
X67746429Y-90942500D03*
X67746429Y-102942500D03*
X69746429Y-98942500D03*
X69746429Y-106942500D03*
X70746429Y-87942500D03*
X70746429Y-93942500D03*
X71746429Y-82942500D03*
X72746429Y-101942500D03*
X73746429Y-90942500D03*
X73746429Y-108942500D03*
X74746429Y-85942500D03*
X75746429Y-104942500D03*
X76746429Y-99942500D03*
X77746429Y-82942500D03*
X77746429Y-88942500D03*
X78746429Y-107942500D03*
X79746429Y-102942500D03*
X80746429Y-85942500D03*
X81746429Y-90942500D03*
X81746429Y-96942500D03*
X82746429Y-105942500D03*
X83746429Y-82942500D03*
X83746429Y-100942500D03*
X84746429Y-87942500D03*
X84746429Y-93942500D03*
X85746429Y-108942500D03*
X86746429Y-97942500D03*
X86746429Y-103942500D03*
X87746429Y-84942500D03*
X87746429Y-90942500D03*
X89746429Y-94942500D03*
X89746429Y-100942500D03*
X89746429Y-106942500D03*
X90746429Y-87942500D03*
X91746429Y-82942500D03*
X92746429Y-91942500D03*
X92746429Y-97942500D03*
X92746429Y-103942500D03*
X94746429Y-85942500D03*
X95746429Y-94942500D03*
X95746429Y-100942500D03*
X96746429Y-89942500D03*
X97746429Y-104942500D03*
X98746429Y-97942500D03*
X99746429Y-82942500D03*
X99746429Y-92942500D03*
X99746429Y-108942500D03*
X100746429Y-87942500D03*
X100746429Y-101942500D03*
X102746429Y-95942500D03*
X102746429Y-105942500D03*
X103746429Y-84942500D03*
X103746429Y-90942500D03*
X104746429Y-99942500D03*
X106746429Y-87942500D03*
X106746429Y-93942500D03*
X106746429Y-103942500D03*
X108746429Y-97942500D03*
X109746429Y-90942500D03*
X110746429Y-101942500D03*
X111746429Y-94942500D03*
X113746429Y-88942500D03*
X113746429Y-98942500D03*
X115746429Y-92942500D03*
X117746429Y-100942500D03*
X118746429Y-95942500D03*
X119746429Y-88942500D03*
X121746429Y-98942500D03*
X122746429Y-93942500D03*
X125746429Y-88942500D03*
X125746429Y-96942500D03*
X127746429Y-100942500D03*
X128746429Y-93942500D03*
X131746429Y-88942500D03*
X131746429Y-96942500D03*
X134746429Y-93942500D03*
%TO.N,/V-*%
X120750000Y-74250000D03*
%TD*%
D21*
%TO.N,/V-*%
G36*
X129600000Y-65500000D02*
G01*
X129602882Y-65529264D01*
X129611418Y-65557403D01*
X129625280Y-65583336D01*
X129643934Y-65606066D01*
X130643934Y-66606066D01*
X130666664Y-66624720D01*
X130692597Y-66638582D01*
X130720736Y-66647118D01*
X130750000Y-66650000D01*
X137025000Y-66650000D01*
X137025000Y-87350000D01*
X111312132Y-87350000D01*
X108589018Y-84626886D01*
X116250000Y-84626886D01*
X116250000Y-84873114D01*
X116298037Y-85114611D01*
X116392265Y-85342097D01*
X116529062Y-85546828D01*
X116703172Y-85720938D01*
X116907903Y-85857735D01*
X117135389Y-85951963D01*
X117376886Y-86000000D01*
X117623114Y-86000000D01*
X117864611Y-85951963D01*
X118092097Y-85857735D01*
X118296828Y-85720938D01*
X118470938Y-85546828D01*
X118607735Y-85342097D01*
X118701963Y-85114611D01*
X118721141Y-85018197D01*
X128833225Y-85018197D01*
X128949820Y-85310524D01*
X129273674Y-85477615D01*
X129623902Y-85578315D01*
X129987047Y-85608755D01*
X130349152Y-85567762D01*
X130696302Y-85456915D01*
X130970180Y-85310524D01*
X131086775Y-85018197D01*
X133913225Y-85018197D01*
X134029820Y-85310524D01*
X134353674Y-85477615D01*
X134703902Y-85578315D01*
X135067047Y-85608755D01*
X135429152Y-85567762D01*
X135776302Y-85456915D01*
X136050180Y-85310524D01*
X136166775Y-85018197D01*
X135040000Y-83891421D01*
X133913225Y-85018197D01*
X131086775Y-85018197D01*
X129960000Y-83891421D01*
X128833225Y-85018197D01*
X118721141Y-85018197D01*
X118750000Y-84873114D01*
X118750000Y-84626886D01*
X118701963Y-84385389D01*
X118607735Y-84157903D01*
X118470938Y-83953172D01*
X118296828Y-83779062D01*
X118293813Y-83777047D01*
X128101245Y-83777047D01*
X128142238Y-84139152D01*
X128253085Y-84486302D01*
X128399476Y-84760180D01*
X128691803Y-84876775D01*
X129818579Y-83750000D01*
X130101421Y-83750000D01*
X131228197Y-84876775D01*
X131520524Y-84760180D01*
X131687615Y-84436326D01*
X131788315Y-84086098D01*
X131814220Y-83777047D01*
X133181245Y-83777047D01*
X133222238Y-84139152D01*
X133333085Y-84486302D01*
X133479476Y-84760180D01*
X133771803Y-84876775D01*
X134898579Y-83750000D01*
X135181421Y-83750000D01*
X136308197Y-84876775D01*
X136600524Y-84760180D01*
X136767615Y-84436326D01*
X136868315Y-84086098D01*
X136898755Y-83722953D01*
X136857762Y-83360848D01*
X136746915Y-83013698D01*
X136600524Y-82739820D01*
X136308197Y-82623225D01*
X135181421Y-83750000D01*
X134898579Y-83750000D01*
X133771803Y-82623225D01*
X133479476Y-82739820D01*
X133312385Y-83063674D01*
X133211685Y-83413902D01*
X133181245Y-83777047D01*
X131814220Y-83777047D01*
X131818755Y-83722953D01*
X131777762Y-83360848D01*
X131666915Y-83013698D01*
X131520524Y-82739820D01*
X131228197Y-82623225D01*
X130101421Y-83750000D01*
X129818579Y-83750000D01*
X128691803Y-82623225D01*
X128399476Y-82739820D01*
X128232385Y-83063674D01*
X128131685Y-83413902D01*
X128101245Y-83777047D01*
X118293813Y-83777047D01*
X118092097Y-83642265D01*
X117864611Y-83548037D01*
X117623114Y-83500000D01*
X117376886Y-83500000D01*
X117135389Y-83548037D01*
X116907903Y-83642265D01*
X116703172Y-83779062D01*
X116529062Y-83953172D01*
X116392265Y-84157903D01*
X116298037Y-84385389D01*
X116250000Y-84626886D01*
X108589018Y-84626886D01*
X105106066Y-81143934D01*
X105085293Y-81126886D01*
X116250000Y-81126886D01*
X116250000Y-81373114D01*
X116298037Y-81614611D01*
X116392265Y-81842097D01*
X116529062Y-82046828D01*
X116703172Y-82220938D01*
X116907903Y-82357735D01*
X117135389Y-82451963D01*
X117376886Y-82500000D01*
X117623114Y-82500000D01*
X117864611Y-82451963D01*
X118092097Y-82357735D01*
X118296828Y-82220938D01*
X118470938Y-82046828D01*
X118607735Y-81842097D01*
X118701963Y-81614611D01*
X118750000Y-81373114D01*
X118750000Y-81216886D01*
X119500000Y-81216886D01*
X119500000Y-81463114D01*
X119548037Y-81704611D01*
X119642265Y-81932097D01*
X119779062Y-82136828D01*
X119953172Y-82310938D01*
X120157903Y-82447735D01*
X120385389Y-82541963D01*
X120626886Y-82590000D01*
X120873114Y-82590000D01*
X121114611Y-82541963D01*
X121342097Y-82447735D01*
X121546828Y-82310938D01*
X121720938Y-82136828D01*
X121857735Y-81932097D01*
X121951963Y-81704611D01*
X122000000Y-81463114D01*
X122000000Y-81216886D01*
X122750000Y-81216886D01*
X122750000Y-81463114D01*
X122798037Y-81704611D01*
X122892265Y-81932097D01*
X123029062Y-82136828D01*
X123203172Y-82310938D01*
X123407903Y-82447735D01*
X123635389Y-82541963D01*
X123876886Y-82590000D01*
X124123114Y-82590000D01*
X124364611Y-82541963D01*
X124509849Y-82481803D01*
X128833225Y-82481803D01*
X129960000Y-83608579D01*
X131086775Y-82481803D01*
X133913225Y-82481803D01*
X135040000Y-83608579D01*
X136166775Y-82481803D01*
X136050180Y-82189476D01*
X135726326Y-82022385D01*
X135376098Y-81921685D01*
X135012953Y-81891245D01*
X134650848Y-81932238D01*
X134303698Y-82043085D01*
X134029820Y-82189476D01*
X133913225Y-82481803D01*
X131086775Y-82481803D01*
X130970180Y-82189476D01*
X130646326Y-82022385D01*
X130296098Y-81921685D01*
X129932953Y-81891245D01*
X129570848Y-81932238D01*
X129223698Y-82043085D01*
X128949820Y-82189476D01*
X128833225Y-82481803D01*
X124509849Y-82481803D01*
X124592097Y-82447735D01*
X124796828Y-82310938D01*
X124970938Y-82136828D01*
X125107735Y-81932097D01*
X125201963Y-81704611D01*
X125250000Y-81463114D01*
X125250000Y-81216886D01*
X125201963Y-80975389D01*
X125107735Y-80747903D01*
X124970938Y-80543172D01*
X124796828Y-80369062D01*
X124592097Y-80232265D01*
X124364611Y-80138037D01*
X124123114Y-80090000D01*
X123876886Y-80090000D01*
X123635389Y-80138037D01*
X123407903Y-80232265D01*
X123203172Y-80369062D01*
X123029062Y-80543172D01*
X122892265Y-80747903D01*
X122798037Y-80975389D01*
X122750000Y-81216886D01*
X122000000Y-81216886D01*
X121951963Y-80975389D01*
X121857735Y-80747903D01*
X121720938Y-80543172D01*
X121546828Y-80369062D01*
X121342097Y-80232265D01*
X121114611Y-80138037D01*
X120873114Y-80090000D01*
X120626886Y-80090000D01*
X120385389Y-80138037D01*
X120157903Y-80232265D01*
X119953172Y-80369062D01*
X119779062Y-80543172D01*
X119642265Y-80747903D01*
X119548037Y-80975389D01*
X119500000Y-81216886D01*
X118750000Y-81216886D01*
X118750000Y-81126886D01*
X118701963Y-80885389D01*
X118607735Y-80657903D01*
X118470938Y-80453172D01*
X118296828Y-80279062D01*
X118092097Y-80142265D01*
X117864611Y-80048037D01*
X117623114Y-80000000D01*
X117376886Y-80000000D01*
X117135389Y-80048037D01*
X116907903Y-80142265D01*
X116703172Y-80279062D01*
X116529062Y-80453172D01*
X116392265Y-80657903D01*
X116298037Y-80885389D01*
X116250000Y-81126886D01*
X105085293Y-81126886D01*
X105083336Y-81125280D01*
X105057403Y-81111418D01*
X105029264Y-81102882D01*
X105000000Y-81100000D01*
X98202177Y-81100000D01*
X98202177Y-80000000D01*
X98193489Y-79911785D01*
X98167757Y-79826959D01*
X98125971Y-79748784D01*
X98069737Y-79680263D01*
X98001216Y-79624029D01*
X97923041Y-79582243D01*
X97838215Y-79556511D01*
X97750000Y-79547823D01*
X93750000Y-79547823D01*
X93661785Y-79556511D01*
X93576959Y-79582243D01*
X93498784Y-79624029D01*
X93430263Y-79680263D01*
X93374029Y-79748784D01*
X93332243Y-79826959D01*
X93306511Y-79911785D01*
X93297823Y-80000000D01*
X93297823Y-81100000D01*
X62452177Y-81100000D01*
X62452177Y-80000000D01*
X62443489Y-79911785D01*
X62417757Y-79826959D01*
X62375971Y-79748784D01*
X62319737Y-79680263D01*
X62251216Y-79624029D01*
X62173041Y-79582243D01*
X62088215Y-79556511D01*
X62000000Y-79547823D01*
X58000000Y-79547823D01*
X57911785Y-79556511D01*
X57826959Y-79582243D01*
X57748784Y-79624029D01*
X57680263Y-79680263D01*
X57624029Y-79748784D01*
X57582243Y-79826959D01*
X57556511Y-79911785D01*
X57547823Y-80000000D01*
X57547823Y-81100000D01*
X57500000Y-81100000D01*
X57470736Y-81102882D01*
X57442597Y-81111418D01*
X57416664Y-81125280D01*
X57393934Y-81143934D01*
X50687868Y-87850000D01*
X39062132Y-87850000D01*
X38445469Y-87233337D01*
X41408085Y-87233337D01*
X41476509Y-87484750D01*
X41732259Y-87611925D01*
X42007906Y-87686762D01*
X42292856Y-87706386D01*
X42576159Y-87670042D01*
X42846928Y-87579125D01*
X43023491Y-87484750D01*
X43091915Y-87233337D01*
X42250000Y-86391421D01*
X41408085Y-87233337D01*
X38445469Y-87233337D01*
X37504988Y-86292856D01*
X40793614Y-86292856D01*
X40829958Y-86576159D01*
X40920875Y-86846928D01*
X41015250Y-87023491D01*
X41266663Y-87091915D01*
X42108579Y-86250000D01*
X42391421Y-86250000D01*
X43233337Y-87091915D01*
X43484750Y-87023491D01*
X43611925Y-86767741D01*
X43686762Y-86492094D01*
X43706386Y-86207144D01*
X43670042Y-85923841D01*
X43579125Y-85653072D01*
X43484750Y-85476509D01*
X43233337Y-85408085D01*
X42391421Y-86250000D01*
X42108579Y-86250000D01*
X41266663Y-85408085D01*
X41015250Y-85476509D01*
X40888075Y-85732259D01*
X40813238Y-86007906D01*
X40793614Y-86292856D01*
X37504988Y-86292856D01*
X35400000Y-84187868D01*
X35400000Y-83850000D01*
X36450000Y-83850000D01*
X36450000Y-84250000D01*
X36499292Y-84550469D01*
X36606255Y-84835548D01*
X36766779Y-85094282D01*
X36974695Y-85316727D01*
X37222013Y-85494336D01*
X37499229Y-85620283D01*
X37659263Y-85662084D01*
X37900000Y-85533892D01*
X37900000Y-83850000D01*
X38100000Y-83850000D01*
X38100000Y-85533892D01*
X38340737Y-85662084D01*
X38500771Y-85620283D01*
X38777987Y-85494336D01*
X39025305Y-85316727D01*
X39072099Y-85266663D01*
X41408085Y-85266663D01*
X42250000Y-86108579D01*
X43091915Y-85266663D01*
X43023491Y-85015250D01*
X42767741Y-84888075D01*
X42492094Y-84813238D01*
X42207144Y-84793614D01*
X41923841Y-84829958D01*
X41653072Y-84920875D01*
X41476509Y-85015250D01*
X41408085Y-85266663D01*
X39072099Y-85266663D01*
X39233221Y-85094282D01*
X39393745Y-84835548D01*
X39500708Y-84550469D01*
X39550000Y-84250000D01*
X39550000Y-83850000D01*
X38100000Y-83850000D01*
X37900000Y-83850000D01*
X36450000Y-83850000D01*
X35400000Y-83850000D01*
X35400000Y-83250000D01*
X36450000Y-83250000D01*
X36450000Y-83650000D01*
X37900000Y-83650000D01*
X37900000Y-81966108D01*
X38100000Y-81966108D01*
X38100000Y-83650000D01*
X39550000Y-83650000D01*
X39550000Y-83250000D01*
X39500708Y-82949531D01*
X39393745Y-82664452D01*
X39233221Y-82405718D01*
X39025305Y-82183273D01*
X38777987Y-82005664D01*
X38500771Y-81879717D01*
X38340737Y-81837916D01*
X38100000Y-81966108D01*
X37900000Y-81966108D01*
X37659263Y-81837916D01*
X37499229Y-81879717D01*
X37222013Y-82005664D01*
X36974695Y-82183273D01*
X36766779Y-82405718D01*
X36606255Y-82664452D01*
X36499292Y-82949531D01*
X36450000Y-83250000D01*
X35400000Y-83250000D01*
X35400000Y-79483337D01*
X36658085Y-79483337D01*
X36726509Y-79734750D01*
X36982259Y-79861925D01*
X37257906Y-79936762D01*
X37542856Y-79956386D01*
X37826159Y-79920042D01*
X38096928Y-79829125D01*
X38273491Y-79734750D01*
X38341915Y-79483337D01*
X37500000Y-78641421D01*
X36658085Y-79483337D01*
X35400000Y-79483337D01*
X35400000Y-78542856D01*
X36043614Y-78542856D01*
X36079958Y-78826159D01*
X36170875Y-79096928D01*
X36265250Y-79273491D01*
X36516663Y-79341915D01*
X37358579Y-78500000D01*
X37641421Y-78500000D01*
X38483337Y-79341915D01*
X38734750Y-79273491D01*
X38861925Y-79017741D01*
X38936762Y-78742094D01*
X38956386Y-78457144D01*
X38920042Y-78173841D01*
X38829125Y-77903072D01*
X38734750Y-77726509D01*
X38483337Y-77658085D01*
X37641421Y-78500000D01*
X37358579Y-78500000D01*
X36516663Y-77658085D01*
X36265250Y-77726509D01*
X36138075Y-77982259D01*
X36063238Y-78257906D01*
X36043614Y-78542856D01*
X35400000Y-78542856D01*
X35400000Y-77516663D01*
X36658085Y-77516663D01*
X37500000Y-78358579D01*
X38340381Y-77518197D01*
X128833225Y-77518197D01*
X128949820Y-77810524D01*
X129273674Y-77977615D01*
X129623902Y-78078315D01*
X129987047Y-78108755D01*
X130349152Y-78067762D01*
X130696302Y-77956915D01*
X130970180Y-77810524D01*
X131086775Y-77518197D01*
X133913225Y-77518197D01*
X134029820Y-77810524D01*
X134353674Y-77977615D01*
X134703902Y-78078315D01*
X135067047Y-78108755D01*
X135429152Y-78067762D01*
X135776302Y-77956915D01*
X136050180Y-77810524D01*
X136166775Y-77518197D01*
X135040000Y-76391421D01*
X133913225Y-77518197D01*
X131086775Y-77518197D01*
X129960000Y-76391421D01*
X128833225Y-77518197D01*
X38340381Y-77518197D01*
X38341915Y-77516663D01*
X38273491Y-77265250D01*
X38017741Y-77138075D01*
X37742094Y-77063238D01*
X37457144Y-77043614D01*
X37173841Y-77079958D01*
X36903072Y-77170875D01*
X36726509Y-77265250D01*
X36658085Y-77516663D01*
X35400000Y-77516663D01*
X35400000Y-75126886D01*
X36250000Y-75126886D01*
X36250000Y-75373114D01*
X36298037Y-75614611D01*
X36392265Y-75842097D01*
X36529062Y-76046828D01*
X36703172Y-76220938D01*
X36907903Y-76357735D01*
X37135389Y-76451963D01*
X37376886Y-76500000D01*
X37623114Y-76500000D01*
X37864611Y-76451963D01*
X38092097Y-76357735D01*
X38212855Y-76277047D01*
X128101245Y-76277047D01*
X128142238Y-76639152D01*
X128253085Y-76986302D01*
X128399476Y-77260180D01*
X128691803Y-77376775D01*
X129818579Y-76250000D01*
X130101421Y-76250000D01*
X131228197Y-77376775D01*
X131520524Y-77260180D01*
X131687615Y-76936326D01*
X131788315Y-76586098D01*
X131814220Y-76277047D01*
X133181245Y-76277047D01*
X133222238Y-76639152D01*
X133333085Y-76986302D01*
X133479476Y-77260180D01*
X133771803Y-77376775D01*
X134898579Y-76250000D01*
X135181421Y-76250000D01*
X136308197Y-77376775D01*
X136600524Y-77260180D01*
X136767615Y-76936326D01*
X136868315Y-76586098D01*
X136898755Y-76222953D01*
X136857762Y-75860848D01*
X136746915Y-75513698D01*
X136600524Y-75239820D01*
X136308197Y-75123225D01*
X135181421Y-76250000D01*
X134898579Y-76250000D01*
X133771803Y-75123225D01*
X133479476Y-75239820D01*
X133312385Y-75563674D01*
X133211685Y-75913902D01*
X133181245Y-76277047D01*
X131814220Y-76277047D01*
X131818755Y-76222953D01*
X131777762Y-75860848D01*
X131666915Y-75513698D01*
X131520524Y-75239820D01*
X131228197Y-75123225D01*
X130101421Y-76250000D01*
X129818579Y-76250000D01*
X128691803Y-75123225D01*
X128399476Y-75239820D01*
X128232385Y-75563674D01*
X128131685Y-75913902D01*
X128101245Y-76277047D01*
X38212855Y-76277047D01*
X38296828Y-76220938D01*
X38470938Y-76046828D01*
X38607735Y-75842097D01*
X38701963Y-75614611D01*
X38750000Y-75373114D01*
X38750000Y-75126886D01*
X38721142Y-74981803D01*
X128833225Y-74981803D01*
X129960000Y-76108579D01*
X131086775Y-74981803D01*
X133913225Y-74981803D01*
X135040000Y-76108579D01*
X136166775Y-74981803D01*
X136050180Y-74689476D01*
X135726326Y-74522385D01*
X135376098Y-74421685D01*
X135012953Y-74391245D01*
X134650848Y-74432238D01*
X134303698Y-74543085D01*
X134029820Y-74689476D01*
X133913225Y-74981803D01*
X131086775Y-74981803D01*
X130970180Y-74689476D01*
X130646326Y-74522385D01*
X130296098Y-74421685D01*
X129932953Y-74391245D01*
X129570848Y-74432238D01*
X129223698Y-74543085D01*
X128949820Y-74689476D01*
X128833225Y-74981803D01*
X38721142Y-74981803D01*
X38701963Y-74885389D01*
X38607735Y-74657903D01*
X38470938Y-74453172D01*
X38296828Y-74279062D01*
X38092097Y-74142265D01*
X37864611Y-74048037D01*
X37623114Y-74000000D01*
X37376886Y-74000000D01*
X37135389Y-74048037D01*
X36907903Y-74142265D01*
X36703172Y-74279062D01*
X36529062Y-74453172D01*
X36392265Y-74657903D01*
X36298037Y-74885389D01*
X36250000Y-75126886D01*
X35400000Y-75126886D01*
X35400000Y-73837290D01*
X58304131Y-73837290D01*
X58516838Y-74211527D01*
X58976784Y-74458384D01*
X59476052Y-74610766D01*
X59995455Y-74662818D01*
X60515032Y-74612540D01*
X61014817Y-74461863D01*
X61475603Y-74216578D01*
X61483162Y-74211527D01*
X61695869Y-73837290D01*
X94054131Y-73837290D01*
X94266838Y-74211527D01*
X94726784Y-74458384D01*
X95226052Y-74610766D01*
X95745455Y-74662818D01*
X96265032Y-74612540D01*
X96764817Y-74461863D01*
X97225603Y-74216578D01*
X97233162Y-74211527D01*
X97445869Y-73837290D01*
X95750000Y-72141421D01*
X94054131Y-73837290D01*
X61695869Y-73837290D01*
X60000000Y-72141421D01*
X58304131Y-73837290D01*
X35400000Y-73837290D01*
X35400000Y-71995455D01*
X57337182Y-71995455D01*
X57387460Y-72515032D01*
X57538137Y-73014817D01*
X57783422Y-73475603D01*
X57788473Y-73483162D01*
X58162710Y-73695869D01*
X59858579Y-72000000D01*
X60141421Y-72000000D01*
X61837290Y-73695869D01*
X62211527Y-73483162D01*
X62458384Y-73023216D01*
X62610766Y-72523948D01*
X62662818Y-72004545D01*
X62661939Y-71995455D01*
X93087182Y-71995455D01*
X93137460Y-72515032D01*
X93288137Y-73014817D01*
X93533422Y-73475603D01*
X93538473Y-73483162D01*
X93912710Y-73695869D01*
X95608579Y-72000000D01*
X95891421Y-72000000D01*
X97587290Y-73695869D01*
X97961527Y-73483162D01*
X98208384Y-73023216D01*
X98360766Y-72523948D01*
X98412818Y-72004545D01*
X98362540Y-71484968D01*
X98341464Y-71415059D01*
X116086901Y-71415059D01*
X116177469Y-71684495D01*
X116318861Y-71931085D01*
X116505644Y-72145353D01*
X116730639Y-72319064D01*
X116985201Y-72445543D01*
X117174941Y-72503095D01*
X117400000Y-72373611D01*
X117400000Y-71190000D01*
X117600000Y-71190000D01*
X117600000Y-72373611D01*
X117825059Y-72503095D01*
X118014799Y-72445543D01*
X118269361Y-72319064D01*
X118494356Y-72145353D01*
X118681139Y-71931085D01*
X118822531Y-71684495D01*
X118913099Y-71415059D01*
X118784052Y-71190000D01*
X117600000Y-71190000D01*
X117400000Y-71190000D01*
X116215948Y-71190000D01*
X116086901Y-71415059D01*
X98341464Y-71415059D01*
X98211863Y-70985183D01*
X98094625Y-70764941D01*
X116086901Y-70764941D01*
X116215948Y-70990000D01*
X117400000Y-70990000D01*
X117400000Y-69806389D01*
X117600000Y-69806389D01*
X117600000Y-70990000D01*
X118784052Y-70990000D01*
X118913099Y-70764941D01*
X118822531Y-70495505D01*
X118681139Y-70248915D01*
X118494356Y-70034647D01*
X118269361Y-69860936D01*
X118014799Y-69734457D01*
X117825059Y-69676905D01*
X117600000Y-69806389D01*
X117400000Y-69806389D01*
X117174941Y-69676905D01*
X116985201Y-69734457D01*
X116730639Y-69860936D01*
X116505644Y-70034647D01*
X116318861Y-70248915D01*
X116177469Y-70495505D01*
X116086901Y-70764941D01*
X98094625Y-70764941D01*
X97966578Y-70524397D01*
X97961527Y-70516838D01*
X97587290Y-70304131D01*
X95891421Y-72000000D01*
X95608579Y-72000000D01*
X93912710Y-70304131D01*
X93538473Y-70516838D01*
X93291616Y-70976784D01*
X93139234Y-71476052D01*
X93087182Y-71995455D01*
X62661939Y-71995455D01*
X62612540Y-71484968D01*
X62461863Y-70985183D01*
X62216578Y-70524397D01*
X62211527Y-70516838D01*
X61837290Y-70304131D01*
X60141421Y-72000000D01*
X59858579Y-72000000D01*
X58162710Y-70304131D01*
X57788473Y-70516838D01*
X57541616Y-70976784D01*
X57389234Y-71476052D01*
X57337182Y-71995455D01*
X35400000Y-71995455D01*
X35400000Y-70162710D01*
X58304131Y-70162710D01*
X60000000Y-71858579D01*
X61695869Y-70162710D01*
X94054131Y-70162710D01*
X95750000Y-71858579D01*
X97445869Y-70162710D01*
X97233162Y-69788473D01*
X96773216Y-69541616D01*
X96273948Y-69389234D01*
X95754545Y-69337182D01*
X95234968Y-69387460D01*
X94735183Y-69538137D01*
X94274397Y-69783422D01*
X94266838Y-69788473D01*
X94054131Y-70162710D01*
X61695869Y-70162710D01*
X61483162Y-69788473D01*
X61023216Y-69541616D01*
X60523948Y-69389234D01*
X60004545Y-69337182D01*
X59484968Y-69387460D01*
X58985183Y-69538137D01*
X58524397Y-69783422D01*
X58516838Y-69788473D01*
X58304131Y-70162710D01*
X35400000Y-70162710D01*
X35400000Y-66232607D01*
X118908815Y-66232607D01*
X119019396Y-66519816D01*
X119334739Y-66681919D01*
X119675649Y-66779388D01*
X120029022Y-66808475D01*
X120381280Y-66768064D01*
X120718886Y-66659708D01*
X120980604Y-66519816D01*
X121091185Y-66232607D01*
X120000000Y-65141421D01*
X118908815Y-66232607D01*
X35400000Y-66232607D01*
X35400000Y-65029022D01*
X118191525Y-65029022D01*
X118231936Y-65381280D01*
X118340292Y-65718886D01*
X118480184Y-65980604D01*
X118767393Y-66091185D01*
X119858579Y-65000000D01*
X120141421Y-65000000D01*
X121232607Y-66091185D01*
X121519816Y-65980604D01*
X121681919Y-65665261D01*
X121779388Y-65324351D01*
X121808475Y-64970978D01*
X121768064Y-64618720D01*
X121659708Y-64281114D01*
X121519816Y-64019396D01*
X121232607Y-63908815D01*
X120141421Y-65000000D01*
X119858579Y-65000000D01*
X118767393Y-63908815D01*
X118480184Y-64019396D01*
X118318081Y-64334739D01*
X118220612Y-64675649D01*
X118191525Y-65029022D01*
X35400000Y-65029022D01*
X35400000Y-63767393D01*
X118908815Y-63767393D01*
X120000000Y-64858579D01*
X121008578Y-63850000D01*
X121897823Y-63850000D01*
X121897823Y-66150000D01*
X121906511Y-66238215D01*
X121932243Y-66323041D01*
X121974029Y-66401216D01*
X122030263Y-66469737D01*
X122098784Y-66525971D01*
X122176959Y-66567757D01*
X122261785Y-66593489D01*
X122350000Y-66602177D01*
X124650000Y-66602177D01*
X124738215Y-66593489D01*
X124823041Y-66567757D01*
X124901216Y-66525971D01*
X124969737Y-66469737D01*
X125025971Y-66401216D01*
X125067757Y-66323041D01*
X125093489Y-66238215D01*
X125102177Y-66150000D01*
X125102177Y-63850000D01*
X125093489Y-63761785D01*
X125067757Y-63676959D01*
X125025971Y-63598784D01*
X124969737Y-63530263D01*
X124901216Y-63474029D01*
X124823041Y-63432243D01*
X124738215Y-63406511D01*
X124650000Y-63397823D01*
X122350000Y-63397823D01*
X122261785Y-63406511D01*
X122176959Y-63432243D01*
X122098784Y-63474029D01*
X122030263Y-63530263D01*
X121974029Y-63598784D01*
X121932243Y-63676959D01*
X121906511Y-63761785D01*
X121897823Y-63850000D01*
X121008578Y-63850000D01*
X121091185Y-63767393D01*
X120980604Y-63480184D01*
X120665261Y-63318081D01*
X120324351Y-63220612D01*
X119970978Y-63191525D01*
X119618720Y-63231936D01*
X119281114Y-63340292D01*
X119019396Y-63480184D01*
X118908815Y-63767393D01*
X35400000Y-63767393D01*
X35400000Y-59225000D01*
X129600000Y-59225000D01*
X129600000Y-65500000D01*
G37*
X129600000Y-65500000D02*
X129602882Y-65529264D01*
X129611418Y-65557403D01*
X129625280Y-65583336D01*
X129643934Y-65606066D01*
X130643934Y-66606066D01*
X130666664Y-66624720D01*
X130692597Y-66638582D01*
X130720736Y-66647118D01*
X130750000Y-66650000D01*
X137025000Y-66650000D01*
X137025000Y-87350000D01*
X111312132Y-87350000D01*
X108589018Y-84626886D01*
X116250000Y-84626886D01*
X116250000Y-84873114D01*
X116298037Y-85114611D01*
X116392265Y-85342097D01*
X116529062Y-85546828D01*
X116703172Y-85720938D01*
X116907903Y-85857735D01*
X117135389Y-85951963D01*
X117376886Y-86000000D01*
X117623114Y-86000000D01*
X117864611Y-85951963D01*
X118092097Y-85857735D01*
X118296828Y-85720938D01*
X118470938Y-85546828D01*
X118607735Y-85342097D01*
X118701963Y-85114611D01*
X118721141Y-85018197D01*
X128833225Y-85018197D01*
X128949820Y-85310524D01*
X129273674Y-85477615D01*
X129623902Y-85578315D01*
X129987047Y-85608755D01*
X130349152Y-85567762D01*
X130696302Y-85456915D01*
X130970180Y-85310524D01*
X131086775Y-85018197D01*
X133913225Y-85018197D01*
X134029820Y-85310524D01*
X134353674Y-85477615D01*
X134703902Y-85578315D01*
X135067047Y-85608755D01*
X135429152Y-85567762D01*
X135776302Y-85456915D01*
X136050180Y-85310524D01*
X136166775Y-85018197D01*
X135040000Y-83891421D01*
X133913225Y-85018197D01*
X131086775Y-85018197D01*
X129960000Y-83891421D01*
X128833225Y-85018197D01*
X118721141Y-85018197D01*
X118750000Y-84873114D01*
X118750000Y-84626886D01*
X118701963Y-84385389D01*
X118607735Y-84157903D01*
X118470938Y-83953172D01*
X118296828Y-83779062D01*
X118293813Y-83777047D01*
X128101245Y-83777047D01*
X128142238Y-84139152D01*
X128253085Y-84486302D01*
X128399476Y-84760180D01*
X128691803Y-84876775D01*
X129818579Y-83750000D01*
X130101421Y-83750000D01*
X131228197Y-84876775D01*
X131520524Y-84760180D01*
X131687615Y-84436326D01*
X131788315Y-84086098D01*
X131814220Y-83777047D01*
X133181245Y-83777047D01*
X133222238Y-84139152D01*
X133333085Y-84486302D01*
X133479476Y-84760180D01*
X133771803Y-84876775D01*
X134898579Y-83750000D01*
X135181421Y-83750000D01*
X136308197Y-84876775D01*
X136600524Y-84760180D01*
X136767615Y-84436326D01*
X136868315Y-84086098D01*
X136898755Y-83722953D01*
X136857762Y-83360848D01*
X136746915Y-83013698D01*
X136600524Y-82739820D01*
X136308197Y-82623225D01*
X135181421Y-83750000D01*
X134898579Y-83750000D01*
X133771803Y-82623225D01*
X133479476Y-82739820D01*
X133312385Y-83063674D01*
X133211685Y-83413902D01*
X133181245Y-83777047D01*
X131814220Y-83777047D01*
X131818755Y-83722953D01*
X131777762Y-83360848D01*
X131666915Y-83013698D01*
X131520524Y-82739820D01*
X131228197Y-82623225D01*
X130101421Y-83750000D01*
X129818579Y-83750000D01*
X128691803Y-82623225D01*
X128399476Y-82739820D01*
X128232385Y-83063674D01*
X128131685Y-83413902D01*
X128101245Y-83777047D01*
X118293813Y-83777047D01*
X118092097Y-83642265D01*
X117864611Y-83548037D01*
X117623114Y-83500000D01*
X117376886Y-83500000D01*
X117135389Y-83548037D01*
X116907903Y-83642265D01*
X116703172Y-83779062D01*
X116529062Y-83953172D01*
X116392265Y-84157903D01*
X116298037Y-84385389D01*
X116250000Y-84626886D01*
X108589018Y-84626886D01*
X105106066Y-81143934D01*
X105085293Y-81126886D01*
X116250000Y-81126886D01*
X116250000Y-81373114D01*
X116298037Y-81614611D01*
X116392265Y-81842097D01*
X116529062Y-82046828D01*
X116703172Y-82220938D01*
X116907903Y-82357735D01*
X117135389Y-82451963D01*
X117376886Y-82500000D01*
X117623114Y-82500000D01*
X117864611Y-82451963D01*
X118092097Y-82357735D01*
X118296828Y-82220938D01*
X118470938Y-82046828D01*
X118607735Y-81842097D01*
X118701963Y-81614611D01*
X118750000Y-81373114D01*
X118750000Y-81216886D01*
X119500000Y-81216886D01*
X119500000Y-81463114D01*
X119548037Y-81704611D01*
X119642265Y-81932097D01*
X119779062Y-82136828D01*
X119953172Y-82310938D01*
X120157903Y-82447735D01*
X120385389Y-82541963D01*
X120626886Y-82590000D01*
X120873114Y-82590000D01*
X121114611Y-82541963D01*
X121342097Y-82447735D01*
X121546828Y-82310938D01*
X121720938Y-82136828D01*
X121857735Y-81932097D01*
X121951963Y-81704611D01*
X122000000Y-81463114D01*
X122000000Y-81216886D01*
X122750000Y-81216886D01*
X122750000Y-81463114D01*
X122798037Y-81704611D01*
X122892265Y-81932097D01*
X123029062Y-82136828D01*
X123203172Y-82310938D01*
X123407903Y-82447735D01*
X123635389Y-82541963D01*
X123876886Y-82590000D01*
X124123114Y-82590000D01*
X124364611Y-82541963D01*
X124509849Y-82481803D01*
X128833225Y-82481803D01*
X129960000Y-83608579D01*
X131086775Y-82481803D01*
X133913225Y-82481803D01*
X135040000Y-83608579D01*
X136166775Y-82481803D01*
X136050180Y-82189476D01*
X135726326Y-82022385D01*
X135376098Y-81921685D01*
X135012953Y-81891245D01*
X134650848Y-81932238D01*
X134303698Y-82043085D01*
X134029820Y-82189476D01*
X133913225Y-82481803D01*
X131086775Y-82481803D01*
X130970180Y-82189476D01*
X130646326Y-82022385D01*
X130296098Y-81921685D01*
X129932953Y-81891245D01*
X129570848Y-81932238D01*
X129223698Y-82043085D01*
X128949820Y-82189476D01*
X128833225Y-82481803D01*
X124509849Y-82481803D01*
X124592097Y-82447735D01*
X124796828Y-82310938D01*
X124970938Y-82136828D01*
X125107735Y-81932097D01*
X125201963Y-81704611D01*
X125250000Y-81463114D01*
X125250000Y-81216886D01*
X125201963Y-80975389D01*
X125107735Y-80747903D01*
X124970938Y-80543172D01*
X124796828Y-80369062D01*
X124592097Y-80232265D01*
X124364611Y-80138037D01*
X124123114Y-80090000D01*
X123876886Y-80090000D01*
X123635389Y-80138037D01*
X123407903Y-80232265D01*
X123203172Y-80369062D01*
X123029062Y-80543172D01*
X122892265Y-80747903D01*
X122798037Y-80975389D01*
X122750000Y-81216886D01*
X122000000Y-81216886D01*
X121951963Y-80975389D01*
X121857735Y-80747903D01*
X121720938Y-80543172D01*
X121546828Y-80369062D01*
X121342097Y-80232265D01*
X121114611Y-80138037D01*
X120873114Y-80090000D01*
X120626886Y-80090000D01*
X120385389Y-80138037D01*
X120157903Y-80232265D01*
X119953172Y-80369062D01*
X119779062Y-80543172D01*
X119642265Y-80747903D01*
X119548037Y-80975389D01*
X119500000Y-81216886D01*
X118750000Y-81216886D01*
X118750000Y-81126886D01*
X118701963Y-80885389D01*
X118607735Y-80657903D01*
X118470938Y-80453172D01*
X118296828Y-80279062D01*
X118092097Y-80142265D01*
X117864611Y-80048037D01*
X117623114Y-80000000D01*
X117376886Y-80000000D01*
X117135389Y-80048037D01*
X116907903Y-80142265D01*
X116703172Y-80279062D01*
X116529062Y-80453172D01*
X116392265Y-80657903D01*
X116298037Y-80885389D01*
X116250000Y-81126886D01*
X105085293Y-81126886D01*
X105083336Y-81125280D01*
X105057403Y-81111418D01*
X105029264Y-81102882D01*
X105000000Y-81100000D01*
X98202177Y-81100000D01*
X98202177Y-80000000D01*
X98193489Y-79911785D01*
X98167757Y-79826959D01*
X98125971Y-79748784D01*
X98069737Y-79680263D01*
X98001216Y-79624029D01*
X97923041Y-79582243D01*
X97838215Y-79556511D01*
X97750000Y-79547823D01*
X93750000Y-79547823D01*
X93661785Y-79556511D01*
X93576959Y-79582243D01*
X93498784Y-79624029D01*
X93430263Y-79680263D01*
X93374029Y-79748784D01*
X93332243Y-79826959D01*
X93306511Y-79911785D01*
X93297823Y-80000000D01*
X93297823Y-81100000D01*
X62452177Y-81100000D01*
X62452177Y-80000000D01*
X62443489Y-79911785D01*
X62417757Y-79826959D01*
X62375971Y-79748784D01*
X62319737Y-79680263D01*
X62251216Y-79624029D01*
X62173041Y-79582243D01*
X62088215Y-79556511D01*
X62000000Y-79547823D01*
X58000000Y-79547823D01*
X57911785Y-79556511D01*
X57826959Y-79582243D01*
X57748784Y-79624029D01*
X57680263Y-79680263D01*
X57624029Y-79748784D01*
X57582243Y-79826959D01*
X57556511Y-79911785D01*
X57547823Y-80000000D01*
X57547823Y-81100000D01*
X57500000Y-81100000D01*
X57470736Y-81102882D01*
X57442597Y-81111418D01*
X57416664Y-81125280D01*
X57393934Y-81143934D01*
X50687868Y-87850000D01*
X39062132Y-87850000D01*
X38445469Y-87233337D01*
X41408085Y-87233337D01*
X41476509Y-87484750D01*
X41732259Y-87611925D01*
X42007906Y-87686762D01*
X42292856Y-87706386D01*
X42576159Y-87670042D01*
X42846928Y-87579125D01*
X43023491Y-87484750D01*
X43091915Y-87233337D01*
X42250000Y-86391421D01*
X41408085Y-87233337D01*
X38445469Y-87233337D01*
X37504988Y-86292856D01*
X40793614Y-86292856D01*
X40829958Y-86576159D01*
X40920875Y-86846928D01*
X41015250Y-87023491D01*
X41266663Y-87091915D01*
X42108579Y-86250000D01*
X42391421Y-86250000D01*
X43233337Y-87091915D01*
X43484750Y-87023491D01*
X43611925Y-86767741D01*
X43686762Y-86492094D01*
X43706386Y-86207144D01*
X43670042Y-85923841D01*
X43579125Y-85653072D01*
X43484750Y-85476509D01*
X43233337Y-85408085D01*
X42391421Y-86250000D01*
X42108579Y-86250000D01*
X41266663Y-85408085D01*
X41015250Y-85476509D01*
X40888075Y-85732259D01*
X40813238Y-86007906D01*
X40793614Y-86292856D01*
X37504988Y-86292856D01*
X35400000Y-84187868D01*
X35400000Y-83850000D01*
X36450000Y-83850000D01*
X36450000Y-84250000D01*
X36499292Y-84550469D01*
X36606255Y-84835548D01*
X36766779Y-85094282D01*
X36974695Y-85316727D01*
X37222013Y-85494336D01*
X37499229Y-85620283D01*
X37659263Y-85662084D01*
X37900000Y-85533892D01*
X37900000Y-83850000D01*
X38100000Y-83850000D01*
X38100000Y-85533892D01*
X38340737Y-85662084D01*
X38500771Y-85620283D01*
X38777987Y-85494336D01*
X39025305Y-85316727D01*
X39072099Y-85266663D01*
X41408085Y-85266663D01*
X42250000Y-86108579D01*
X43091915Y-85266663D01*
X43023491Y-85015250D01*
X42767741Y-84888075D01*
X42492094Y-84813238D01*
X42207144Y-84793614D01*
X41923841Y-84829958D01*
X41653072Y-84920875D01*
X41476509Y-85015250D01*
X41408085Y-85266663D01*
X39072099Y-85266663D01*
X39233221Y-85094282D01*
X39393745Y-84835548D01*
X39500708Y-84550469D01*
X39550000Y-84250000D01*
X39550000Y-83850000D01*
X38100000Y-83850000D01*
X37900000Y-83850000D01*
X36450000Y-83850000D01*
X35400000Y-83850000D01*
X35400000Y-83250000D01*
X36450000Y-83250000D01*
X36450000Y-83650000D01*
X37900000Y-83650000D01*
X37900000Y-81966108D01*
X38100000Y-81966108D01*
X38100000Y-83650000D01*
X39550000Y-83650000D01*
X39550000Y-83250000D01*
X39500708Y-82949531D01*
X39393745Y-82664452D01*
X39233221Y-82405718D01*
X39025305Y-82183273D01*
X38777987Y-82005664D01*
X38500771Y-81879717D01*
X38340737Y-81837916D01*
X38100000Y-81966108D01*
X37900000Y-81966108D01*
X37659263Y-81837916D01*
X37499229Y-81879717D01*
X37222013Y-82005664D01*
X36974695Y-82183273D01*
X36766779Y-82405718D01*
X36606255Y-82664452D01*
X36499292Y-82949531D01*
X36450000Y-83250000D01*
X35400000Y-83250000D01*
X35400000Y-79483337D01*
X36658085Y-79483337D01*
X36726509Y-79734750D01*
X36982259Y-79861925D01*
X37257906Y-79936762D01*
X37542856Y-79956386D01*
X37826159Y-79920042D01*
X38096928Y-79829125D01*
X38273491Y-79734750D01*
X38341915Y-79483337D01*
X37500000Y-78641421D01*
X36658085Y-79483337D01*
X35400000Y-79483337D01*
X35400000Y-78542856D01*
X36043614Y-78542856D01*
X36079958Y-78826159D01*
X36170875Y-79096928D01*
X36265250Y-79273491D01*
X36516663Y-79341915D01*
X37358579Y-78500000D01*
X37641421Y-78500000D01*
X38483337Y-79341915D01*
X38734750Y-79273491D01*
X38861925Y-79017741D01*
X38936762Y-78742094D01*
X38956386Y-78457144D01*
X38920042Y-78173841D01*
X38829125Y-77903072D01*
X38734750Y-77726509D01*
X38483337Y-77658085D01*
X37641421Y-78500000D01*
X37358579Y-78500000D01*
X36516663Y-77658085D01*
X36265250Y-77726509D01*
X36138075Y-77982259D01*
X36063238Y-78257906D01*
X36043614Y-78542856D01*
X35400000Y-78542856D01*
X35400000Y-77516663D01*
X36658085Y-77516663D01*
X37500000Y-78358579D01*
X38340381Y-77518197D01*
X128833225Y-77518197D01*
X128949820Y-77810524D01*
X129273674Y-77977615D01*
X129623902Y-78078315D01*
X129987047Y-78108755D01*
X130349152Y-78067762D01*
X130696302Y-77956915D01*
X130970180Y-77810524D01*
X131086775Y-77518197D01*
X133913225Y-77518197D01*
X134029820Y-77810524D01*
X134353674Y-77977615D01*
X134703902Y-78078315D01*
X135067047Y-78108755D01*
X135429152Y-78067762D01*
X135776302Y-77956915D01*
X136050180Y-77810524D01*
X136166775Y-77518197D01*
X135040000Y-76391421D01*
X133913225Y-77518197D01*
X131086775Y-77518197D01*
X129960000Y-76391421D01*
X128833225Y-77518197D01*
X38340381Y-77518197D01*
X38341915Y-77516663D01*
X38273491Y-77265250D01*
X38017741Y-77138075D01*
X37742094Y-77063238D01*
X37457144Y-77043614D01*
X37173841Y-77079958D01*
X36903072Y-77170875D01*
X36726509Y-77265250D01*
X36658085Y-77516663D01*
X35400000Y-77516663D01*
X35400000Y-75126886D01*
X36250000Y-75126886D01*
X36250000Y-75373114D01*
X36298037Y-75614611D01*
X36392265Y-75842097D01*
X36529062Y-76046828D01*
X36703172Y-76220938D01*
X36907903Y-76357735D01*
X37135389Y-76451963D01*
X37376886Y-76500000D01*
X37623114Y-76500000D01*
X37864611Y-76451963D01*
X38092097Y-76357735D01*
X38212855Y-76277047D01*
X128101245Y-76277047D01*
X128142238Y-76639152D01*
X128253085Y-76986302D01*
X128399476Y-77260180D01*
X128691803Y-77376775D01*
X129818579Y-76250000D01*
X130101421Y-76250000D01*
X131228197Y-77376775D01*
X131520524Y-77260180D01*
X131687615Y-76936326D01*
X131788315Y-76586098D01*
X131814220Y-76277047D01*
X133181245Y-76277047D01*
X133222238Y-76639152D01*
X133333085Y-76986302D01*
X133479476Y-77260180D01*
X133771803Y-77376775D01*
X134898579Y-76250000D01*
X135181421Y-76250000D01*
X136308197Y-77376775D01*
X136600524Y-77260180D01*
X136767615Y-76936326D01*
X136868315Y-76586098D01*
X136898755Y-76222953D01*
X136857762Y-75860848D01*
X136746915Y-75513698D01*
X136600524Y-75239820D01*
X136308197Y-75123225D01*
X135181421Y-76250000D01*
X134898579Y-76250000D01*
X133771803Y-75123225D01*
X133479476Y-75239820D01*
X133312385Y-75563674D01*
X133211685Y-75913902D01*
X133181245Y-76277047D01*
X131814220Y-76277047D01*
X131818755Y-76222953D01*
X131777762Y-75860848D01*
X131666915Y-75513698D01*
X131520524Y-75239820D01*
X131228197Y-75123225D01*
X130101421Y-76250000D01*
X129818579Y-76250000D01*
X128691803Y-75123225D01*
X128399476Y-75239820D01*
X128232385Y-75563674D01*
X128131685Y-75913902D01*
X128101245Y-76277047D01*
X38212855Y-76277047D01*
X38296828Y-76220938D01*
X38470938Y-76046828D01*
X38607735Y-75842097D01*
X38701963Y-75614611D01*
X38750000Y-75373114D01*
X38750000Y-75126886D01*
X38721142Y-74981803D01*
X128833225Y-74981803D01*
X129960000Y-76108579D01*
X131086775Y-74981803D01*
X133913225Y-74981803D01*
X135040000Y-76108579D01*
X136166775Y-74981803D01*
X136050180Y-74689476D01*
X135726326Y-74522385D01*
X135376098Y-74421685D01*
X135012953Y-74391245D01*
X134650848Y-74432238D01*
X134303698Y-74543085D01*
X134029820Y-74689476D01*
X133913225Y-74981803D01*
X131086775Y-74981803D01*
X130970180Y-74689476D01*
X130646326Y-74522385D01*
X130296098Y-74421685D01*
X129932953Y-74391245D01*
X129570848Y-74432238D01*
X129223698Y-74543085D01*
X128949820Y-74689476D01*
X128833225Y-74981803D01*
X38721142Y-74981803D01*
X38701963Y-74885389D01*
X38607735Y-74657903D01*
X38470938Y-74453172D01*
X38296828Y-74279062D01*
X38092097Y-74142265D01*
X37864611Y-74048037D01*
X37623114Y-74000000D01*
X37376886Y-74000000D01*
X37135389Y-74048037D01*
X36907903Y-74142265D01*
X36703172Y-74279062D01*
X36529062Y-74453172D01*
X36392265Y-74657903D01*
X36298037Y-74885389D01*
X36250000Y-75126886D01*
X35400000Y-75126886D01*
X35400000Y-73837290D01*
X58304131Y-73837290D01*
X58516838Y-74211527D01*
X58976784Y-74458384D01*
X59476052Y-74610766D01*
X59995455Y-74662818D01*
X60515032Y-74612540D01*
X61014817Y-74461863D01*
X61475603Y-74216578D01*
X61483162Y-74211527D01*
X61695869Y-73837290D01*
X94054131Y-73837290D01*
X94266838Y-74211527D01*
X94726784Y-74458384D01*
X95226052Y-74610766D01*
X95745455Y-74662818D01*
X96265032Y-74612540D01*
X96764817Y-74461863D01*
X97225603Y-74216578D01*
X97233162Y-74211527D01*
X97445869Y-73837290D01*
X95750000Y-72141421D01*
X94054131Y-73837290D01*
X61695869Y-73837290D01*
X60000000Y-72141421D01*
X58304131Y-73837290D01*
X35400000Y-73837290D01*
X35400000Y-71995455D01*
X57337182Y-71995455D01*
X57387460Y-72515032D01*
X57538137Y-73014817D01*
X57783422Y-73475603D01*
X57788473Y-73483162D01*
X58162710Y-73695869D01*
X59858579Y-72000000D01*
X60141421Y-72000000D01*
X61837290Y-73695869D01*
X62211527Y-73483162D01*
X62458384Y-73023216D01*
X62610766Y-72523948D01*
X62662818Y-72004545D01*
X62661939Y-71995455D01*
X93087182Y-71995455D01*
X93137460Y-72515032D01*
X93288137Y-73014817D01*
X93533422Y-73475603D01*
X93538473Y-73483162D01*
X93912710Y-73695869D01*
X95608579Y-72000000D01*
X95891421Y-72000000D01*
X97587290Y-73695869D01*
X97961527Y-73483162D01*
X98208384Y-73023216D01*
X98360766Y-72523948D01*
X98412818Y-72004545D01*
X98362540Y-71484968D01*
X98341464Y-71415059D01*
X116086901Y-71415059D01*
X116177469Y-71684495D01*
X116318861Y-71931085D01*
X116505644Y-72145353D01*
X116730639Y-72319064D01*
X116985201Y-72445543D01*
X117174941Y-72503095D01*
X117400000Y-72373611D01*
X117400000Y-71190000D01*
X117600000Y-71190000D01*
X117600000Y-72373611D01*
X117825059Y-72503095D01*
X118014799Y-72445543D01*
X118269361Y-72319064D01*
X118494356Y-72145353D01*
X118681139Y-71931085D01*
X118822531Y-71684495D01*
X118913099Y-71415059D01*
X118784052Y-71190000D01*
X117600000Y-71190000D01*
X117400000Y-71190000D01*
X116215948Y-71190000D01*
X116086901Y-71415059D01*
X98341464Y-71415059D01*
X98211863Y-70985183D01*
X98094625Y-70764941D01*
X116086901Y-70764941D01*
X116215948Y-70990000D01*
X117400000Y-70990000D01*
X117400000Y-69806389D01*
X117600000Y-69806389D01*
X117600000Y-70990000D01*
X118784052Y-70990000D01*
X118913099Y-70764941D01*
X118822531Y-70495505D01*
X118681139Y-70248915D01*
X118494356Y-70034647D01*
X118269361Y-69860936D01*
X118014799Y-69734457D01*
X117825059Y-69676905D01*
X117600000Y-69806389D01*
X117400000Y-69806389D01*
X117174941Y-69676905D01*
X116985201Y-69734457D01*
X116730639Y-69860936D01*
X116505644Y-70034647D01*
X116318861Y-70248915D01*
X116177469Y-70495505D01*
X116086901Y-70764941D01*
X98094625Y-70764941D01*
X97966578Y-70524397D01*
X97961527Y-70516838D01*
X97587290Y-70304131D01*
X95891421Y-72000000D01*
X95608579Y-72000000D01*
X93912710Y-70304131D01*
X93538473Y-70516838D01*
X93291616Y-70976784D01*
X93139234Y-71476052D01*
X93087182Y-71995455D01*
X62661939Y-71995455D01*
X62612540Y-71484968D01*
X62461863Y-70985183D01*
X62216578Y-70524397D01*
X62211527Y-70516838D01*
X61837290Y-70304131D01*
X60141421Y-72000000D01*
X59858579Y-72000000D01*
X58162710Y-70304131D01*
X57788473Y-70516838D01*
X57541616Y-70976784D01*
X57389234Y-71476052D01*
X57337182Y-71995455D01*
X35400000Y-71995455D01*
X35400000Y-70162710D01*
X58304131Y-70162710D01*
X60000000Y-71858579D01*
X61695869Y-70162710D01*
X94054131Y-70162710D01*
X95750000Y-71858579D01*
X97445869Y-70162710D01*
X97233162Y-69788473D01*
X96773216Y-69541616D01*
X96273948Y-69389234D01*
X95754545Y-69337182D01*
X95234968Y-69387460D01*
X94735183Y-69538137D01*
X94274397Y-69783422D01*
X94266838Y-69788473D01*
X94054131Y-70162710D01*
X61695869Y-70162710D01*
X61483162Y-69788473D01*
X61023216Y-69541616D01*
X60523948Y-69389234D01*
X60004545Y-69337182D01*
X59484968Y-69387460D01*
X58985183Y-69538137D01*
X58524397Y-69783422D01*
X58516838Y-69788473D01*
X58304131Y-70162710D01*
X35400000Y-70162710D01*
X35400000Y-66232607D01*
X118908815Y-66232607D01*
X119019396Y-66519816D01*
X119334739Y-66681919D01*
X119675649Y-66779388D01*
X120029022Y-66808475D01*
X120381280Y-66768064D01*
X120718886Y-66659708D01*
X120980604Y-66519816D01*
X121091185Y-66232607D01*
X120000000Y-65141421D01*
X118908815Y-66232607D01*
X35400000Y-66232607D01*
X35400000Y-65029022D01*
X118191525Y-65029022D01*
X118231936Y-65381280D01*
X118340292Y-65718886D01*
X118480184Y-65980604D01*
X118767393Y-66091185D01*
X119858579Y-65000000D01*
X120141421Y-65000000D01*
X121232607Y-66091185D01*
X121519816Y-65980604D01*
X121681919Y-65665261D01*
X121779388Y-65324351D01*
X121808475Y-64970978D01*
X121768064Y-64618720D01*
X121659708Y-64281114D01*
X121519816Y-64019396D01*
X121232607Y-63908815D01*
X120141421Y-65000000D01*
X119858579Y-65000000D01*
X118767393Y-63908815D01*
X118480184Y-64019396D01*
X118318081Y-64334739D01*
X118220612Y-64675649D01*
X118191525Y-65029022D01*
X35400000Y-65029022D01*
X35400000Y-63767393D01*
X118908815Y-63767393D01*
X120000000Y-64858579D01*
X121008578Y-63850000D01*
X121897823Y-63850000D01*
X121897823Y-66150000D01*
X121906511Y-66238215D01*
X121932243Y-66323041D01*
X121974029Y-66401216D01*
X122030263Y-66469737D01*
X122098784Y-66525971D01*
X122176959Y-66567757D01*
X122261785Y-66593489D01*
X122350000Y-66602177D01*
X124650000Y-66602177D01*
X124738215Y-66593489D01*
X124823041Y-66567757D01*
X124901216Y-66525971D01*
X124969737Y-66469737D01*
X125025971Y-66401216D01*
X125067757Y-66323041D01*
X125093489Y-66238215D01*
X125102177Y-66150000D01*
X125102177Y-63850000D01*
X125093489Y-63761785D01*
X125067757Y-63676959D01*
X125025971Y-63598784D01*
X124969737Y-63530263D01*
X124901216Y-63474029D01*
X124823041Y-63432243D01*
X124738215Y-63406511D01*
X124650000Y-63397823D01*
X122350000Y-63397823D01*
X122261785Y-63406511D01*
X122176959Y-63432243D01*
X122098784Y-63474029D01*
X122030263Y-63530263D01*
X121974029Y-63598784D01*
X121932243Y-63676959D01*
X121906511Y-63761785D01*
X121897823Y-63850000D01*
X121008578Y-63850000D01*
X121091185Y-63767393D01*
X120980604Y-63480184D01*
X120665261Y-63318081D01*
X120324351Y-63220612D01*
X119970978Y-63191525D01*
X119618720Y-63231936D01*
X119281114Y-63340292D01*
X119019396Y-63480184D01*
X118908815Y-63767393D01*
X35400000Y-63767393D01*
X35400000Y-59225000D01*
X129600000Y-59225000D01*
X129600000Y-65500000D01*
%TO.N,GND*%
G36*
X34800000Y-84250000D02*
G01*
X34808647Y-84337791D01*
X34834254Y-84422208D01*
X34875839Y-84500007D01*
X34931802Y-84568198D01*
X38681802Y-88318198D01*
X38749993Y-88374161D01*
X38827792Y-88415746D01*
X38912209Y-88441353D01*
X39000000Y-88450000D01*
X50750000Y-88450000D01*
X50837791Y-88441353D01*
X50922208Y-88415746D01*
X51000007Y-88374161D01*
X51068198Y-88318198D01*
X57350000Y-82036396D01*
X57350000Y-82100002D01*
X57512498Y-82100002D01*
X57350000Y-82262500D01*
X57346855Y-84000000D01*
X57359405Y-84127422D01*
X57396573Y-84249948D01*
X57456930Y-84362868D01*
X57538157Y-84461843D01*
X57637132Y-84543070D01*
X57750052Y-84603427D01*
X57872578Y-84640595D01*
X58000000Y-84653145D01*
X59737500Y-84650000D01*
X59900000Y-84487500D01*
X59900000Y-82100000D01*
X60100000Y-82100000D01*
X60100000Y-84487500D01*
X60262500Y-84650000D01*
X62000000Y-84653145D01*
X62127422Y-84640595D01*
X62249948Y-84603427D01*
X62362868Y-84543070D01*
X62461843Y-84461843D01*
X62543070Y-84362868D01*
X62603427Y-84249948D01*
X62640595Y-84127422D01*
X62653145Y-84000000D01*
X93096855Y-84000000D01*
X93109405Y-84127422D01*
X93146573Y-84249948D01*
X93206930Y-84362868D01*
X93288157Y-84461843D01*
X93387132Y-84543070D01*
X93500052Y-84603427D01*
X93622578Y-84640595D01*
X93750000Y-84653145D01*
X95487500Y-84650000D01*
X95650000Y-84487500D01*
X95650000Y-82100000D01*
X95850000Y-82100000D01*
X95850000Y-84487500D01*
X96012500Y-84650000D01*
X97750000Y-84653145D01*
X97877422Y-84640595D01*
X97999948Y-84603427D01*
X98112868Y-84543070D01*
X98211843Y-84461843D01*
X98293070Y-84362868D01*
X98353427Y-84249948D01*
X98390595Y-84127422D01*
X98403145Y-84000000D01*
X98400000Y-82262500D01*
X98237500Y-82100000D01*
X95850000Y-82100000D01*
X95650000Y-82100000D01*
X93262500Y-82100000D01*
X93100000Y-82262500D01*
X93096855Y-84000000D01*
X62653145Y-84000000D01*
X62650000Y-82262500D01*
X62487500Y-82100000D01*
X60100000Y-82100000D01*
X59900000Y-82100000D01*
X59880000Y-82100000D01*
X59880000Y-81900000D01*
X59900000Y-81900000D01*
X59900000Y-81880000D01*
X60100000Y-81880000D01*
X60100000Y-81900000D01*
X62487500Y-81900000D01*
X62650000Y-81737500D01*
X62650068Y-81700000D01*
X93099932Y-81700000D01*
X93100000Y-81737500D01*
X93262500Y-81900000D01*
X95650000Y-81900000D01*
X95650000Y-81880000D01*
X95850000Y-81880000D01*
X95850000Y-81900000D01*
X98237500Y-81900000D01*
X98400000Y-81737500D01*
X98400068Y-81700000D01*
X104813604Y-81700000D01*
X110931802Y-87818198D01*
X110999993Y-87874161D01*
X111077792Y-87915746D01*
X111162209Y-87941353D01*
X111250000Y-87950000D01*
X137025000Y-87950000D01*
X137025001Y-102050000D01*
X112500000Y-102050000D01*
X112412209Y-102058647D01*
X112327792Y-102084254D01*
X112249993Y-102125839D01*
X112181802Y-102181802D01*
X104813604Y-109550000D01*
X97843932Y-109550000D01*
X97961527Y-109483162D01*
X98208384Y-109023216D01*
X98360766Y-108523948D01*
X98412818Y-108004545D01*
X98362540Y-107484968D01*
X98211863Y-106985183D01*
X97966578Y-106524397D01*
X97961527Y-106516838D01*
X97587290Y-106304131D01*
X95891421Y-108000000D01*
X95905564Y-108014143D01*
X95764143Y-108155564D01*
X95750000Y-108141421D01*
X95735858Y-108155564D01*
X95594437Y-108014143D01*
X95608579Y-108000000D01*
X93912710Y-106304131D01*
X93538473Y-106516838D01*
X93291616Y-106976784D01*
X93139234Y-107476052D01*
X93087182Y-107995455D01*
X93137460Y-108515032D01*
X93288137Y-109014817D01*
X93533422Y-109475603D01*
X93538473Y-109483162D01*
X93656068Y-109550000D01*
X62093932Y-109550000D01*
X62211527Y-109483162D01*
X62458384Y-109023216D01*
X62610766Y-108523948D01*
X62662818Y-108004545D01*
X62612540Y-107484968D01*
X62461863Y-106985183D01*
X62216578Y-106524397D01*
X62211527Y-106516838D01*
X61837290Y-106304131D01*
X60141421Y-108000000D01*
X60155564Y-108014143D01*
X60014143Y-108155564D01*
X60000000Y-108141421D01*
X59985858Y-108155564D01*
X59844437Y-108014143D01*
X59858579Y-108000000D01*
X58162710Y-106304131D01*
X57788473Y-106516838D01*
X57541616Y-106976784D01*
X57389234Y-107476052D01*
X57337182Y-107995455D01*
X57387460Y-108515032D01*
X57538137Y-109014817D01*
X57783422Y-109475603D01*
X57788473Y-109483162D01*
X57906068Y-109550000D01*
X57686396Y-109550000D01*
X54299106Y-106162710D01*
X58304131Y-106162710D01*
X60000000Y-107858579D01*
X61695869Y-106162710D01*
X94054131Y-106162710D01*
X95750000Y-107858579D01*
X97445869Y-106162710D01*
X97233162Y-105788473D01*
X96773216Y-105541616D01*
X96273948Y-105389234D01*
X95754545Y-105337182D01*
X95234968Y-105387460D01*
X94735183Y-105538137D01*
X94274397Y-105783422D01*
X94266838Y-105788473D01*
X94054131Y-106162710D01*
X61695869Y-106162710D01*
X61483162Y-105788473D01*
X61023216Y-105541616D01*
X60523948Y-105389234D01*
X60004545Y-105337182D01*
X59484968Y-105387460D01*
X58985183Y-105538137D01*
X58524397Y-105783422D01*
X58516838Y-105788473D01*
X58304131Y-106162710D01*
X54299106Y-106162710D01*
X50068198Y-101931802D01*
X50000007Y-101875839D01*
X49922208Y-101834254D01*
X49837791Y-101808647D01*
X49750000Y-101800000D01*
X40000000Y-101800000D01*
X39912209Y-101808647D01*
X39827792Y-101834254D01*
X39749993Y-101875839D01*
X39681802Y-101931802D01*
X34681802Y-106931802D01*
X34625839Y-106999993D01*
X34584254Y-107077792D01*
X34558647Y-107162209D01*
X34550000Y-107250000D01*
X34550000Y-130775000D01*
X32900000Y-130775000D01*
X32900000Y-124500000D01*
X32897118Y-124470736D01*
X32888582Y-124442597D01*
X32874720Y-124416664D01*
X32856066Y-124393934D01*
X31856066Y-123393934D01*
X31833336Y-123375280D01*
X31807403Y-123361418D01*
X31779264Y-123352882D01*
X31750000Y-123350000D01*
X25475000Y-123350000D01*
X25475000Y-117376886D01*
X31250000Y-117376886D01*
X31250000Y-117623114D01*
X31298037Y-117864611D01*
X31392265Y-118092097D01*
X31529062Y-118296828D01*
X31703172Y-118470938D01*
X31907903Y-118607735D01*
X32135389Y-118701963D01*
X32376886Y-118750000D01*
X32623114Y-118750000D01*
X32864611Y-118701963D01*
X33092097Y-118607735D01*
X33296828Y-118470938D01*
X33470938Y-118296828D01*
X33607735Y-118092097D01*
X33701963Y-117864611D01*
X33750000Y-117623114D01*
X33750000Y-117376886D01*
X33701963Y-117135389D01*
X33607735Y-116907903D01*
X33470938Y-116703172D01*
X33296828Y-116529062D01*
X33092097Y-116392265D01*
X32864611Y-116298037D01*
X32623114Y-116250000D01*
X32376886Y-116250000D01*
X32135389Y-116298037D01*
X31907903Y-116392265D01*
X31703172Y-116529062D01*
X31529062Y-116703172D01*
X31392265Y-116907903D01*
X31298037Y-117135389D01*
X31250000Y-117376886D01*
X25475000Y-117376886D01*
X25475000Y-114126886D01*
X31250000Y-114126886D01*
X31250000Y-114373114D01*
X31298037Y-114614611D01*
X31392265Y-114842097D01*
X31529062Y-115046828D01*
X31703172Y-115220938D01*
X31907903Y-115357735D01*
X32135389Y-115451963D01*
X32376886Y-115500000D01*
X32623114Y-115500000D01*
X32864611Y-115451963D01*
X33092097Y-115357735D01*
X33296828Y-115220938D01*
X33470938Y-115046828D01*
X33607735Y-114842097D01*
X33701963Y-114614611D01*
X33750000Y-114373114D01*
X33750000Y-114126886D01*
X33701963Y-113885389D01*
X33607735Y-113657903D01*
X33470938Y-113453172D01*
X33296828Y-113279062D01*
X33092097Y-113142265D01*
X32864611Y-113048037D01*
X32623114Y-113000000D01*
X32376886Y-113000000D01*
X32135389Y-113048037D01*
X31907903Y-113142265D01*
X31703172Y-113279062D01*
X31529062Y-113453172D01*
X31392265Y-113657903D01*
X31298037Y-113885389D01*
X31250000Y-114126886D01*
X25475000Y-114126886D01*
X25475000Y-104837489D01*
X25810000Y-104837489D01*
X25810000Y-105162511D01*
X25873408Y-105481287D01*
X25997789Y-105781568D01*
X26178361Y-106051814D01*
X26408186Y-106281639D01*
X26678432Y-106462211D01*
X26978713Y-106586592D01*
X27297489Y-106650000D01*
X27622511Y-106650000D01*
X27941287Y-106586592D01*
X28241568Y-106462211D01*
X28511814Y-106281639D01*
X28741639Y-106051814D01*
X28922211Y-105781568D01*
X29046592Y-105481287D01*
X29110000Y-105162511D01*
X29110000Y-104837489D01*
X30890000Y-104837489D01*
X30890000Y-105162511D01*
X30953408Y-105481287D01*
X31077789Y-105781568D01*
X31258361Y-106051814D01*
X31488186Y-106281639D01*
X31758432Y-106462211D01*
X32058713Y-106586592D01*
X32377489Y-106650000D01*
X32702511Y-106650000D01*
X33021287Y-106586592D01*
X33321568Y-106462211D01*
X33591814Y-106281639D01*
X33821639Y-106051814D01*
X34002211Y-105781568D01*
X34126592Y-105481287D01*
X34190000Y-105162511D01*
X34190000Y-104837489D01*
X34126592Y-104518713D01*
X34002211Y-104218432D01*
X33821639Y-103948186D01*
X33591814Y-103718361D01*
X33321568Y-103537789D01*
X33021287Y-103413408D01*
X32702511Y-103350000D01*
X32377489Y-103350000D01*
X32058713Y-103413408D01*
X31758432Y-103537789D01*
X31488186Y-103718361D01*
X31258361Y-103948186D01*
X31077789Y-104218432D01*
X30953408Y-104518713D01*
X30890000Y-104837489D01*
X29110000Y-104837489D01*
X29046592Y-104518713D01*
X28922211Y-104218432D01*
X28741639Y-103948186D01*
X28511814Y-103718361D01*
X28241568Y-103537789D01*
X27941287Y-103413408D01*
X27622511Y-103350000D01*
X27297489Y-103350000D01*
X26978713Y-103413408D01*
X26678432Y-103537789D01*
X26408186Y-103718361D01*
X26178361Y-103948186D01*
X25997789Y-104218432D01*
X25873408Y-104518713D01*
X25810000Y-104837489D01*
X25475000Y-104837489D01*
X25475000Y-100018197D01*
X26333225Y-100018197D01*
X26449820Y-100310524D01*
X26773674Y-100477615D01*
X27123902Y-100578315D01*
X27487047Y-100608755D01*
X27849152Y-100567762D01*
X28196302Y-100456915D01*
X28470180Y-100310524D01*
X28586775Y-100018197D01*
X31413225Y-100018197D01*
X31529820Y-100310524D01*
X31853674Y-100477615D01*
X32203902Y-100578315D01*
X32567047Y-100608755D01*
X32929152Y-100567762D01*
X33276302Y-100456915D01*
X33550180Y-100310524D01*
X33666775Y-100018197D01*
X32540000Y-98891421D01*
X31413225Y-100018197D01*
X28586775Y-100018197D01*
X27460000Y-98891421D01*
X26333225Y-100018197D01*
X25475000Y-100018197D01*
X25475000Y-98777047D01*
X25601245Y-98777047D01*
X25642238Y-99139152D01*
X25753085Y-99486302D01*
X25899476Y-99760180D01*
X26191803Y-99876775D01*
X27318579Y-98750000D01*
X27601421Y-98750000D01*
X28728197Y-99876775D01*
X29020524Y-99760180D01*
X29187615Y-99436326D01*
X29288315Y-99086098D01*
X29314220Y-98777047D01*
X30681245Y-98777047D01*
X30722238Y-99139152D01*
X30833085Y-99486302D01*
X30979476Y-99760180D01*
X31271803Y-99876775D01*
X32398579Y-98750000D01*
X32681421Y-98750000D01*
X33808197Y-99876775D01*
X34100524Y-99760180D01*
X34267615Y-99436326D01*
X34368315Y-99086098D01*
X34398755Y-98722953D01*
X34357762Y-98360848D01*
X34333122Y-98283680D01*
X36650000Y-98283680D01*
X36650000Y-99216321D01*
X36669533Y-99414646D01*
X36746728Y-99669122D01*
X36872085Y-99903649D01*
X37040788Y-100109213D01*
X37246352Y-100277915D01*
X37480879Y-100403272D01*
X37735355Y-100480467D01*
X38000000Y-100506532D01*
X38264646Y-100480467D01*
X38519122Y-100403272D01*
X38753649Y-100277915D01*
X38959213Y-100109213D01*
X39127915Y-99903649D01*
X39253272Y-99669122D01*
X39330467Y-99414646D01*
X39350000Y-99216320D01*
X39350000Y-98876886D01*
X41000000Y-98876886D01*
X41000000Y-99123114D01*
X41048037Y-99364611D01*
X41142265Y-99592097D01*
X41279062Y-99796828D01*
X41453172Y-99970938D01*
X41657903Y-100107735D01*
X41885389Y-100201963D01*
X42126886Y-100250000D01*
X42373114Y-100250000D01*
X42614611Y-100201963D01*
X42842097Y-100107735D01*
X42976099Y-100018197D01*
X128833225Y-100018197D01*
X128949820Y-100310524D01*
X129273674Y-100477615D01*
X129623902Y-100578315D01*
X129987047Y-100608755D01*
X130349152Y-100567762D01*
X130696302Y-100456915D01*
X130970180Y-100310524D01*
X131086775Y-100018197D01*
X133913225Y-100018197D01*
X134029820Y-100310524D01*
X134353674Y-100477615D01*
X134703902Y-100578315D01*
X135067047Y-100608755D01*
X135429152Y-100567762D01*
X135776302Y-100456915D01*
X136050180Y-100310524D01*
X136166775Y-100018197D01*
X135040000Y-98891421D01*
X133913225Y-100018197D01*
X131086775Y-100018197D01*
X129960000Y-98891421D01*
X128833225Y-100018197D01*
X42976099Y-100018197D01*
X43046828Y-99970938D01*
X43220938Y-99796828D01*
X43357735Y-99592097D01*
X43451963Y-99364611D01*
X43500000Y-99123114D01*
X43500000Y-98876886D01*
X43457865Y-98665059D01*
X116086901Y-98665059D01*
X116177469Y-98934495D01*
X116318861Y-99181085D01*
X116505644Y-99395353D01*
X116730639Y-99569064D01*
X116985201Y-99695543D01*
X117174941Y-99753095D01*
X117400000Y-99623611D01*
X117400000Y-98440000D01*
X117600000Y-98440000D01*
X117600000Y-99623611D01*
X117825059Y-99753095D01*
X118014799Y-99695543D01*
X118269361Y-99569064D01*
X118494356Y-99395353D01*
X118681139Y-99181085D01*
X118822531Y-98934495D01*
X118875455Y-98777047D01*
X128101245Y-98777047D01*
X128142238Y-99139152D01*
X128253085Y-99486302D01*
X128399476Y-99760180D01*
X128691803Y-99876775D01*
X129818579Y-98750000D01*
X130101421Y-98750000D01*
X131228197Y-99876775D01*
X131520524Y-99760180D01*
X131687615Y-99436326D01*
X131788315Y-99086098D01*
X131814220Y-98777047D01*
X133181245Y-98777047D01*
X133222238Y-99139152D01*
X133333085Y-99486302D01*
X133479476Y-99760180D01*
X133771803Y-99876775D01*
X134898579Y-98750000D01*
X135181421Y-98750000D01*
X136308197Y-99876775D01*
X136600524Y-99760180D01*
X136767615Y-99436326D01*
X136868315Y-99086098D01*
X136898755Y-98722953D01*
X136857762Y-98360848D01*
X136746915Y-98013698D01*
X136600524Y-97739820D01*
X136308197Y-97623225D01*
X135181421Y-98750000D01*
X134898579Y-98750000D01*
X133771803Y-97623225D01*
X133479476Y-97739820D01*
X133312385Y-98063674D01*
X133211685Y-98413902D01*
X133181245Y-98777047D01*
X131814220Y-98777047D01*
X131818755Y-98722953D01*
X131777762Y-98360848D01*
X131666915Y-98013698D01*
X131520524Y-97739820D01*
X131228197Y-97623225D01*
X130101421Y-98750000D01*
X129818579Y-98750000D01*
X128691803Y-97623225D01*
X128399476Y-97739820D01*
X128232385Y-98063674D01*
X128131685Y-98413902D01*
X128101245Y-98777047D01*
X118875455Y-98777047D01*
X118913099Y-98665059D01*
X118784052Y-98440000D01*
X117600000Y-98440000D01*
X117400000Y-98440000D01*
X116215948Y-98440000D01*
X116086901Y-98665059D01*
X43457865Y-98665059D01*
X43451963Y-98635389D01*
X43357735Y-98407903D01*
X43220938Y-98203172D01*
X43046828Y-98029062D01*
X42842097Y-97892265D01*
X42614611Y-97798037D01*
X42373114Y-97750000D01*
X42126886Y-97750000D01*
X41885389Y-97798037D01*
X41657903Y-97892265D01*
X41453172Y-98029062D01*
X41279062Y-98203172D01*
X41142265Y-98407903D01*
X41048037Y-98635389D01*
X41000000Y-98876886D01*
X39350000Y-98876886D01*
X39350000Y-98283679D01*
X39330467Y-98085354D01*
X39253272Y-97830878D01*
X39127915Y-97596351D01*
X38959212Y-97390787D01*
X38753648Y-97222085D01*
X38519121Y-97096728D01*
X38264645Y-97019533D01*
X38000000Y-96993468D01*
X37735354Y-97019533D01*
X37480878Y-97096728D01*
X37246351Y-97222085D01*
X37040787Y-97390788D01*
X36872085Y-97596352D01*
X36746728Y-97830879D01*
X36669533Y-98085355D01*
X36650000Y-98283680D01*
X34333122Y-98283680D01*
X34246915Y-98013698D01*
X34100524Y-97739820D01*
X33808197Y-97623225D01*
X32681421Y-98750000D01*
X32398579Y-98750000D01*
X31271803Y-97623225D01*
X30979476Y-97739820D01*
X30812385Y-98063674D01*
X30711685Y-98413902D01*
X30681245Y-98777047D01*
X29314220Y-98777047D01*
X29318755Y-98722953D01*
X29277762Y-98360848D01*
X29166915Y-98013698D01*
X29020524Y-97739820D01*
X28728197Y-97623225D01*
X27601421Y-98750000D01*
X27318579Y-98750000D01*
X26191803Y-97623225D01*
X25899476Y-97739820D01*
X25732385Y-98063674D01*
X25631685Y-98413902D01*
X25601245Y-98777047D01*
X25475000Y-98777047D01*
X25475000Y-97481803D01*
X26333225Y-97481803D01*
X27460000Y-98608579D01*
X28586775Y-97481803D01*
X31413225Y-97481803D01*
X32540000Y-98608579D01*
X33666775Y-97481803D01*
X33550180Y-97189476D01*
X33226326Y-97022385D01*
X32876098Y-96921685D01*
X32512953Y-96891245D01*
X32150848Y-96932238D01*
X31803698Y-97043085D01*
X31529820Y-97189476D01*
X31413225Y-97481803D01*
X28586775Y-97481803D01*
X28470180Y-97189476D01*
X28146326Y-97022385D01*
X27796098Y-96921685D01*
X27432953Y-96891245D01*
X27070848Y-96932238D01*
X26723698Y-97043085D01*
X26449820Y-97189476D01*
X26333225Y-97481803D01*
X25475000Y-97481803D01*
X25475000Y-94640506D01*
X73850000Y-94640506D01*
X73850000Y-95359494D01*
X73990267Y-96064666D01*
X74265412Y-96728923D01*
X74664860Y-97326740D01*
X75173260Y-97835140D01*
X75771077Y-98234588D01*
X76435334Y-98509733D01*
X77140506Y-98650000D01*
X77859494Y-98650000D01*
X78564666Y-98509733D01*
X79228923Y-98234588D01*
X79557648Y-98014941D01*
X116086901Y-98014941D01*
X116215948Y-98240000D01*
X117400000Y-98240000D01*
X117400000Y-97056389D01*
X117600000Y-97056389D01*
X117600000Y-98240000D01*
X118784052Y-98240000D01*
X118913099Y-98014941D01*
X118822531Y-97745505D01*
X118681139Y-97498915D01*
X118666223Y-97481803D01*
X128833225Y-97481803D01*
X129960000Y-98608579D01*
X131086775Y-97481803D01*
X133913225Y-97481803D01*
X135040000Y-98608579D01*
X136166775Y-97481803D01*
X136050180Y-97189476D01*
X135726326Y-97022385D01*
X135376098Y-96921685D01*
X135012953Y-96891245D01*
X134650848Y-96932238D01*
X134303698Y-97043085D01*
X134029820Y-97189476D01*
X133913225Y-97481803D01*
X131086775Y-97481803D01*
X130970180Y-97189476D01*
X130646326Y-97022385D01*
X130296098Y-96921685D01*
X129932953Y-96891245D01*
X129570848Y-96932238D01*
X129223698Y-97043085D01*
X128949820Y-97189476D01*
X128833225Y-97481803D01*
X118666223Y-97481803D01*
X118494356Y-97284647D01*
X118269361Y-97110936D01*
X118014799Y-96984457D01*
X117825059Y-96926905D01*
X117600000Y-97056389D01*
X117400000Y-97056389D01*
X117174941Y-96926905D01*
X116985201Y-96984457D01*
X116730639Y-97110936D01*
X116505644Y-97284647D01*
X116318861Y-97498915D01*
X116177469Y-97745505D01*
X116086901Y-98014941D01*
X79557648Y-98014941D01*
X79826740Y-97835140D01*
X80335140Y-97326740D01*
X80734588Y-96728923D01*
X81009733Y-96064666D01*
X81150000Y-95359494D01*
X81150000Y-94640506D01*
X81009733Y-93935334D01*
X80734588Y-93271077D01*
X80335140Y-92673260D01*
X80145217Y-92483337D01*
X119908085Y-92483337D01*
X119976509Y-92734750D01*
X120232259Y-92861925D01*
X120507906Y-92936762D01*
X120792856Y-92956386D01*
X121076159Y-92920042D01*
X121346928Y-92829125D01*
X121523491Y-92734750D01*
X121591915Y-92483337D01*
X123158085Y-92483337D01*
X123226509Y-92734750D01*
X123482259Y-92861925D01*
X123757906Y-92936762D01*
X124042856Y-92956386D01*
X124326159Y-92920042D01*
X124596928Y-92829125D01*
X124773491Y-92734750D01*
X124832427Y-92518197D01*
X128833225Y-92518197D01*
X128949820Y-92810524D01*
X129273674Y-92977615D01*
X129623902Y-93078315D01*
X129987047Y-93108755D01*
X130349152Y-93067762D01*
X130696302Y-92956915D01*
X130970180Y-92810524D01*
X131086775Y-92518197D01*
X133913225Y-92518197D01*
X134029820Y-92810524D01*
X134353674Y-92977615D01*
X134703902Y-93078315D01*
X135067047Y-93108755D01*
X135429152Y-93067762D01*
X135776302Y-92956915D01*
X136050180Y-92810524D01*
X136166775Y-92518197D01*
X135040000Y-91391421D01*
X133913225Y-92518197D01*
X131086775Y-92518197D01*
X129960000Y-91391421D01*
X128833225Y-92518197D01*
X124832427Y-92518197D01*
X124841915Y-92483337D01*
X124000000Y-91641421D01*
X123158085Y-92483337D01*
X121591915Y-92483337D01*
X120750000Y-91641421D01*
X119908085Y-92483337D01*
X80145217Y-92483337D01*
X79826740Y-92164860D01*
X79228923Y-91765412D01*
X78691627Y-91542856D01*
X119293614Y-91542856D01*
X119329958Y-91826159D01*
X119420875Y-92096928D01*
X119515250Y-92273491D01*
X119766663Y-92341915D01*
X120608579Y-91500000D01*
X120891421Y-91500000D01*
X121733337Y-92341915D01*
X121984750Y-92273491D01*
X122111925Y-92017741D01*
X122186762Y-91742094D01*
X122200483Y-91542856D01*
X122543614Y-91542856D01*
X122579958Y-91826159D01*
X122670875Y-92096928D01*
X122765250Y-92273491D01*
X123016663Y-92341915D01*
X123858579Y-91500000D01*
X124141421Y-91500000D01*
X124983337Y-92341915D01*
X125234750Y-92273491D01*
X125361925Y-92017741D01*
X125436762Y-91742094D01*
X125456386Y-91457144D01*
X125433282Y-91277047D01*
X128101245Y-91277047D01*
X128142238Y-91639152D01*
X128253085Y-91986302D01*
X128399476Y-92260180D01*
X128691803Y-92376775D01*
X129818579Y-91250000D01*
X130101421Y-91250000D01*
X131228197Y-92376775D01*
X131520524Y-92260180D01*
X131687615Y-91936326D01*
X131788315Y-91586098D01*
X131814220Y-91277047D01*
X133181245Y-91277047D01*
X133222238Y-91639152D01*
X133333085Y-91986302D01*
X133479476Y-92260180D01*
X133771803Y-92376775D01*
X134898579Y-91250000D01*
X135181421Y-91250000D01*
X136308197Y-92376775D01*
X136600524Y-92260180D01*
X136767615Y-91936326D01*
X136868315Y-91586098D01*
X136898755Y-91222953D01*
X136857762Y-90860848D01*
X136746915Y-90513698D01*
X136600524Y-90239820D01*
X136308197Y-90123225D01*
X135181421Y-91250000D01*
X134898579Y-91250000D01*
X133771803Y-90123225D01*
X133479476Y-90239820D01*
X133312385Y-90563674D01*
X133211685Y-90913902D01*
X133181245Y-91277047D01*
X131814220Y-91277047D01*
X131818755Y-91222953D01*
X131777762Y-90860848D01*
X131666915Y-90513698D01*
X131520524Y-90239820D01*
X131228197Y-90123225D01*
X130101421Y-91250000D01*
X129818579Y-91250000D01*
X128691803Y-90123225D01*
X128399476Y-90239820D01*
X128232385Y-90563674D01*
X128131685Y-90913902D01*
X128101245Y-91277047D01*
X125433282Y-91277047D01*
X125420042Y-91173841D01*
X125329125Y-90903072D01*
X125234750Y-90726509D01*
X124983337Y-90658085D01*
X124141421Y-91500000D01*
X123858579Y-91500000D01*
X123016663Y-90658085D01*
X122765250Y-90726509D01*
X122638075Y-90982259D01*
X122563238Y-91257906D01*
X122543614Y-91542856D01*
X122200483Y-91542856D01*
X122206386Y-91457144D01*
X122170042Y-91173841D01*
X122079125Y-90903072D01*
X121984750Y-90726509D01*
X121733337Y-90658085D01*
X120891421Y-91500000D01*
X120608579Y-91500000D01*
X119766663Y-90658085D01*
X119515250Y-90726509D01*
X119388075Y-90982259D01*
X119313238Y-91257906D01*
X119293614Y-91542856D01*
X78691627Y-91542856D01*
X78564666Y-91490267D01*
X77859494Y-91350000D01*
X77140506Y-91350000D01*
X76435334Y-91490267D01*
X75771077Y-91765412D01*
X75173260Y-92164860D01*
X74664860Y-92673260D01*
X74265412Y-93271077D01*
X73990267Y-93935334D01*
X73850000Y-94640506D01*
X25475000Y-94640506D01*
X25475000Y-92518197D01*
X26333225Y-92518197D01*
X26449820Y-92810524D01*
X26773674Y-92977615D01*
X27123902Y-93078315D01*
X27487047Y-93108755D01*
X27849152Y-93067762D01*
X28196302Y-92956915D01*
X28470180Y-92810524D01*
X28586775Y-92518197D01*
X31413225Y-92518197D01*
X31529820Y-92810524D01*
X31853674Y-92977615D01*
X32203902Y-93078315D01*
X32567047Y-93108755D01*
X32929152Y-93067762D01*
X33276302Y-92956915D01*
X33550180Y-92810524D01*
X33666775Y-92518197D01*
X32540000Y-91391421D01*
X31413225Y-92518197D01*
X28586775Y-92518197D01*
X27460000Y-91391421D01*
X26333225Y-92518197D01*
X25475000Y-92518197D01*
X25475000Y-91277047D01*
X25601245Y-91277047D01*
X25642238Y-91639152D01*
X25753085Y-91986302D01*
X25899476Y-92260180D01*
X26191803Y-92376775D01*
X27318579Y-91250000D01*
X27601421Y-91250000D01*
X28728197Y-92376775D01*
X29020524Y-92260180D01*
X29187615Y-91936326D01*
X29288315Y-91586098D01*
X29314220Y-91277047D01*
X30681245Y-91277047D01*
X30722238Y-91639152D01*
X30833085Y-91986302D01*
X30979476Y-92260180D01*
X31271803Y-92376775D01*
X32398579Y-91250000D01*
X32681421Y-91250000D01*
X33808197Y-92376775D01*
X34100524Y-92260180D01*
X34267615Y-91936326D01*
X34368315Y-91586098D01*
X34398755Y-91222953D01*
X34357762Y-90860848D01*
X34333122Y-90783680D01*
X36650000Y-90783680D01*
X36650000Y-91716321D01*
X36669533Y-91914646D01*
X36746728Y-92169122D01*
X36872085Y-92403649D01*
X37040788Y-92609213D01*
X37246352Y-92777915D01*
X37480879Y-92903272D01*
X37735355Y-92980467D01*
X38000000Y-93006532D01*
X38264646Y-92980467D01*
X38519122Y-92903272D01*
X38753649Y-92777915D01*
X38959213Y-92609213D01*
X39127915Y-92403649D01*
X39253272Y-92169122D01*
X39330467Y-91914646D01*
X39350000Y-91716320D01*
X39350000Y-91126886D01*
X41000000Y-91126886D01*
X41000000Y-91373114D01*
X41048037Y-91614611D01*
X41142265Y-91842097D01*
X41279062Y-92046828D01*
X41453172Y-92220938D01*
X41657903Y-92357735D01*
X41885389Y-92451963D01*
X42126886Y-92500000D01*
X42373114Y-92500000D01*
X42614611Y-92451963D01*
X42842097Y-92357735D01*
X43046828Y-92220938D01*
X43220938Y-92046828D01*
X43357735Y-91842097D01*
X43451963Y-91614611D01*
X43500000Y-91373114D01*
X43500000Y-91126886D01*
X43451963Y-90885389D01*
X43388981Y-90733337D01*
X116658085Y-90733337D01*
X116726509Y-90984750D01*
X116982259Y-91111925D01*
X117257906Y-91186762D01*
X117542856Y-91206386D01*
X117826159Y-91170042D01*
X118096928Y-91079125D01*
X118273491Y-90984750D01*
X118341915Y-90733337D01*
X117500000Y-89891421D01*
X116658085Y-90733337D01*
X43388981Y-90733337D01*
X43357735Y-90657903D01*
X43220938Y-90453172D01*
X43046828Y-90279062D01*
X42842097Y-90142265D01*
X42614611Y-90048037D01*
X42373114Y-90000000D01*
X42126886Y-90000000D01*
X41885389Y-90048037D01*
X41657903Y-90142265D01*
X41453172Y-90279062D01*
X41279062Y-90453172D01*
X41142265Y-90657903D01*
X41048037Y-90885389D01*
X41000000Y-91126886D01*
X39350000Y-91126886D01*
X39350000Y-90783679D01*
X39330467Y-90585354D01*
X39253272Y-90330878D01*
X39127915Y-90096351D01*
X38959212Y-89890787D01*
X38839883Y-89792856D01*
X116043614Y-89792856D01*
X116079958Y-90076159D01*
X116170875Y-90346928D01*
X116265250Y-90523491D01*
X116516663Y-90591915D01*
X117358579Y-89750000D01*
X117641421Y-89750000D01*
X118483337Y-90591915D01*
X118734750Y-90523491D01*
X118738145Y-90516663D01*
X119908085Y-90516663D01*
X120750000Y-91358579D01*
X121591915Y-90516663D01*
X123158085Y-90516663D01*
X124000000Y-91358579D01*
X124841915Y-90516663D01*
X124773491Y-90265250D01*
X124517741Y-90138075D01*
X124242094Y-90063238D01*
X123957144Y-90043614D01*
X123673841Y-90079958D01*
X123403072Y-90170875D01*
X123226509Y-90265250D01*
X123158085Y-90516663D01*
X121591915Y-90516663D01*
X121523491Y-90265250D01*
X121267741Y-90138075D01*
X120992094Y-90063238D01*
X120707144Y-90043614D01*
X120423841Y-90079958D01*
X120153072Y-90170875D01*
X119976509Y-90265250D01*
X119908085Y-90516663D01*
X118738145Y-90516663D01*
X118861925Y-90267741D01*
X118936762Y-89992094D01*
X118937470Y-89981803D01*
X128833225Y-89981803D01*
X129960000Y-91108579D01*
X131086775Y-89981803D01*
X133913225Y-89981803D01*
X135040000Y-91108579D01*
X136166775Y-89981803D01*
X136050180Y-89689476D01*
X135726326Y-89522385D01*
X135376098Y-89421685D01*
X135012953Y-89391245D01*
X134650848Y-89432238D01*
X134303698Y-89543085D01*
X134029820Y-89689476D01*
X133913225Y-89981803D01*
X131086775Y-89981803D01*
X130970180Y-89689476D01*
X130646326Y-89522385D01*
X130296098Y-89421685D01*
X129932953Y-89391245D01*
X129570848Y-89432238D01*
X129223698Y-89543085D01*
X128949820Y-89689476D01*
X128833225Y-89981803D01*
X118937470Y-89981803D01*
X118956386Y-89707144D01*
X118920042Y-89423841D01*
X118829125Y-89153072D01*
X118734750Y-88976509D01*
X118483337Y-88908085D01*
X117641421Y-89750000D01*
X117358579Y-89750000D01*
X116516663Y-88908085D01*
X116265250Y-88976509D01*
X116138075Y-89232259D01*
X116063238Y-89507906D01*
X116043614Y-89792856D01*
X38839883Y-89792856D01*
X38753648Y-89722085D01*
X38519121Y-89596728D01*
X38264645Y-89519533D01*
X38000000Y-89493468D01*
X37735354Y-89519533D01*
X37480878Y-89596728D01*
X37246351Y-89722085D01*
X37040787Y-89890788D01*
X36872085Y-90096352D01*
X36746728Y-90330879D01*
X36669533Y-90585355D01*
X36650000Y-90783680D01*
X34333122Y-90783680D01*
X34246915Y-90513698D01*
X34100524Y-90239820D01*
X33808197Y-90123225D01*
X32681421Y-91250000D01*
X32398579Y-91250000D01*
X31271803Y-90123225D01*
X30979476Y-90239820D01*
X30812385Y-90563674D01*
X30711685Y-90913902D01*
X30681245Y-91277047D01*
X29314220Y-91277047D01*
X29318755Y-91222953D01*
X29277762Y-90860848D01*
X29166915Y-90513698D01*
X29020524Y-90239820D01*
X28728197Y-90123225D01*
X27601421Y-91250000D01*
X27318579Y-91250000D01*
X26191803Y-90123225D01*
X25899476Y-90239820D01*
X25732385Y-90563674D01*
X25631685Y-90913902D01*
X25601245Y-91277047D01*
X25475000Y-91277047D01*
X25475000Y-89981803D01*
X26333225Y-89981803D01*
X27460000Y-91108579D01*
X28586775Y-89981803D01*
X31413225Y-89981803D01*
X32540000Y-91108579D01*
X33666775Y-89981803D01*
X33550180Y-89689476D01*
X33226326Y-89522385D01*
X32876098Y-89421685D01*
X32512953Y-89391245D01*
X32150848Y-89432238D01*
X31803698Y-89543085D01*
X31529820Y-89689476D01*
X31413225Y-89981803D01*
X28586775Y-89981803D01*
X28470180Y-89689476D01*
X28146326Y-89522385D01*
X27796098Y-89421685D01*
X27432953Y-89391245D01*
X27070848Y-89432238D01*
X26723698Y-89543085D01*
X26449820Y-89689476D01*
X26333225Y-89981803D01*
X25475000Y-89981803D01*
X25475000Y-88766663D01*
X116658085Y-88766663D01*
X117500000Y-89608579D01*
X118341915Y-88766663D01*
X118273491Y-88515250D01*
X118017741Y-88388075D01*
X117742094Y-88313238D01*
X117457144Y-88293614D01*
X117173841Y-88329958D01*
X116903072Y-88420875D01*
X116726509Y-88515250D01*
X116658085Y-88766663D01*
X25475000Y-88766663D01*
X25475000Y-84837489D01*
X25810000Y-84837489D01*
X25810000Y-85162511D01*
X25873408Y-85481287D01*
X25997789Y-85781568D01*
X26178361Y-86051814D01*
X26408186Y-86281639D01*
X26678432Y-86462211D01*
X26978713Y-86586592D01*
X27297489Y-86650000D01*
X27622511Y-86650000D01*
X27941287Y-86586592D01*
X28241568Y-86462211D01*
X28511814Y-86281639D01*
X28741639Y-86051814D01*
X28922211Y-85781568D01*
X29046592Y-85481287D01*
X29110000Y-85162511D01*
X29110000Y-84837489D01*
X30890000Y-84837489D01*
X30890000Y-85162511D01*
X30953408Y-85481287D01*
X31077789Y-85781568D01*
X31258361Y-86051814D01*
X31488186Y-86281639D01*
X31758432Y-86462211D01*
X32058713Y-86586592D01*
X32377489Y-86650000D01*
X32702511Y-86650000D01*
X33021287Y-86586592D01*
X33321568Y-86462211D01*
X33591814Y-86281639D01*
X33821639Y-86051814D01*
X34002211Y-85781568D01*
X34126592Y-85481287D01*
X34190000Y-85162511D01*
X34190000Y-84837489D01*
X34126592Y-84518713D01*
X34002211Y-84218432D01*
X33821639Y-83948186D01*
X33591814Y-83718361D01*
X33321568Y-83537789D01*
X33021287Y-83413408D01*
X32702511Y-83350000D01*
X32377489Y-83350000D01*
X32058713Y-83413408D01*
X31758432Y-83537789D01*
X31488186Y-83718361D01*
X31258361Y-83948186D01*
X31077789Y-84218432D01*
X30953408Y-84518713D01*
X30890000Y-84837489D01*
X29110000Y-84837489D01*
X29046592Y-84518713D01*
X28922211Y-84218432D01*
X28741639Y-83948186D01*
X28511814Y-83718361D01*
X28241568Y-83537789D01*
X27941287Y-83413408D01*
X27622511Y-83350000D01*
X27297489Y-83350000D01*
X26978713Y-83413408D01*
X26678432Y-83537789D01*
X26408186Y-83718361D01*
X26178361Y-83948186D01*
X25997789Y-84218432D01*
X25873408Y-84518713D01*
X25810000Y-84837489D01*
X25475000Y-84837489D01*
X25475000Y-78376886D01*
X31250000Y-78376886D01*
X31250000Y-78623114D01*
X31298037Y-78864611D01*
X31392265Y-79092097D01*
X31529062Y-79296828D01*
X31703172Y-79470938D01*
X31907903Y-79607735D01*
X32135389Y-79701963D01*
X32376886Y-79750000D01*
X32623114Y-79750000D01*
X32864611Y-79701963D01*
X33092097Y-79607735D01*
X33296828Y-79470938D01*
X33470938Y-79296828D01*
X33607735Y-79092097D01*
X33701963Y-78864611D01*
X33750000Y-78623114D01*
X33750000Y-78376886D01*
X33701963Y-78135389D01*
X33607735Y-77907903D01*
X33470938Y-77703172D01*
X33296828Y-77529062D01*
X33092097Y-77392265D01*
X32864611Y-77298037D01*
X32623114Y-77250000D01*
X32376886Y-77250000D01*
X32135389Y-77298037D01*
X31907903Y-77392265D01*
X31703172Y-77529062D01*
X31529062Y-77703172D01*
X31392265Y-77907903D01*
X31298037Y-78135389D01*
X31250000Y-78376886D01*
X25475000Y-78376886D01*
X25475000Y-75126886D01*
X31250000Y-75126886D01*
X31250000Y-75373114D01*
X31298037Y-75614611D01*
X31392265Y-75842097D01*
X31529062Y-76046828D01*
X31703172Y-76220938D01*
X31907903Y-76357735D01*
X32135389Y-76451963D01*
X32376886Y-76500000D01*
X32623114Y-76500000D01*
X32864611Y-76451963D01*
X33092097Y-76357735D01*
X33296828Y-76220938D01*
X33470938Y-76046828D01*
X33607735Y-75842097D01*
X33701963Y-75614611D01*
X33750000Y-75373114D01*
X33750000Y-75126886D01*
X33701963Y-74885389D01*
X33607735Y-74657903D01*
X33470938Y-74453172D01*
X33296828Y-74279062D01*
X33092097Y-74142265D01*
X32864611Y-74048037D01*
X32623114Y-74000000D01*
X32376886Y-74000000D01*
X32135389Y-74048037D01*
X31907903Y-74142265D01*
X31703172Y-74279062D01*
X31529062Y-74453172D01*
X31392265Y-74657903D01*
X31298037Y-74885389D01*
X31250000Y-75126886D01*
X25475000Y-75126886D01*
X25475000Y-66650000D01*
X31750000Y-66650000D01*
X31779264Y-66647118D01*
X31807403Y-66638582D01*
X31833336Y-66624720D01*
X31856066Y-66606066D01*
X32856066Y-65606066D01*
X32874720Y-65583336D01*
X32888582Y-65557403D01*
X32897118Y-65529264D01*
X32900000Y-65500000D01*
X32900000Y-59225000D01*
X34800000Y-59225000D01*
X34800000Y-84250000D01*
G37*
X34800000Y-84250000D02*
X34808647Y-84337791D01*
X34834254Y-84422208D01*
X34875839Y-84500007D01*
X34931802Y-84568198D01*
X38681802Y-88318198D01*
X38749993Y-88374161D01*
X38827792Y-88415746D01*
X38912209Y-88441353D01*
X39000000Y-88450000D01*
X50750000Y-88450000D01*
X50837791Y-88441353D01*
X50922208Y-88415746D01*
X51000007Y-88374161D01*
X51068198Y-88318198D01*
X57350000Y-82036396D01*
X57350000Y-82100002D01*
X57512498Y-82100002D01*
X57350000Y-82262500D01*
X57346855Y-84000000D01*
X57359405Y-84127422D01*
X57396573Y-84249948D01*
X57456930Y-84362868D01*
X57538157Y-84461843D01*
X57637132Y-84543070D01*
X57750052Y-84603427D01*
X57872578Y-84640595D01*
X58000000Y-84653145D01*
X59737500Y-84650000D01*
X59900000Y-84487500D01*
X59900000Y-82100000D01*
X60100000Y-82100000D01*
X60100000Y-84487500D01*
X60262500Y-84650000D01*
X62000000Y-84653145D01*
X62127422Y-84640595D01*
X62249948Y-84603427D01*
X62362868Y-84543070D01*
X62461843Y-84461843D01*
X62543070Y-84362868D01*
X62603427Y-84249948D01*
X62640595Y-84127422D01*
X62653145Y-84000000D01*
X93096855Y-84000000D01*
X93109405Y-84127422D01*
X93146573Y-84249948D01*
X93206930Y-84362868D01*
X93288157Y-84461843D01*
X93387132Y-84543070D01*
X93500052Y-84603427D01*
X93622578Y-84640595D01*
X93750000Y-84653145D01*
X95487500Y-84650000D01*
X95650000Y-84487500D01*
X95650000Y-82100000D01*
X95850000Y-82100000D01*
X95850000Y-84487500D01*
X96012500Y-84650000D01*
X97750000Y-84653145D01*
X97877422Y-84640595D01*
X97999948Y-84603427D01*
X98112868Y-84543070D01*
X98211843Y-84461843D01*
X98293070Y-84362868D01*
X98353427Y-84249948D01*
X98390595Y-84127422D01*
X98403145Y-84000000D01*
X98400000Y-82262500D01*
X98237500Y-82100000D01*
X95850000Y-82100000D01*
X95650000Y-82100000D01*
X93262500Y-82100000D01*
X93100000Y-82262500D01*
X93096855Y-84000000D01*
X62653145Y-84000000D01*
X62650000Y-82262500D01*
X62487500Y-82100000D01*
X60100000Y-82100000D01*
X59900000Y-82100000D01*
X59880000Y-82100000D01*
X59880000Y-81900000D01*
X59900000Y-81900000D01*
X59900000Y-81880000D01*
X60100000Y-81880000D01*
X60100000Y-81900000D01*
X62487500Y-81900000D01*
X62650000Y-81737500D01*
X62650068Y-81700000D01*
X93099932Y-81700000D01*
X93100000Y-81737500D01*
X93262500Y-81900000D01*
X95650000Y-81900000D01*
X95650000Y-81880000D01*
X95850000Y-81880000D01*
X95850000Y-81900000D01*
X98237500Y-81900000D01*
X98400000Y-81737500D01*
X98400068Y-81700000D01*
X104813604Y-81700000D01*
X110931802Y-87818198D01*
X110999993Y-87874161D01*
X111077792Y-87915746D01*
X111162209Y-87941353D01*
X111250000Y-87950000D01*
X137025000Y-87950000D01*
X137025001Y-102050000D01*
X112500000Y-102050000D01*
X112412209Y-102058647D01*
X112327792Y-102084254D01*
X112249993Y-102125839D01*
X112181802Y-102181802D01*
X104813604Y-109550000D01*
X97843932Y-109550000D01*
X97961527Y-109483162D01*
X98208384Y-109023216D01*
X98360766Y-108523948D01*
X98412818Y-108004545D01*
X98362540Y-107484968D01*
X98211863Y-106985183D01*
X97966578Y-106524397D01*
X97961527Y-106516838D01*
X97587290Y-106304131D01*
X95891421Y-108000000D01*
X95905564Y-108014143D01*
X95764143Y-108155564D01*
X95750000Y-108141421D01*
X95735858Y-108155564D01*
X95594437Y-108014143D01*
X95608579Y-108000000D01*
X93912710Y-106304131D01*
X93538473Y-106516838D01*
X93291616Y-106976784D01*
X93139234Y-107476052D01*
X93087182Y-107995455D01*
X93137460Y-108515032D01*
X93288137Y-109014817D01*
X93533422Y-109475603D01*
X93538473Y-109483162D01*
X93656068Y-109550000D01*
X62093932Y-109550000D01*
X62211527Y-109483162D01*
X62458384Y-109023216D01*
X62610766Y-108523948D01*
X62662818Y-108004545D01*
X62612540Y-107484968D01*
X62461863Y-106985183D01*
X62216578Y-106524397D01*
X62211527Y-106516838D01*
X61837290Y-106304131D01*
X60141421Y-108000000D01*
X60155564Y-108014143D01*
X60014143Y-108155564D01*
X60000000Y-108141421D01*
X59985858Y-108155564D01*
X59844437Y-108014143D01*
X59858579Y-108000000D01*
X58162710Y-106304131D01*
X57788473Y-106516838D01*
X57541616Y-106976784D01*
X57389234Y-107476052D01*
X57337182Y-107995455D01*
X57387460Y-108515032D01*
X57538137Y-109014817D01*
X57783422Y-109475603D01*
X57788473Y-109483162D01*
X57906068Y-109550000D01*
X57686396Y-109550000D01*
X54299106Y-106162710D01*
X58304131Y-106162710D01*
X60000000Y-107858579D01*
X61695869Y-106162710D01*
X94054131Y-106162710D01*
X95750000Y-107858579D01*
X97445869Y-106162710D01*
X97233162Y-105788473D01*
X96773216Y-105541616D01*
X96273948Y-105389234D01*
X95754545Y-105337182D01*
X95234968Y-105387460D01*
X94735183Y-105538137D01*
X94274397Y-105783422D01*
X94266838Y-105788473D01*
X94054131Y-106162710D01*
X61695869Y-106162710D01*
X61483162Y-105788473D01*
X61023216Y-105541616D01*
X60523948Y-105389234D01*
X60004545Y-105337182D01*
X59484968Y-105387460D01*
X58985183Y-105538137D01*
X58524397Y-105783422D01*
X58516838Y-105788473D01*
X58304131Y-106162710D01*
X54299106Y-106162710D01*
X50068198Y-101931802D01*
X50000007Y-101875839D01*
X49922208Y-101834254D01*
X49837791Y-101808647D01*
X49750000Y-101800000D01*
X40000000Y-101800000D01*
X39912209Y-101808647D01*
X39827792Y-101834254D01*
X39749993Y-101875839D01*
X39681802Y-101931802D01*
X34681802Y-106931802D01*
X34625839Y-106999993D01*
X34584254Y-107077792D01*
X34558647Y-107162209D01*
X34550000Y-107250000D01*
X34550000Y-130775000D01*
X32900000Y-130775000D01*
X32900000Y-124500000D01*
X32897118Y-124470736D01*
X32888582Y-124442597D01*
X32874720Y-124416664D01*
X32856066Y-124393934D01*
X31856066Y-123393934D01*
X31833336Y-123375280D01*
X31807403Y-123361418D01*
X31779264Y-123352882D01*
X31750000Y-123350000D01*
X25475000Y-123350000D01*
X25475000Y-117376886D01*
X31250000Y-117376886D01*
X31250000Y-117623114D01*
X31298037Y-117864611D01*
X31392265Y-118092097D01*
X31529062Y-118296828D01*
X31703172Y-118470938D01*
X31907903Y-118607735D01*
X32135389Y-118701963D01*
X32376886Y-118750000D01*
X32623114Y-118750000D01*
X32864611Y-118701963D01*
X33092097Y-118607735D01*
X33296828Y-118470938D01*
X33470938Y-118296828D01*
X33607735Y-118092097D01*
X33701963Y-117864611D01*
X33750000Y-117623114D01*
X33750000Y-117376886D01*
X33701963Y-117135389D01*
X33607735Y-116907903D01*
X33470938Y-116703172D01*
X33296828Y-116529062D01*
X33092097Y-116392265D01*
X32864611Y-116298037D01*
X32623114Y-116250000D01*
X32376886Y-116250000D01*
X32135389Y-116298037D01*
X31907903Y-116392265D01*
X31703172Y-116529062D01*
X31529062Y-116703172D01*
X31392265Y-116907903D01*
X31298037Y-117135389D01*
X31250000Y-117376886D01*
X25475000Y-117376886D01*
X25475000Y-114126886D01*
X31250000Y-114126886D01*
X31250000Y-114373114D01*
X31298037Y-114614611D01*
X31392265Y-114842097D01*
X31529062Y-115046828D01*
X31703172Y-115220938D01*
X31907903Y-115357735D01*
X32135389Y-115451963D01*
X32376886Y-115500000D01*
X32623114Y-115500000D01*
X32864611Y-115451963D01*
X33092097Y-115357735D01*
X33296828Y-115220938D01*
X33470938Y-115046828D01*
X33607735Y-114842097D01*
X33701963Y-114614611D01*
X33750000Y-114373114D01*
X33750000Y-114126886D01*
X33701963Y-113885389D01*
X33607735Y-113657903D01*
X33470938Y-113453172D01*
X33296828Y-113279062D01*
X33092097Y-113142265D01*
X32864611Y-113048037D01*
X32623114Y-113000000D01*
X32376886Y-113000000D01*
X32135389Y-113048037D01*
X31907903Y-113142265D01*
X31703172Y-113279062D01*
X31529062Y-113453172D01*
X31392265Y-113657903D01*
X31298037Y-113885389D01*
X31250000Y-114126886D01*
X25475000Y-114126886D01*
X25475000Y-104837489D01*
X25810000Y-104837489D01*
X25810000Y-105162511D01*
X25873408Y-105481287D01*
X25997789Y-105781568D01*
X26178361Y-106051814D01*
X26408186Y-106281639D01*
X26678432Y-106462211D01*
X26978713Y-106586592D01*
X27297489Y-106650000D01*
X27622511Y-106650000D01*
X27941287Y-106586592D01*
X28241568Y-106462211D01*
X28511814Y-106281639D01*
X28741639Y-106051814D01*
X28922211Y-105781568D01*
X29046592Y-105481287D01*
X29110000Y-105162511D01*
X29110000Y-104837489D01*
X30890000Y-104837489D01*
X30890000Y-105162511D01*
X30953408Y-105481287D01*
X31077789Y-105781568D01*
X31258361Y-106051814D01*
X31488186Y-106281639D01*
X31758432Y-106462211D01*
X32058713Y-106586592D01*
X32377489Y-106650000D01*
X32702511Y-106650000D01*
X33021287Y-106586592D01*
X33321568Y-106462211D01*
X33591814Y-106281639D01*
X33821639Y-106051814D01*
X34002211Y-105781568D01*
X34126592Y-105481287D01*
X34190000Y-105162511D01*
X34190000Y-104837489D01*
X34126592Y-104518713D01*
X34002211Y-104218432D01*
X33821639Y-103948186D01*
X33591814Y-103718361D01*
X33321568Y-103537789D01*
X33021287Y-103413408D01*
X32702511Y-103350000D01*
X32377489Y-103350000D01*
X32058713Y-103413408D01*
X31758432Y-103537789D01*
X31488186Y-103718361D01*
X31258361Y-103948186D01*
X31077789Y-104218432D01*
X30953408Y-104518713D01*
X30890000Y-104837489D01*
X29110000Y-104837489D01*
X29046592Y-104518713D01*
X28922211Y-104218432D01*
X28741639Y-103948186D01*
X28511814Y-103718361D01*
X28241568Y-103537789D01*
X27941287Y-103413408D01*
X27622511Y-103350000D01*
X27297489Y-103350000D01*
X26978713Y-103413408D01*
X26678432Y-103537789D01*
X26408186Y-103718361D01*
X26178361Y-103948186D01*
X25997789Y-104218432D01*
X25873408Y-104518713D01*
X25810000Y-104837489D01*
X25475000Y-104837489D01*
X25475000Y-100018197D01*
X26333225Y-100018197D01*
X26449820Y-100310524D01*
X26773674Y-100477615D01*
X27123902Y-100578315D01*
X27487047Y-100608755D01*
X27849152Y-100567762D01*
X28196302Y-100456915D01*
X28470180Y-100310524D01*
X28586775Y-100018197D01*
X31413225Y-100018197D01*
X31529820Y-100310524D01*
X31853674Y-100477615D01*
X32203902Y-100578315D01*
X32567047Y-100608755D01*
X32929152Y-100567762D01*
X33276302Y-100456915D01*
X33550180Y-100310524D01*
X33666775Y-100018197D01*
X32540000Y-98891421D01*
X31413225Y-100018197D01*
X28586775Y-100018197D01*
X27460000Y-98891421D01*
X26333225Y-100018197D01*
X25475000Y-100018197D01*
X25475000Y-98777047D01*
X25601245Y-98777047D01*
X25642238Y-99139152D01*
X25753085Y-99486302D01*
X25899476Y-99760180D01*
X26191803Y-99876775D01*
X27318579Y-98750000D01*
X27601421Y-98750000D01*
X28728197Y-99876775D01*
X29020524Y-99760180D01*
X29187615Y-99436326D01*
X29288315Y-99086098D01*
X29314220Y-98777047D01*
X30681245Y-98777047D01*
X30722238Y-99139152D01*
X30833085Y-99486302D01*
X30979476Y-99760180D01*
X31271803Y-99876775D01*
X32398579Y-98750000D01*
X32681421Y-98750000D01*
X33808197Y-99876775D01*
X34100524Y-99760180D01*
X34267615Y-99436326D01*
X34368315Y-99086098D01*
X34398755Y-98722953D01*
X34357762Y-98360848D01*
X34333122Y-98283680D01*
X36650000Y-98283680D01*
X36650000Y-99216321D01*
X36669533Y-99414646D01*
X36746728Y-99669122D01*
X36872085Y-99903649D01*
X37040788Y-100109213D01*
X37246352Y-100277915D01*
X37480879Y-100403272D01*
X37735355Y-100480467D01*
X38000000Y-100506532D01*
X38264646Y-100480467D01*
X38519122Y-100403272D01*
X38753649Y-100277915D01*
X38959213Y-100109213D01*
X39127915Y-99903649D01*
X39253272Y-99669122D01*
X39330467Y-99414646D01*
X39350000Y-99216320D01*
X39350000Y-98876886D01*
X41000000Y-98876886D01*
X41000000Y-99123114D01*
X41048037Y-99364611D01*
X41142265Y-99592097D01*
X41279062Y-99796828D01*
X41453172Y-99970938D01*
X41657903Y-100107735D01*
X41885389Y-100201963D01*
X42126886Y-100250000D01*
X42373114Y-100250000D01*
X42614611Y-100201963D01*
X42842097Y-100107735D01*
X42976099Y-100018197D01*
X128833225Y-100018197D01*
X128949820Y-100310524D01*
X129273674Y-100477615D01*
X129623902Y-100578315D01*
X129987047Y-100608755D01*
X130349152Y-100567762D01*
X130696302Y-100456915D01*
X130970180Y-100310524D01*
X131086775Y-100018197D01*
X133913225Y-100018197D01*
X134029820Y-100310524D01*
X134353674Y-100477615D01*
X134703902Y-100578315D01*
X135067047Y-100608755D01*
X135429152Y-100567762D01*
X135776302Y-100456915D01*
X136050180Y-100310524D01*
X136166775Y-100018197D01*
X135040000Y-98891421D01*
X133913225Y-100018197D01*
X131086775Y-100018197D01*
X129960000Y-98891421D01*
X128833225Y-100018197D01*
X42976099Y-100018197D01*
X43046828Y-99970938D01*
X43220938Y-99796828D01*
X43357735Y-99592097D01*
X43451963Y-99364611D01*
X43500000Y-99123114D01*
X43500000Y-98876886D01*
X43457865Y-98665059D01*
X116086901Y-98665059D01*
X116177469Y-98934495D01*
X116318861Y-99181085D01*
X116505644Y-99395353D01*
X116730639Y-99569064D01*
X116985201Y-99695543D01*
X117174941Y-99753095D01*
X117400000Y-99623611D01*
X117400000Y-98440000D01*
X117600000Y-98440000D01*
X117600000Y-99623611D01*
X117825059Y-99753095D01*
X118014799Y-99695543D01*
X118269361Y-99569064D01*
X118494356Y-99395353D01*
X118681139Y-99181085D01*
X118822531Y-98934495D01*
X118875455Y-98777047D01*
X128101245Y-98777047D01*
X128142238Y-99139152D01*
X128253085Y-99486302D01*
X128399476Y-99760180D01*
X128691803Y-99876775D01*
X129818579Y-98750000D01*
X130101421Y-98750000D01*
X131228197Y-99876775D01*
X131520524Y-99760180D01*
X131687615Y-99436326D01*
X131788315Y-99086098D01*
X131814220Y-98777047D01*
X133181245Y-98777047D01*
X133222238Y-99139152D01*
X133333085Y-99486302D01*
X133479476Y-99760180D01*
X133771803Y-99876775D01*
X134898579Y-98750000D01*
X135181421Y-98750000D01*
X136308197Y-99876775D01*
X136600524Y-99760180D01*
X136767615Y-99436326D01*
X136868315Y-99086098D01*
X136898755Y-98722953D01*
X136857762Y-98360848D01*
X136746915Y-98013698D01*
X136600524Y-97739820D01*
X136308197Y-97623225D01*
X135181421Y-98750000D01*
X134898579Y-98750000D01*
X133771803Y-97623225D01*
X133479476Y-97739820D01*
X133312385Y-98063674D01*
X133211685Y-98413902D01*
X133181245Y-98777047D01*
X131814220Y-98777047D01*
X131818755Y-98722953D01*
X131777762Y-98360848D01*
X131666915Y-98013698D01*
X131520524Y-97739820D01*
X131228197Y-97623225D01*
X130101421Y-98750000D01*
X129818579Y-98750000D01*
X128691803Y-97623225D01*
X128399476Y-97739820D01*
X128232385Y-98063674D01*
X128131685Y-98413902D01*
X128101245Y-98777047D01*
X118875455Y-98777047D01*
X118913099Y-98665059D01*
X118784052Y-98440000D01*
X117600000Y-98440000D01*
X117400000Y-98440000D01*
X116215948Y-98440000D01*
X116086901Y-98665059D01*
X43457865Y-98665059D01*
X43451963Y-98635389D01*
X43357735Y-98407903D01*
X43220938Y-98203172D01*
X43046828Y-98029062D01*
X42842097Y-97892265D01*
X42614611Y-97798037D01*
X42373114Y-97750000D01*
X42126886Y-97750000D01*
X41885389Y-97798037D01*
X41657903Y-97892265D01*
X41453172Y-98029062D01*
X41279062Y-98203172D01*
X41142265Y-98407903D01*
X41048037Y-98635389D01*
X41000000Y-98876886D01*
X39350000Y-98876886D01*
X39350000Y-98283679D01*
X39330467Y-98085354D01*
X39253272Y-97830878D01*
X39127915Y-97596351D01*
X38959212Y-97390787D01*
X38753648Y-97222085D01*
X38519121Y-97096728D01*
X38264645Y-97019533D01*
X38000000Y-96993468D01*
X37735354Y-97019533D01*
X37480878Y-97096728D01*
X37246351Y-97222085D01*
X37040787Y-97390788D01*
X36872085Y-97596352D01*
X36746728Y-97830879D01*
X36669533Y-98085355D01*
X36650000Y-98283680D01*
X34333122Y-98283680D01*
X34246915Y-98013698D01*
X34100524Y-97739820D01*
X33808197Y-97623225D01*
X32681421Y-98750000D01*
X32398579Y-98750000D01*
X31271803Y-97623225D01*
X30979476Y-97739820D01*
X30812385Y-98063674D01*
X30711685Y-98413902D01*
X30681245Y-98777047D01*
X29314220Y-98777047D01*
X29318755Y-98722953D01*
X29277762Y-98360848D01*
X29166915Y-98013698D01*
X29020524Y-97739820D01*
X28728197Y-97623225D01*
X27601421Y-98750000D01*
X27318579Y-98750000D01*
X26191803Y-97623225D01*
X25899476Y-97739820D01*
X25732385Y-98063674D01*
X25631685Y-98413902D01*
X25601245Y-98777047D01*
X25475000Y-98777047D01*
X25475000Y-97481803D01*
X26333225Y-97481803D01*
X27460000Y-98608579D01*
X28586775Y-97481803D01*
X31413225Y-97481803D01*
X32540000Y-98608579D01*
X33666775Y-97481803D01*
X33550180Y-97189476D01*
X33226326Y-97022385D01*
X32876098Y-96921685D01*
X32512953Y-96891245D01*
X32150848Y-96932238D01*
X31803698Y-97043085D01*
X31529820Y-97189476D01*
X31413225Y-97481803D01*
X28586775Y-97481803D01*
X28470180Y-97189476D01*
X28146326Y-97022385D01*
X27796098Y-96921685D01*
X27432953Y-96891245D01*
X27070848Y-96932238D01*
X26723698Y-97043085D01*
X26449820Y-97189476D01*
X26333225Y-97481803D01*
X25475000Y-97481803D01*
X25475000Y-94640506D01*
X73850000Y-94640506D01*
X73850000Y-95359494D01*
X73990267Y-96064666D01*
X74265412Y-96728923D01*
X74664860Y-97326740D01*
X75173260Y-97835140D01*
X75771077Y-98234588D01*
X76435334Y-98509733D01*
X77140506Y-98650000D01*
X77859494Y-98650000D01*
X78564666Y-98509733D01*
X79228923Y-98234588D01*
X79557648Y-98014941D01*
X116086901Y-98014941D01*
X116215948Y-98240000D01*
X117400000Y-98240000D01*
X117400000Y-97056389D01*
X117600000Y-97056389D01*
X117600000Y-98240000D01*
X118784052Y-98240000D01*
X118913099Y-98014941D01*
X118822531Y-97745505D01*
X118681139Y-97498915D01*
X118666223Y-97481803D01*
X128833225Y-97481803D01*
X129960000Y-98608579D01*
X131086775Y-97481803D01*
X133913225Y-97481803D01*
X135040000Y-98608579D01*
X136166775Y-97481803D01*
X136050180Y-97189476D01*
X135726326Y-97022385D01*
X135376098Y-96921685D01*
X135012953Y-96891245D01*
X134650848Y-96932238D01*
X134303698Y-97043085D01*
X134029820Y-97189476D01*
X133913225Y-97481803D01*
X131086775Y-97481803D01*
X130970180Y-97189476D01*
X130646326Y-97022385D01*
X130296098Y-96921685D01*
X129932953Y-96891245D01*
X129570848Y-96932238D01*
X129223698Y-97043085D01*
X128949820Y-97189476D01*
X128833225Y-97481803D01*
X118666223Y-97481803D01*
X118494356Y-97284647D01*
X118269361Y-97110936D01*
X118014799Y-96984457D01*
X117825059Y-96926905D01*
X117600000Y-97056389D01*
X117400000Y-97056389D01*
X117174941Y-96926905D01*
X116985201Y-96984457D01*
X116730639Y-97110936D01*
X116505644Y-97284647D01*
X116318861Y-97498915D01*
X116177469Y-97745505D01*
X116086901Y-98014941D01*
X79557648Y-98014941D01*
X79826740Y-97835140D01*
X80335140Y-97326740D01*
X80734588Y-96728923D01*
X81009733Y-96064666D01*
X81150000Y-95359494D01*
X81150000Y-94640506D01*
X81009733Y-93935334D01*
X80734588Y-93271077D01*
X80335140Y-92673260D01*
X80145217Y-92483337D01*
X119908085Y-92483337D01*
X119976509Y-92734750D01*
X120232259Y-92861925D01*
X120507906Y-92936762D01*
X120792856Y-92956386D01*
X121076159Y-92920042D01*
X121346928Y-92829125D01*
X121523491Y-92734750D01*
X121591915Y-92483337D01*
X123158085Y-92483337D01*
X123226509Y-92734750D01*
X123482259Y-92861925D01*
X123757906Y-92936762D01*
X124042856Y-92956386D01*
X124326159Y-92920042D01*
X124596928Y-92829125D01*
X124773491Y-92734750D01*
X124832427Y-92518197D01*
X128833225Y-92518197D01*
X128949820Y-92810524D01*
X129273674Y-92977615D01*
X129623902Y-93078315D01*
X129987047Y-93108755D01*
X130349152Y-93067762D01*
X130696302Y-92956915D01*
X130970180Y-92810524D01*
X131086775Y-92518197D01*
X133913225Y-92518197D01*
X134029820Y-92810524D01*
X134353674Y-92977615D01*
X134703902Y-93078315D01*
X135067047Y-93108755D01*
X135429152Y-93067762D01*
X135776302Y-92956915D01*
X136050180Y-92810524D01*
X136166775Y-92518197D01*
X135040000Y-91391421D01*
X133913225Y-92518197D01*
X131086775Y-92518197D01*
X129960000Y-91391421D01*
X128833225Y-92518197D01*
X124832427Y-92518197D01*
X124841915Y-92483337D01*
X124000000Y-91641421D01*
X123158085Y-92483337D01*
X121591915Y-92483337D01*
X120750000Y-91641421D01*
X119908085Y-92483337D01*
X80145217Y-92483337D01*
X79826740Y-92164860D01*
X79228923Y-91765412D01*
X78691627Y-91542856D01*
X119293614Y-91542856D01*
X119329958Y-91826159D01*
X119420875Y-92096928D01*
X119515250Y-92273491D01*
X119766663Y-92341915D01*
X120608579Y-91500000D01*
X120891421Y-91500000D01*
X121733337Y-92341915D01*
X121984750Y-92273491D01*
X122111925Y-92017741D01*
X122186762Y-91742094D01*
X122200483Y-91542856D01*
X122543614Y-91542856D01*
X122579958Y-91826159D01*
X122670875Y-92096928D01*
X122765250Y-92273491D01*
X123016663Y-92341915D01*
X123858579Y-91500000D01*
X124141421Y-91500000D01*
X124983337Y-92341915D01*
X125234750Y-92273491D01*
X125361925Y-92017741D01*
X125436762Y-91742094D01*
X125456386Y-91457144D01*
X125433282Y-91277047D01*
X128101245Y-91277047D01*
X128142238Y-91639152D01*
X128253085Y-91986302D01*
X128399476Y-92260180D01*
X128691803Y-92376775D01*
X129818579Y-91250000D01*
X130101421Y-91250000D01*
X131228197Y-92376775D01*
X131520524Y-92260180D01*
X131687615Y-91936326D01*
X131788315Y-91586098D01*
X131814220Y-91277047D01*
X133181245Y-91277047D01*
X133222238Y-91639152D01*
X133333085Y-91986302D01*
X133479476Y-92260180D01*
X133771803Y-92376775D01*
X134898579Y-91250000D01*
X135181421Y-91250000D01*
X136308197Y-92376775D01*
X136600524Y-92260180D01*
X136767615Y-91936326D01*
X136868315Y-91586098D01*
X136898755Y-91222953D01*
X136857762Y-90860848D01*
X136746915Y-90513698D01*
X136600524Y-90239820D01*
X136308197Y-90123225D01*
X135181421Y-91250000D01*
X134898579Y-91250000D01*
X133771803Y-90123225D01*
X133479476Y-90239820D01*
X133312385Y-90563674D01*
X133211685Y-90913902D01*
X133181245Y-91277047D01*
X131814220Y-91277047D01*
X131818755Y-91222953D01*
X131777762Y-90860848D01*
X131666915Y-90513698D01*
X131520524Y-90239820D01*
X131228197Y-90123225D01*
X130101421Y-91250000D01*
X129818579Y-91250000D01*
X128691803Y-90123225D01*
X128399476Y-90239820D01*
X128232385Y-90563674D01*
X128131685Y-90913902D01*
X128101245Y-91277047D01*
X125433282Y-91277047D01*
X125420042Y-91173841D01*
X125329125Y-90903072D01*
X125234750Y-90726509D01*
X124983337Y-90658085D01*
X124141421Y-91500000D01*
X123858579Y-91500000D01*
X123016663Y-90658085D01*
X122765250Y-90726509D01*
X122638075Y-90982259D01*
X122563238Y-91257906D01*
X122543614Y-91542856D01*
X122200483Y-91542856D01*
X122206386Y-91457144D01*
X122170042Y-91173841D01*
X122079125Y-90903072D01*
X121984750Y-90726509D01*
X121733337Y-90658085D01*
X120891421Y-91500000D01*
X120608579Y-91500000D01*
X119766663Y-90658085D01*
X119515250Y-90726509D01*
X119388075Y-90982259D01*
X119313238Y-91257906D01*
X119293614Y-91542856D01*
X78691627Y-91542856D01*
X78564666Y-91490267D01*
X77859494Y-91350000D01*
X77140506Y-91350000D01*
X76435334Y-91490267D01*
X75771077Y-91765412D01*
X75173260Y-92164860D01*
X74664860Y-92673260D01*
X74265412Y-93271077D01*
X73990267Y-93935334D01*
X73850000Y-94640506D01*
X25475000Y-94640506D01*
X25475000Y-92518197D01*
X26333225Y-92518197D01*
X26449820Y-92810524D01*
X26773674Y-92977615D01*
X27123902Y-93078315D01*
X27487047Y-93108755D01*
X27849152Y-93067762D01*
X28196302Y-92956915D01*
X28470180Y-92810524D01*
X28586775Y-92518197D01*
X31413225Y-92518197D01*
X31529820Y-92810524D01*
X31853674Y-92977615D01*
X32203902Y-93078315D01*
X32567047Y-93108755D01*
X32929152Y-93067762D01*
X33276302Y-92956915D01*
X33550180Y-92810524D01*
X33666775Y-92518197D01*
X32540000Y-91391421D01*
X31413225Y-92518197D01*
X28586775Y-92518197D01*
X27460000Y-91391421D01*
X26333225Y-92518197D01*
X25475000Y-92518197D01*
X25475000Y-91277047D01*
X25601245Y-91277047D01*
X25642238Y-91639152D01*
X25753085Y-91986302D01*
X25899476Y-92260180D01*
X26191803Y-92376775D01*
X27318579Y-91250000D01*
X27601421Y-91250000D01*
X28728197Y-92376775D01*
X29020524Y-92260180D01*
X29187615Y-91936326D01*
X29288315Y-91586098D01*
X29314220Y-91277047D01*
X30681245Y-91277047D01*
X30722238Y-91639152D01*
X30833085Y-91986302D01*
X30979476Y-92260180D01*
X31271803Y-92376775D01*
X32398579Y-91250000D01*
X32681421Y-91250000D01*
X33808197Y-92376775D01*
X34100524Y-92260180D01*
X34267615Y-91936326D01*
X34368315Y-91586098D01*
X34398755Y-91222953D01*
X34357762Y-90860848D01*
X34333122Y-90783680D01*
X36650000Y-90783680D01*
X36650000Y-91716321D01*
X36669533Y-91914646D01*
X36746728Y-92169122D01*
X36872085Y-92403649D01*
X37040788Y-92609213D01*
X37246352Y-92777915D01*
X37480879Y-92903272D01*
X37735355Y-92980467D01*
X38000000Y-93006532D01*
X38264646Y-92980467D01*
X38519122Y-92903272D01*
X38753649Y-92777915D01*
X38959213Y-92609213D01*
X39127915Y-92403649D01*
X39253272Y-92169122D01*
X39330467Y-91914646D01*
X39350000Y-91716320D01*
X39350000Y-91126886D01*
X41000000Y-91126886D01*
X41000000Y-91373114D01*
X41048037Y-91614611D01*
X41142265Y-91842097D01*
X41279062Y-92046828D01*
X41453172Y-92220938D01*
X41657903Y-92357735D01*
X41885389Y-92451963D01*
X42126886Y-92500000D01*
X42373114Y-92500000D01*
X42614611Y-92451963D01*
X42842097Y-92357735D01*
X43046828Y-92220938D01*
X43220938Y-92046828D01*
X43357735Y-91842097D01*
X43451963Y-91614611D01*
X43500000Y-91373114D01*
X43500000Y-91126886D01*
X43451963Y-90885389D01*
X43388981Y-90733337D01*
X116658085Y-90733337D01*
X116726509Y-90984750D01*
X116982259Y-91111925D01*
X117257906Y-91186762D01*
X117542856Y-91206386D01*
X117826159Y-91170042D01*
X118096928Y-91079125D01*
X118273491Y-90984750D01*
X118341915Y-90733337D01*
X117500000Y-89891421D01*
X116658085Y-90733337D01*
X43388981Y-90733337D01*
X43357735Y-90657903D01*
X43220938Y-90453172D01*
X43046828Y-90279062D01*
X42842097Y-90142265D01*
X42614611Y-90048037D01*
X42373114Y-90000000D01*
X42126886Y-90000000D01*
X41885389Y-90048037D01*
X41657903Y-90142265D01*
X41453172Y-90279062D01*
X41279062Y-90453172D01*
X41142265Y-90657903D01*
X41048037Y-90885389D01*
X41000000Y-91126886D01*
X39350000Y-91126886D01*
X39350000Y-90783679D01*
X39330467Y-90585354D01*
X39253272Y-90330878D01*
X39127915Y-90096351D01*
X38959212Y-89890787D01*
X38839883Y-89792856D01*
X116043614Y-89792856D01*
X116079958Y-90076159D01*
X116170875Y-90346928D01*
X116265250Y-90523491D01*
X116516663Y-90591915D01*
X117358579Y-89750000D01*
X117641421Y-89750000D01*
X118483337Y-90591915D01*
X118734750Y-90523491D01*
X118738145Y-90516663D01*
X119908085Y-90516663D01*
X120750000Y-91358579D01*
X121591915Y-90516663D01*
X123158085Y-90516663D01*
X124000000Y-91358579D01*
X124841915Y-90516663D01*
X124773491Y-90265250D01*
X124517741Y-90138075D01*
X124242094Y-90063238D01*
X123957144Y-90043614D01*
X123673841Y-90079958D01*
X123403072Y-90170875D01*
X123226509Y-90265250D01*
X123158085Y-90516663D01*
X121591915Y-90516663D01*
X121523491Y-90265250D01*
X121267741Y-90138075D01*
X120992094Y-90063238D01*
X120707144Y-90043614D01*
X120423841Y-90079958D01*
X120153072Y-90170875D01*
X119976509Y-90265250D01*
X119908085Y-90516663D01*
X118738145Y-90516663D01*
X118861925Y-90267741D01*
X118936762Y-89992094D01*
X118937470Y-89981803D01*
X128833225Y-89981803D01*
X129960000Y-91108579D01*
X131086775Y-89981803D01*
X133913225Y-89981803D01*
X135040000Y-91108579D01*
X136166775Y-89981803D01*
X136050180Y-89689476D01*
X135726326Y-89522385D01*
X135376098Y-89421685D01*
X135012953Y-89391245D01*
X134650848Y-89432238D01*
X134303698Y-89543085D01*
X134029820Y-89689476D01*
X133913225Y-89981803D01*
X131086775Y-89981803D01*
X130970180Y-89689476D01*
X130646326Y-89522385D01*
X130296098Y-89421685D01*
X129932953Y-89391245D01*
X129570848Y-89432238D01*
X129223698Y-89543085D01*
X128949820Y-89689476D01*
X128833225Y-89981803D01*
X118937470Y-89981803D01*
X118956386Y-89707144D01*
X118920042Y-89423841D01*
X118829125Y-89153072D01*
X118734750Y-88976509D01*
X118483337Y-88908085D01*
X117641421Y-89750000D01*
X117358579Y-89750000D01*
X116516663Y-88908085D01*
X116265250Y-88976509D01*
X116138075Y-89232259D01*
X116063238Y-89507906D01*
X116043614Y-89792856D01*
X38839883Y-89792856D01*
X38753648Y-89722085D01*
X38519121Y-89596728D01*
X38264645Y-89519533D01*
X38000000Y-89493468D01*
X37735354Y-89519533D01*
X37480878Y-89596728D01*
X37246351Y-89722085D01*
X37040787Y-89890788D01*
X36872085Y-90096352D01*
X36746728Y-90330879D01*
X36669533Y-90585355D01*
X36650000Y-90783680D01*
X34333122Y-90783680D01*
X34246915Y-90513698D01*
X34100524Y-90239820D01*
X33808197Y-90123225D01*
X32681421Y-91250000D01*
X32398579Y-91250000D01*
X31271803Y-90123225D01*
X30979476Y-90239820D01*
X30812385Y-90563674D01*
X30711685Y-90913902D01*
X30681245Y-91277047D01*
X29314220Y-91277047D01*
X29318755Y-91222953D01*
X29277762Y-90860848D01*
X29166915Y-90513698D01*
X29020524Y-90239820D01*
X28728197Y-90123225D01*
X27601421Y-91250000D01*
X27318579Y-91250000D01*
X26191803Y-90123225D01*
X25899476Y-90239820D01*
X25732385Y-90563674D01*
X25631685Y-90913902D01*
X25601245Y-91277047D01*
X25475000Y-91277047D01*
X25475000Y-89981803D01*
X26333225Y-89981803D01*
X27460000Y-91108579D01*
X28586775Y-89981803D01*
X31413225Y-89981803D01*
X32540000Y-91108579D01*
X33666775Y-89981803D01*
X33550180Y-89689476D01*
X33226326Y-89522385D01*
X32876098Y-89421685D01*
X32512953Y-89391245D01*
X32150848Y-89432238D01*
X31803698Y-89543085D01*
X31529820Y-89689476D01*
X31413225Y-89981803D01*
X28586775Y-89981803D01*
X28470180Y-89689476D01*
X28146326Y-89522385D01*
X27796098Y-89421685D01*
X27432953Y-89391245D01*
X27070848Y-89432238D01*
X26723698Y-89543085D01*
X26449820Y-89689476D01*
X26333225Y-89981803D01*
X25475000Y-89981803D01*
X25475000Y-88766663D01*
X116658085Y-88766663D01*
X117500000Y-89608579D01*
X118341915Y-88766663D01*
X118273491Y-88515250D01*
X118017741Y-88388075D01*
X117742094Y-88313238D01*
X117457144Y-88293614D01*
X117173841Y-88329958D01*
X116903072Y-88420875D01*
X116726509Y-88515250D01*
X116658085Y-88766663D01*
X25475000Y-88766663D01*
X25475000Y-84837489D01*
X25810000Y-84837489D01*
X25810000Y-85162511D01*
X25873408Y-85481287D01*
X25997789Y-85781568D01*
X26178361Y-86051814D01*
X26408186Y-86281639D01*
X26678432Y-86462211D01*
X26978713Y-86586592D01*
X27297489Y-86650000D01*
X27622511Y-86650000D01*
X27941287Y-86586592D01*
X28241568Y-86462211D01*
X28511814Y-86281639D01*
X28741639Y-86051814D01*
X28922211Y-85781568D01*
X29046592Y-85481287D01*
X29110000Y-85162511D01*
X29110000Y-84837489D01*
X30890000Y-84837489D01*
X30890000Y-85162511D01*
X30953408Y-85481287D01*
X31077789Y-85781568D01*
X31258361Y-86051814D01*
X31488186Y-86281639D01*
X31758432Y-86462211D01*
X32058713Y-86586592D01*
X32377489Y-86650000D01*
X32702511Y-86650000D01*
X33021287Y-86586592D01*
X33321568Y-86462211D01*
X33591814Y-86281639D01*
X33821639Y-86051814D01*
X34002211Y-85781568D01*
X34126592Y-85481287D01*
X34190000Y-85162511D01*
X34190000Y-84837489D01*
X34126592Y-84518713D01*
X34002211Y-84218432D01*
X33821639Y-83948186D01*
X33591814Y-83718361D01*
X33321568Y-83537789D01*
X33021287Y-83413408D01*
X32702511Y-83350000D01*
X32377489Y-83350000D01*
X32058713Y-83413408D01*
X31758432Y-83537789D01*
X31488186Y-83718361D01*
X31258361Y-83948186D01*
X31077789Y-84218432D01*
X30953408Y-84518713D01*
X30890000Y-84837489D01*
X29110000Y-84837489D01*
X29046592Y-84518713D01*
X28922211Y-84218432D01*
X28741639Y-83948186D01*
X28511814Y-83718361D01*
X28241568Y-83537789D01*
X27941287Y-83413408D01*
X27622511Y-83350000D01*
X27297489Y-83350000D01*
X26978713Y-83413408D01*
X26678432Y-83537789D01*
X26408186Y-83718361D01*
X26178361Y-83948186D01*
X25997789Y-84218432D01*
X25873408Y-84518713D01*
X25810000Y-84837489D01*
X25475000Y-84837489D01*
X25475000Y-78376886D01*
X31250000Y-78376886D01*
X31250000Y-78623114D01*
X31298037Y-78864611D01*
X31392265Y-79092097D01*
X31529062Y-79296828D01*
X31703172Y-79470938D01*
X31907903Y-79607735D01*
X32135389Y-79701963D01*
X32376886Y-79750000D01*
X32623114Y-79750000D01*
X32864611Y-79701963D01*
X33092097Y-79607735D01*
X33296828Y-79470938D01*
X33470938Y-79296828D01*
X33607735Y-79092097D01*
X33701963Y-78864611D01*
X33750000Y-78623114D01*
X33750000Y-78376886D01*
X33701963Y-78135389D01*
X33607735Y-77907903D01*
X33470938Y-77703172D01*
X33296828Y-77529062D01*
X33092097Y-77392265D01*
X32864611Y-77298037D01*
X32623114Y-77250000D01*
X32376886Y-77250000D01*
X32135389Y-77298037D01*
X31907903Y-77392265D01*
X31703172Y-77529062D01*
X31529062Y-77703172D01*
X31392265Y-77907903D01*
X31298037Y-78135389D01*
X31250000Y-78376886D01*
X25475000Y-78376886D01*
X25475000Y-75126886D01*
X31250000Y-75126886D01*
X31250000Y-75373114D01*
X31298037Y-75614611D01*
X31392265Y-75842097D01*
X31529062Y-76046828D01*
X31703172Y-76220938D01*
X31907903Y-76357735D01*
X32135389Y-76451963D01*
X32376886Y-76500000D01*
X32623114Y-76500000D01*
X32864611Y-76451963D01*
X33092097Y-76357735D01*
X33296828Y-76220938D01*
X33470938Y-76046828D01*
X33607735Y-75842097D01*
X33701963Y-75614611D01*
X33750000Y-75373114D01*
X33750000Y-75126886D01*
X33701963Y-74885389D01*
X33607735Y-74657903D01*
X33470938Y-74453172D01*
X33296828Y-74279062D01*
X33092097Y-74142265D01*
X32864611Y-74048037D01*
X32623114Y-74000000D01*
X32376886Y-74000000D01*
X32135389Y-74048037D01*
X31907903Y-74142265D01*
X31703172Y-74279062D01*
X31529062Y-74453172D01*
X31392265Y-74657903D01*
X31298037Y-74885389D01*
X31250000Y-75126886D01*
X25475000Y-75126886D01*
X25475000Y-66650000D01*
X31750000Y-66650000D01*
X31779264Y-66647118D01*
X31807403Y-66638582D01*
X31833336Y-66624720D01*
X31856066Y-66606066D01*
X32856066Y-65606066D01*
X32874720Y-65583336D01*
X32888582Y-65557403D01*
X32897118Y-65529264D01*
X32900000Y-65500000D01*
X32900000Y-59225000D01*
X34800000Y-59225000D01*
X34800000Y-84250000D01*
%TO.N,/V+*%
G36*
X57393934Y-110106066D02*
G01*
X57416664Y-110124720D01*
X57442597Y-110138582D01*
X57470736Y-110147118D01*
X57500000Y-110150000D01*
X58807819Y-110150000D01*
X58839490Y-110171162D01*
X59285361Y-110355848D01*
X59758696Y-110450000D01*
X60241304Y-110450000D01*
X60714639Y-110355848D01*
X61160510Y-110171162D01*
X61192181Y-110150000D01*
X94557819Y-110150000D01*
X94589490Y-110171162D01*
X95035361Y-110355848D01*
X95508696Y-110450000D01*
X95991304Y-110450000D01*
X96464639Y-110355848D01*
X96910510Y-110171162D01*
X96942181Y-110150000D01*
X105000000Y-110150000D01*
X105029264Y-110147118D01*
X105057403Y-110138582D01*
X105083336Y-110124720D01*
X105106066Y-110106066D01*
X106835246Y-108376886D01*
X116250000Y-108376886D01*
X116250000Y-108623114D01*
X116298037Y-108864611D01*
X116392265Y-109092097D01*
X116529062Y-109296828D01*
X116703172Y-109470938D01*
X116907903Y-109607735D01*
X117135389Y-109701963D01*
X117376886Y-109750000D01*
X117623114Y-109750000D01*
X117864611Y-109701963D01*
X118092097Y-109607735D01*
X118296828Y-109470938D01*
X118470938Y-109296828D01*
X118607735Y-109092097D01*
X118701963Y-108864611D01*
X118750000Y-108623114D01*
X118750000Y-108466886D01*
X119500000Y-108466886D01*
X119500000Y-108713114D01*
X119548037Y-108954611D01*
X119642265Y-109182097D01*
X119779062Y-109386828D01*
X119953172Y-109560938D01*
X120157903Y-109697735D01*
X120385389Y-109791963D01*
X120626886Y-109840000D01*
X120873114Y-109840000D01*
X121114611Y-109791963D01*
X121342097Y-109697735D01*
X121546828Y-109560938D01*
X121624429Y-109483337D01*
X123158085Y-109483337D01*
X123226509Y-109734750D01*
X123482259Y-109861925D01*
X123757906Y-109936762D01*
X124042856Y-109956386D01*
X124326159Y-109920042D01*
X124596928Y-109829125D01*
X124773491Y-109734750D01*
X124841915Y-109483337D01*
X124000000Y-108641421D01*
X123158085Y-109483337D01*
X121624429Y-109483337D01*
X121720938Y-109386828D01*
X121857735Y-109182097D01*
X121951963Y-108954611D01*
X122000000Y-108713114D01*
X122000000Y-108542856D01*
X122543614Y-108542856D01*
X122579958Y-108826159D01*
X122670875Y-109096928D01*
X122765250Y-109273491D01*
X123016663Y-109341915D01*
X123858579Y-108500000D01*
X124141421Y-108500000D01*
X124983337Y-109341915D01*
X125234750Y-109273491D01*
X125361925Y-109017741D01*
X125436762Y-108742094D01*
X125456386Y-108457144D01*
X125420042Y-108173841D01*
X125329125Y-107903072D01*
X125234750Y-107726509D01*
X124983337Y-107658085D01*
X124141421Y-108500000D01*
X123858579Y-108500000D01*
X123016663Y-107658085D01*
X122765250Y-107726509D01*
X122638075Y-107982259D01*
X122563238Y-108257906D01*
X122543614Y-108542856D01*
X122000000Y-108542856D01*
X122000000Y-108466886D01*
X121951963Y-108225389D01*
X121857735Y-107997903D01*
X121720938Y-107793172D01*
X121546828Y-107619062D01*
X121393578Y-107516663D01*
X123158085Y-107516663D01*
X124000000Y-108358579D01*
X124840381Y-107518197D01*
X128833225Y-107518197D01*
X128949820Y-107810524D01*
X129273674Y-107977615D01*
X129623902Y-108078315D01*
X129987047Y-108108755D01*
X130349152Y-108067762D01*
X130696302Y-107956915D01*
X130970180Y-107810524D01*
X131086775Y-107518197D01*
X133913225Y-107518197D01*
X134029820Y-107810524D01*
X134353674Y-107977615D01*
X134703902Y-108078315D01*
X135067047Y-108108755D01*
X135429152Y-108067762D01*
X135776302Y-107956915D01*
X136050180Y-107810524D01*
X136166775Y-107518197D01*
X135040000Y-106391421D01*
X133913225Y-107518197D01*
X131086775Y-107518197D01*
X129960000Y-106391421D01*
X128833225Y-107518197D01*
X124840381Y-107518197D01*
X124841915Y-107516663D01*
X124773491Y-107265250D01*
X124517741Y-107138075D01*
X124242094Y-107063238D01*
X123957144Y-107043614D01*
X123673841Y-107079958D01*
X123403072Y-107170875D01*
X123226509Y-107265250D01*
X123158085Y-107516663D01*
X121393578Y-107516663D01*
X121342097Y-107482265D01*
X121114611Y-107388037D01*
X120873114Y-107340000D01*
X120626886Y-107340000D01*
X120385389Y-107388037D01*
X120157903Y-107482265D01*
X119953172Y-107619062D01*
X119779062Y-107793172D01*
X119642265Y-107997903D01*
X119548037Y-108225389D01*
X119500000Y-108466886D01*
X118750000Y-108466886D01*
X118750000Y-108376886D01*
X118701963Y-108135389D01*
X118607735Y-107907903D01*
X118470938Y-107703172D01*
X118296828Y-107529062D01*
X118092097Y-107392265D01*
X117864611Y-107298037D01*
X117623114Y-107250000D01*
X117376886Y-107250000D01*
X117135389Y-107298037D01*
X116907903Y-107392265D01*
X116703172Y-107529062D01*
X116529062Y-107703172D01*
X116392265Y-107907903D01*
X116298037Y-108135389D01*
X116250000Y-108376886D01*
X106835246Y-108376886D01*
X108935085Y-106277047D01*
X128101245Y-106277047D01*
X128142238Y-106639152D01*
X128253085Y-106986302D01*
X128399476Y-107260180D01*
X128691803Y-107376775D01*
X129818579Y-106250000D01*
X130101421Y-106250000D01*
X131228197Y-107376775D01*
X131520524Y-107260180D01*
X131687615Y-106936326D01*
X131788315Y-106586098D01*
X131814220Y-106277047D01*
X133181245Y-106277047D01*
X133222238Y-106639152D01*
X133333085Y-106986302D01*
X133479476Y-107260180D01*
X133771803Y-107376775D01*
X134898579Y-106250000D01*
X135181421Y-106250000D01*
X136308197Y-107376775D01*
X136600524Y-107260180D01*
X136767615Y-106936326D01*
X136868315Y-106586098D01*
X136898755Y-106222953D01*
X136857762Y-105860848D01*
X136746915Y-105513698D01*
X136600524Y-105239820D01*
X136308197Y-105123225D01*
X135181421Y-106250000D01*
X134898579Y-106250000D01*
X133771803Y-105123225D01*
X133479476Y-105239820D01*
X133312385Y-105563674D01*
X133211685Y-105913902D01*
X133181245Y-106277047D01*
X131814220Y-106277047D01*
X131818755Y-106222953D01*
X131777762Y-105860848D01*
X131666915Y-105513698D01*
X131520524Y-105239820D01*
X131228197Y-105123225D01*
X130101421Y-106250000D01*
X129818579Y-106250000D01*
X128691803Y-105123225D01*
X128399476Y-105239820D01*
X128232385Y-105563674D01*
X128131685Y-105913902D01*
X128101245Y-106277047D01*
X108935085Y-106277047D01*
X110230329Y-104981803D01*
X128833225Y-104981803D01*
X129960000Y-106108579D01*
X131086775Y-104981803D01*
X133913225Y-104981803D01*
X135040000Y-106108579D01*
X136166775Y-104981803D01*
X136050180Y-104689476D01*
X135726326Y-104522385D01*
X135376098Y-104421685D01*
X135012953Y-104391245D01*
X134650848Y-104432238D01*
X134303698Y-104543085D01*
X134029820Y-104689476D01*
X133913225Y-104981803D01*
X131086775Y-104981803D01*
X130970180Y-104689476D01*
X130646326Y-104522385D01*
X130296098Y-104421685D01*
X129932953Y-104391245D01*
X129570848Y-104432238D01*
X129223698Y-104543085D01*
X128949820Y-104689476D01*
X128833225Y-104981803D01*
X110230329Y-104981803D01*
X112562132Y-102650000D01*
X137025001Y-102650000D01*
X137025001Y-123350000D01*
X130750000Y-123350000D01*
X130720736Y-123352882D01*
X130692597Y-123361418D01*
X130666664Y-123375280D01*
X130643934Y-123393934D01*
X129643934Y-124393934D01*
X129625280Y-124416664D01*
X129611418Y-124442597D01*
X129602882Y-124470736D01*
X129600000Y-124500000D01*
X129600000Y-130775000D01*
X35150000Y-130775000D01*
X35150000Y-123850000D01*
X118397823Y-123850000D01*
X118397823Y-126150000D01*
X118406511Y-126238215D01*
X118432243Y-126323041D01*
X118474029Y-126401216D01*
X118530263Y-126469737D01*
X118598784Y-126525971D01*
X118676959Y-126567757D01*
X118761785Y-126593489D01*
X118850000Y-126602177D01*
X121150000Y-126602177D01*
X121238215Y-126593489D01*
X121323041Y-126567757D01*
X121401216Y-126525971D01*
X121469737Y-126469737D01*
X121525971Y-126401216D01*
X121567757Y-126323041D01*
X121593489Y-126238215D01*
X121602177Y-126150000D01*
X121602177Y-124842414D01*
X121900000Y-124842414D01*
X121900000Y-125157586D01*
X121961487Y-125466703D01*
X122082098Y-125757884D01*
X122257199Y-126019941D01*
X122480059Y-126242801D01*
X122742116Y-126417902D01*
X123033297Y-126538513D01*
X123342414Y-126600000D01*
X123657586Y-126600000D01*
X123966703Y-126538513D01*
X124257884Y-126417902D01*
X124519941Y-126242801D01*
X124742801Y-126019941D01*
X124917902Y-125757884D01*
X125038513Y-125466703D01*
X125100000Y-125157586D01*
X125100000Y-124842414D01*
X125038513Y-124533297D01*
X124917902Y-124242116D01*
X124742801Y-123980059D01*
X124519941Y-123757199D01*
X124257884Y-123582098D01*
X123966703Y-123461487D01*
X123657586Y-123400000D01*
X123342414Y-123400000D01*
X123033297Y-123461487D01*
X122742116Y-123582098D01*
X122480059Y-123757199D01*
X122257199Y-123980059D01*
X122082098Y-124242116D01*
X121961487Y-124533297D01*
X121900000Y-124842414D01*
X121602177Y-124842414D01*
X121602177Y-123850000D01*
X121593489Y-123761785D01*
X121567757Y-123676959D01*
X121525971Y-123598784D01*
X121469737Y-123530263D01*
X121401216Y-123474029D01*
X121323041Y-123432243D01*
X121238215Y-123406511D01*
X121150000Y-123397823D01*
X118850000Y-123397823D01*
X118761785Y-123406511D01*
X118676959Y-123432243D01*
X118598784Y-123474029D01*
X118530263Y-123530263D01*
X118474029Y-123598784D01*
X118432243Y-123676959D01*
X118406511Y-123761785D01*
X118397823Y-123850000D01*
X35150000Y-123850000D01*
X35150000Y-120000000D01*
X57346855Y-120000000D01*
X57359405Y-120127422D01*
X57396573Y-120249948D01*
X57456930Y-120362868D01*
X57538157Y-120461843D01*
X57637132Y-120543070D01*
X57750052Y-120603427D01*
X57872578Y-120640595D01*
X58000000Y-120653145D01*
X59737500Y-120650000D01*
X59900000Y-120487500D01*
X59900000Y-118100000D01*
X60100000Y-118100000D01*
X60100000Y-120487500D01*
X60262500Y-120650000D01*
X62000000Y-120653145D01*
X62127422Y-120640595D01*
X62249948Y-120603427D01*
X62362868Y-120543070D01*
X62461843Y-120461843D01*
X62543070Y-120362868D01*
X62603427Y-120249948D01*
X62640595Y-120127422D01*
X62653145Y-120000000D01*
X93096855Y-120000000D01*
X93109405Y-120127422D01*
X93146573Y-120249948D01*
X93206930Y-120362868D01*
X93288157Y-120461843D01*
X93387132Y-120543070D01*
X93500052Y-120603427D01*
X93622578Y-120640595D01*
X93750000Y-120653145D01*
X95487500Y-120650000D01*
X95650000Y-120487500D01*
X95650000Y-118100000D01*
X95850000Y-118100000D01*
X95850000Y-120487500D01*
X96012500Y-120650000D01*
X97750000Y-120653145D01*
X97877422Y-120640595D01*
X97999948Y-120603427D01*
X98112868Y-120543070D01*
X98211843Y-120461843D01*
X98293070Y-120362868D01*
X98353427Y-120249948D01*
X98390595Y-120127422D01*
X98403145Y-120000000D01*
X98402663Y-119733337D01*
X119908085Y-119733337D01*
X119976509Y-119984750D01*
X120232259Y-120111925D01*
X120507906Y-120186762D01*
X120792856Y-120206386D01*
X121076159Y-120170042D01*
X121346928Y-120079125D01*
X121523491Y-119984750D01*
X121591915Y-119733337D01*
X120750000Y-118891421D01*
X119908085Y-119733337D01*
X98402663Y-119733337D01*
X98400960Y-118792856D01*
X119293614Y-118792856D01*
X119329958Y-119076159D01*
X119420875Y-119346928D01*
X119515250Y-119523491D01*
X119766663Y-119591915D01*
X120608579Y-118750000D01*
X120891421Y-118750000D01*
X121733337Y-119591915D01*
X121984750Y-119523491D01*
X122111925Y-119267741D01*
X122186762Y-118992094D01*
X122206386Y-118707144D01*
X122184545Y-118536886D01*
X122750000Y-118536886D01*
X122750000Y-118783114D01*
X122798037Y-119024611D01*
X122892265Y-119252097D01*
X123029062Y-119456828D01*
X123203172Y-119630938D01*
X123407903Y-119767735D01*
X123635389Y-119861963D01*
X123876886Y-119910000D01*
X124123114Y-119910000D01*
X124364611Y-119861963D01*
X124592097Y-119767735D01*
X124796828Y-119630938D01*
X124970938Y-119456828D01*
X125107735Y-119252097D01*
X125201963Y-119024611D01*
X125250000Y-118783114D01*
X125250000Y-118536886D01*
X125201963Y-118295389D01*
X125107735Y-118067903D01*
X124970938Y-117863172D01*
X124796828Y-117689062D01*
X124592097Y-117552265D01*
X124364611Y-117458037D01*
X124123114Y-117410000D01*
X123876886Y-117410000D01*
X123635389Y-117458037D01*
X123407903Y-117552265D01*
X123203172Y-117689062D01*
X123029062Y-117863172D01*
X122892265Y-118067903D01*
X122798037Y-118295389D01*
X122750000Y-118536886D01*
X122184545Y-118536886D01*
X122170042Y-118423841D01*
X122079125Y-118153072D01*
X121984750Y-117976509D01*
X121733337Y-117908085D01*
X120891421Y-118750000D01*
X120608579Y-118750000D01*
X119766663Y-117908085D01*
X119515250Y-117976509D01*
X119388075Y-118232259D01*
X119313238Y-118507906D01*
X119293614Y-118792856D01*
X98400960Y-118792856D01*
X98400000Y-118262500D01*
X98237500Y-118100000D01*
X95850000Y-118100000D01*
X95650000Y-118100000D01*
X93262500Y-118100000D01*
X93100000Y-118262500D01*
X93096855Y-120000000D01*
X62653145Y-120000000D01*
X62650000Y-118262500D01*
X62487500Y-118100000D01*
X60100000Y-118100000D01*
X59900000Y-118100000D01*
X57512500Y-118100000D01*
X57350000Y-118262500D01*
X57346855Y-120000000D01*
X35150000Y-120000000D01*
X35150000Y-117376886D01*
X36250000Y-117376886D01*
X36250000Y-117623114D01*
X36298037Y-117864611D01*
X36392265Y-118092097D01*
X36529062Y-118296828D01*
X36703172Y-118470938D01*
X36907903Y-118607735D01*
X37135389Y-118701963D01*
X37376886Y-118750000D01*
X37623114Y-118750000D01*
X37864611Y-118701963D01*
X38092097Y-118607735D01*
X38296828Y-118470938D01*
X38470938Y-118296828D01*
X38607735Y-118092097D01*
X38701963Y-117864611D01*
X38750000Y-117623114D01*
X38750000Y-117376886D01*
X38701963Y-117135389D01*
X38607735Y-116907903D01*
X38470938Y-116703172D01*
X38296828Y-116529062D01*
X38092097Y-116392265D01*
X37864611Y-116298037D01*
X37623114Y-116250000D01*
X37376886Y-116250000D01*
X37135389Y-116298037D01*
X36907903Y-116392265D01*
X36703172Y-116529062D01*
X36529062Y-116703172D01*
X36392265Y-116907903D01*
X36298037Y-117135389D01*
X36250000Y-117376886D01*
X35150000Y-117376886D01*
X35150000Y-116000000D01*
X57346855Y-116000000D01*
X57350000Y-117737500D01*
X57512500Y-117900000D01*
X59900000Y-117900000D01*
X59900000Y-115512500D01*
X60100000Y-115512500D01*
X60100000Y-117900000D01*
X62487500Y-117900000D01*
X62650000Y-117737500D01*
X62653145Y-116000000D01*
X93096855Y-116000000D01*
X93100000Y-117737500D01*
X93262500Y-117900000D01*
X95650000Y-117900000D01*
X95650000Y-115512500D01*
X95850000Y-115512500D01*
X95850000Y-117900000D01*
X98237500Y-117900000D01*
X98370837Y-117766663D01*
X119908085Y-117766663D01*
X120750000Y-118608579D01*
X121591915Y-117766663D01*
X121523491Y-117515250D01*
X121267741Y-117388075D01*
X120992094Y-117313238D01*
X120707144Y-117293614D01*
X120423841Y-117329958D01*
X120153072Y-117420875D01*
X119976509Y-117515250D01*
X119908085Y-117766663D01*
X98370837Y-117766663D01*
X98400000Y-117737500D01*
X98400912Y-117233337D01*
X116658085Y-117233337D01*
X116726509Y-117484750D01*
X116982259Y-117611925D01*
X117257906Y-117686762D01*
X117542856Y-117706386D01*
X117826159Y-117670042D01*
X118096928Y-117579125D01*
X118273491Y-117484750D01*
X118341915Y-117233337D01*
X117500000Y-116391421D01*
X116658085Y-117233337D01*
X98400912Y-117233337D01*
X98402614Y-116292856D01*
X116043614Y-116292856D01*
X116079958Y-116576159D01*
X116170875Y-116846928D01*
X116265250Y-117023491D01*
X116516663Y-117091915D01*
X117358579Y-116250000D01*
X117641421Y-116250000D01*
X118483337Y-117091915D01*
X118734750Y-117023491D01*
X118861925Y-116767741D01*
X118936762Y-116492094D01*
X118956386Y-116207144D01*
X118920042Y-115923841D01*
X118829125Y-115653072D01*
X118734750Y-115476509D01*
X118483337Y-115408085D01*
X117641421Y-116250000D01*
X117358579Y-116250000D01*
X116516663Y-115408085D01*
X116265250Y-115476509D01*
X116138075Y-115732259D01*
X116063238Y-116007906D01*
X116043614Y-116292856D01*
X98402614Y-116292856D01*
X98403145Y-116000000D01*
X98390595Y-115872578D01*
X98353427Y-115750052D01*
X98293070Y-115637132D01*
X98211843Y-115538157D01*
X98112868Y-115456930D01*
X97999948Y-115396573D01*
X97877422Y-115359405D01*
X97750000Y-115346855D01*
X96012500Y-115350000D01*
X95850000Y-115512500D01*
X95650000Y-115512500D01*
X95487500Y-115350000D01*
X93750000Y-115346855D01*
X93622578Y-115359405D01*
X93500052Y-115396573D01*
X93387132Y-115456930D01*
X93288157Y-115538157D01*
X93206930Y-115637132D01*
X93146573Y-115750052D01*
X93109405Y-115872578D01*
X93096855Y-116000000D01*
X62653145Y-116000000D01*
X62640595Y-115872578D01*
X62603427Y-115750052D01*
X62543070Y-115637132D01*
X62461843Y-115538157D01*
X62362868Y-115456930D01*
X62249948Y-115396573D01*
X62127422Y-115359405D01*
X62000000Y-115346855D01*
X60262500Y-115350000D01*
X60100000Y-115512500D01*
X59900000Y-115512500D01*
X59737500Y-115350000D01*
X58000000Y-115346855D01*
X57872578Y-115359405D01*
X57750052Y-115396573D01*
X57637132Y-115456930D01*
X57538157Y-115538157D01*
X57456930Y-115637132D01*
X57396573Y-115750052D01*
X57359405Y-115872578D01*
X57346855Y-116000000D01*
X35150000Y-116000000D01*
X35150000Y-115233337D01*
X36658085Y-115233337D01*
X36726509Y-115484750D01*
X36982259Y-115611925D01*
X37257906Y-115686762D01*
X37542856Y-115706386D01*
X37826159Y-115670042D01*
X38096928Y-115579125D01*
X38273491Y-115484750D01*
X38332845Y-115266663D01*
X116658085Y-115266663D01*
X117500000Y-116108579D01*
X118341915Y-115266663D01*
X118274294Y-115018197D01*
X128833225Y-115018197D01*
X128949820Y-115310524D01*
X129273674Y-115477615D01*
X129623902Y-115578315D01*
X129987047Y-115608755D01*
X130349152Y-115567762D01*
X130696302Y-115456915D01*
X130970180Y-115310524D01*
X131086775Y-115018197D01*
X133913225Y-115018197D01*
X134029820Y-115310524D01*
X134353674Y-115477615D01*
X134703902Y-115578315D01*
X135067047Y-115608755D01*
X135429152Y-115567762D01*
X135776302Y-115456915D01*
X136050180Y-115310524D01*
X136166775Y-115018197D01*
X135040000Y-113891421D01*
X133913225Y-115018197D01*
X131086775Y-115018197D01*
X129960000Y-113891421D01*
X128833225Y-115018197D01*
X118274294Y-115018197D01*
X118273491Y-115015250D01*
X118017741Y-114888075D01*
X117742094Y-114813238D01*
X117457144Y-114793614D01*
X117173841Y-114829958D01*
X116903072Y-114920875D01*
X116726509Y-115015250D01*
X116658085Y-115266663D01*
X38332845Y-115266663D01*
X38341915Y-115233337D01*
X37500000Y-114391421D01*
X36658085Y-115233337D01*
X35150000Y-115233337D01*
X35150000Y-114292856D01*
X36043614Y-114292856D01*
X36079958Y-114576159D01*
X36170875Y-114846928D01*
X36265250Y-115023491D01*
X36516663Y-115091915D01*
X37358579Y-114250000D01*
X37641421Y-114250000D01*
X38483337Y-115091915D01*
X38734750Y-115023491D01*
X38861925Y-114767741D01*
X38936762Y-114492094D01*
X38956386Y-114207144D01*
X38920042Y-113923841D01*
X38870753Y-113777047D01*
X128101245Y-113777047D01*
X128142238Y-114139152D01*
X128253085Y-114486302D01*
X128399476Y-114760180D01*
X128691803Y-114876775D01*
X129818579Y-113750000D01*
X130101421Y-113750000D01*
X131228197Y-114876775D01*
X131520524Y-114760180D01*
X131687615Y-114436326D01*
X131788315Y-114086098D01*
X131814220Y-113777047D01*
X133181245Y-113777047D01*
X133222238Y-114139152D01*
X133333085Y-114486302D01*
X133479476Y-114760180D01*
X133771803Y-114876775D01*
X134898579Y-113750000D01*
X135181421Y-113750000D01*
X136308197Y-114876775D01*
X136600524Y-114760180D01*
X136767615Y-114436326D01*
X136868315Y-114086098D01*
X136898755Y-113722953D01*
X136857762Y-113360848D01*
X136746915Y-113013698D01*
X136600524Y-112739820D01*
X136308197Y-112623225D01*
X135181421Y-113750000D01*
X134898579Y-113750000D01*
X133771803Y-112623225D01*
X133479476Y-112739820D01*
X133312385Y-113063674D01*
X133211685Y-113413902D01*
X133181245Y-113777047D01*
X131814220Y-113777047D01*
X131818755Y-113722953D01*
X131777762Y-113360848D01*
X131666915Y-113013698D01*
X131520524Y-112739820D01*
X131228197Y-112623225D01*
X130101421Y-113750000D01*
X129818579Y-113750000D01*
X128691803Y-112623225D01*
X128399476Y-112739820D01*
X128232385Y-113063674D01*
X128131685Y-113413902D01*
X128101245Y-113777047D01*
X38870753Y-113777047D01*
X38829125Y-113653072D01*
X38734750Y-113476509D01*
X38483337Y-113408085D01*
X37641421Y-114250000D01*
X37358579Y-114250000D01*
X36516663Y-113408085D01*
X36265250Y-113476509D01*
X36138075Y-113732259D01*
X36063238Y-114007906D01*
X36043614Y-114292856D01*
X35150000Y-114292856D01*
X35150000Y-113266663D01*
X36658085Y-113266663D01*
X37500000Y-114108579D01*
X38341915Y-113266663D01*
X38273491Y-113015250D01*
X38017741Y-112888075D01*
X37742094Y-112813238D01*
X37457144Y-112793614D01*
X37173841Y-112829958D01*
X36903072Y-112920875D01*
X36726509Y-113015250D01*
X36658085Y-113266663D01*
X35150000Y-113266663D01*
X35150000Y-111126886D01*
X116250000Y-111126886D01*
X116250000Y-111373114D01*
X116298037Y-111614611D01*
X116392265Y-111842097D01*
X116529062Y-112046828D01*
X116703172Y-112220938D01*
X116907903Y-112357735D01*
X117135389Y-112451963D01*
X117376886Y-112500000D01*
X117623114Y-112500000D01*
X117714596Y-112481803D01*
X128833225Y-112481803D01*
X129960000Y-113608579D01*
X131086775Y-112481803D01*
X133913225Y-112481803D01*
X135040000Y-113608579D01*
X136166775Y-112481803D01*
X136050180Y-112189476D01*
X135726326Y-112022385D01*
X135376098Y-111921685D01*
X135012953Y-111891245D01*
X134650848Y-111932238D01*
X134303698Y-112043085D01*
X134029820Y-112189476D01*
X133913225Y-112481803D01*
X131086775Y-112481803D01*
X130970180Y-112189476D01*
X130646326Y-112022385D01*
X130296098Y-111921685D01*
X129932953Y-111891245D01*
X129570848Y-111932238D01*
X129223698Y-112043085D01*
X128949820Y-112189476D01*
X128833225Y-112481803D01*
X117714596Y-112481803D01*
X117864611Y-112451963D01*
X118092097Y-112357735D01*
X118296828Y-112220938D01*
X118470938Y-112046828D01*
X118607735Y-111842097D01*
X118701963Y-111614611D01*
X118750000Y-111373114D01*
X118750000Y-111126886D01*
X118701963Y-110885389D01*
X118607735Y-110657903D01*
X118470938Y-110453172D01*
X118296828Y-110279062D01*
X118092097Y-110142265D01*
X117864611Y-110048037D01*
X117623114Y-110000000D01*
X117376886Y-110000000D01*
X117135389Y-110048037D01*
X116907903Y-110142265D01*
X116703172Y-110279062D01*
X116529062Y-110453172D01*
X116392265Y-110657903D01*
X116298037Y-110885389D01*
X116250000Y-111126886D01*
X35150000Y-111126886D01*
X35150000Y-108850000D01*
X36450000Y-108850000D01*
X36450000Y-109250000D01*
X36499292Y-109550469D01*
X36606255Y-109835548D01*
X36766779Y-110094282D01*
X36974695Y-110316727D01*
X37222013Y-110494336D01*
X37499229Y-110620283D01*
X37659263Y-110662084D01*
X37900000Y-110533892D01*
X37900000Y-108850000D01*
X38100000Y-108850000D01*
X38100000Y-110533892D01*
X38340737Y-110662084D01*
X38500771Y-110620283D01*
X38777987Y-110494336D01*
X39025305Y-110316727D01*
X39233221Y-110094282D01*
X39393745Y-109835548D01*
X39500708Y-109550469D01*
X39550000Y-109250000D01*
X39550000Y-108850000D01*
X38100000Y-108850000D01*
X37900000Y-108850000D01*
X36450000Y-108850000D01*
X35150000Y-108850000D01*
X35150000Y-108250000D01*
X36450000Y-108250000D01*
X36450000Y-108650000D01*
X37900000Y-108650000D01*
X37900000Y-106966108D01*
X38100000Y-106966108D01*
X38100000Y-108650000D01*
X39550000Y-108650000D01*
X39550000Y-108250000D01*
X39500708Y-107949531D01*
X39393745Y-107664452D01*
X39233221Y-107405718D01*
X39025305Y-107183273D01*
X38777987Y-107005664D01*
X38500771Y-106879717D01*
X38340737Y-106837916D01*
X38100000Y-106966108D01*
X37900000Y-106966108D01*
X37659263Y-106837916D01*
X37499229Y-106879717D01*
X37222013Y-107005664D01*
X36974695Y-107183273D01*
X36766779Y-107405718D01*
X36606255Y-107664452D01*
X36499292Y-107949531D01*
X36450000Y-108250000D01*
X35150000Y-108250000D01*
X35150000Y-107312132D01*
X37478795Y-104983337D01*
X41408085Y-104983337D01*
X41476509Y-105234750D01*
X41732259Y-105361925D01*
X42007906Y-105436762D01*
X42292856Y-105456386D01*
X42576159Y-105420042D01*
X42846928Y-105329125D01*
X43023491Y-105234750D01*
X43091915Y-104983337D01*
X42250000Y-104141421D01*
X41408085Y-104983337D01*
X37478795Y-104983337D01*
X38419276Y-104042856D01*
X40793614Y-104042856D01*
X40829958Y-104326159D01*
X40920875Y-104596928D01*
X41015250Y-104773491D01*
X41266663Y-104841915D01*
X42108579Y-104000000D01*
X42391421Y-104000000D01*
X43233337Y-104841915D01*
X43484750Y-104773491D01*
X43611925Y-104517741D01*
X43686762Y-104242094D01*
X43706386Y-103957144D01*
X43670042Y-103673841D01*
X43579125Y-103403072D01*
X43484750Y-103226509D01*
X43233337Y-103158085D01*
X42391421Y-104000000D01*
X42108579Y-104000000D01*
X41266663Y-103158085D01*
X41015250Y-103226509D01*
X40888075Y-103482259D01*
X40813238Y-103757906D01*
X40793614Y-104042856D01*
X38419276Y-104042856D01*
X39445469Y-103016663D01*
X41408085Y-103016663D01*
X42250000Y-103858579D01*
X43091915Y-103016663D01*
X43023491Y-102765250D01*
X42767741Y-102638075D01*
X42492094Y-102563238D01*
X42207144Y-102543614D01*
X41923841Y-102579958D01*
X41653072Y-102670875D01*
X41476509Y-102765250D01*
X41408085Y-103016663D01*
X39445469Y-103016663D01*
X40062132Y-102400000D01*
X49687868Y-102400000D01*
X57393934Y-110106066D01*
G37*
X57393934Y-110106066D02*
X57416664Y-110124720D01*
X57442597Y-110138582D01*
X57470736Y-110147118D01*
X57500000Y-110150000D01*
X58807819Y-110150000D01*
X58839490Y-110171162D01*
X59285361Y-110355848D01*
X59758696Y-110450000D01*
X60241304Y-110450000D01*
X60714639Y-110355848D01*
X61160510Y-110171162D01*
X61192181Y-110150000D01*
X94557819Y-110150000D01*
X94589490Y-110171162D01*
X95035361Y-110355848D01*
X95508696Y-110450000D01*
X95991304Y-110450000D01*
X96464639Y-110355848D01*
X96910510Y-110171162D01*
X96942181Y-110150000D01*
X105000000Y-110150000D01*
X105029264Y-110147118D01*
X105057403Y-110138582D01*
X105083336Y-110124720D01*
X105106066Y-110106066D01*
X106835246Y-108376886D01*
X116250000Y-108376886D01*
X116250000Y-108623114D01*
X116298037Y-108864611D01*
X116392265Y-109092097D01*
X116529062Y-109296828D01*
X116703172Y-109470938D01*
X116907903Y-109607735D01*
X117135389Y-109701963D01*
X117376886Y-109750000D01*
X117623114Y-109750000D01*
X117864611Y-109701963D01*
X118092097Y-109607735D01*
X118296828Y-109470938D01*
X118470938Y-109296828D01*
X118607735Y-109092097D01*
X118701963Y-108864611D01*
X118750000Y-108623114D01*
X118750000Y-108466886D01*
X119500000Y-108466886D01*
X119500000Y-108713114D01*
X119548037Y-108954611D01*
X119642265Y-109182097D01*
X119779062Y-109386828D01*
X119953172Y-109560938D01*
X120157903Y-109697735D01*
X120385389Y-109791963D01*
X120626886Y-109840000D01*
X120873114Y-109840000D01*
X121114611Y-109791963D01*
X121342097Y-109697735D01*
X121546828Y-109560938D01*
X121624429Y-109483337D01*
X123158085Y-109483337D01*
X123226509Y-109734750D01*
X123482259Y-109861925D01*
X123757906Y-109936762D01*
X124042856Y-109956386D01*
X124326159Y-109920042D01*
X124596928Y-109829125D01*
X124773491Y-109734750D01*
X124841915Y-109483337D01*
X124000000Y-108641421D01*
X123158085Y-109483337D01*
X121624429Y-109483337D01*
X121720938Y-109386828D01*
X121857735Y-109182097D01*
X121951963Y-108954611D01*
X122000000Y-108713114D01*
X122000000Y-108542856D01*
X122543614Y-108542856D01*
X122579958Y-108826159D01*
X122670875Y-109096928D01*
X122765250Y-109273491D01*
X123016663Y-109341915D01*
X123858579Y-108500000D01*
X124141421Y-108500000D01*
X124983337Y-109341915D01*
X125234750Y-109273491D01*
X125361925Y-109017741D01*
X125436762Y-108742094D01*
X125456386Y-108457144D01*
X125420042Y-108173841D01*
X125329125Y-107903072D01*
X125234750Y-107726509D01*
X124983337Y-107658085D01*
X124141421Y-108500000D01*
X123858579Y-108500000D01*
X123016663Y-107658085D01*
X122765250Y-107726509D01*
X122638075Y-107982259D01*
X122563238Y-108257906D01*
X122543614Y-108542856D01*
X122000000Y-108542856D01*
X122000000Y-108466886D01*
X121951963Y-108225389D01*
X121857735Y-107997903D01*
X121720938Y-107793172D01*
X121546828Y-107619062D01*
X121393578Y-107516663D01*
X123158085Y-107516663D01*
X124000000Y-108358579D01*
X124840381Y-107518197D01*
X128833225Y-107518197D01*
X128949820Y-107810524D01*
X129273674Y-107977615D01*
X129623902Y-108078315D01*
X129987047Y-108108755D01*
X130349152Y-108067762D01*
X130696302Y-107956915D01*
X130970180Y-107810524D01*
X131086775Y-107518197D01*
X133913225Y-107518197D01*
X134029820Y-107810524D01*
X134353674Y-107977615D01*
X134703902Y-108078315D01*
X135067047Y-108108755D01*
X135429152Y-108067762D01*
X135776302Y-107956915D01*
X136050180Y-107810524D01*
X136166775Y-107518197D01*
X135040000Y-106391421D01*
X133913225Y-107518197D01*
X131086775Y-107518197D01*
X129960000Y-106391421D01*
X128833225Y-107518197D01*
X124840381Y-107518197D01*
X124841915Y-107516663D01*
X124773491Y-107265250D01*
X124517741Y-107138075D01*
X124242094Y-107063238D01*
X123957144Y-107043614D01*
X123673841Y-107079958D01*
X123403072Y-107170875D01*
X123226509Y-107265250D01*
X123158085Y-107516663D01*
X121393578Y-107516663D01*
X121342097Y-107482265D01*
X121114611Y-107388037D01*
X120873114Y-107340000D01*
X120626886Y-107340000D01*
X120385389Y-107388037D01*
X120157903Y-107482265D01*
X119953172Y-107619062D01*
X119779062Y-107793172D01*
X119642265Y-107997903D01*
X119548037Y-108225389D01*
X119500000Y-108466886D01*
X118750000Y-108466886D01*
X118750000Y-108376886D01*
X118701963Y-108135389D01*
X118607735Y-107907903D01*
X118470938Y-107703172D01*
X118296828Y-107529062D01*
X118092097Y-107392265D01*
X117864611Y-107298037D01*
X117623114Y-107250000D01*
X117376886Y-107250000D01*
X117135389Y-107298037D01*
X116907903Y-107392265D01*
X116703172Y-107529062D01*
X116529062Y-107703172D01*
X116392265Y-107907903D01*
X116298037Y-108135389D01*
X116250000Y-108376886D01*
X106835246Y-108376886D01*
X108935085Y-106277047D01*
X128101245Y-106277047D01*
X128142238Y-106639152D01*
X128253085Y-106986302D01*
X128399476Y-107260180D01*
X128691803Y-107376775D01*
X129818579Y-106250000D01*
X130101421Y-106250000D01*
X131228197Y-107376775D01*
X131520524Y-107260180D01*
X131687615Y-106936326D01*
X131788315Y-106586098D01*
X131814220Y-106277047D01*
X133181245Y-106277047D01*
X133222238Y-106639152D01*
X133333085Y-106986302D01*
X133479476Y-107260180D01*
X133771803Y-107376775D01*
X134898579Y-106250000D01*
X135181421Y-106250000D01*
X136308197Y-107376775D01*
X136600524Y-107260180D01*
X136767615Y-106936326D01*
X136868315Y-106586098D01*
X136898755Y-106222953D01*
X136857762Y-105860848D01*
X136746915Y-105513698D01*
X136600524Y-105239820D01*
X136308197Y-105123225D01*
X135181421Y-106250000D01*
X134898579Y-106250000D01*
X133771803Y-105123225D01*
X133479476Y-105239820D01*
X133312385Y-105563674D01*
X133211685Y-105913902D01*
X133181245Y-106277047D01*
X131814220Y-106277047D01*
X131818755Y-106222953D01*
X131777762Y-105860848D01*
X131666915Y-105513698D01*
X131520524Y-105239820D01*
X131228197Y-105123225D01*
X130101421Y-106250000D01*
X129818579Y-106250000D01*
X128691803Y-105123225D01*
X128399476Y-105239820D01*
X128232385Y-105563674D01*
X128131685Y-105913902D01*
X128101245Y-106277047D01*
X108935085Y-106277047D01*
X110230329Y-104981803D01*
X128833225Y-104981803D01*
X129960000Y-106108579D01*
X131086775Y-104981803D01*
X133913225Y-104981803D01*
X135040000Y-106108579D01*
X136166775Y-104981803D01*
X136050180Y-104689476D01*
X135726326Y-104522385D01*
X135376098Y-104421685D01*
X135012953Y-104391245D01*
X134650848Y-104432238D01*
X134303698Y-104543085D01*
X134029820Y-104689476D01*
X133913225Y-104981803D01*
X131086775Y-104981803D01*
X130970180Y-104689476D01*
X130646326Y-104522385D01*
X130296098Y-104421685D01*
X129932953Y-104391245D01*
X129570848Y-104432238D01*
X129223698Y-104543085D01*
X128949820Y-104689476D01*
X128833225Y-104981803D01*
X110230329Y-104981803D01*
X112562132Y-102650000D01*
X137025001Y-102650000D01*
X137025001Y-123350000D01*
X130750000Y-123350000D01*
X130720736Y-123352882D01*
X130692597Y-123361418D01*
X130666664Y-123375280D01*
X130643934Y-123393934D01*
X129643934Y-124393934D01*
X129625280Y-124416664D01*
X129611418Y-124442597D01*
X129602882Y-124470736D01*
X129600000Y-124500000D01*
X129600000Y-130775000D01*
X35150000Y-130775000D01*
X35150000Y-123850000D01*
X118397823Y-123850000D01*
X118397823Y-126150000D01*
X118406511Y-126238215D01*
X118432243Y-126323041D01*
X118474029Y-126401216D01*
X118530263Y-126469737D01*
X118598784Y-126525971D01*
X118676959Y-126567757D01*
X118761785Y-126593489D01*
X118850000Y-126602177D01*
X121150000Y-126602177D01*
X121238215Y-126593489D01*
X121323041Y-126567757D01*
X121401216Y-126525971D01*
X121469737Y-126469737D01*
X121525971Y-126401216D01*
X121567757Y-126323041D01*
X121593489Y-126238215D01*
X121602177Y-126150000D01*
X121602177Y-124842414D01*
X121900000Y-124842414D01*
X121900000Y-125157586D01*
X121961487Y-125466703D01*
X122082098Y-125757884D01*
X122257199Y-126019941D01*
X122480059Y-126242801D01*
X122742116Y-126417902D01*
X123033297Y-126538513D01*
X123342414Y-126600000D01*
X123657586Y-126600000D01*
X123966703Y-126538513D01*
X124257884Y-126417902D01*
X124519941Y-126242801D01*
X124742801Y-126019941D01*
X124917902Y-125757884D01*
X125038513Y-125466703D01*
X125100000Y-125157586D01*
X125100000Y-124842414D01*
X125038513Y-124533297D01*
X124917902Y-124242116D01*
X124742801Y-123980059D01*
X124519941Y-123757199D01*
X124257884Y-123582098D01*
X123966703Y-123461487D01*
X123657586Y-123400000D01*
X123342414Y-123400000D01*
X123033297Y-123461487D01*
X122742116Y-123582098D01*
X122480059Y-123757199D01*
X122257199Y-123980059D01*
X122082098Y-124242116D01*
X121961487Y-124533297D01*
X121900000Y-124842414D01*
X121602177Y-124842414D01*
X121602177Y-123850000D01*
X121593489Y-123761785D01*
X121567757Y-123676959D01*
X121525971Y-123598784D01*
X121469737Y-123530263D01*
X121401216Y-123474029D01*
X121323041Y-123432243D01*
X121238215Y-123406511D01*
X121150000Y-123397823D01*
X118850000Y-123397823D01*
X118761785Y-123406511D01*
X118676959Y-123432243D01*
X118598784Y-123474029D01*
X118530263Y-123530263D01*
X118474029Y-123598784D01*
X118432243Y-123676959D01*
X118406511Y-123761785D01*
X118397823Y-123850000D01*
X35150000Y-123850000D01*
X35150000Y-120000000D01*
X57346855Y-120000000D01*
X57359405Y-120127422D01*
X57396573Y-120249948D01*
X57456930Y-120362868D01*
X57538157Y-120461843D01*
X57637132Y-120543070D01*
X57750052Y-120603427D01*
X57872578Y-120640595D01*
X58000000Y-120653145D01*
X59737500Y-120650000D01*
X59900000Y-120487500D01*
X59900000Y-118100000D01*
X60100000Y-118100000D01*
X60100000Y-120487500D01*
X60262500Y-120650000D01*
X62000000Y-120653145D01*
X62127422Y-120640595D01*
X62249948Y-120603427D01*
X62362868Y-120543070D01*
X62461843Y-120461843D01*
X62543070Y-120362868D01*
X62603427Y-120249948D01*
X62640595Y-120127422D01*
X62653145Y-120000000D01*
X93096855Y-120000000D01*
X93109405Y-120127422D01*
X93146573Y-120249948D01*
X93206930Y-120362868D01*
X93288157Y-120461843D01*
X93387132Y-120543070D01*
X93500052Y-120603427D01*
X93622578Y-120640595D01*
X93750000Y-120653145D01*
X95487500Y-120650000D01*
X95650000Y-120487500D01*
X95650000Y-118100000D01*
X95850000Y-118100000D01*
X95850000Y-120487500D01*
X96012500Y-120650000D01*
X97750000Y-120653145D01*
X97877422Y-120640595D01*
X97999948Y-120603427D01*
X98112868Y-120543070D01*
X98211843Y-120461843D01*
X98293070Y-120362868D01*
X98353427Y-120249948D01*
X98390595Y-120127422D01*
X98403145Y-120000000D01*
X98402663Y-119733337D01*
X119908085Y-119733337D01*
X119976509Y-119984750D01*
X120232259Y-120111925D01*
X120507906Y-120186762D01*
X120792856Y-120206386D01*
X121076159Y-120170042D01*
X121346928Y-120079125D01*
X121523491Y-119984750D01*
X121591915Y-119733337D01*
X120750000Y-118891421D01*
X119908085Y-119733337D01*
X98402663Y-119733337D01*
X98400960Y-118792856D01*
X119293614Y-118792856D01*
X119329958Y-119076159D01*
X119420875Y-119346928D01*
X119515250Y-119523491D01*
X119766663Y-119591915D01*
X120608579Y-118750000D01*
X120891421Y-118750000D01*
X121733337Y-119591915D01*
X121984750Y-119523491D01*
X122111925Y-119267741D01*
X122186762Y-118992094D01*
X122206386Y-118707144D01*
X122184545Y-118536886D01*
X122750000Y-118536886D01*
X122750000Y-118783114D01*
X122798037Y-119024611D01*
X122892265Y-119252097D01*
X123029062Y-119456828D01*
X123203172Y-119630938D01*
X123407903Y-119767735D01*
X123635389Y-119861963D01*
X123876886Y-119910000D01*
X124123114Y-119910000D01*
X124364611Y-119861963D01*
X124592097Y-119767735D01*
X124796828Y-119630938D01*
X124970938Y-119456828D01*
X125107735Y-119252097D01*
X125201963Y-119024611D01*
X125250000Y-118783114D01*
X125250000Y-118536886D01*
X125201963Y-118295389D01*
X125107735Y-118067903D01*
X124970938Y-117863172D01*
X124796828Y-117689062D01*
X124592097Y-117552265D01*
X124364611Y-117458037D01*
X124123114Y-117410000D01*
X123876886Y-117410000D01*
X123635389Y-117458037D01*
X123407903Y-117552265D01*
X123203172Y-117689062D01*
X123029062Y-117863172D01*
X122892265Y-118067903D01*
X122798037Y-118295389D01*
X122750000Y-118536886D01*
X122184545Y-118536886D01*
X122170042Y-118423841D01*
X122079125Y-118153072D01*
X121984750Y-117976509D01*
X121733337Y-117908085D01*
X120891421Y-118750000D01*
X120608579Y-118750000D01*
X119766663Y-117908085D01*
X119515250Y-117976509D01*
X119388075Y-118232259D01*
X119313238Y-118507906D01*
X119293614Y-118792856D01*
X98400960Y-118792856D01*
X98400000Y-118262500D01*
X98237500Y-118100000D01*
X95850000Y-118100000D01*
X95650000Y-118100000D01*
X93262500Y-118100000D01*
X93100000Y-118262500D01*
X93096855Y-120000000D01*
X62653145Y-120000000D01*
X62650000Y-118262500D01*
X62487500Y-118100000D01*
X60100000Y-118100000D01*
X59900000Y-118100000D01*
X57512500Y-118100000D01*
X57350000Y-118262500D01*
X57346855Y-120000000D01*
X35150000Y-120000000D01*
X35150000Y-117376886D01*
X36250000Y-117376886D01*
X36250000Y-117623114D01*
X36298037Y-117864611D01*
X36392265Y-118092097D01*
X36529062Y-118296828D01*
X36703172Y-118470938D01*
X36907903Y-118607735D01*
X37135389Y-118701963D01*
X37376886Y-118750000D01*
X37623114Y-118750000D01*
X37864611Y-118701963D01*
X38092097Y-118607735D01*
X38296828Y-118470938D01*
X38470938Y-118296828D01*
X38607735Y-118092097D01*
X38701963Y-117864611D01*
X38750000Y-117623114D01*
X38750000Y-117376886D01*
X38701963Y-117135389D01*
X38607735Y-116907903D01*
X38470938Y-116703172D01*
X38296828Y-116529062D01*
X38092097Y-116392265D01*
X37864611Y-116298037D01*
X37623114Y-116250000D01*
X37376886Y-116250000D01*
X37135389Y-116298037D01*
X36907903Y-116392265D01*
X36703172Y-116529062D01*
X36529062Y-116703172D01*
X36392265Y-116907903D01*
X36298037Y-117135389D01*
X36250000Y-117376886D01*
X35150000Y-117376886D01*
X35150000Y-116000000D01*
X57346855Y-116000000D01*
X57350000Y-117737500D01*
X57512500Y-117900000D01*
X59900000Y-117900000D01*
X59900000Y-115512500D01*
X60100000Y-115512500D01*
X60100000Y-117900000D01*
X62487500Y-117900000D01*
X62650000Y-117737500D01*
X62653145Y-116000000D01*
X93096855Y-116000000D01*
X93100000Y-117737500D01*
X93262500Y-117900000D01*
X95650000Y-117900000D01*
X95650000Y-115512500D01*
X95850000Y-115512500D01*
X95850000Y-117900000D01*
X98237500Y-117900000D01*
X98370837Y-117766663D01*
X119908085Y-117766663D01*
X120750000Y-118608579D01*
X121591915Y-117766663D01*
X121523491Y-117515250D01*
X121267741Y-117388075D01*
X120992094Y-117313238D01*
X120707144Y-117293614D01*
X120423841Y-117329958D01*
X120153072Y-117420875D01*
X119976509Y-117515250D01*
X119908085Y-117766663D01*
X98370837Y-117766663D01*
X98400000Y-117737500D01*
X98400912Y-117233337D01*
X116658085Y-117233337D01*
X116726509Y-117484750D01*
X116982259Y-117611925D01*
X117257906Y-117686762D01*
X117542856Y-117706386D01*
X117826159Y-117670042D01*
X118096928Y-117579125D01*
X118273491Y-117484750D01*
X118341915Y-117233337D01*
X117500000Y-116391421D01*
X116658085Y-117233337D01*
X98400912Y-117233337D01*
X98402614Y-116292856D01*
X116043614Y-116292856D01*
X116079958Y-116576159D01*
X116170875Y-116846928D01*
X116265250Y-117023491D01*
X116516663Y-117091915D01*
X117358579Y-116250000D01*
X117641421Y-116250000D01*
X118483337Y-117091915D01*
X118734750Y-117023491D01*
X118861925Y-116767741D01*
X118936762Y-116492094D01*
X118956386Y-116207144D01*
X118920042Y-115923841D01*
X118829125Y-115653072D01*
X118734750Y-115476509D01*
X118483337Y-115408085D01*
X117641421Y-116250000D01*
X117358579Y-116250000D01*
X116516663Y-115408085D01*
X116265250Y-115476509D01*
X116138075Y-115732259D01*
X116063238Y-116007906D01*
X116043614Y-116292856D01*
X98402614Y-116292856D01*
X98403145Y-116000000D01*
X98390595Y-115872578D01*
X98353427Y-115750052D01*
X98293070Y-115637132D01*
X98211843Y-115538157D01*
X98112868Y-115456930D01*
X97999948Y-115396573D01*
X97877422Y-115359405D01*
X97750000Y-115346855D01*
X96012500Y-115350000D01*
X95850000Y-115512500D01*
X95650000Y-115512500D01*
X95487500Y-115350000D01*
X93750000Y-115346855D01*
X93622578Y-115359405D01*
X93500052Y-115396573D01*
X93387132Y-115456930D01*
X93288157Y-115538157D01*
X93206930Y-115637132D01*
X93146573Y-115750052D01*
X93109405Y-115872578D01*
X93096855Y-116000000D01*
X62653145Y-116000000D01*
X62640595Y-115872578D01*
X62603427Y-115750052D01*
X62543070Y-115637132D01*
X62461843Y-115538157D01*
X62362868Y-115456930D01*
X62249948Y-115396573D01*
X62127422Y-115359405D01*
X62000000Y-115346855D01*
X60262500Y-115350000D01*
X60100000Y-115512500D01*
X59900000Y-115512500D01*
X59737500Y-115350000D01*
X58000000Y-115346855D01*
X57872578Y-115359405D01*
X57750052Y-115396573D01*
X57637132Y-115456930D01*
X57538157Y-115538157D01*
X57456930Y-115637132D01*
X57396573Y-115750052D01*
X57359405Y-115872578D01*
X57346855Y-116000000D01*
X35150000Y-116000000D01*
X35150000Y-115233337D01*
X36658085Y-115233337D01*
X36726509Y-115484750D01*
X36982259Y-115611925D01*
X37257906Y-115686762D01*
X37542856Y-115706386D01*
X37826159Y-115670042D01*
X38096928Y-115579125D01*
X38273491Y-115484750D01*
X38332845Y-115266663D01*
X116658085Y-115266663D01*
X117500000Y-116108579D01*
X118341915Y-115266663D01*
X118274294Y-115018197D01*
X128833225Y-115018197D01*
X128949820Y-115310524D01*
X129273674Y-115477615D01*
X129623902Y-115578315D01*
X129987047Y-115608755D01*
X130349152Y-115567762D01*
X130696302Y-115456915D01*
X130970180Y-115310524D01*
X131086775Y-115018197D01*
X133913225Y-115018197D01*
X134029820Y-115310524D01*
X134353674Y-115477615D01*
X134703902Y-115578315D01*
X135067047Y-115608755D01*
X135429152Y-115567762D01*
X135776302Y-115456915D01*
X136050180Y-115310524D01*
X136166775Y-115018197D01*
X135040000Y-113891421D01*
X133913225Y-115018197D01*
X131086775Y-115018197D01*
X129960000Y-113891421D01*
X128833225Y-115018197D01*
X118274294Y-115018197D01*
X118273491Y-115015250D01*
X118017741Y-114888075D01*
X117742094Y-114813238D01*
X117457144Y-114793614D01*
X117173841Y-114829958D01*
X116903072Y-114920875D01*
X116726509Y-115015250D01*
X116658085Y-115266663D01*
X38332845Y-115266663D01*
X38341915Y-115233337D01*
X37500000Y-114391421D01*
X36658085Y-115233337D01*
X35150000Y-115233337D01*
X35150000Y-114292856D01*
X36043614Y-114292856D01*
X36079958Y-114576159D01*
X36170875Y-114846928D01*
X36265250Y-115023491D01*
X36516663Y-115091915D01*
X37358579Y-114250000D01*
X37641421Y-114250000D01*
X38483337Y-115091915D01*
X38734750Y-115023491D01*
X38861925Y-114767741D01*
X38936762Y-114492094D01*
X38956386Y-114207144D01*
X38920042Y-113923841D01*
X38870753Y-113777047D01*
X128101245Y-113777047D01*
X128142238Y-114139152D01*
X128253085Y-114486302D01*
X128399476Y-114760180D01*
X128691803Y-114876775D01*
X129818579Y-113750000D01*
X130101421Y-113750000D01*
X131228197Y-114876775D01*
X131520524Y-114760180D01*
X131687615Y-114436326D01*
X131788315Y-114086098D01*
X131814220Y-113777047D01*
X133181245Y-113777047D01*
X133222238Y-114139152D01*
X133333085Y-114486302D01*
X133479476Y-114760180D01*
X133771803Y-114876775D01*
X134898579Y-113750000D01*
X135181421Y-113750000D01*
X136308197Y-114876775D01*
X136600524Y-114760180D01*
X136767615Y-114436326D01*
X136868315Y-114086098D01*
X136898755Y-113722953D01*
X136857762Y-113360848D01*
X136746915Y-113013698D01*
X136600524Y-112739820D01*
X136308197Y-112623225D01*
X135181421Y-113750000D01*
X134898579Y-113750000D01*
X133771803Y-112623225D01*
X133479476Y-112739820D01*
X133312385Y-113063674D01*
X133211685Y-113413902D01*
X133181245Y-113777047D01*
X131814220Y-113777047D01*
X131818755Y-113722953D01*
X131777762Y-113360848D01*
X131666915Y-113013698D01*
X131520524Y-112739820D01*
X131228197Y-112623225D01*
X130101421Y-113750000D01*
X129818579Y-113750000D01*
X128691803Y-112623225D01*
X128399476Y-112739820D01*
X128232385Y-113063674D01*
X128131685Y-113413902D01*
X128101245Y-113777047D01*
X38870753Y-113777047D01*
X38829125Y-113653072D01*
X38734750Y-113476509D01*
X38483337Y-113408085D01*
X37641421Y-114250000D01*
X37358579Y-114250000D01*
X36516663Y-113408085D01*
X36265250Y-113476509D01*
X36138075Y-113732259D01*
X36063238Y-114007906D01*
X36043614Y-114292856D01*
X35150000Y-114292856D01*
X35150000Y-113266663D01*
X36658085Y-113266663D01*
X37500000Y-114108579D01*
X38341915Y-113266663D01*
X38273491Y-113015250D01*
X38017741Y-112888075D01*
X37742094Y-112813238D01*
X37457144Y-112793614D01*
X37173841Y-112829958D01*
X36903072Y-112920875D01*
X36726509Y-113015250D01*
X36658085Y-113266663D01*
X35150000Y-113266663D01*
X35150000Y-111126886D01*
X116250000Y-111126886D01*
X116250000Y-111373114D01*
X116298037Y-111614611D01*
X116392265Y-111842097D01*
X116529062Y-112046828D01*
X116703172Y-112220938D01*
X116907903Y-112357735D01*
X117135389Y-112451963D01*
X117376886Y-112500000D01*
X117623114Y-112500000D01*
X117714596Y-112481803D01*
X128833225Y-112481803D01*
X129960000Y-113608579D01*
X131086775Y-112481803D01*
X133913225Y-112481803D01*
X135040000Y-113608579D01*
X136166775Y-112481803D01*
X136050180Y-112189476D01*
X135726326Y-112022385D01*
X135376098Y-111921685D01*
X135012953Y-111891245D01*
X134650848Y-111932238D01*
X134303698Y-112043085D01*
X134029820Y-112189476D01*
X133913225Y-112481803D01*
X131086775Y-112481803D01*
X130970180Y-112189476D01*
X130646326Y-112022385D01*
X130296098Y-111921685D01*
X129932953Y-111891245D01*
X129570848Y-111932238D01*
X129223698Y-112043085D01*
X128949820Y-112189476D01*
X128833225Y-112481803D01*
X117714596Y-112481803D01*
X117864611Y-112451963D01*
X118092097Y-112357735D01*
X118296828Y-112220938D01*
X118470938Y-112046828D01*
X118607735Y-111842097D01*
X118701963Y-111614611D01*
X118750000Y-111373114D01*
X118750000Y-111126886D01*
X118701963Y-110885389D01*
X118607735Y-110657903D01*
X118470938Y-110453172D01*
X118296828Y-110279062D01*
X118092097Y-110142265D01*
X117864611Y-110048037D01*
X117623114Y-110000000D01*
X117376886Y-110000000D01*
X117135389Y-110048037D01*
X116907903Y-110142265D01*
X116703172Y-110279062D01*
X116529062Y-110453172D01*
X116392265Y-110657903D01*
X116298037Y-110885389D01*
X116250000Y-111126886D01*
X35150000Y-111126886D01*
X35150000Y-108850000D01*
X36450000Y-108850000D01*
X36450000Y-109250000D01*
X36499292Y-109550469D01*
X36606255Y-109835548D01*
X36766779Y-110094282D01*
X36974695Y-110316727D01*
X37222013Y-110494336D01*
X37499229Y-110620283D01*
X37659263Y-110662084D01*
X37900000Y-110533892D01*
X37900000Y-108850000D01*
X38100000Y-108850000D01*
X38100000Y-110533892D01*
X38340737Y-110662084D01*
X38500771Y-110620283D01*
X38777987Y-110494336D01*
X39025305Y-110316727D01*
X39233221Y-110094282D01*
X39393745Y-109835548D01*
X39500708Y-109550469D01*
X39550000Y-109250000D01*
X39550000Y-108850000D01*
X38100000Y-108850000D01*
X37900000Y-108850000D01*
X36450000Y-108850000D01*
X35150000Y-108850000D01*
X35150000Y-108250000D01*
X36450000Y-108250000D01*
X36450000Y-108650000D01*
X37900000Y-108650000D01*
X37900000Y-106966108D01*
X38100000Y-106966108D01*
X38100000Y-108650000D01*
X39550000Y-108650000D01*
X39550000Y-108250000D01*
X39500708Y-107949531D01*
X39393745Y-107664452D01*
X39233221Y-107405718D01*
X39025305Y-107183273D01*
X38777987Y-107005664D01*
X38500771Y-106879717D01*
X38340737Y-106837916D01*
X38100000Y-106966108D01*
X37900000Y-106966108D01*
X37659263Y-106837916D01*
X37499229Y-106879717D01*
X37222013Y-107005664D01*
X36974695Y-107183273D01*
X36766779Y-107405718D01*
X36606255Y-107664452D01*
X36499292Y-107949531D01*
X36450000Y-108250000D01*
X35150000Y-108250000D01*
X35150000Y-107312132D01*
X37478795Y-104983337D01*
X41408085Y-104983337D01*
X41476509Y-105234750D01*
X41732259Y-105361925D01*
X42007906Y-105436762D01*
X42292856Y-105456386D01*
X42576159Y-105420042D01*
X42846928Y-105329125D01*
X43023491Y-105234750D01*
X43091915Y-104983337D01*
X42250000Y-104141421D01*
X41408085Y-104983337D01*
X37478795Y-104983337D01*
X38419276Y-104042856D01*
X40793614Y-104042856D01*
X40829958Y-104326159D01*
X40920875Y-104596928D01*
X41015250Y-104773491D01*
X41266663Y-104841915D01*
X42108579Y-104000000D01*
X42391421Y-104000000D01*
X43233337Y-104841915D01*
X43484750Y-104773491D01*
X43611925Y-104517741D01*
X43686762Y-104242094D01*
X43706386Y-103957144D01*
X43670042Y-103673841D01*
X43579125Y-103403072D01*
X43484750Y-103226509D01*
X43233337Y-103158085D01*
X42391421Y-104000000D01*
X42108579Y-104000000D01*
X41266663Y-103158085D01*
X41015250Y-103226509D01*
X40888075Y-103482259D01*
X40813238Y-103757906D01*
X40793614Y-104042856D01*
X38419276Y-104042856D01*
X39445469Y-103016663D01*
X41408085Y-103016663D01*
X42250000Y-103858579D01*
X43091915Y-103016663D01*
X43023491Y-102765250D01*
X42767741Y-102638075D01*
X42492094Y-102563238D01*
X42207144Y-102543614D01*
X41923841Y-102579958D01*
X41653072Y-102670875D01*
X41476509Y-102765250D01*
X41408085Y-103016663D01*
X39445469Y-103016663D01*
X40062132Y-102400000D01*
X49687868Y-102400000D01*
X57393934Y-110106066D01*
%TD*%
M02*
