%TF.GenerationSoftware,KiCad,Pcbnew,(5.1.6-0)*%
%TF.CreationDate,2024-01-23T19:11:50-08:00*%
%TF.ProjectId,psu_4caps,7073755f-3463-4617-9073-2e6b69636164,rev?*%
%TF.SameCoordinates,Original*%
%TF.FileFunction,Soldermask,Bot*%
%TF.FilePolarity,Negative*%
%FSLAX46Y46*%
G04 Gerber Fmt 4.6, Leading zero omitted, Abs format (unit mm)*
G04 Created by KiCad (PCBNEW (5.1.6-0)) date 2024-01-23 19:11:50*
%MOMM*%
%LPD*%
G01*
G04 APERTURE LIST*
%ADD10C,2.100000*%
%ADD11C,1.700000*%
%ADD12C,0.900000*%
%ADD13C,6.500000*%
%ADD14C,4.100000*%
%ADD15R,4.100000X4.100000*%
%ADD16C,2.500000*%
%ADD17C,2.400000*%
%ADD18R,2.400000X2.400000*%
%ADD19O,1.700000X1.700000*%
%ADD20O,1.900000X2.700000*%
G04 APERTURE END LIST*
D10*
%TO.C,J13*%
X143000000Y-91500000D03*
X143000000Y-95000000D03*
X143000000Y-98500000D03*
%TD*%
D11*
%TO.C,C6*%
X55500000Y-99000000D03*
X55500000Y-104000000D03*
%TD*%
%TO.C,C5*%
X50000000Y-114500000D03*
X45000000Y-114500000D03*
%TD*%
%TO.C,C4*%
X45000000Y-78000000D03*
X50000000Y-78000000D03*
%TD*%
%TO.C,C3*%
X55500000Y-86250000D03*
X55500000Y-91250000D03*
%TD*%
D12*
%TO.C,H5*%
X93447056Y-93302944D03*
X91750000Y-92600000D03*
X90052944Y-93302944D03*
X89350000Y-95000000D03*
X90052944Y-96697056D03*
X91750000Y-97400000D03*
X93447056Y-96697056D03*
X94150000Y-95000000D03*
D13*
X91750000Y-95000000D03*
%TD*%
D14*
%TO.C,C10*%
X109750000Y-72000000D03*
D15*
X109750000Y-82000000D03*
%TD*%
D14*
%TO.C,C9*%
X109750000Y-108000000D03*
D15*
X109750000Y-118000000D03*
%TD*%
D14*
%TO.C,C8*%
X74000000Y-72000000D03*
D15*
X74000000Y-82000000D03*
%TD*%
D14*
%TO.C,C7*%
X74000000Y-108000000D03*
D15*
X74000000Y-118000000D03*
%TD*%
D16*
%TO.C,J12*%
X142540000Y-81250000D03*
X137460000Y-81250000D03*
%TD*%
%TO.C,J11*%
X142540000Y-75000000D03*
X137460000Y-75000000D03*
%TD*%
%TO.C,J10*%
X139290000Y-98750000D03*
X134210000Y-98750000D03*
%TD*%
%TO.C,J9*%
X139290000Y-91250000D03*
X134210000Y-91250000D03*
%TD*%
%TO.C,J8*%
X142540000Y-108500000D03*
X137460000Y-108500000D03*
%TD*%
%TO.C,J7*%
X142540000Y-115000000D03*
X137460000Y-115000000D03*
%TD*%
%TO.C,J4*%
X45040000Y-85000000D03*
X39960000Y-85000000D03*
%TD*%
%TO.C,J3*%
X45040000Y-98750000D03*
X39960000Y-98750000D03*
%TD*%
%TO.C,J2*%
X45040000Y-91250000D03*
X39960000Y-91250000D03*
%TD*%
%TO.C,J1*%
X45040000Y-105000000D03*
X39960000Y-105000000D03*
%TD*%
D11*
%TO.C,C2*%
X50000000Y-74000000D03*
X45000000Y-74000000D03*
%TD*%
%TO.C,C1*%
X50000000Y-118500000D03*
X45000000Y-118500000D03*
%TD*%
D12*
%TO.C,H4*%
X142947056Y-125802944D03*
X141250000Y-125100000D03*
X139552944Y-125802944D03*
X138850000Y-127500000D03*
X139552944Y-129197056D03*
X141250000Y-129900000D03*
X142947056Y-129197056D03*
X143650000Y-127500000D03*
D13*
X141250000Y-127500000D03*
%TD*%
D12*
%TO.C,H3*%
X142947056Y-60802944D03*
X141250000Y-60100000D03*
X139552944Y-60802944D03*
X138850000Y-62500000D03*
X139552944Y-64197056D03*
X141250000Y-64900000D03*
X142947056Y-64197056D03*
X143650000Y-62500000D03*
D13*
X141250000Y-62500000D03*
%TD*%
D12*
%TO.C,H2*%
X42947056Y-60802944D03*
X41250000Y-60100000D03*
X39552944Y-60802944D03*
X38850000Y-62500000D03*
X39552944Y-64197056D03*
X41250000Y-64900000D03*
X42947056Y-64197056D03*
X43650000Y-62500000D03*
D13*
X41250000Y-62500000D03*
%TD*%
D12*
%TO.C,H1*%
X42947056Y-125802944D03*
X41250000Y-125100000D03*
X39552944Y-125802944D03*
X38850000Y-127500000D03*
X39552944Y-129197056D03*
X41250000Y-129900000D03*
X42947056Y-129197056D03*
X43650000Y-127500000D03*
D13*
X41250000Y-127500000D03*
%TD*%
D17*
%TO.C,J6*%
X130000000Y-63750000D03*
D18*
X133500000Y-63750000D03*
%TD*%
D17*
%TO.C,J5*%
X133500000Y-126000000D03*
D18*
X130000000Y-126000000D03*
%TD*%
D19*
%TO.C,R2*%
X129250000Y-73090000D03*
D11*
X129250000Y-83250000D03*
%TD*%
D19*
%TO.C,R1*%
X129250000Y-98340000D03*
D11*
X129250000Y-108500000D03*
%TD*%
D20*
%TO.C,D1*%
X50500000Y-83750000D03*
X50500000Y-91250000D03*
X50500000Y-98750000D03*
X50500000Y-108750000D03*
%TD*%
D11*
%TO.C,C12*%
X129250000Y-86250000D03*
X129250000Y-91250000D03*
%TD*%
%TO.C,C11*%
X129250000Y-111250000D03*
X129250000Y-116250000D03*
%TD*%
M02*
